G04 #@! TF.FileFunction,Copper,L2,Bot,Signal*
%FSLAX46Y46*%
G04 Gerber Fmt 4.6, Leading zero omitted, Abs format (unit mm)*
G04 Created by KiCad (PCBNEW 0.201509111501+6183~30~ubuntu14.04.1-product) date Sun 13 Sep 2015 08:24:29 PM CDT*
%MOMM*%
G01*
G04 APERTURE LIST*
%ADD10C,0.100000*%
%ADD11C,0.150000*%
%ADD12C,4.064000*%
%ADD13C,1.300000*%
%ADD14R,1.300000X1.300000*%
%ADD15R,1.727200X1.727200*%
%ADD16O,1.727200X1.727200*%
%ADD17R,2.032000X2.032000*%
%ADD18O,2.032000X2.032000*%
%ADD19R,2.032000X1.727200*%
%ADD20O,2.032000X1.727200*%
%ADD21R,1.727200X2.032000*%
%ADD22O,1.727200X2.032000*%
%ADD23C,1.397000*%
%ADD24R,0.800100X0.800100*%
%ADD25R,3.000000X1.727200*%
%ADD26O,3.000000X1.727200*%
%ADD27C,0.600000*%
%ADD28C,0.500000*%
%ADD29C,0.254000*%
G04 APERTURE END LIST*
D10*
D11*
X97155000Y-105410000D02*
X92075000Y-120650000D01*
X97155000Y-95250000D02*
X92075000Y-81280000D01*
X247650000Y-105410000D02*
X97155000Y-105410000D01*
X247650000Y-95250000D02*
X247650000Y-105410000D01*
X97155000Y-95250000D02*
X247650000Y-95250000D01*
X31115000Y-120650000D02*
X31115000Y-81290000D01*
X92075000Y-120650000D02*
X31115000Y-120650000D01*
X31115000Y-81280000D02*
X92075000Y-81280000D01*
D12*
X88900000Y-85090000D03*
X88900000Y-116840000D03*
X34925000Y-116840000D03*
D13*
X89916000Y-106720000D03*
D14*
X89916000Y-109220000D03*
D15*
X79248000Y-113284000D03*
D16*
X79248000Y-115824000D03*
X76708000Y-113284000D03*
X76708000Y-115824000D03*
X74168000Y-113284000D03*
X74168000Y-115824000D03*
D17*
X35560000Y-103505000D03*
D18*
X35560000Y-106045000D03*
D17*
X41910000Y-105410000D03*
D18*
X44450000Y-105410000D03*
D19*
X35560000Y-92710000D03*
D20*
X35560000Y-95250000D03*
X35560000Y-97790000D03*
D21*
X82296000Y-85344000D03*
D22*
X79756000Y-85344000D03*
X77216000Y-85344000D03*
X74676000Y-85344000D03*
X72136000Y-85344000D03*
X69596000Y-85344000D03*
D23*
X43688000Y-110998000D03*
X48768000Y-110998000D03*
X43688000Y-118618000D03*
X48768000Y-118618000D03*
X53340000Y-110998000D03*
X58420000Y-110998000D03*
X53340000Y-118618000D03*
X58420000Y-118618000D03*
X62992000Y-110998000D03*
X68072000Y-110998000D03*
X62992000Y-118618000D03*
X68072000Y-118618000D03*
X56769000Y-90424000D03*
X56769000Y-85344000D03*
X64389000Y-90424000D03*
X64389000Y-85344000D03*
D24*
X86121240Y-101280000D03*
X86121240Y-99380000D03*
X88120220Y-100330000D03*
D25*
X43180000Y-85725000D03*
D26*
X43180000Y-88265000D03*
X43180000Y-90805000D03*
D12*
X34925000Y-85090000D03*
D27*
X88138000Y-97282000D03*
X58420000Y-105918000D03*
X80518000Y-94742000D03*
X48006000Y-101346000D03*
X78740000Y-99568000D03*
X60960000Y-99314000D03*
X60960000Y-94996000D03*
X84836000Y-106680000D03*
X238760000Y-102108000D03*
X229870000Y-102108000D03*
X220980000Y-102108000D03*
X212090000Y-102108000D03*
X203200000Y-102108000D03*
X194310000Y-102108000D03*
X185420000Y-102108000D03*
X176530000Y-102108000D03*
X167640000Y-102108000D03*
X158750000Y-102108000D03*
X149860000Y-102108000D03*
X140970000Y-102108000D03*
X132080000Y-102108000D03*
X123190000Y-102108000D03*
X114300000Y-102108000D03*
X105410000Y-102108000D03*
X96520000Y-102108000D03*
X88646000Y-92710000D03*
X43434000Y-96774000D03*
X84582000Y-100076000D03*
X78740000Y-92964000D03*
X67818000Y-89662000D03*
X62484000Y-92964000D03*
X83820000Y-95250000D03*
X70612000Y-98044000D03*
X77978000Y-98044000D03*
X78740000Y-107696000D03*
X79248000Y-104394000D03*
X76962000Y-103632000D03*
X77216000Y-100330000D03*
X71628000Y-110236000D03*
X71628000Y-107950000D03*
X73152000Y-101346000D03*
X52578000Y-87630000D03*
X51816000Y-88392000D03*
X38608000Y-96012000D03*
X54610000Y-89154000D03*
X47244000Y-108204000D03*
X50546000Y-108204000D03*
X56134000Y-110236000D03*
X67564000Y-108204000D03*
X65786000Y-110236000D03*
X69088000Y-108204000D03*
D28*
X89916000Y-104140000D02*
X89916000Y-106720000D01*
X89916000Y-106720000D02*
X89916000Y-105664000D01*
X91400000Y-104180000D02*
X93472000Y-102108000D01*
X93472000Y-102108000D02*
X96520000Y-102108000D01*
X89916000Y-105664000D02*
X91400000Y-104180000D01*
X85852000Y-106680000D02*
X89876000Y-106680000D01*
X89876000Y-106680000D02*
X89916000Y-106720000D01*
X88120220Y-100330000D02*
X88120220Y-97299780D01*
X88120220Y-97299780D02*
X88138000Y-97282000D01*
X48768000Y-110998000D02*
X50038000Y-110998000D01*
X56134000Y-108204000D02*
X58420000Y-105918000D01*
X52832000Y-108204000D02*
X56134000Y-108204000D01*
X50038000Y-110998000D02*
X52832000Y-108204000D01*
X86614000Y-90678000D02*
X84582000Y-90678000D01*
X84582000Y-90678000D02*
X80518000Y-94742000D01*
X56769000Y-90424000D02*
X51054000Y-90424000D01*
X48006000Y-93472000D02*
X48006000Y-101346000D01*
X51054000Y-90424000D02*
X48006000Y-93472000D01*
X48768000Y-113538000D02*
X45212000Y-109982000D01*
X45212000Y-109982000D02*
X45212000Y-108204000D01*
X58420000Y-113538000D02*
X56642000Y-115316000D01*
X50546000Y-115316000D02*
X48768000Y-113538000D01*
X56642000Y-115316000D02*
X50546000Y-115316000D01*
X68072000Y-118618000D02*
X68072000Y-116586000D01*
X60198000Y-115316000D02*
X58420000Y-113538000D01*
X66802000Y-115316000D02*
X60198000Y-115316000D01*
X68072000Y-116586000D02*
X66802000Y-115316000D01*
X38608000Y-104140000D02*
X38608000Y-106680000D01*
X38608000Y-106680000D02*
X40132000Y-108204000D01*
X40132000Y-108204000D02*
X45212000Y-108204000D01*
X45212000Y-108204000D02*
X48006000Y-105410000D01*
X48006000Y-105410000D02*
X48006000Y-101346000D01*
X88646000Y-92710000D02*
X86614000Y-90678000D01*
X86614000Y-90678000D02*
X84074000Y-88138000D01*
X66675000Y-88138000D02*
X64389000Y-90424000D01*
X84074000Y-88138000D02*
X66675000Y-88138000D01*
X74168000Y-115824000D02*
X72644000Y-115824000D01*
X69850000Y-118618000D02*
X68072000Y-118618000D01*
X72644000Y-115824000D02*
X69850000Y-118618000D01*
X68072000Y-118618000D02*
X68072000Y-110998000D01*
X58420000Y-118618000D02*
X58420000Y-113538000D01*
X58420000Y-113538000D02*
X58420000Y-110998000D01*
X48768000Y-118618000D02*
X48768000Y-113538000D01*
X48768000Y-113538000D02*
X48768000Y-110998000D01*
X84836000Y-106680000D02*
X83566000Y-106680000D01*
X78740000Y-101854000D02*
X78740000Y-99568000D01*
X83566000Y-106680000D02*
X78740000Y-101854000D01*
X60960000Y-94996000D02*
X60960000Y-99314000D01*
X59690000Y-90424000D02*
X64389000Y-90424000D01*
X59690000Y-90424000D02*
X56769000Y-90424000D01*
X60960000Y-91694000D02*
X59690000Y-90424000D01*
X60960000Y-94996000D02*
X60960000Y-91694000D01*
X85852000Y-106680000D02*
X85852000Y-115062000D01*
X76200000Y-117856000D02*
X74168000Y-115824000D01*
X83058000Y-117856000D02*
X76200000Y-117856000D01*
X85852000Y-115062000D02*
X83058000Y-117856000D01*
X85852000Y-106680000D02*
X84836000Y-106680000D01*
X229870000Y-102108000D02*
X238760000Y-102108000D01*
X229870000Y-102108000D02*
X220980000Y-102108000D01*
X212090000Y-102108000D02*
X220980000Y-102108000D01*
X212090000Y-102108000D02*
X203200000Y-102108000D01*
X194310000Y-102108000D02*
X203200000Y-102108000D01*
X194310000Y-102108000D02*
X185420000Y-102108000D01*
X176530000Y-102108000D02*
X185420000Y-102108000D01*
X176530000Y-102108000D02*
X167640000Y-102108000D01*
X158750000Y-102108000D02*
X167640000Y-102108000D01*
X158750000Y-102108000D02*
X149860000Y-102108000D01*
X140970000Y-102108000D02*
X149860000Y-102108000D01*
X140970000Y-102108000D02*
X132080000Y-102108000D01*
X123190000Y-102108000D02*
X132080000Y-102108000D01*
X123190000Y-102108000D02*
X114300000Y-102108000D01*
X105410000Y-102108000D02*
X114300000Y-102108000D01*
X105410000Y-102108000D02*
X96520000Y-102108000D01*
X89916000Y-93980000D02*
X89916000Y-104140000D01*
X89916000Y-104140000D02*
X89916000Y-104180000D01*
X88646000Y-92710000D02*
X89916000Y-93980000D01*
X43180000Y-88265000D02*
X41529000Y-88265000D01*
X43434000Y-94996000D02*
X43434000Y-96774000D01*
X40894000Y-92456000D02*
X43434000Y-94996000D01*
X40894000Y-88900000D02*
X40894000Y-92456000D01*
X41529000Y-88265000D02*
X40894000Y-88900000D01*
X36957000Y-106045000D02*
X35560000Y-106045000D01*
X38608000Y-104394000D02*
X36957000Y-106045000D01*
X38608000Y-98298000D02*
X38608000Y-104140000D01*
X38608000Y-104140000D02*
X38608000Y-104394000D01*
X40132000Y-96774000D02*
X38608000Y-98298000D01*
X43434000Y-96774000D02*
X40132000Y-96774000D01*
X86121240Y-101280000D02*
X85024000Y-101280000D01*
X84582000Y-100838000D02*
X84582000Y-100076000D01*
X85024000Y-101280000D02*
X84582000Y-100838000D01*
X84582000Y-100076000D02*
X84648000Y-100010000D01*
X66040000Y-92964000D02*
X78740000Y-92964000D01*
X62484000Y-92964000D02*
X66040000Y-92964000D01*
X66040000Y-92964000D02*
X67818000Y-91186000D01*
X67818000Y-91186000D02*
X67818000Y-89662000D01*
X86121240Y-99380000D02*
X86121240Y-97805240D01*
X83820000Y-96266000D02*
X83820000Y-95250000D01*
X84582000Y-97028000D02*
X83820000Y-96266000D01*
X85344000Y-97028000D02*
X84582000Y-97028000D01*
X86121240Y-97805240D02*
X85344000Y-97028000D01*
X70612000Y-98044000D02*
X77978000Y-98044000D01*
X79248000Y-108204000D02*
X79248000Y-113284000D01*
X78740000Y-107696000D02*
X79248000Y-108204000D01*
X79248000Y-104394000D02*
X77724000Y-104394000D01*
X77724000Y-104394000D02*
X76962000Y-103632000D01*
X76962000Y-109474000D02*
X76962000Y-113030000D01*
X76962000Y-113030000D02*
X76708000Y-113284000D01*
X76962000Y-103632000D02*
X76962000Y-109474000D01*
X76962000Y-109474000D02*
X76962000Y-110236000D01*
X71628000Y-107950000D02*
X71628000Y-105918000D01*
X71628000Y-105918000D02*
X77216000Y-100330000D01*
X71628000Y-107950000D02*
X71628000Y-110236000D01*
X72644000Y-113284000D02*
X74168000Y-113284000D01*
X70612000Y-111252000D02*
X72644000Y-113284000D01*
X70612000Y-103886000D02*
X70612000Y-111252000D01*
X73152000Y-101346000D02*
X70612000Y-103886000D01*
X52578000Y-87630000D02*
X50038000Y-87630000D01*
X50038000Y-87630000D02*
X48768000Y-88900000D01*
X44958000Y-92710000D02*
X48768000Y-88900000D01*
X44958000Y-92710000D02*
X44958000Y-102362000D01*
X44958000Y-102362000D02*
X41910000Y-105410000D01*
X46228000Y-92964000D02*
X50800000Y-88392000D01*
X46228000Y-92964000D02*
X46228000Y-103632000D01*
X46228000Y-103632000D02*
X44450000Y-105410000D01*
X50800000Y-88392000D02*
X51816000Y-88392000D01*
X38608000Y-85090000D02*
X38608000Y-96012000D01*
X40386000Y-83312000D02*
X38608000Y-85090000D01*
X52070000Y-83312000D02*
X40386000Y-83312000D01*
X54610000Y-85852000D02*
X52070000Y-83312000D01*
X54610000Y-89154000D02*
X54610000Y-85852000D01*
X47244000Y-108204000D02*
X50546000Y-108204000D01*
X67564000Y-108204000D02*
X58166000Y-108204000D01*
X58166000Y-108204000D02*
X56134000Y-110236000D01*
X66802000Y-109220000D02*
X65786000Y-110236000D01*
X68072000Y-109220000D02*
X66802000Y-109220000D01*
X69088000Y-108204000D02*
X68072000Y-109220000D01*
D29*
G36*
X96487747Y-95492638D02*
X96495957Y-95506177D01*
X96499046Y-95521705D01*
X96567504Y-95624160D01*
X96631392Y-95729514D01*
X96644156Y-95738879D01*
X96652954Y-95752046D01*
X96755408Y-95820503D01*
X96854751Y-95893390D01*
X96870131Y-95897158D01*
X96883295Y-95905954D01*
X97004138Y-95929991D01*
X97123821Y-95959315D01*
X97139471Y-95956911D01*
X97155000Y-95960000D01*
X246940000Y-95960000D01*
X246940000Y-104700000D01*
X97155000Y-104700000D01*
X97129980Y-104704977D01*
X97104669Y-104701786D01*
X96994899Y-104731846D01*
X96883295Y-104754046D01*
X96862086Y-104768217D01*
X96837478Y-104774956D01*
X96747572Y-104844733D01*
X96652954Y-104907954D01*
X96638780Y-104929167D01*
X96618628Y-104944807D01*
X96562270Y-105043673D01*
X96499046Y-105138295D01*
X96494069Y-105163314D01*
X96481435Y-105185478D01*
X91563261Y-119940000D01*
X68319891Y-119940000D01*
X68409199Y-119935148D01*
X68764929Y-119787800D01*
X68826583Y-119552188D01*
X68072000Y-118797605D01*
X67317417Y-119552188D01*
X67379071Y-119787800D01*
X67811499Y-119940000D01*
X63284477Y-119940000D01*
X63746380Y-119749146D01*
X64121827Y-119374353D01*
X64325268Y-118884413D01*
X64325668Y-118425480D01*
X66726073Y-118425480D01*
X66754852Y-118955199D01*
X66902200Y-119310929D01*
X67137812Y-119372583D01*
X67892395Y-118618000D01*
X68251605Y-118618000D01*
X69006188Y-119372583D01*
X69241800Y-119310929D01*
X69417927Y-118810520D01*
X69389148Y-118280801D01*
X69241800Y-117925071D01*
X69006188Y-117863417D01*
X68251605Y-118618000D01*
X67892395Y-118618000D01*
X67137812Y-117863417D01*
X66902200Y-117925071D01*
X66726073Y-118425480D01*
X64325668Y-118425480D01*
X64325731Y-118353914D01*
X64123146Y-117863620D01*
X63943652Y-117683812D01*
X67317417Y-117683812D01*
X68072000Y-118438395D01*
X68826583Y-117683812D01*
X68764929Y-117448200D01*
X68537555Y-117368172D01*
X86232538Y-117368172D01*
X86637709Y-118348761D01*
X87387293Y-119099655D01*
X88367173Y-119506536D01*
X89428172Y-119507462D01*
X90408761Y-119102291D01*
X91159655Y-118352707D01*
X91566536Y-117372827D01*
X91567462Y-116311828D01*
X91162291Y-115331239D01*
X90412707Y-114580345D01*
X89432827Y-114173464D01*
X88371828Y-114172538D01*
X87391239Y-114577709D01*
X86640345Y-115327293D01*
X86233464Y-116307173D01*
X86232538Y-117368172D01*
X68537555Y-117368172D01*
X68264520Y-117272073D01*
X67734801Y-117300852D01*
X67379071Y-117448200D01*
X67317417Y-117683812D01*
X63943652Y-117683812D01*
X63748353Y-117488173D01*
X63258413Y-117284732D01*
X62727914Y-117284269D01*
X62237620Y-117486854D01*
X61862173Y-117861647D01*
X61658732Y-118351587D01*
X61658269Y-118882086D01*
X61860854Y-119372380D01*
X62235647Y-119747827D01*
X62698451Y-119940000D01*
X58667891Y-119940000D01*
X58757199Y-119935148D01*
X59112929Y-119787800D01*
X59174583Y-119552188D01*
X58420000Y-118797605D01*
X57665417Y-119552188D01*
X57727071Y-119787800D01*
X58159499Y-119940000D01*
X53632477Y-119940000D01*
X54094380Y-119749146D01*
X54469827Y-119374353D01*
X54673268Y-118884413D01*
X54673668Y-118425480D01*
X57074073Y-118425480D01*
X57102852Y-118955199D01*
X57250200Y-119310929D01*
X57485812Y-119372583D01*
X58240395Y-118618000D01*
X58599605Y-118618000D01*
X59354188Y-119372583D01*
X59589800Y-119310929D01*
X59765927Y-118810520D01*
X59737148Y-118280801D01*
X59589800Y-117925071D01*
X59354188Y-117863417D01*
X58599605Y-118618000D01*
X58240395Y-118618000D01*
X57485812Y-117863417D01*
X57250200Y-117925071D01*
X57074073Y-118425480D01*
X54673668Y-118425480D01*
X54673731Y-118353914D01*
X54471146Y-117863620D01*
X54291652Y-117683812D01*
X57665417Y-117683812D01*
X58420000Y-118438395D01*
X59174583Y-117683812D01*
X59112929Y-117448200D01*
X58612520Y-117272073D01*
X58082801Y-117300852D01*
X57727071Y-117448200D01*
X57665417Y-117683812D01*
X54291652Y-117683812D01*
X54096353Y-117488173D01*
X53606413Y-117284732D01*
X53075914Y-117284269D01*
X52585620Y-117486854D01*
X52210173Y-117861647D01*
X52006732Y-118351587D01*
X52006269Y-118882086D01*
X52208854Y-119372380D01*
X52583647Y-119747827D01*
X53046451Y-119940000D01*
X49015891Y-119940000D01*
X49105199Y-119935148D01*
X49460929Y-119787800D01*
X49522583Y-119552188D01*
X48768000Y-118797605D01*
X48013417Y-119552188D01*
X48075071Y-119787800D01*
X48507499Y-119940000D01*
X43980477Y-119940000D01*
X44442380Y-119749146D01*
X44817827Y-119374353D01*
X45021268Y-118884413D01*
X45021668Y-118425480D01*
X47422073Y-118425480D01*
X47450852Y-118955199D01*
X47598200Y-119310929D01*
X47833812Y-119372583D01*
X48588395Y-118618000D01*
X48947605Y-118618000D01*
X49702188Y-119372583D01*
X49937800Y-119310929D01*
X50113927Y-118810520D01*
X50085148Y-118280801D01*
X49937800Y-117925071D01*
X49702188Y-117863417D01*
X48947605Y-118618000D01*
X48588395Y-118618000D01*
X47833812Y-117863417D01*
X47598200Y-117925071D01*
X47422073Y-118425480D01*
X45021668Y-118425480D01*
X45021731Y-118353914D01*
X44819146Y-117863620D01*
X44639652Y-117683812D01*
X48013417Y-117683812D01*
X48768000Y-118438395D01*
X49522583Y-117683812D01*
X49460929Y-117448200D01*
X48960520Y-117272073D01*
X48430801Y-117300852D01*
X48075071Y-117448200D01*
X48013417Y-117683812D01*
X44639652Y-117683812D01*
X44444353Y-117488173D01*
X43954413Y-117284732D01*
X43423914Y-117284269D01*
X42933620Y-117486854D01*
X42558173Y-117861647D01*
X42354732Y-118351587D01*
X42354269Y-118882086D01*
X42556854Y-119372380D01*
X42931647Y-119747827D01*
X43394451Y-119940000D01*
X31825000Y-119940000D01*
X31825000Y-117368172D01*
X32257538Y-117368172D01*
X32662709Y-118348761D01*
X33412293Y-119099655D01*
X34392173Y-119506536D01*
X35453172Y-119507462D01*
X36433761Y-119102291D01*
X37184655Y-118352707D01*
X37591536Y-117372827D01*
X37592462Y-116311828D01*
X37539243Y-116183027D01*
X72713032Y-116183027D01*
X72961179Y-116712490D01*
X73393053Y-117106688D01*
X73808974Y-117278958D01*
X74041000Y-117157817D01*
X74041000Y-115951000D01*
X72833531Y-115951000D01*
X72713032Y-116183027D01*
X37539243Y-116183027D01*
X37187291Y-115331239D01*
X36437707Y-114580345D01*
X35457827Y-114173464D01*
X34396828Y-114172538D01*
X33416239Y-114577709D01*
X32665345Y-115327293D01*
X32258464Y-116307173D01*
X32257538Y-117368172D01*
X31825000Y-117368172D01*
X31825000Y-111262086D01*
X42354269Y-111262086D01*
X42556854Y-111752380D01*
X42931647Y-112127827D01*
X43421587Y-112331268D01*
X43952086Y-112331731D01*
X44442380Y-112129146D01*
X44639681Y-111932188D01*
X48013417Y-111932188D01*
X48075071Y-112167800D01*
X48575480Y-112343927D01*
X49105199Y-112315148D01*
X49460929Y-112167800D01*
X49522583Y-111932188D01*
X48768000Y-111177605D01*
X48013417Y-111932188D01*
X44639681Y-111932188D01*
X44817827Y-111754353D01*
X45021268Y-111264413D01*
X45021668Y-110805480D01*
X47422073Y-110805480D01*
X47450852Y-111335199D01*
X47598200Y-111690929D01*
X47833812Y-111752583D01*
X48588395Y-110998000D01*
X48947605Y-110998000D01*
X49702188Y-111752583D01*
X49937800Y-111690929D01*
X50088738Y-111262086D01*
X52006269Y-111262086D01*
X52208854Y-111752380D01*
X52583647Y-112127827D01*
X53073587Y-112331268D01*
X53604086Y-112331731D01*
X54094380Y-112129146D01*
X54291681Y-111932188D01*
X57665417Y-111932188D01*
X57727071Y-112167800D01*
X58227480Y-112343927D01*
X58757199Y-112315148D01*
X59112929Y-112167800D01*
X59174583Y-111932188D01*
X58420000Y-111177605D01*
X57665417Y-111932188D01*
X54291681Y-111932188D01*
X54469827Y-111754353D01*
X54673268Y-111264413D01*
X54673731Y-110733914D01*
X54544507Y-110421167D01*
X55198838Y-110421167D01*
X55340883Y-110764943D01*
X55603673Y-111028192D01*
X55947201Y-111170838D01*
X56319167Y-111171162D01*
X56662943Y-111029117D01*
X56926192Y-110766327D01*
X56976566Y-110645014D01*
X57214186Y-110407394D01*
X57074073Y-110805480D01*
X57102852Y-111335199D01*
X57250200Y-111690929D01*
X57485812Y-111752583D01*
X58240395Y-110998000D01*
X58599605Y-110998000D01*
X59354188Y-111752583D01*
X59589800Y-111690929D01*
X59740738Y-111262086D01*
X61658269Y-111262086D01*
X61860854Y-111752380D01*
X62235647Y-112127827D01*
X62725587Y-112331268D01*
X63256086Y-112331731D01*
X63746380Y-112129146D01*
X63943681Y-111932188D01*
X67317417Y-111932188D01*
X67379071Y-112167800D01*
X67879480Y-112343927D01*
X68409199Y-112315148D01*
X68764929Y-112167800D01*
X68826583Y-111932188D01*
X68072000Y-111177605D01*
X67317417Y-111932188D01*
X63943681Y-111932188D01*
X64121827Y-111754353D01*
X64325268Y-111264413D01*
X64325731Y-110733914D01*
X64123146Y-110243620D01*
X63748353Y-109868173D01*
X63258413Y-109664732D01*
X62727914Y-109664269D01*
X62237620Y-109866854D01*
X61862173Y-110241647D01*
X61658732Y-110731587D01*
X61658269Y-111262086D01*
X59740738Y-111262086D01*
X59765927Y-111190520D01*
X59737148Y-110660801D01*
X59589800Y-110305071D01*
X59354188Y-110243417D01*
X58599605Y-110998000D01*
X58240395Y-110998000D01*
X58226253Y-110983858D01*
X58405858Y-110804253D01*
X58420000Y-110818395D01*
X59174583Y-110063812D01*
X59112929Y-109828200D01*
X58612520Y-109652073D01*
X58082801Y-109680852D01*
X57840267Y-109781313D01*
X58532579Y-109089000D01*
X65681421Y-109089000D01*
X65377164Y-109393256D01*
X65257057Y-109442883D01*
X64993808Y-109705673D01*
X64851162Y-110049201D01*
X64850838Y-110421167D01*
X64992883Y-110764943D01*
X65255673Y-111028192D01*
X65599201Y-111170838D01*
X65971167Y-111171162D01*
X66314943Y-111029117D01*
X66578192Y-110766327D01*
X66628566Y-110645014D01*
X66866186Y-110407394D01*
X66726073Y-110805480D01*
X66754852Y-111335199D01*
X66902200Y-111690929D01*
X67137812Y-111752583D01*
X67892395Y-110998000D01*
X68251605Y-110998000D01*
X69006188Y-111752583D01*
X69241800Y-111690929D01*
X69417927Y-111190520D01*
X69389148Y-110660801D01*
X69241800Y-110305071D01*
X69006188Y-110243417D01*
X68251605Y-110998000D01*
X67892395Y-110998000D01*
X67878253Y-110983858D01*
X68057858Y-110804253D01*
X68072000Y-110818395D01*
X68826583Y-110063812D01*
X68764929Y-109828200D01*
X68728279Y-109815301D01*
X69496835Y-109046745D01*
X69616943Y-108997117D01*
X69727000Y-108887252D01*
X69727000Y-111251995D01*
X69726999Y-111252000D01*
X69743549Y-111335199D01*
X69794367Y-111590675D01*
X69916165Y-111772960D01*
X69986210Y-111877790D01*
X72018208Y-113909787D01*
X72018210Y-113909790D01*
X72305325Y-114101633D01*
X72361516Y-114112810D01*
X72644000Y-114169001D01*
X72644005Y-114169000D01*
X72972002Y-114169000D01*
X73108330Y-114373029D01*
X73379161Y-114553992D01*
X72961179Y-114935510D01*
X72713032Y-115464973D01*
X72833531Y-115697000D01*
X74041000Y-115697000D01*
X74041000Y-115677000D01*
X74295000Y-115677000D01*
X74295000Y-115697000D01*
X74315000Y-115697000D01*
X74315000Y-115951000D01*
X74295000Y-115951000D01*
X74295000Y-117157817D01*
X74527026Y-117278958D01*
X74942947Y-117106688D01*
X75374821Y-116712490D01*
X75432336Y-116589772D01*
X75648330Y-116913029D01*
X76134511Y-117237885D01*
X76708000Y-117351959D01*
X77281489Y-117237885D01*
X77767670Y-116913029D01*
X77978000Y-116598248D01*
X78188330Y-116913029D01*
X78674511Y-117237885D01*
X79248000Y-117351959D01*
X79821489Y-117237885D01*
X80307670Y-116913029D01*
X80632526Y-116426848D01*
X80746600Y-115853359D01*
X80746600Y-115794641D01*
X80632526Y-115221152D01*
X80321426Y-114755558D01*
X80346917Y-114750762D01*
X80563041Y-114611690D01*
X80708031Y-114399490D01*
X80759040Y-114147600D01*
X80759040Y-112420400D01*
X80714762Y-112185083D01*
X80575690Y-111968959D01*
X80363490Y-111823969D01*
X80133000Y-111777294D01*
X80133000Y-108570000D01*
X88618560Y-108570000D01*
X88618560Y-109870000D01*
X88662838Y-110105317D01*
X88801910Y-110321441D01*
X89014110Y-110466431D01*
X89266000Y-110517440D01*
X90566000Y-110517440D01*
X90801317Y-110473162D01*
X91017441Y-110334090D01*
X91162431Y-110121890D01*
X91213440Y-109870000D01*
X91213440Y-108570000D01*
X91169162Y-108334683D01*
X91030090Y-108118559D01*
X90817890Y-107973569D01*
X90566000Y-107922560D01*
X90403615Y-107922560D01*
X90579729Y-107849611D01*
X90635410Y-107619016D01*
X89916000Y-106899605D01*
X89196590Y-107619016D01*
X89252271Y-107849611D01*
X89461902Y-107922560D01*
X89266000Y-107922560D01*
X89030683Y-107966838D01*
X88814559Y-108105910D01*
X88669569Y-108318110D01*
X88618560Y-108570000D01*
X80133000Y-108570000D01*
X80133000Y-108204000D01*
X80065633Y-107865325D01*
X79873790Y-107578210D01*
X79873787Y-107578208D01*
X79582744Y-107287165D01*
X79533117Y-107167057D01*
X79270327Y-106903808D01*
X78926799Y-106761162D01*
X78554833Y-106760838D01*
X78211057Y-106902883D01*
X77947808Y-107165673D01*
X77847000Y-107408444D01*
X77847000Y-106539078D01*
X88618378Y-106539078D01*
X88647917Y-107049428D01*
X88786389Y-107383729D01*
X89016984Y-107439410D01*
X89736395Y-106720000D01*
X90095605Y-106720000D01*
X90815016Y-107439410D01*
X91045611Y-107383729D01*
X91213622Y-106900922D01*
X91184083Y-106390572D01*
X91045611Y-106056271D01*
X90815016Y-106000590D01*
X90095605Y-106720000D01*
X89736395Y-106720000D01*
X89016984Y-106000590D01*
X88786389Y-106056271D01*
X88618378Y-106539078D01*
X77847000Y-106539078D01*
X77847000Y-105820984D01*
X89196590Y-105820984D01*
X89916000Y-106540395D01*
X90635410Y-105820984D01*
X90579729Y-105590389D01*
X90096922Y-105422378D01*
X89586572Y-105451917D01*
X89252271Y-105590389D01*
X89196590Y-105820984D01*
X77847000Y-105820984D01*
X77847000Y-105279000D01*
X78941178Y-105279000D01*
X79061201Y-105328838D01*
X79433167Y-105329162D01*
X79776943Y-105187117D01*
X80040192Y-104924327D01*
X80182838Y-104580799D01*
X80183162Y-104208833D01*
X80041117Y-103865057D01*
X79778327Y-103601808D01*
X79434799Y-103459162D01*
X79062833Y-103458838D01*
X78941431Y-103509000D01*
X78090579Y-103509000D01*
X77804744Y-103223165D01*
X77755117Y-103103057D01*
X77492327Y-102839808D01*
X77148799Y-102697162D01*
X76776833Y-102696838D01*
X76433057Y-102838883D01*
X76169808Y-103101673D01*
X76027162Y-103445201D01*
X76026838Y-103817167D01*
X76077000Y-103938569D01*
X76077000Y-111908543D01*
X75648330Y-112194971D01*
X75438000Y-112509752D01*
X75227670Y-112194971D01*
X74741489Y-111870115D01*
X74168000Y-111756041D01*
X73594511Y-111870115D01*
X73108330Y-112194971D01*
X72987454Y-112375875D01*
X71782715Y-111171135D01*
X71813167Y-111171162D01*
X72156943Y-111029117D01*
X72420192Y-110766327D01*
X72562838Y-110422799D01*
X72563162Y-110050833D01*
X72513000Y-109929431D01*
X72513000Y-108256822D01*
X72562838Y-108136799D01*
X72563162Y-107764833D01*
X72513000Y-107643431D01*
X72513000Y-106284580D01*
X77624834Y-101172745D01*
X77744943Y-101123117D01*
X78008192Y-100860327D01*
X78150838Y-100516799D01*
X78151162Y-100144833D01*
X78009117Y-99801057D01*
X77746327Y-99537808D01*
X77402799Y-99395162D01*
X77030833Y-99394838D01*
X76687057Y-99536883D01*
X76423808Y-99799673D01*
X76373434Y-99920987D01*
X71497000Y-104797420D01*
X71497000Y-104252580D01*
X73560834Y-102188745D01*
X73680943Y-102139117D01*
X73944192Y-101876327D01*
X74086838Y-101532799D01*
X74087162Y-101160833D01*
X73945117Y-100817057D01*
X73682327Y-100553808D01*
X73338799Y-100411162D01*
X72966833Y-100410838D01*
X72623057Y-100552883D01*
X72359808Y-100815673D01*
X72309434Y-100936987D01*
X69986210Y-103260210D01*
X69794367Y-103547325D01*
X69794367Y-103547326D01*
X69726999Y-103886000D01*
X69727000Y-103886005D01*
X69727000Y-107520671D01*
X69618327Y-107411808D01*
X69274799Y-107269162D01*
X68902833Y-107268838D01*
X68559057Y-107410883D01*
X68325824Y-107643709D01*
X68094327Y-107411808D01*
X67750799Y-107269162D01*
X67378833Y-107268838D01*
X67257431Y-107319000D01*
X58166005Y-107319000D01*
X58166000Y-107318999D01*
X57883516Y-107375190D01*
X57827325Y-107386367D01*
X57540210Y-107578210D01*
X57540208Y-107578213D01*
X55725164Y-109393256D01*
X55605057Y-109442883D01*
X55341808Y-109705673D01*
X55199162Y-110049201D01*
X55198838Y-110421167D01*
X54544507Y-110421167D01*
X54471146Y-110243620D01*
X54096353Y-109868173D01*
X53606413Y-109664732D01*
X53075914Y-109664269D01*
X52585620Y-109866854D01*
X52210173Y-110241647D01*
X52006732Y-110731587D01*
X52006269Y-111262086D01*
X50088738Y-111262086D01*
X50113927Y-111190520D01*
X50085148Y-110660801D01*
X49937800Y-110305071D01*
X49702188Y-110243417D01*
X48947605Y-110998000D01*
X48588395Y-110998000D01*
X47833812Y-110243417D01*
X47598200Y-110305071D01*
X47422073Y-110805480D01*
X45021668Y-110805480D01*
X45021731Y-110733914D01*
X44819146Y-110243620D01*
X44639652Y-110063812D01*
X48013417Y-110063812D01*
X48768000Y-110818395D01*
X49522583Y-110063812D01*
X49460929Y-109828200D01*
X48960520Y-109652073D01*
X48430801Y-109680852D01*
X48075071Y-109828200D01*
X48013417Y-110063812D01*
X44639652Y-110063812D01*
X44444353Y-109868173D01*
X43954413Y-109664732D01*
X43423914Y-109664269D01*
X42933620Y-109866854D01*
X42558173Y-110241647D01*
X42354732Y-110731587D01*
X42354269Y-111262086D01*
X31825000Y-111262086D01*
X31825000Y-108389167D01*
X46308838Y-108389167D01*
X46450883Y-108732943D01*
X46713673Y-108996192D01*
X47057201Y-109138838D01*
X47429167Y-109139162D01*
X47550569Y-109089000D01*
X50239178Y-109089000D01*
X50359201Y-109138838D01*
X50731167Y-109139162D01*
X51074943Y-108997117D01*
X51338192Y-108734327D01*
X51480838Y-108390799D01*
X51481162Y-108018833D01*
X51339117Y-107675057D01*
X51076327Y-107411808D01*
X50732799Y-107269162D01*
X50360833Y-107268838D01*
X50239431Y-107319000D01*
X47550822Y-107319000D01*
X47430799Y-107269162D01*
X47058833Y-107268838D01*
X46715057Y-107410883D01*
X46451808Y-107673673D01*
X46309162Y-108017201D01*
X46308838Y-108389167D01*
X31825000Y-108389167D01*
X31825000Y-106427944D01*
X33954025Y-106427944D01*
X34153615Y-106909818D01*
X34591621Y-107382188D01*
X35177054Y-107650983D01*
X35433000Y-107532367D01*
X35433000Y-106172000D01*
X35687000Y-106172000D01*
X35687000Y-107532367D01*
X35942946Y-107650983D01*
X36528379Y-107382188D01*
X36966385Y-106909818D01*
X37165975Y-106427944D01*
X37046836Y-106172000D01*
X35687000Y-106172000D01*
X35433000Y-106172000D01*
X34073164Y-106172000D01*
X33954025Y-106427944D01*
X31825000Y-106427944D01*
X31825000Y-102489000D01*
X33896560Y-102489000D01*
X33896560Y-104521000D01*
X33940838Y-104756317D01*
X34079910Y-104972441D01*
X34242948Y-105083840D01*
X34153615Y-105180182D01*
X33954025Y-105662056D01*
X34073164Y-105918000D01*
X35433000Y-105918000D01*
X35433000Y-105898000D01*
X35687000Y-105898000D01*
X35687000Y-105918000D01*
X37046836Y-105918000D01*
X37165975Y-105662056D01*
X36966385Y-105180182D01*
X36875903Y-105082602D01*
X37027441Y-104985090D01*
X37172431Y-104772890D01*
X37223440Y-104521000D01*
X37223440Y-104394000D01*
X40246560Y-104394000D01*
X40246560Y-106426000D01*
X40290838Y-106661317D01*
X40429910Y-106877441D01*
X40642110Y-107022431D01*
X40894000Y-107073440D01*
X42926000Y-107073440D01*
X43161317Y-107029162D01*
X43377441Y-106890090D01*
X43479198Y-106741163D01*
X43818190Y-106967670D01*
X44450000Y-107093345D01*
X45081810Y-106967670D01*
X45617433Y-106609778D01*
X45975325Y-106074155D01*
X46101000Y-105442345D01*
X46101000Y-105377655D01*
X46040098Y-105071481D01*
X46853787Y-104257792D01*
X46853790Y-104257790D01*
X47045633Y-103970675D01*
X47066917Y-103863673D01*
X47113001Y-103632000D01*
X47113000Y-103631995D01*
X47113000Y-98229167D01*
X69676838Y-98229167D01*
X69818883Y-98572943D01*
X70081673Y-98836192D01*
X70425201Y-98978838D01*
X70797167Y-98979162D01*
X70918569Y-98929000D01*
X77671178Y-98929000D01*
X77791201Y-98978838D01*
X78163167Y-98979162D01*
X78506943Y-98837117D01*
X78770192Y-98574327D01*
X78912838Y-98230799D01*
X78913162Y-97858833D01*
X78771117Y-97515057D01*
X78508327Y-97251808D01*
X78164799Y-97109162D01*
X77792833Y-97108838D01*
X77671431Y-97159000D01*
X70918822Y-97159000D01*
X70798799Y-97109162D01*
X70426833Y-97108838D01*
X70083057Y-97250883D01*
X69819808Y-97513673D01*
X69677162Y-97857201D01*
X69676838Y-98229167D01*
X47113000Y-98229167D01*
X47113000Y-95435167D01*
X82884838Y-95435167D01*
X82935000Y-95556569D01*
X82935000Y-96265995D01*
X82934999Y-96266000D01*
X82962094Y-96402211D01*
X83002367Y-96604675D01*
X83022313Y-96634526D01*
X83194210Y-96891790D01*
X83956208Y-97653787D01*
X83956210Y-97653790D01*
X84243325Y-97845633D01*
X84299516Y-97856810D01*
X84582000Y-97913001D01*
X84582005Y-97913000D01*
X84977420Y-97913000D01*
X85236240Y-98171819D01*
X85236240Y-98564902D01*
X85124759Y-98728060D01*
X85073750Y-98979950D01*
X85073750Y-99250549D01*
X84986674Y-99192367D01*
X84805161Y-99156261D01*
X84768799Y-99141162D01*
X84729081Y-99141127D01*
X84648000Y-99124999D01*
X84567626Y-99140987D01*
X84396833Y-99140838D01*
X84053057Y-99282883D01*
X83789808Y-99545673D01*
X83647162Y-99889201D01*
X83646838Y-100261167D01*
X83697000Y-100382569D01*
X83697000Y-100837995D01*
X83696999Y-100838000D01*
X83731444Y-101011162D01*
X83764367Y-101176675D01*
X83956210Y-101463790D01*
X84398208Y-101905787D01*
X84398210Y-101905790D01*
X84685325Y-102097633D01*
X85024000Y-102165000D01*
X85306142Y-102165000D01*
X85469300Y-102276481D01*
X85721190Y-102327490D01*
X86521290Y-102327490D01*
X86756607Y-102283212D01*
X86972731Y-102144140D01*
X87117721Y-101931940D01*
X87168730Y-101680050D01*
X87168730Y-101058090D01*
X87181843Y-101089748D01*
X87360471Y-101268377D01*
X87593860Y-101365050D01*
X87834470Y-101365050D01*
X87993220Y-101206300D01*
X87993220Y-100457000D01*
X88247220Y-100457000D01*
X88247220Y-101206300D01*
X88405970Y-101365050D01*
X88646580Y-101365050D01*
X88879969Y-101268377D01*
X89058597Y-101089748D01*
X89155270Y-100856359D01*
X89155270Y-100615750D01*
X88996520Y-100457000D01*
X88247220Y-100457000D01*
X87993220Y-100457000D01*
X87243920Y-100457000D01*
X87097763Y-100603157D01*
X86985380Y-100428509D01*
X86840283Y-100329368D01*
X86972731Y-100244140D01*
X87099511Y-100058591D01*
X87243920Y-100203000D01*
X87993220Y-100203000D01*
X87993220Y-99453700D01*
X88247220Y-99453700D01*
X88247220Y-100203000D01*
X88996520Y-100203000D01*
X89155270Y-100044250D01*
X89155270Y-99803641D01*
X89058597Y-99570252D01*
X88879969Y-99391623D01*
X88646580Y-99294950D01*
X88405970Y-99294950D01*
X88247220Y-99453700D01*
X87993220Y-99453700D01*
X87834470Y-99294950D01*
X87593860Y-99294950D01*
X87360471Y-99391623D01*
X87181843Y-99570252D01*
X87168730Y-99601910D01*
X87168730Y-98979950D01*
X87124452Y-98744633D01*
X87006240Y-98560926D01*
X87006240Y-97805240D01*
X86938873Y-97466565D01*
X86747030Y-97179450D01*
X86747027Y-97179448D01*
X85969790Y-96402210D01*
X85803950Y-96291400D01*
X85682675Y-96210367D01*
X85624519Y-96198799D01*
X85344000Y-96142999D01*
X85343995Y-96143000D01*
X84948579Y-96143000D01*
X84705000Y-95899420D01*
X84705000Y-95556822D01*
X84754838Y-95436799D01*
X84755162Y-95064833D01*
X84613117Y-94721057D01*
X84350327Y-94457808D01*
X84006799Y-94315162D01*
X83634833Y-94314838D01*
X83291057Y-94456883D01*
X83027808Y-94719673D01*
X82885162Y-95063201D01*
X82884838Y-95435167D01*
X47113000Y-95435167D01*
X47113000Y-93330580D01*
X47294412Y-93149167D01*
X61548838Y-93149167D01*
X61690883Y-93492943D01*
X61953673Y-93756192D01*
X62297201Y-93898838D01*
X62669167Y-93899162D01*
X62790569Y-93849000D01*
X66039995Y-93849000D01*
X66040000Y-93849001D01*
X66040005Y-93849000D01*
X78433178Y-93849000D01*
X78553201Y-93898838D01*
X78925167Y-93899162D01*
X79268943Y-93757117D01*
X79532192Y-93494327D01*
X79674838Y-93150799D01*
X79675162Y-92778833D01*
X79533117Y-92435057D01*
X79270327Y-92171808D01*
X78926799Y-92029162D01*
X78554833Y-92028838D01*
X78433431Y-92079000D01*
X68176579Y-92079000D01*
X68443787Y-91811792D01*
X68443790Y-91811790D01*
X68635633Y-91524675D01*
X68646810Y-91468484D01*
X68703001Y-91186000D01*
X68703000Y-91185995D01*
X68703000Y-89968822D01*
X68752838Y-89848799D01*
X68753162Y-89476833D01*
X68611117Y-89133057D01*
X68348327Y-88869808D01*
X68004799Y-88727162D01*
X67632833Y-88726838D01*
X67289057Y-88868883D01*
X67025808Y-89131673D01*
X66883162Y-89475201D01*
X66882838Y-89847167D01*
X66933000Y-89968569D01*
X66933000Y-90819421D01*
X65673420Y-92079000D01*
X62790822Y-92079000D01*
X62670799Y-92029162D01*
X62298833Y-92028838D01*
X61955057Y-92170883D01*
X61691808Y-92433673D01*
X61549162Y-92777201D01*
X61548838Y-93149167D01*
X47294412Y-93149167D01*
X49085391Y-91358188D01*
X56014417Y-91358188D01*
X56076071Y-91593800D01*
X56576480Y-91769927D01*
X57106199Y-91741148D01*
X57461929Y-91593800D01*
X57523583Y-91358188D01*
X63634417Y-91358188D01*
X63696071Y-91593800D01*
X64196480Y-91769927D01*
X64726199Y-91741148D01*
X65081929Y-91593800D01*
X65143583Y-91358188D01*
X64389000Y-90603605D01*
X63634417Y-91358188D01*
X57523583Y-91358188D01*
X56769000Y-90603605D01*
X56014417Y-91358188D01*
X49085391Y-91358188D01*
X50212099Y-90231480D01*
X55423073Y-90231480D01*
X55451852Y-90761199D01*
X55599200Y-91116929D01*
X55834812Y-91178583D01*
X56589395Y-90424000D01*
X56948605Y-90424000D01*
X57703188Y-91178583D01*
X57938800Y-91116929D01*
X58114927Y-90616520D01*
X58094009Y-90231480D01*
X63043073Y-90231480D01*
X63071852Y-90761199D01*
X63219200Y-91116929D01*
X63454812Y-91178583D01*
X64209395Y-90424000D01*
X64568605Y-90424000D01*
X65323188Y-91178583D01*
X65558800Y-91116929D01*
X65734927Y-90616520D01*
X65706148Y-90086801D01*
X65558800Y-89731071D01*
X65323188Y-89669417D01*
X64568605Y-90424000D01*
X64209395Y-90424000D01*
X63454812Y-89669417D01*
X63219200Y-89731071D01*
X63043073Y-90231480D01*
X58094009Y-90231480D01*
X58086148Y-90086801D01*
X57938800Y-89731071D01*
X57703188Y-89669417D01*
X56948605Y-90424000D01*
X56589395Y-90424000D01*
X55834812Y-89669417D01*
X55599200Y-89731071D01*
X55423073Y-90231480D01*
X50212099Y-90231480D01*
X51166579Y-89277000D01*
X51509178Y-89277000D01*
X51629201Y-89326838D01*
X52001167Y-89327162D01*
X52344943Y-89185117D01*
X52608192Y-88922327D01*
X52750838Y-88578799D01*
X52750850Y-88565151D01*
X52763167Y-88565162D01*
X53106943Y-88423117D01*
X53370192Y-88160327D01*
X53512838Y-87816799D01*
X53513162Y-87444833D01*
X53371117Y-87101057D01*
X53108327Y-86837808D01*
X52764799Y-86695162D01*
X52392833Y-86694838D01*
X52271431Y-86745000D01*
X50038005Y-86745000D01*
X50038000Y-86744999D01*
X49703980Y-86811441D01*
X49699325Y-86812367D01*
X49412210Y-87004210D01*
X49412208Y-87004213D01*
X48142210Y-88274210D01*
X48142208Y-88274213D01*
X45293611Y-91122809D01*
X45356827Y-90805000D01*
X45242753Y-90231511D01*
X44917897Y-89745330D01*
X44595880Y-89530165D01*
X44965873Y-89234868D01*
X45249527Y-88721157D01*
X45271358Y-88624026D01*
X45150217Y-88392000D01*
X43307000Y-88392000D01*
X43307000Y-88412000D01*
X43053000Y-88412000D01*
X43053000Y-88392000D01*
X41209783Y-88392000D01*
X41088642Y-88624026D01*
X41110473Y-88721157D01*
X41394127Y-89234868D01*
X41764120Y-89530165D01*
X41442103Y-89745330D01*
X41117247Y-90231511D01*
X41003173Y-90805000D01*
X41117247Y-91378489D01*
X41442103Y-91864670D01*
X41928284Y-92189526D01*
X42501773Y-92303600D01*
X43858227Y-92303600D01*
X44235802Y-92228496D01*
X44140367Y-92371325D01*
X44140367Y-92371326D01*
X44072999Y-92710000D01*
X44073000Y-92710005D01*
X44073000Y-101995421D01*
X42321860Y-103746560D01*
X40894000Y-103746560D01*
X40658683Y-103790838D01*
X40442559Y-103929910D01*
X40297569Y-104142110D01*
X40246560Y-104394000D01*
X37223440Y-104394000D01*
X37223440Y-102489000D01*
X37179162Y-102253683D01*
X37040090Y-102037559D01*
X36827890Y-101892569D01*
X36576000Y-101841560D01*
X34544000Y-101841560D01*
X34308683Y-101885838D01*
X34092559Y-102024910D01*
X33947569Y-102237110D01*
X33896560Y-102489000D01*
X31825000Y-102489000D01*
X31825000Y-95250000D01*
X33876655Y-95250000D01*
X33990729Y-95823489D01*
X34315585Y-96309670D01*
X34630366Y-96520000D01*
X34315585Y-96730330D01*
X33990729Y-97216511D01*
X33876655Y-97790000D01*
X33990729Y-98363489D01*
X34315585Y-98849670D01*
X34801766Y-99174526D01*
X35375255Y-99288600D01*
X35744745Y-99288600D01*
X36318234Y-99174526D01*
X36804415Y-98849670D01*
X37129271Y-98363489D01*
X37243345Y-97790000D01*
X37129271Y-97216511D01*
X36804415Y-96730330D01*
X36489634Y-96520000D01*
X36804415Y-96309670D01*
X36879587Y-96197167D01*
X37672838Y-96197167D01*
X37814883Y-96540943D01*
X38077673Y-96804192D01*
X38421201Y-96946838D01*
X38793167Y-96947162D01*
X39136943Y-96805117D01*
X39400192Y-96542327D01*
X39542838Y-96198799D01*
X39543162Y-95826833D01*
X39493000Y-95705431D01*
X39493000Y-85456580D01*
X40088179Y-84861400D01*
X41032560Y-84861400D01*
X41032560Y-86588600D01*
X41076838Y-86823917D01*
X41215910Y-87040041D01*
X41428110Y-87185031D01*
X41511037Y-87201824D01*
X41394127Y-87295132D01*
X41110473Y-87808843D01*
X41088642Y-87905974D01*
X41209783Y-88138000D01*
X43053000Y-88138000D01*
X43053000Y-88118000D01*
X43307000Y-88118000D01*
X43307000Y-88138000D01*
X45150217Y-88138000D01*
X45271358Y-87905974D01*
X45249527Y-87808843D01*
X44965873Y-87295132D01*
X44851420Y-87203785D01*
X44915317Y-87191762D01*
X45131441Y-87052690D01*
X45276431Y-86840490D01*
X45327440Y-86588600D01*
X45327440Y-84861400D01*
X45283162Y-84626083D01*
X45144090Y-84409959D01*
X44931890Y-84264969D01*
X44680000Y-84213960D01*
X41680000Y-84213960D01*
X41444683Y-84258238D01*
X41228559Y-84397310D01*
X41083569Y-84609510D01*
X41032560Y-84861400D01*
X40088179Y-84861400D01*
X40752579Y-84197000D01*
X51703420Y-84197000D01*
X53725000Y-86218579D01*
X53725000Y-88847178D01*
X53675162Y-88967201D01*
X53674838Y-89339167D01*
X53816883Y-89682943D01*
X54079673Y-89946192D01*
X54423201Y-90088838D01*
X54795167Y-90089162D01*
X55138943Y-89947117D01*
X55402192Y-89684327D01*
X55482962Y-89489812D01*
X56014417Y-89489812D01*
X56769000Y-90244395D01*
X57523583Y-89489812D01*
X63634417Y-89489812D01*
X64389000Y-90244395D01*
X65143583Y-89489812D01*
X65081929Y-89254200D01*
X64581520Y-89078073D01*
X64051801Y-89106852D01*
X63696071Y-89254200D01*
X63634417Y-89489812D01*
X57523583Y-89489812D01*
X57461929Y-89254200D01*
X56961520Y-89078073D01*
X56431801Y-89106852D01*
X56076071Y-89254200D01*
X56014417Y-89489812D01*
X55482962Y-89489812D01*
X55544838Y-89340799D01*
X55545162Y-88968833D01*
X55495000Y-88847431D01*
X55495000Y-85852000D01*
X55456891Y-85660416D01*
X55637854Y-86098380D01*
X56012647Y-86473827D01*
X56502587Y-86677268D01*
X57033086Y-86677731D01*
X57523380Y-86475146D01*
X57898827Y-86100353D01*
X58102268Y-85610413D01*
X58102270Y-85608086D01*
X63055269Y-85608086D01*
X63257854Y-86098380D01*
X63632647Y-86473827D01*
X64122587Y-86677268D01*
X64653086Y-86677731D01*
X65143380Y-86475146D01*
X65518827Y-86100353D01*
X65722268Y-85610413D01*
X65722661Y-85159255D01*
X68097400Y-85159255D01*
X68097400Y-85528745D01*
X68211474Y-86102234D01*
X68536330Y-86588415D01*
X69022511Y-86913271D01*
X69596000Y-87027345D01*
X70169489Y-86913271D01*
X70655670Y-86588415D01*
X70866000Y-86273634D01*
X71076330Y-86588415D01*
X71562511Y-86913271D01*
X72136000Y-87027345D01*
X72709489Y-86913271D01*
X73195670Y-86588415D01*
X73406000Y-86273634D01*
X73616330Y-86588415D01*
X74102511Y-86913271D01*
X74676000Y-87027345D01*
X75249489Y-86913271D01*
X75735670Y-86588415D01*
X75946000Y-86273634D01*
X76156330Y-86588415D01*
X76642511Y-86913271D01*
X77216000Y-87027345D01*
X77789489Y-86913271D01*
X78275670Y-86588415D01*
X78486000Y-86273634D01*
X78696330Y-86588415D01*
X79182511Y-86913271D01*
X79756000Y-87027345D01*
X80329489Y-86913271D01*
X80815670Y-86588415D01*
X80825243Y-86574087D01*
X80829238Y-86595317D01*
X80968310Y-86811441D01*
X81180510Y-86956431D01*
X81432400Y-87007440D01*
X83159600Y-87007440D01*
X83394917Y-86963162D01*
X83611041Y-86824090D01*
X83756031Y-86611890D01*
X83807040Y-86360000D01*
X83807040Y-85618172D01*
X86232538Y-85618172D01*
X86637709Y-86598761D01*
X87387293Y-87349655D01*
X88367173Y-87756536D01*
X89428172Y-87757462D01*
X90408761Y-87352291D01*
X91159655Y-86602707D01*
X91566536Y-85622827D01*
X91567462Y-84561828D01*
X91162291Y-83581239D01*
X90412707Y-82830345D01*
X89432827Y-82423464D01*
X88371828Y-82422538D01*
X87391239Y-82827709D01*
X86640345Y-83577293D01*
X86233464Y-84557173D01*
X86232538Y-85618172D01*
X83807040Y-85618172D01*
X83807040Y-84328000D01*
X83762762Y-84092683D01*
X83623690Y-83876559D01*
X83411490Y-83731569D01*
X83159600Y-83680560D01*
X81432400Y-83680560D01*
X81197083Y-83724838D01*
X80980959Y-83863910D01*
X80835969Y-84076110D01*
X80827600Y-84117439D01*
X80815670Y-84099585D01*
X80329489Y-83774729D01*
X79756000Y-83660655D01*
X79182511Y-83774729D01*
X78696330Y-84099585D01*
X78486000Y-84414366D01*
X78275670Y-84099585D01*
X77789489Y-83774729D01*
X77216000Y-83660655D01*
X76642511Y-83774729D01*
X76156330Y-84099585D01*
X75946000Y-84414366D01*
X75735670Y-84099585D01*
X75249489Y-83774729D01*
X74676000Y-83660655D01*
X74102511Y-83774729D01*
X73616330Y-84099585D01*
X73406000Y-84414366D01*
X73195670Y-84099585D01*
X72709489Y-83774729D01*
X72136000Y-83660655D01*
X71562511Y-83774729D01*
X71076330Y-84099585D01*
X70866000Y-84414366D01*
X70655670Y-84099585D01*
X70169489Y-83774729D01*
X69596000Y-83660655D01*
X69022511Y-83774729D01*
X68536330Y-84099585D01*
X68211474Y-84585766D01*
X68097400Y-85159255D01*
X65722661Y-85159255D01*
X65722731Y-85079914D01*
X65520146Y-84589620D01*
X65145353Y-84214173D01*
X64655413Y-84010732D01*
X64124914Y-84010269D01*
X63634620Y-84212854D01*
X63259173Y-84587647D01*
X63055732Y-85077587D01*
X63055269Y-85608086D01*
X58102270Y-85608086D01*
X58102731Y-85079914D01*
X57900146Y-84589620D01*
X57525353Y-84214173D01*
X57035413Y-84010732D01*
X56504914Y-84010269D01*
X56014620Y-84212854D01*
X55639173Y-84587647D01*
X55435732Y-85077587D01*
X55435318Y-85551960D01*
X55427633Y-85513325D01*
X55235790Y-85226210D01*
X55235787Y-85226208D01*
X52695790Y-82686210D01*
X52408675Y-82494367D01*
X52352484Y-82483190D01*
X52070000Y-82426999D01*
X52069995Y-82427000D01*
X40386005Y-82427000D01*
X40386000Y-82426999D01*
X40103516Y-82483190D01*
X40047325Y-82494367D01*
X39760210Y-82686210D01*
X39760208Y-82686213D01*
X37982210Y-84464210D01*
X37790367Y-84751325D01*
X37790367Y-84751326D01*
X37722999Y-85090000D01*
X37723000Y-85090005D01*
X37723000Y-95705178D01*
X37673162Y-95825201D01*
X37672838Y-96197167D01*
X36879587Y-96197167D01*
X37129271Y-95823489D01*
X37243345Y-95250000D01*
X37129271Y-94676511D01*
X36804415Y-94190330D01*
X36790087Y-94180757D01*
X36811317Y-94176762D01*
X37027441Y-94037690D01*
X37172431Y-93825490D01*
X37223440Y-93573600D01*
X37223440Y-91846400D01*
X37179162Y-91611083D01*
X37040090Y-91394959D01*
X36827890Y-91249969D01*
X36576000Y-91198960D01*
X34544000Y-91198960D01*
X34308683Y-91243238D01*
X34092559Y-91382310D01*
X33947569Y-91594510D01*
X33896560Y-91846400D01*
X33896560Y-93573600D01*
X33940838Y-93808917D01*
X34079910Y-94025041D01*
X34292110Y-94170031D01*
X34333439Y-94178400D01*
X34315585Y-94190330D01*
X33990729Y-94676511D01*
X33876655Y-95250000D01*
X31825000Y-95250000D01*
X31825000Y-85618172D01*
X32257538Y-85618172D01*
X32662709Y-86598761D01*
X33412293Y-87349655D01*
X34392173Y-87756536D01*
X35453172Y-87757462D01*
X36433761Y-87352291D01*
X37184655Y-86602707D01*
X37591536Y-85622827D01*
X37592462Y-84561828D01*
X37187291Y-83581239D01*
X36437707Y-82830345D01*
X35457827Y-82423464D01*
X34396828Y-82422538D01*
X33416239Y-82827709D01*
X32665345Y-83577293D01*
X32258464Y-84557173D01*
X32257538Y-85618172D01*
X31825000Y-85618172D01*
X31825000Y-81990000D01*
X91577697Y-81990000D01*
X96487747Y-95492638D01*
X96487747Y-95492638D01*
G37*
X96487747Y-95492638D02*
X96495957Y-95506177D01*
X96499046Y-95521705D01*
X96567504Y-95624160D01*
X96631392Y-95729514D01*
X96644156Y-95738879D01*
X96652954Y-95752046D01*
X96755408Y-95820503D01*
X96854751Y-95893390D01*
X96870131Y-95897158D01*
X96883295Y-95905954D01*
X97004138Y-95929991D01*
X97123821Y-95959315D01*
X97139471Y-95956911D01*
X97155000Y-95960000D01*
X246940000Y-95960000D01*
X246940000Y-104700000D01*
X97155000Y-104700000D01*
X97129980Y-104704977D01*
X97104669Y-104701786D01*
X96994899Y-104731846D01*
X96883295Y-104754046D01*
X96862086Y-104768217D01*
X96837478Y-104774956D01*
X96747572Y-104844733D01*
X96652954Y-104907954D01*
X96638780Y-104929167D01*
X96618628Y-104944807D01*
X96562270Y-105043673D01*
X96499046Y-105138295D01*
X96494069Y-105163314D01*
X96481435Y-105185478D01*
X91563261Y-119940000D01*
X68319891Y-119940000D01*
X68409199Y-119935148D01*
X68764929Y-119787800D01*
X68826583Y-119552188D01*
X68072000Y-118797605D01*
X67317417Y-119552188D01*
X67379071Y-119787800D01*
X67811499Y-119940000D01*
X63284477Y-119940000D01*
X63746380Y-119749146D01*
X64121827Y-119374353D01*
X64325268Y-118884413D01*
X64325668Y-118425480D01*
X66726073Y-118425480D01*
X66754852Y-118955199D01*
X66902200Y-119310929D01*
X67137812Y-119372583D01*
X67892395Y-118618000D01*
X68251605Y-118618000D01*
X69006188Y-119372583D01*
X69241800Y-119310929D01*
X69417927Y-118810520D01*
X69389148Y-118280801D01*
X69241800Y-117925071D01*
X69006188Y-117863417D01*
X68251605Y-118618000D01*
X67892395Y-118618000D01*
X67137812Y-117863417D01*
X66902200Y-117925071D01*
X66726073Y-118425480D01*
X64325668Y-118425480D01*
X64325731Y-118353914D01*
X64123146Y-117863620D01*
X63943652Y-117683812D01*
X67317417Y-117683812D01*
X68072000Y-118438395D01*
X68826583Y-117683812D01*
X68764929Y-117448200D01*
X68537555Y-117368172D01*
X86232538Y-117368172D01*
X86637709Y-118348761D01*
X87387293Y-119099655D01*
X88367173Y-119506536D01*
X89428172Y-119507462D01*
X90408761Y-119102291D01*
X91159655Y-118352707D01*
X91566536Y-117372827D01*
X91567462Y-116311828D01*
X91162291Y-115331239D01*
X90412707Y-114580345D01*
X89432827Y-114173464D01*
X88371828Y-114172538D01*
X87391239Y-114577709D01*
X86640345Y-115327293D01*
X86233464Y-116307173D01*
X86232538Y-117368172D01*
X68537555Y-117368172D01*
X68264520Y-117272073D01*
X67734801Y-117300852D01*
X67379071Y-117448200D01*
X67317417Y-117683812D01*
X63943652Y-117683812D01*
X63748353Y-117488173D01*
X63258413Y-117284732D01*
X62727914Y-117284269D01*
X62237620Y-117486854D01*
X61862173Y-117861647D01*
X61658732Y-118351587D01*
X61658269Y-118882086D01*
X61860854Y-119372380D01*
X62235647Y-119747827D01*
X62698451Y-119940000D01*
X58667891Y-119940000D01*
X58757199Y-119935148D01*
X59112929Y-119787800D01*
X59174583Y-119552188D01*
X58420000Y-118797605D01*
X57665417Y-119552188D01*
X57727071Y-119787800D01*
X58159499Y-119940000D01*
X53632477Y-119940000D01*
X54094380Y-119749146D01*
X54469827Y-119374353D01*
X54673268Y-118884413D01*
X54673668Y-118425480D01*
X57074073Y-118425480D01*
X57102852Y-118955199D01*
X57250200Y-119310929D01*
X57485812Y-119372583D01*
X58240395Y-118618000D01*
X58599605Y-118618000D01*
X59354188Y-119372583D01*
X59589800Y-119310929D01*
X59765927Y-118810520D01*
X59737148Y-118280801D01*
X59589800Y-117925071D01*
X59354188Y-117863417D01*
X58599605Y-118618000D01*
X58240395Y-118618000D01*
X57485812Y-117863417D01*
X57250200Y-117925071D01*
X57074073Y-118425480D01*
X54673668Y-118425480D01*
X54673731Y-118353914D01*
X54471146Y-117863620D01*
X54291652Y-117683812D01*
X57665417Y-117683812D01*
X58420000Y-118438395D01*
X59174583Y-117683812D01*
X59112929Y-117448200D01*
X58612520Y-117272073D01*
X58082801Y-117300852D01*
X57727071Y-117448200D01*
X57665417Y-117683812D01*
X54291652Y-117683812D01*
X54096353Y-117488173D01*
X53606413Y-117284732D01*
X53075914Y-117284269D01*
X52585620Y-117486854D01*
X52210173Y-117861647D01*
X52006732Y-118351587D01*
X52006269Y-118882086D01*
X52208854Y-119372380D01*
X52583647Y-119747827D01*
X53046451Y-119940000D01*
X49015891Y-119940000D01*
X49105199Y-119935148D01*
X49460929Y-119787800D01*
X49522583Y-119552188D01*
X48768000Y-118797605D01*
X48013417Y-119552188D01*
X48075071Y-119787800D01*
X48507499Y-119940000D01*
X43980477Y-119940000D01*
X44442380Y-119749146D01*
X44817827Y-119374353D01*
X45021268Y-118884413D01*
X45021668Y-118425480D01*
X47422073Y-118425480D01*
X47450852Y-118955199D01*
X47598200Y-119310929D01*
X47833812Y-119372583D01*
X48588395Y-118618000D01*
X48947605Y-118618000D01*
X49702188Y-119372583D01*
X49937800Y-119310929D01*
X50113927Y-118810520D01*
X50085148Y-118280801D01*
X49937800Y-117925071D01*
X49702188Y-117863417D01*
X48947605Y-118618000D01*
X48588395Y-118618000D01*
X47833812Y-117863417D01*
X47598200Y-117925071D01*
X47422073Y-118425480D01*
X45021668Y-118425480D01*
X45021731Y-118353914D01*
X44819146Y-117863620D01*
X44639652Y-117683812D01*
X48013417Y-117683812D01*
X48768000Y-118438395D01*
X49522583Y-117683812D01*
X49460929Y-117448200D01*
X48960520Y-117272073D01*
X48430801Y-117300852D01*
X48075071Y-117448200D01*
X48013417Y-117683812D01*
X44639652Y-117683812D01*
X44444353Y-117488173D01*
X43954413Y-117284732D01*
X43423914Y-117284269D01*
X42933620Y-117486854D01*
X42558173Y-117861647D01*
X42354732Y-118351587D01*
X42354269Y-118882086D01*
X42556854Y-119372380D01*
X42931647Y-119747827D01*
X43394451Y-119940000D01*
X31825000Y-119940000D01*
X31825000Y-117368172D01*
X32257538Y-117368172D01*
X32662709Y-118348761D01*
X33412293Y-119099655D01*
X34392173Y-119506536D01*
X35453172Y-119507462D01*
X36433761Y-119102291D01*
X37184655Y-118352707D01*
X37591536Y-117372827D01*
X37592462Y-116311828D01*
X37539243Y-116183027D01*
X72713032Y-116183027D01*
X72961179Y-116712490D01*
X73393053Y-117106688D01*
X73808974Y-117278958D01*
X74041000Y-117157817D01*
X74041000Y-115951000D01*
X72833531Y-115951000D01*
X72713032Y-116183027D01*
X37539243Y-116183027D01*
X37187291Y-115331239D01*
X36437707Y-114580345D01*
X35457827Y-114173464D01*
X34396828Y-114172538D01*
X33416239Y-114577709D01*
X32665345Y-115327293D01*
X32258464Y-116307173D01*
X32257538Y-117368172D01*
X31825000Y-117368172D01*
X31825000Y-111262086D01*
X42354269Y-111262086D01*
X42556854Y-111752380D01*
X42931647Y-112127827D01*
X43421587Y-112331268D01*
X43952086Y-112331731D01*
X44442380Y-112129146D01*
X44639681Y-111932188D01*
X48013417Y-111932188D01*
X48075071Y-112167800D01*
X48575480Y-112343927D01*
X49105199Y-112315148D01*
X49460929Y-112167800D01*
X49522583Y-111932188D01*
X48768000Y-111177605D01*
X48013417Y-111932188D01*
X44639681Y-111932188D01*
X44817827Y-111754353D01*
X45021268Y-111264413D01*
X45021668Y-110805480D01*
X47422073Y-110805480D01*
X47450852Y-111335199D01*
X47598200Y-111690929D01*
X47833812Y-111752583D01*
X48588395Y-110998000D01*
X48947605Y-110998000D01*
X49702188Y-111752583D01*
X49937800Y-111690929D01*
X50088738Y-111262086D01*
X52006269Y-111262086D01*
X52208854Y-111752380D01*
X52583647Y-112127827D01*
X53073587Y-112331268D01*
X53604086Y-112331731D01*
X54094380Y-112129146D01*
X54291681Y-111932188D01*
X57665417Y-111932188D01*
X57727071Y-112167800D01*
X58227480Y-112343927D01*
X58757199Y-112315148D01*
X59112929Y-112167800D01*
X59174583Y-111932188D01*
X58420000Y-111177605D01*
X57665417Y-111932188D01*
X54291681Y-111932188D01*
X54469827Y-111754353D01*
X54673268Y-111264413D01*
X54673731Y-110733914D01*
X54544507Y-110421167D01*
X55198838Y-110421167D01*
X55340883Y-110764943D01*
X55603673Y-111028192D01*
X55947201Y-111170838D01*
X56319167Y-111171162D01*
X56662943Y-111029117D01*
X56926192Y-110766327D01*
X56976566Y-110645014D01*
X57214186Y-110407394D01*
X57074073Y-110805480D01*
X57102852Y-111335199D01*
X57250200Y-111690929D01*
X57485812Y-111752583D01*
X58240395Y-110998000D01*
X58599605Y-110998000D01*
X59354188Y-111752583D01*
X59589800Y-111690929D01*
X59740738Y-111262086D01*
X61658269Y-111262086D01*
X61860854Y-111752380D01*
X62235647Y-112127827D01*
X62725587Y-112331268D01*
X63256086Y-112331731D01*
X63746380Y-112129146D01*
X63943681Y-111932188D01*
X67317417Y-111932188D01*
X67379071Y-112167800D01*
X67879480Y-112343927D01*
X68409199Y-112315148D01*
X68764929Y-112167800D01*
X68826583Y-111932188D01*
X68072000Y-111177605D01*
X67317417Y-111932188D01*
X63943681Y-111932188D01*
X64121827Y-111754353D01*
X64325268Y-111264413D01*
X64325731Y-110733914D01*
X64123146Y-110243620D01*
X63748353Y-109868173D01*
X63258413Y-109664732D01*
X62727914Y-109664269D01*
X62237620Y-109866854D01*
X61862173Y-110241647D01*
X61658732Y-110731587D01*
X61658269Y-111262086D01*
X59740738Y-111262086D01*
X59765927Y-111190520D01*
X59737148Y-110660801D01*
X59589800Y-110305071D01*
X59354188Y-110243417D01*
X58599605Y-110998000D01*
X58240395Y-110998000D01*
X58226253Y-110983858D01*
X58405858Y-110804253D01*
X58420000Y-110818395D01*
X59174583Y-110063812D01*
X59112929Y-109828200D01*
X58612520Y-109652073D01*
X58082801Y-109680852D01*
X57840267Y-109781313D01*
X58532579Y-109089000D01*
X65681421Y-109089000D01*
X65377164Y-109393256D01*
X65257057Y-109442883D01*
X64993808Y-109705673D01*
X64851162Y-110049201D01*
X64850838Y-110421167D01*
X64992883Y-110764943D01*
X65255673Y-111028192D01*
X65599201Y-111170838D01*
X65971167Y-111171162D01*
X66314943Y-111029117D01*
X66578192Y-110766327D01*
X66628566Y-110645014D01*
X66866186Y-110407394D01*
X66726073Y-110805480D01*
X66754852Y-111335199D01*
X66902200Y-111690929D01*
X67137812Y-111752583D01*
X67892395Y-110998000D01*
X68251605Y-110998000D01*
X69006188Y-111752583D01*
X69241800Y-111690929D01*
X69417927Y-111190520D01*
X69389148Y-110660801D01*
X69241800Y-110305071D01*
X69006188Y-110243417D01*
X68251605Y-110998000D01*
X67892395Y-110998000D01*
X67878253Y-110983858D01*
X68057858Y-110804253D01*
X68072000Y-110818395D01*
X68826583Y-110063812D01*
X68764929Y-109828200D01*
X68728279Y-109815301D01*
X69496835Y-109046745D01*
X69616943Y-108997117D01*
X69727000Y-108887252D01*
X69727000Y-111251995D01*
X69726999Y-111252000D01*
X69743549Y-111335199D01*
X69794367Y-111590675D01*
X69916165Y-111772960D01*
X69986210Y-111877790D01*
X72018208Y-113909787D01*
X72018210Y-113909790D01*
X72305325Y-114101633D01*
X72361516Y-114112810D01*
X72644000Y-114169001D01*
X72644005Y-114169000D01*
X72972002Y-114169000D01*
X73108330Y-114373029D01*
X73379161Y-114553992D01*
X72961179Y-114935510D01*
X72713032Y-115464973D01*
X72833531Y-115697000D01*
X74041000Y-115697000D01*
X74041000Y-115677000D01*
X74295000Y-115677000D01*
X74295000Y-115697000D01*
X74315000Y-115697000D01*
X74315000Y-115951000D01*
X74295000Y-115951000D01*
X74295000Y-117157817D01*
X74527026Y-117278958D01*
X74942947Y-117106688D01*
X75374821Y-116712490D01*
X75432336Y-116589772D01*
X75648330Y-116913029D01*
X76134511Y-117237885D01*
X76708000Y-117351959D01*
X77281489Y-117237885D01*
X77767670Y-116913029D01*
X77978000Y-116598248D01*
X78188330Y-116913029D01*
X78674511Y-117237885D01*
X79248000Y-117351959D01*
X79821489Y-117237885D01*
X80307670Y-116913029D01*
X80632526Y-116426848D01*
X80746600Y-115853359D01*
X80746600Y-115794641D01*
X80632526Y-115221152D01*
X80321426Y-114755558D01*
X80346917Y-114750762D01*
X80563041Y-114611690D01*
X80708031Y-114399490D01*
X80759040Y-114147600D01*
X80759040Y-112420400D01*
X80714762Y-112185083D01*
X80575690Y-111968959D01*
X80363490Y-111823969D01*
X80133000Y-111777294D01*
X80133000Y-108570000D01*
X88618560Y-108570000D01*
X88618560Y-109870000D01*
X88662838Y-110105317D01*
X88801910Y-110321441D01*
X89014110Y-110466431D01*
X89266000Y-110517440D01*
X90566000Y-110517440D01*
X90801317Y-110473162D01*
X91017441Y-110334090D01*
X91162431Y-110121890D01*
X91213440Y-109870000D01*
X91213440Y-108570000D01*
X91169162Y-108334683D01*
X91030090Y-108118559D01*
X90817890Y-107973569D01*
X90566000Y-107922560D01*
X90403615Y-107922560D01*
X90579729Y-107849611D01*
X90635410Y-107619016D01*
X89916000Y-106899605D01*
X89196590Y-107619016D01*
X89252271Y-107849611D01*
X89461902Y-107922560D01*
X89266000Y-107922560D01*
X89030683Y-107966838D01*
X88814559Y-108105910D01*
X88669569Y-108318110D01*
X88618560Y-108570000D01*
X80133000Y-108570000D01*
X80133000Y-108204000D01*
X80065633Y-107865325D01*
X79873790Y-107578210D01*
X79873787Y-107578208D01*
X79582744Y-107287165D01*
X79533117Y-107167057D01*
X79270327Y-106903808D01*
X78926799Y-106761162D01*
X78554833Y-106760838D01*
X78211057Y-106902883D01*
X77947808Y-107165673D01*
X77847000Y-107408444D01*
X77847000Y-106539078D01*
X88618378Y-106539078D01*
X88647917Y-107049428D01*
X88786389Y-107383729D01*
X89016984Y-107439410D01*
X89736395Y-106720000D01*
X90095605Y-106720000D01*
X90815016Y-107439410D01*
X91045611Y-107383729D01*
X91213622Y-106900922D01*
X91184083Y-106390572D01*
X91045611Y-106056271D01*
X90815016Y-106000590D01*
X90095605Y-106720000D01*
X89736395Y-106720000D01*
X89016984Y-106000590D01*
X88786389Y-106056271D01*
X88618378Y-106539078D01*
X77847000Y-106539078D01*
X77847000Y-105820984D01*
X89196590Y-105820984D01*
X89916000Y-106540395D01*
X90635410Y-105820984D01*
X90579729Y-105590389D01*
X90096922Y-105422378D01*
X89586572Y-105451917D01*
X89252271Y-105590389D01*
X89196590Y-105820984D01*
X77847000Y-105820984D01*
X77847000Y-105279000D01*
X78941178Y-105279000D01*
X79061201Y-105328838D01*
X79433167Y-105329162D01*
X79776943Y-105187117D01*
X80040192Y-104924327D01*
X80182838Y-104580799D01*
X80183162Y-104208833D01*
X80041117Y-103865057D01*
X79778327Y-103601808D01*
X79434799Y-103459162D01*
X79062833Y-103458838D01*
X78941431Y-103509000D01*
X78090579Y-103509000D01*
X77804744Y-103223165D01*
X77755117Y-103103057D01*
X77492327Y-102839808D01*
X77148799Y-102697162D01*
X76776833Y-102696838D01*
X76433057Y-102838883D01*
X76169808Y-103101673D01*
X76027162Y-103445201D01*
X76026838Y-103817167D01*
X76077000Y-103938569D01*
X76077000Y-111908543D01*
X75648330Y-112194971D01*
X75438000Y-112509752D01*
X75227670Y-112194971D01*
X74741489Y-111870115D01*
X74168000Y-111756041D01*
X73594511Y-111870115D01*
X73108330Y-112194971D01*
X72987454Y-112375875D01*
X71782715Y-111171135D01*
X71813167Y-111171162D01*
X72156943Y-111029117D01*
X72420192Y-110766327D01*
X72562838Y-110422799D01*
X72563162Y-110050833D01*
X72513000Y-109929431D01*
X72513000Y-108256822D01*
X72562838Y-108136799D01*
X72563162Y-107764833D01*
X72513000Y-107643431D01*
X72513000Y-106284580D01*
X77624834Y-101172745D01*
X77744943Y-101123117D01*
X78008192Y-100860327D01*
X78150838Y-100516799D01*
X78151162Y-100144833D01*
X78009117Y-99801057D01*
X77746327Y-99537808D01*
X77402799Y-99395162D01*
X77030833Y-99394838D01*
X76687057Y-99536883D01*
X76423808Y-99799673D01*
X76373434Y-99920987D01*
X71497000Y-104797420D01*
X71497000Y-104252580D01*
X73560834Y-102188745D01*
X73680943Y-102139117D01*
X73944192Y-101876327D01*
X74086838Y-101532799D01*
X74087162Y-101160833D01*
X73945117Y-100817057D01*
X73682327Y-100553808D01*
X73338799Y-100411162D01*
X72966833Y-100410838D01*
X72623057Y-100552883D01*
X72359808Y-100815673D01*
X72309434Y-100936987D01*
X69986210Y-103260210D01*
X69794367Y-103547325D01*
X69794367Y-103547326D01*
X69726999Y-103886000D01*
X69727000Y-103886005D01*
X69727000Y-107520671D01*
X69618327Y-107411808D01*
X69274799Y-107269162D01*
X68902833Y-107268838D01*
X68559057Y-107410883D01*
X68325824Y-107643709D01*
X68094327Y-107411808D01*
X67750799Y-107269162D01*
X67378833Y-107268838D01*
X67257431Y-107319000D01*
X58166005Y-107319000D01*
X58166000Y-107318999D01*
X57883516Y-107375190D01*
X57827325Y-107386367D01*
X57540210Y-107578210D01*
X57540208Y-107578213D01*
X55725164Y-109393256D01*
X55605057Y-109442883D01*
X55341808Y-109705673D01*
X55199162Y-110049201D01*
X55198838Y-110421167D01*
X54544507Y-110421167D01*
X54471146Y-110243620D01*
X54096353Y-109868173D01*
X53606413Y-109664732D01*
X53075914Y-109664269D01*
X52585620Y-109866854D01*
X52210173Y-110241647D01*
X52006732Y-110731587D01*
X52006269Y-111262086D01*
X50088738Y-111262086D01*
X50113927Y-111190520D01*
X50085148Y-110660801D01*
X49937800Y-110305071D01*
X49702188Y-110243417D01*
X48947605Y-110998000D01*
X48588395Y-110998000D01*
X47833812Y-110243417D01*
X47598200Y-110305071D01*
X47422073Y-110805480D01*
X45021668Y-110805480D01*
X45021731Y-110733914D01*
X44819146Y-110243620D01*
X44639652Y-110063812D01*
X48013417Y-110063812D01*
X48768000Y-110818395D01*
X49522583Y-110063812D01*
X49460929Y-109828200D01*
X48960520Y-109652073D01*
X48430801Y-109680852D01*
X48075071Y-109828200D01*
X48013417Y-110063812D01*
X44639652Y-110063812D01*
X44444353Y-109868173D01*
X43954413Y-109664732D01*
X43423914Y-109664269D01*
X42933620Y-109866854D01*
X42558173Y-110241647D01*
X42354732Y-110731587D01*
X42354269Y-111262086D01*
X31825000Y-111262086D01*
X31825000Y-108389167D01*
X46308838Y-108389167D01*
X46450883Y-108732943D01*
X46713673Y-108996192D01*
X47057201Y-109138838D01*
X47429167Y-109139162D01*
X47550569Y-109089000D01*
X50239178Y-109089000D01*
X50359201Y-109138838D01*
X50731167Y-109139162D01*
X51074943Y-108997117D01*
X51338192Y-108734327D01*
X51480838Y-108390799D01*
X51481162Y-108018833D01*
X51339117Y-107675057D01*
X51076327Y-107411808D01*
X50732799Y-107269162D01*
X50360833Y-107268838D01*
X50239431Y-107319000D01*
X47550822Y-107319000D01*
X47430799Y-107269162D01*
X47058833Y-107268838D01*
X46715057Y-107410883D01*
X46451808Y-107673673D01*
X46309162Y-108017201D01*
X46308838Y-108389167D01*
X31825000Y-108389167D01*
X31825000Y-106427944D01*
X33954025Y-106427944D01*
X34153615Y-106909818D01*
X34591621Y-107382188D01*
X35177054Y-107650983D01*
X35433000Y-107532367D01*
X35433000Y-106172000D01*
X35687000Y-106172000D01*
X35687000Y-107532367D01*
X35942946Y-107650983D01*
X36528379Y-107382188D01*
X36966385Y-106909818D01*
X37165975Y-106427944D01*
X37046836Y-106172000D01*
X35687000Y-106172000D01*
X35433000Y-106172000D01*
X34073164Y-106172000D01*
X33954025Y-106427944D01*
X31825000Y-106427944D01*
X31825000Y-102489000D01*
X33896560Y-102489000D01*
X33896560Y-104521000D01*
X33940838Y-104756317D01*
X34079910Y-104972441D01*
X34242948Y-105083840D01*
X34153615Y-105180182D01*
X33954025Y-105662056D01*
X34073164Y-105918000D01*
X35433000Y-105918000D01*
X35433000Y-105898000D01*
X35687000Y-105898000D01*
X35687000Y-105918000D01*
X37046836Y-105918000D01*
X37165975Y-105662056D01*
X36966385Y-105180182D01*
X36875903Y-105082602D01*
X37027441Y-104985090D01*
X37172431Y-104772890D01*
X37223440Y-104521000D01*
X37223440Y-104394000D01*
X40246560Y-104394000D01*
X40246560Y-106426000D01*
X40290838Y-106661317D01*
X40429910Y-106877441D01*
X40642110Y-107022431D01*
X40894000Y-107073440D01*
X42926000Y-107073440D01*
X43161317Y-107029162D01*
X43377441Y-106890090D01*
X43479198Y-106741163D01*
X43818190Y-106967670D01*
X44450000Y-107093345D01*
X45081810Y-106967670D01*
X45617433Y-106609778D01*
X45975325Y-106074155D01*
X46101000Y-105442345D01*
X46101000Y-105377655D01*
X46040098Y-105071481D01*
X46853787Y-104257792D01*
X46853790Y-104257790D01*
X47045633Y-103970675D01*
X47066917Y-103863673D01*
X47113001Y-103632000D01*
X47113000Y-103631995D01*
X47113000Y-98229167D01*
X69676838Y-98229167D01*
X69818883Y-98572943D01*
X70081673Y-98836192D01*
X70425201Y-98978838D01*
X70797167Y-98979162D01*
X70918569Y-98929000D01*
X77671178Y-98929000D01*
X77791201Y-98978838D01*
X78163167Y-98979162D01*
X78506943Y-98837117D01*
X78770192Y-98574327D01*
X78912838Y-98230799D01*
X78913162Y-97858833D01*
X78771117Y-97515057D01*
X78508327Y-97251808D01*
X78164799Y-97109162D01*
X77792833Y-97108838D01*
X77671431Y-97159000D01*
X70918822Y-97159000D01*
X70798799Y-97109162D01*
X70426833Y-97108838D01*
X70083057Y-97250883D01*
X69819808Y-97513673D01*
X69677162Y-97857201D01*
X69676838Y-98229167D01*
X47113000Y-98229167D01*
X47113000Y-95435167D01*
X82884838Y-95435167D01*
X82935000Y-95556569D01*
X82935000Y-96265995D01*
X82934999Y-96266000D01*
X82962094Y-96402211D01*
X83002367Y-96604675D01*
X83022313Y-96634526D01*
X83194210Y-96891790D01*
X83956208Y-97653787D01*
X83956210Y-97653790D01*
X84243325Y-97845633D01*
X84299516Y-97856810D01*
X84582000Y-97913001D01*
X84582005Y-97913000D01*
X84977420Y-97913000D01*
X85236240Y-98171819D01*
X85236240Y-98564902D01*
X85124759Y-98728060D01*
X85073750Y-98979950D01*
X85073750Y-99250549D01*
X84986674Y-99192367D01*
X84805161Y-99156261D01*
X84768799Y-99141162D01*
X84729081Y-99141127D01*
X84648000Y-99124999D01*
X84567626Y-99140987D01*
X84396833Y-99140838D01*
X84053057Y-99282883D01*
X83789808Y-99545673D01*
X83647162Y-99889201D01*
X83646838Y-100261167D01*
X83697000Y-100382569D01*
X83697000Y-100837995D01*
X83696999Y-100838000D01*
X83731444Y-101011162D01*
X83764367Y-101176675D01*
X83956210Y-101463790D01*
X84398208Y-101905787D01*
X84398210Y-101905790D01*
X84685325Y-102097633D01*
X85024000Y-102165000D01*
X85306142Y-102165000D01*
X85469300Y-102276481D01*
X85721190Y-102327490D01*
X86521290Y-102327490D01*
X86756607Y-102283212D01*
X86972731Y-102144140D01*
X87117721Y-101931940D01*
X87168730Y-101680050D01*
X87168730Y-101058090D01*
X87181843Y-101089748D01*
X87360471Y-101268377D01*
X87593860Y-101365050D01*
X87834470Y-101365050D01*
X87993220Y-101206300D01*
X87993220Y-100457000D01*
X88247220Y-100457000D01*
X88247220Y-101206300D01*
X88405970Y-101365050D01*
X88646580Y-101365050D01*
X88879969Y-101268377D01*
X89058597Y-101089748D01*
X89155270Y-100856359D01*
X89155270Y-100615750D01*
X88996520Y-100457000D01*
X88247220Y-100457000D01*
X87993220Y-100457000D01*
X87243920Y-100457000D01*
X87097763Y-100603157D01*
X86985380Y-100428509D01*
X86840283Y-100329368D01*
X86972731Y-100244140D01*
X87099511Y-100058591D01*
X87243920Y-100203000D01*
X87993220Y-100203000D01*
X87993220Y-99453700D01*
X88247220Y-99453700D01*
X88247220Y-100203000D01*
X88996520Y-100203000D01*
X89155270Y-100044250D01*
X89155270Y-99803641D01*
X89058597Y-99570252D01*
X88879969Y-99391623D01*
X88646580Y-99294950D01*
X88405970Y-99294950D01*
X88247220Y-99453700D01*
X87993220Y-99453700D01*
X87834470Y-99294950D01*
X87593860Y-99294950D01*
X87360471Y-99391623D01*
X87181843Y-99570252D01*
X87168730Y-99601910D01*
X87168730Y-98979950D01*
X87124452Y-98744633D01*
X87006240Y-98560926D01*
X87006240Y-97805240D01*
X86938873Y-97466565D01*
X86747030Y-97179450D01*
X86747027Y-97179448D01*
X85969790Y-96402210D01*
X85803950Y-96291400D01*
X85682675Y-96210367D01*
X85624519Y-96198799D01*
X85344000Y-96142999D01*
X85343995Y-96143000D01*
X84948579Y-96143000D01*
X84705000Y-95899420D01*
X84705000Y-95556822D01*
X84754838Y-95436799D01*
X84755162Y-95064833D01*
X84613117Y-94721057D01*
X84350327Y-94457808D01*
X84006799Y-94315162D01*
X83634833Y-94314838D01*
X83291057Y-94456883D01*
X83027808Y-94719673D01*
X82885162Y-95063201D01*
X82884838Y-95435167D01*
X47113000Y-95435167D01*
X47113000Y-93330580D01*
X47294412Y-93149167D01*
X61548838Y-93149167D01*
X61690883Y-93492943D01*
X61953673Y-93756192D01*
X62297201Y-93898838D01*
X62669167Y-93899162D01*
X62790569Y-93849000D01*
X66039995Y-93849000D01*
X66040000Y-93849001D01*
X66040005Y-93849000D01*
X78433178Y-93849000D01*
X78553201Y-93898838D01*
X78925167Y-93899162D01*
X79268943Y-93757117D01*
X79532192Y-93494327D01*
X79674838Y-93150799D01*
X79675162Y-92778833D01*
X79533117Y-92435057D01*
X79270327Y-92171808D01*
X78926799Y-92029162D01*
X78554833Y-92028838D01*
X78433431Y-92079000D01*
X68176579Y-92079000D01*
X68443787Y-91811792D01*
X68443790Y-91811790D01*
X68635633Y-91524675D01*
X68646810Y-91468484D01*
X68703001Y-91186000D01*
X68703000Y-91185995D01*
X68703000Y-89968822D01*
X68752838Y-89848799D01*
X68753162Y-89476833D01*
X68611117Y-89133057D01*
X68348327Y-88869808D01*
X68004799Y-88727162D01*
X67632833Y-88726838D01*
X67289057Y-88868883D01*
X67025808Y-89131673D01*
X66883162Y-89475201D01*
X66882838Y-89847167D01*
X66933000Y-89968569D01*
X66933000Y-90819421D01*
X65673420Y-92079000D01*
X62790822Y-92079000D01*
X62670799Y-92029162D01*
X62298833Y-92028838D01*
X61955057Y-92170883D01*
X61691808Y-92433673D01*
X61549162Y-92777201D01*
X61548838Y-93149167D01*
X47294412Y-93149167D01*
X49085391Y-91358188D01*
X56014417Y-91358188D01*
X56076071Y-91593800D01*
X56576480Y-91769927D01*
X57106199Y-91741148D01*
X57461929Y-91593800D01*
X57523583Y-91358188D01*
X63634417Y-91358188D01*
X63696071Y-91593800D01*
X64196480Y-91769927D01*
X64726199Y-91741148D01*
X65081929Y-91593800D01*
X65143583Y-91358188D01*
X64389000Y-90603605D01*
X63634417Y-91358188D01*
X57523583Y-91358188D01*
X56769000Y-90603605D01*
X56014417Y-91358188D01*
X49085391Y-91358188D01*
X50212099Y-90231480D01*
X55423073Y-90231480D01*
X55451852Y-90761199D01*
X55599200Y-91116929D01*
X55834812Y-91178583D01*
X56589395Y-90424000D01*
X56948605Y-90424000D01*
X57703188Y-91178583D01*
X57938800Y-91116929D01*
X58114927Y-90616520D01*
X58094009Y-90231480D01*
X63043073Y-90231480D01*
X63071852Y-90761199D01*
X63219200Y-91116929D01*
X63454812Y-91178583D01*
X64209395Y-90424000D01*
X64568605Y-90424000D01*
X65323188Y-91178583D01*
X65558800Y-91116929D01*
X65734927Y-90616520D01*
X65706148Y-90086801D01*
X65558800Y-89731071D01*
X65323188Y-89669417D01*
X64568605Y-90424000D01*
X64209395Y-90424000D01*
X63454812Y-89669417D01*
X63219200Y-89731071D01*
X63043073Y-90231480D01*
X58094009Y-90231480D01*
X58086148Y-90086801D01*
X57938800Y-89731071D01*
X57703188Y-89669417D01*
X56948605Y-90424000D01*
X56589395Y-90424000D01*
X55834812Y-89669417D01*
X55599200Y-89731071D01*
X55423073Y-90231480D01*
X50212099Y-90231480D01*
X51166579Y-89277000D01*
X51509178Y-89277000D01*
X51629201Y-89326838D01*
X52001167Y-89327162D01*
X52344943Y-89185117D01*
X52608192Y-88922327D01*
X52750838Y-88578799D01*
X52750850Y-88565151D01*
X52763167Y-88565162D01*
X53106943Y-88423117D01*
X53370192Y-88160327D01*
X53512838Y-87816799D01*
X53513162Y-87444833D01*
X53371117Y-87101057D01*
X53108327Y-86837808D01*
X52764799Y-86695162D01*
X52392833Y-86694838D01*
X52271431Y-86745000D01*
X50038005Y-86745000D01*
X50038000Y-86744999D01*
X49703980Y-86811441D01*
X49699325Y-86812367D01*
X49412210Y-87004210D01*
X49412208Y-87004213D01*
X48142210Y-88274210D01*
X48142208Y-88274213D01*
X45293611Y-91122809D01*
X45356827Y-90805000D01*
X45242753Y-90231511D01*
X44917897Y-89745330D01*
X44595880Y-89530165D01*
X44965873Y-89234868D01*
X45249527Y-88721157D01*
X45271358Y-88624026D01*
X45150217Y-88392000D01*
X43307000Y-88392000D01*
X43307000Y-88412000D01*
X43053000Y-88412000D01*
X43053000Y-88392000D01*
X41209783Y-88392000D01*
X41088642Y-88624026D01*
X41110473Y-88721157D01*
X41394127Y-89234868D01*
X41764120Y-89530165D01*
X41442103Y-89745330D01*
X41117247Y-90231511D01*
X41003173Y-90805000D01*
X41117247Y-91378489D01*
X41442103Y-91864670D01*
X41928284Y-92189526D01*
X42501773Y-92303600D01*
X43858227Y-92303600D01*
X44235802Y-92228496D01*
X44140367Y-92371325D01*
X44140367Y-92371326D01*
X44072999Y-92710000D01*
X44073000Y-92710005D01*
X44073000Y-101995421D01*
X42321860Y-103746560D01*
X40894000Y-103746560D01*
X40658683Y-103790838D01*
X40442559Y-103929910D01*
X40297569Y-104142110D01*
X40246560Y-104394000D01*
X37223440Y-104394000D01*
X37223440Y-102489000D01*
X37179162Y-102253683D01*
X37040090Y-102037559D01*
X36827890Y-101892569D01*
X36576000Y-101841560D01*
X34544000Y-101841560D01*
X34308683Y-101885838D01*
X34092559Y-102024910D01*
X33947569Y-102237110D01*
X33896560Y-102489000D01*
X31825000Y-102489000D01*
X31825000Y-95250000D01*
X33876655Y-95250000D01*
X33990729Y-95823489D01*
X34315585Y-96309670D01*
X34630366Y-96520000D01*
X34315585Y-96730330D01*
X33990729Y-97216511D01*
X33876655Y-97790000D01*
X33990729Y-98363489D01*
X34315585Y-98849670D01*
X34801766Y-99174526D01*
X35375255Y-99288600D01*
X35744745Y-99288600D01*
X36318234Y-99174526D01*
X36804415Y-98849670D01*
X37129271Y-98363489D01*
X37243345Y-97790000D01*
X37129271Y-97216511D01*
X36804415Y-96730330D01*
X36489634Y-96520000D01*
X36804415Y-96309670D01*
X36879587Y-96197167D01*
X37672838Y-96197167D01*
X37814883Y-96540943D01*
X38077673Y-96804192D01*
X38421201Y-96946838D01*
X38793167Y-96947162D01*
X39136943Y-96805117D01*
X39400192Y-96542327D01*
X39542838Y-96198799D01*
X39543162Y-95826833D01*
X39493000Y-95705431D01*
X39493000Y-85456580D01*
X40088179Y-84861400D01*
X41032560Y-84861400D01*
X41032560Y-86588600D01*
X41076838Y-86823917D01*
X41215910Y-87040041D01*
X41428110Y-87185031D01*
X41511037Y-87201824D01*
X41394127Y-87295132D01*
X41110473Y-87808843D01*
X41088642Y-87905974D01*
X41209783Y-88138000D01*
X43053000Y-88138000D01*
X43053000Y-88118000D01*
X43307000Y-88118000D01*
X43307000Y-88138000D01*
X45150217Y-88138000D01*
X45271358Y-87905974D01*
X45249527Y-87808843D01*
X44965873Y-87295132D01*
X44851420Y-87203785D01*
X44915317Y-87191762D01*
X45131441Y-87052690D01*
X45276431Y-86840490D01*
X45327440Y-86588600D01*
X45327440Y-84861400D01*
X45283162Y-84626083D01*
X45144090Y-84409959D01*
X44931890Y-84264969D01*
X44680000Y-84213960D01*
X41680000Y-84213960D01*
X41444683Y-84258238D01*
X41228559Y-84397310D01*
X41083569Y-84609510D01*
X41032560Y-84861400D01*
X40088179Y-84861400D01*
X40752579Y-84197000D01*
X51703420Y-84197000D01*
X53725000Y-86218579D01*
X53725000Y-88847178D01*
X53675162Y-88967201D01*
X53674838Y-89339167D01*
X53816883Y-89682943D01*
X54079673Y-89946192D01*
X54423201Y-90088838D01*
X54795167Y-90089162D01*
X55138943Y-89947117D01*
X55402192Y-89684327D01*
X55482962Y-89489812D01*
X56014417Y-89489812D01*
X56769000Y-90244395D01*
X57523583Y-89489812D01*
X63634417Y-89489812D01*
X64389000Y-90244395D01*
X65143583Y-89489812D01*
X65081929Y-89254200D01*
X64581520Y-89078073D01*
X64051801Y-89106852D01*
X63696071Y-89254200D01*
X63634417Y-89489812D01*
X57523583Y-89489812D01*
X57461929Y-89254200D01*
X56961520Y-89078073D01*
X56431801Y-89106852D01*
X56076071Y-89254200D01*
X56014417Y-89489812D01*
X55482962Y-89489812D01*
X55544838Y-89340799D01*
X55545162Y-88968833D01*
X55495000Y-88847431D01*
X55495000Y-85852000D01*
X55456891Y-85660416D01*
X55637854Y-86098380D01*
X56012647Y-86473827D01*
X56502587Y-86677268D01*
X57033086Y-86677731D01*
X57523380Y-86475146D01*
X57898827Y-86100353D01*
X58102268Y-85610413D01*
X58102270Y-85608086D01*
X63055269Y-85608086D01*
X63257854Y-86098380D01*
X63632647Y-86473827D01*
X64122587Y-86677268D01*
X64653086Y-86677731D01*
X65143380Y-86475146D01*
X65518827Y-86100353D01*
X65722268Y-85610413D01*
X65722661Y-85159255D01*
X68097400Y-85159255D01*
X68097400Y-85528745D01*
X68211474Y-86102234D01*
X68536330Y-86588415D01*
X69022511Y-86913271D01*
X69596000Y-87027345D01*
X70169489Y-86913271D01*
X70655670Y-86588415D01*
X70866000Y-86273634D01*
X71076330Y-86588415D01*
X71562511Y-86913271D01*
X72136000Y-87027345D01*
X72709489Y-86913271D01*
X73195670Y-86588415D01*
X73406000Y-86273634D01*
X73616330Y-86588415D01*
X74102511Y-86913271D01*
X74676000Y-87027345D01*
X75249489Y-86913271D01*
X75735670Y-86588415D01*
X75946000Y-86273634D01*
X76156330Y-86588415D01*
X76642511Y-86913271D01*
X77216000Y-87027345D01*
X77789489Y-86913271D01*
X78275670Y-86588415D01*
X78486000Y-86273634D01*
X78696330Y-86588415D01*
X79182511Y-86913271D01*
X79756000Y-87027345D01*
X80329489Y-86913271D01*
X80815670Y-86588415D01*
X80825243Y-86574087D01*
X80829238Y-86595317D01*
X80968310Y-86811441D01*
X81180510Y-86956431D01*
X81432400Y-87007440D01*
X83159600Y-87007440D01*
X83394917Y-86963162D01*
X83611041Y-86824090D01*
X83756031Y-86611890D01*
X83807040Y-86360000D01*
X83807040Y-85618172D01*
X86232538Y-85618172D01*
X86637709Y-86598761D01*
X87387293Y-87349655D01*
X88367173Y-87756536D01*
X89428172Y-87757462D01*
X90408761Y-87352291D01*
X91159655Y-86602707D01*
X91566536Y-85622827D01*
X91567462Y-84561828D01*
X91162291Y-83581239D01*
X90412707Y-82830345D01*
X89432827Y-82423464D01*
X88371828Y-82422538D01*
X87391239Y-82827709D01*
X86640345Y-83577293D01*
X86233464Y-84557173D01*
X86232538Y-85618172D01*
X83807040Y-85618172D01*
X83807040Y-84328000D01*
X83762762Y-84092683D01*
X83623690Y-83876559D01*
X83411490Y-83731569D01*
X83159600Y-83680560D01*
X81432400Y-83680560D01*
X81197083Y-83724838D01*
X80980959Y-83863910D01*
X80835969Y-84076110D01*
X80827600Y-84117439D01*
X80815670Y-84099585D01*
X80329489Y-83774729D01*
X79756000Y-83660655D01*
X79182511Y-83774729D01*
X78696330Y-84099585D01*
X78486000Y-84414366D01*
X78275670Y-84099585D01*
X77789489Y-83774729D01*
X77216000Y-83660655D01*
X76642511Y-83774729D01*
X76156330Y-84099585D01*
X75946000Y-84414366D01*
X75735670Y-84099585D01*
X75249489Y-83774729D01*
X74676000Y-83660655D01*
X74102511Y-83774729D01*
X73616330Y-84099585D01*
X73406000Y-84414366D01*
X73195670Y-84099585D01*
X72709489Y-83774729D01*
X72136000Y-83660655D01*
X71562511Y-83774729D01*
X71076330Y-84099585D01*
X70866000Y-84414366D01*
X70655670Y-84099585D01*
X70169489Y-83774729D01*
X69596000Y-83660655D01*
X69022511Y-83774729D01*
X68536330Y-84099585D01*
X68211474Y-84585766D01*
X68097400Y-85159255D01*
X65722661Y-85159255D01*
X65722731Y-85079914D01*
X65520146Y-84589620D01*
X65145353Y-84214173D01*
X64655413Y-84010732D01*
X64124914Y-84010269D01*
X63634620Y-84212854D01*
X63259173Y-84587647D01*
X63055732Y-85077587D01*
X63055269Y-85608086D01*
X58102270Y-85608086D01*
X58102731Y-85079914D01*
X57900146Y-84589620D01*
X57525353Y-84214173D01*
X57035413Y-84010732D01*
X56504914Y-84010269D01*
X56014620Y-84212854D01*
X55639173Y-84587647D01*
X55435732Y-85077587D01*
X55435318Y-85551960D01*
X55427633Y-85513325D01*
X55235790Y-85226210D01*
X55235787Y-85226208D01*
X52695790Y-82686210D01*
X52408675Y-82494367D01*
X52352484Y-82483190D01*
X52070000Y-82426999D01*
X52069995Y-82427000D01*
X40386005Y-82427000D01*
X40386000Y-82426999D01*
X40103516Y-82483190D01*
X40047325Y-82494367D01*
X39760210Y-82686210D01*
X39760208Y-82686213D01*
X37982210Y-84464210D01*
X37790367Y-84751325D01*
X37790367Y-84751326D01*
X37722999Y-85090000D01*
X37723000Y-85090005D01*
X37723000Y-95705178D01*
X37673162Y-95825201D01*
X37672838Y-96197167D01*
X36879587Y-96197167D01*
X37129271Y-95823489D01*
X37243345Y-95250000D01*
X37129271Y-94676511D01*
X36804415Y-94190330D01*
X36790087Y-94180757D01*
X36811317Y-94176762D01*
X37027441Y-94037690D01*
X37172431Y-93825490D01*
X37223440Y-93573600D01*
X37223440Y-91846400D01*
X37179162Y-91611083D01*
X37040090Y-91394959D01*
X36827890Y-91249969D01*
X36576000Y-91198960D01*
X34544000Y-91198960D01*
X34308683Y-91243238D01*
X34092559Y-91382310D01*
X33947569Y-91594510D01*
X33896560Y-91846400D01*
X33896560Y-93573600D01*
X33940838Y-93808917D01*
X34079910Y-94025041D01*
X34292110Y-94170031D01*
X34333439Y-94178400D01*
X34315585Y-94190330D01*
X33990729Y-94676511D01*
X33876655Y-95250000D01*
X31825000Y-95250000D01*
X31825000Y-85618172D01*
X32257538Y-85618172D01*
X32662709Y-86598761D01*
X33412293Y-87349655D01*
X34392173Y-87756536D01*
X35453172Y-87757462D01*
X36433761Y-87352291D01*
X37184655Y-86602707D01*
X37591536Y-85622827D01*
X37592462Y-84561828D01*
X37187291Y-83581239D01*
X36437707Y-82830345D01*
X35457827Y-82423464D01*
X34396828Y-82422538D01*
X33416239Y-82827709D01*
X32665345Y-83577293D01*
X32258464Y-84557173D01*
X32257538Y-85618172D01*
X31825000Y-85618172D01*
X31825000Y-81990000D01*
X91577697Y-81990000D01*
X96487747Y-95492638D01*
M02*
