M48
INCH,TZ
T1C0.016
T2C0.031
T3C0.032
T4C0.040
T5C0.120
%
G90
G05
T1
X015200Y-037800
X017100Y-038100
X018600Y-042600
X018900Y-039900
X019900Y-042600
X020400Y-034800
X020700Y-034500
X021500Y-035100
X022100Y-043400
X023000Y-041700
X024000Y-037400
X024000Y-039100
X024600Y-036600
X025900Y-043400
X026600Y-042600
X026700Y-035300
X027200Y-042600
X027800Y-038600
X028200Y-042500
X028200Y-043400
X028800Y-039900
X030300Y-040800
X030400Y-039500
X030700Y-038600
X031000Y-036600
X031000Y-039200
X031000Y-042400
X031200Y-041100
X031700Y-037300
X033000Y-037500
X033300Y-039400
X033400Y-042000
X034700Y-038300
X034900Y-036500
X038000Y-040200
X041500Y-040200
X045000Y-040200
X048500Y-040200
X052000Y-040200
X055500Y-040200
X059000Y-040200
X062500Y-040200
X066000Y-040200
X069500Y-040200
X073000Y-040200
X076500Y-040200
X080000Y-040200
X083500Y-040200
X087000Y-040200
X090500Y-040200
X094000Y-040200
T2
X035400Y-042016
X035400Y-043000
T3
X017200Y-043700
X017200Y-046700
X019200Y-043700
X019200Y-046700
X021000Y-043700
X021000Y-046700
X022350Y-033600
X022350Y-035600
X023000Y-043700
X023000Y-046700
X024800Y-043700
X024800Y-046700
X025350Y-033600
X025350Y-035600
X026800Y-043700
X026800Y-046700
T4
X014000Y-036500
X014000Y-037500
X014000Y-038500
X014000Y-040750
X014000Y-041750
X016500Y-041500
X017000Y-033750
X017000Y-034750
X017000Y-035750
X017500Y-041500
X027400Y-033600
X028400Y-033600
X029200Y-044600
X029200Y-045600
X029400Y-033600
X030200Y-044600
X030200Y-045600
X030400Y-033600
X031200Y-044600
X031200Y-045600
X031400Y-033600
X032400Y-033600
T5
X013750Y-033500
X013750Y-046000
X035000Y-033500
X035000Y-046000
T0
M30
