G04 #@! TF.FileFunction,Copper,L1,Top,Signal*
%FSLAX46Y46*%
G04 Gerber Fmt 4.6, Leading zero omitted, Abs format (unit mm)*
G04 Created by KiCad (PCBNEW 0.201509111501+6183~30~ubuntu14.04.1-product) date Sun 13 Sep 2015 08:24:29 PM CDT*
%MOMM*%
G01*
G04 APERTURE LIST*
%ADD10C,0.100000*%
%ADD11C,0.150000*%
%ADD12C,4.064000*%
%ADD13C,1.300000*%
%ADD14R,1.300000X1.300000*%
%ADD15R,1.250000X1.000000*%
%ADD16R,1.000000X1.250000*%
%ADD17R,1.727200X1.727200*%
%ADD18O,1.727200X1.727200*%
%ADD19O,2.000000X1.100000*%
%ADD20R,2.032000X2.032000*%
%ADD21O,2.032000X2.032000*%
%ADD22R,2.032000X1.727200*%
%ADD23O,2.032000X1.727200*%
%ADD24R,1.727200X2.032000*%
%ADD25O,1.727200X2.032000*%
%ADD26R,0.700000X1.300000*%
%ADD27C,1.397000*%
%ADD28R,1.998980X5.499100*%
%ADD29R,1.600000X0.550000*%
%ADD30R,0.550000X1.600000*%
%ADD31R,3.000000X1.727200*%
%ADD32O,3.000000X1.727200*%
%ADD33C,0.600000*%
%ADD34C,0.500000*%
%ADD35C,0.254000*%
G04 APERTURE END LIST*
D10*
D11*
X97155000Y-105410000D02*
X92075000Y-120650000D01*
X97155000Y-95250000D02*
X92075000Y-81280000D01*
X247650000Y-105410000D02*
X97155000Y-105410000D01*
X247650000Y-95250000D02*
X247650000Y-105410000D01*
X97155000Y-95250000D02*
X247650000Y-95250000D01*
X31115000Y-120650000D02*
X31115000Y-81290000D01*
X92075000Y-120650000D02*
X31115000Y-120650000D01*
X31115000Y-81280000D02*
X92075000Y-81280000D01*
D12*
X88900000Y-85090000D03*
X88900000Y-116840000D03*
X34925000Y-116840000D03*
D13*
X89916000Y-106720000D03*
D14*
X89916000Y-109220000D03*
D15*
X62865000Y-96885000D03*
X62865000Y-94885000D03*
X62865000Y-101330000D03*
X62865000Y-99330000D03*
D16*
X80788000Y-106680000D03*
X82788000Y-106680000D03*
X47895000Y-95250000D03*
X49895000Y-95250000D03*
X47895000Y-99060000D03*
X49895000Y-99060000D03*
X86122000Y-94742000D03*
X88122000Y-94742000D03*
X41545000Y-99060000D03*
X43545000Y-99060000D03*
D17*
X79248000Y-113284000D03*
D18*
X79248000Y-115824000D03*
X76708000Y-113284000D03*
X76708000Y-115824000D03*
X74168000Y-113284000D03*
X74168000Y-115824000D03*
D19*
X98565000Y-98630000D03*
X98565000Y-100330000D03*
X98565000Y-102030000D03*
X103365000Y-102030000D03*
X103365000Y-100330000D03*
X103365000Y-98630000D03*
X107455000Y-98630000D03*
X107455000Y-100330000D03*
X107455000Y-102030000D03*
X112255000Y-102030000D03*
X112255000Y-100330000D03*
X112255000Y-98630000D03*
X116345000Y-98630000D03*
X116345000Y-100330000D03*
X116345000Y-102030000D03*
X121145000Y-102030000D03*
X121145000Y-100330000D03*
X121145000Y-98630000D03*
X125235000Y-98630000D03*
X125235000Y-100330000D03*
X125235000Y-102030000D03*
X130035000Y-102030000D03*
X130035000Y-100330000D03*
X130035000Y-98630000D03*
X134125000Y-98630000D03*
X134125000Y-100330000D03*
X134125000Y-102030000D03*
X138925000Y-102030000D03*
X138925000Y-100330000D03*
X138925000Y-98630000D03*
X143015000Y-98630000D03*
X143015000Y-100330000D03*
X143015000Y-102030000D03*
X147815000Y-102030000D03*
X147815000Y-100330000D03*
X147815000Y-98630000D03*
X151905000Y-98630000D03*
X151905000Y-100330000D03*
X151905000Y-102030000D03*
X156705000Y-102030000D03*
X156705000Y-100330000D03*
X156705000Y-98630000D03*
X160795000Y-98630000D03*
X160795000Y-100330000D03*
X160795000Y-102030000D03*
X165595000Y-102030000D03*
X165595000Y-100330000D03*
X165595000Y-98630000D03*
X169685000Y-98630000D03*
X169685000Y-100330000D03*
X169685000Y-102030000D03*
X174485000Y-102030000D03*
X174485000Y-100330000D03*
X174485000Y-98630000D03*
X178575000Y-98630000D03*
X178575000Y-100330000D03*
X178575000Y-102030000D03*
X183375000Y-102030000D03*
X183375000Y-100330000D03*
X183375000Y-98630000D03*
X187465000Y-98630000D03*
X187465000Y-100330000D03*
X187465000Y-102030000D03*
X192265000Y-102030000D03*
X192265000Y-100330000D03*
X192265000Y-98630000D03*
X196355000Y-98630000D03*
X196355000Y-100330000D03*
X196355000Y-102030000D03*
X201155000Y-102030000D03*
X201155000Y-100330000D03*
X201155000Y-98630000D03*
X205245000Y-98630000D03*
X205245000Y-100330000D03*
X205245000Y-102030000D03*
X210045000Y-102030000D03*
X210045000Y-100330000D03*
X210045000Y-98630000D03*
X214135000Y-98630000D03*
X214135000Y-100330000D03*
X214135000Y-102030000D03*
X218935000Y-102030000D03*
X218935000Y-100330000D03*
X218935000Y-98630000D03*
X223025000Y-98630000D03*
X223025000Y-100330000D03*
X223025000Y-102030000D03*
X227825000Y-102030000D03*
X227825000Y-100330000D03*
X227825000Y-98630000D03*
X231915000Y-98630000D03*
X231915000Y-100330000D03*
X231915000Y-102030000D03*
X236715000Y-102030000D03*
X236715000Y-100330000D03*
X236715000Y-98630000D03*
X240805000Y-98630000D03*
X240805000Y-100330000D03*
X240805000Y-102030000D03*
X245605000Y-102030000D03*
X245605000Y-100330000D03*
X245605000Y-98630000D03*
D20*
X35560000Y-103505000D03*
D21*
X35560000Y-106045000D03*
D20*
X41910000Y-105410000D03*
D21*
X44450000Y-105410000D03*
D22*
X35560000Y-92710000D03*
D23*
X35560000Y-95250000D03*
X35560000Y-97790000D03*
D24*
X82296000Y-85344000D03*
D25*
X79756000Y-85344000D03*
X77216000Y-85344000D03*
X74676000Y-85344000D03*
X72136000Y-85344000D03*
X69596000Y-85344000D03*
D26*
X94422000Y-97028000D03*
X92522000Y-97028000D03*
X94422000Y-100330000D03*
X92522000Y-100330000D03*
X69154000Y-91059000D03*
X71054000Y-91059000D03*
X82738000Y-98044000D03*
X80838000Y-98044000D03*
X41595000Y-94615000D03*
X43495000Y-94615000D03*
D27*
X43688000Y-110998000D03*
X48768000Y-110998000D03*
X43688000Y-118618000D03*
X48768000Y-118618000D03*
X53340000Y-110998000D03*
X58420000Y-110998000D03*
X53340000Y-118618000D03*
X58420000Y-118618000D03*
X62992000Y-110998000D03*
X68072000Y-110998000D03*
X62992000Y-118618000D03*
X68072000Y-118618000D03*
X56769000Y-90424000D03*
X56769000Y-85344000D03*
X64389000Y-90424000D03*
X64389000Y-85344000D03*
D28*
X54610000Y-94996000D03*
X54610000Y-104394000D03*
D29*
X67124000Y-96514000D03*
X67124000Y-97314000D03*
X67124000Y-98114000D03*
X67124000Y-98914000D03*
X67124000Y-99714000D03*
X67124000Y-100514000D03*
X67124000Y-101314000D03*
X67124000Y-102114000D03*
D30*
X68574000Y-103564000D03*
X69374000Y-103564000D03*
X70174000Y-103564000D03*
X70974000Y-103564000D03*
X71774000Y-103564000D03*
X72574000Y-103564000D03*
X73374000Y-103564000D03*
X74174000Y-103564000D03*
D29*
X75624000Y-102114000D03*
X75624000Y-101314000D03*
X75624000Y-100514000D03*
X75624000Y-99714000D03*
X75624000Y-98914000D03*
X75624000Y-98114000D03*
X75624000Y-97314000D03*
X75624000Y-96514000D03*
D30*
X74174000Y-95064000D03*
X73374000Y-95064000D03*
X72574000Y-95064000D03*
X71774000Y-95064000D03*
X70974000Y-95064000D03*
X70174000Y-95064000D03*
X69374000Y-95064000D03*
X68574000Y-95064000D03*
D16*
X80788000Y-101600000D03*
X82788000Y-101600000D03*
D31*
X43180000Y-85725000D03*
D32*
X43180000Y-88265000D03*
X43180000Y-90805000D03*
D12*
X34925000Y-85090000D03*
D33*
X88138000Y-97282000D03*
X58420000Y-105918000D03*
X80518000Y-94742000D03*
X48006000Y-101346000D03*
X78740000Y-99568000D03*
X60960000Y-99314000D03*
X60960000Y-94996000D03*
X84836000Y-106680000D03*
X238760000Y-102108000D03*
X229870000Y-102108000D03*
X220980000Y-102108000D03*
X212090000Y-102108000D03*
X203200000Y-102108000D03*
X194310000Y-102108000D03*
X185420000Y-102108000D03*
X176530000Y-102108000D03*
X167640000Y-102108000D03*
X158750000Y-102108000D03*
X149860000Y-102108000D03*
X140970000Y-102108000D03*
X132080000Y-102108000D03*
X123190000Y-102108000D03*
X114300000Y-102108000D03*
X105410000Y-102108000D03*
X96520000Y-102108000D03*
X88646000Y-92710000D03*
X43434000Y-96774000D03*
X84582000Y-100076000D03*
X78740000Y-92964000D03*
X67818000Y-89662000D03*
X62484000Y-92964000D03*
X83820000Y-95250000D03*
X70612000Y-98044000D03*
X77978000Y-98044000D03*
X78740000Y-107696000D03*
X79248000Y-104394000D03*
X76962000Y-103632000D03*
X77216000Y-100330000D03*
X71628000Y-110236000D03*
X71628000Y-107950000D03*
X73152000Y-101346000D03*
X52578000Y-87630000D03*
X51816000Y-88392000D03*
X38608000Y-96012000D03*
X54610000Y-89154000D03*
X47244000Y-108204000D03*
X50546000Y-108204000D03*
X56134000Y-110236000D03*
X67564000Y-108204000D03*
X65786000Y-110236000D03*
X69088000Y-108204000D03*
D34*
X88138000Y-97282000D02*
X88122000Y-97282000D01*
X88122000Y-97282000D02*
X88138000Y-97282000D01*
X88138000Y-97282000D02*
X88122000Y-97282000D01*
X88138000Y-96520000D02*
X88122000Y-96520000D01*
X88122000Y-96520000D02*
X88138000Y-96520000D01*
X88138000Y-96520000D02*
X88122000Y-96520000D01*
X47895000Y-101235000D02*
X47895000Y-99060000D01*
X48006000Y-101346000D02*
X47895000Y-101235000D01*
X75624000Y-98914000D02*
X78086000Y-98914000D01*
X78086000Y-98914000D02*
X78740000Y-99568000D01*
X47895000Y-95250000D02*
X47895000Y-99060000D01*
X60976000Y-99330000D02*
X62865000Y-99330000D01*
X60960000Y-99314000D02*
X60976000Y-99330000D01*
X62865000Y-94885000D02*
X61071000Y-94885000D01*
X61071000Y-94885000D02*
X60960000Y-94996000D01*
X84836000Y-106680000D02*
X82788000Y-106680000D01*
X238838000Y-102030000D02*
X240805000Y-102030000D01*
X238760000Y-102108000D02*
X238838000Y-102030000D01*
X231915000Y-102030000D02*
X229948000Y-102030000D01*
X229948000Y-102030000D02*
X229870000Y-102108000D01*
X221058000Y-102030000D02*
X223025000Y-102030000D01*
X220980000Y-102108000D02*
X221058000Y-102030000D01*
X214135000Y-102030000D02*
X212168000Y-102030000D01*
X212168000Y-102030000D02*
X212090000Y-102108000D01*
X203278000Y-102030000D02*
X205245000Y-102030000D01*
X203200000Y-102108000D02*
X203278000Y-102030000D01*
X196355000Y-102030000D02*
X194388000Y-102030000D01*
X194388000Y-102030000D02*
X194310000Y-102108000D01*
X185498000Y-102030000D02*
X187465000Y-102030000D01*
X185420000Y-102108000D02*
X185498000Y-102030000D01*
X178575000Y-102030000D02*
X176608000Y-102030000D01*
X176608000Y-102030000D02*
X176530000Y-102108000D01*
X167718000Y-102030000D02*
X169685000Y-102030000D01*
X167640000Y-102108000D02*
X167718000Y-102030000D01*
X160795000Y-102030000D02*
X158828000Y-102030000D01*
X158828000Y-102030000D02*
X158750000Y-102108000D01*
X149938000Y-102030000D02*
X151905000Y-102030000D01*
X149860000Y-102108000D02*
X149938000Y-102030000D01*
X143015000Y-102030000D02*
X141048000Y-102030000D01*
X141048000Y-102030000D02*
X140970000Y-102108000D01*
X132158000Y-102030000D02*
X134125000Y-102030000D01*
X132080000Y-102108000D02*
X132158000Y-102030000D01*
X125235000Y-102030000D02*
X123268000Y-102030000D01*
X123268000Y-102030000D02*
X123190000Y-102108000D01*
X114378000Y-102030000D02*
X116345000Y-102030000D01*
X114300000Y-102108000D02*
X114378000Y-102030000D01*
X107455000Y-102030000D02*
X105488000Y-102030000D01*
X105488000Y-102030000D02*
X105410000Y-102108000D01*
X96598000Y-102030000D02*
X98565000Y-102030000D01*
X96520000Y-102108000D02*
X96598000Y-102030000D01*
X88122000Y-94742000D02*
X88122000Y-93234000D01*
X88122000Y-93234000D02*
X88646000Y-92710000D01*
X88120220Y-99060000D02*
X88120220Y-100093780D01*
X86614000Y-101600000D02*
X82788000Y-101600000D01*
X88120220Y-100093780D02*
X86614000Y-101600000D01*
X88122000Y-94742000D02*
X88122000Y-96520000D01*
X88122000Y-96520000D02*
X88122000Y-97282000D01*
X88122000Y-97282000D02*
X88122000Y-99058220D01*
X88122000Y-99058220D02*
X88120220Y-99060000D01*
X43545000Y-99060000D02*
X43545000Y-96885000D01*
X43545000Y-96885000D02*
X43434000Y-96774000D01*
X67124000Y-98114000D02*
X66110000Y-98114000D01*
X63897000Y-94885000D02*
X62865000Y-94885000D01*
X64516000Y-95504000D02*
X63897000Y-94885000D01*
X64516000Y-96520000D02*
X64516000Y-95504000D01*
X66110000Y-98114000D02*
X64516000Y-96520000D01*
X67124000Y-99714000D02*
X64154000Y-99714000D01*
X64154000Y-99714000D02*
X63770000Y-99330000D01*
X63770000Y-99330000D02*
X62865000Y-99330000D01*
X75624000Y-101314000D02*
X76649952Y-101314000D01*
X77737024Y-104407024D02*
X77737024Y-102401072D01*
X78105000Y-104775000D02*
X80010000Y-106680000D01*
X80010000Y-106680000D02*
X80788000Y-106680000D01*
X78105000Y-104775000D02*
X77737024Y-104407024D01*
X76649952Y-101314000D02*
X77737024Y-102401072D01*
X89916000Y-109220000D02*
X91186000Y-109220000D01*
X94647500Y-104107500D02*
X105442500Y-104107500D01*
X93726000Y-105029000D02*
X94647500Y-104107500D01*
X93726000Y-106680000D02*
X93726000Y-105029000D01*
X91186000Y-109220000D02*
X93726000Y-106680000D01*
X81280000Y-109220000D02*
X89916000Y-109220000D01*
X84582000Y-98044000D02*
X84582000Y-100076000D01*
X86122000Y-94742000D02*
X86122000Y-96504000D01*
X84582000Y-98044000D02*
X82738000Y-98044000D01*
X86122000Y-96504000D02*
X84582000Y-98044000D01*
X84344000Y-92964000D02*
X86122000Y-94742000D01*
X78740000Y-92964000D02*
X84344000Y-92964000D01*
X62865000Y-96885000D02*
X60563000Y-96885000D01*
X60563000Y-96885000D02*
X59436000Y-95758000D01*
X62865000Y-101330000D02*
X61452000Y-101330000D01*
X61452000Y-101330000D02*
X59436000Y-99314000D01*
X59436000Y-99314000D02*
X59436000Y-95758000D01*
X59436000Y-95758000D02*
X59436000Y-94488000D01*
X59436000Y-94488000D02*
X60960000Y-92964000D01*
X60960000Y-92964000D02*
X62484000Y-92964000D01*
X67818000Y-89662000D02*
X67787500Y-89692500D01*
X67787500Y-89692500D02*
X67818000Y-89662000D01*
X67818000Y-89662000D02*
X67818000Y-89723000D01*
X50800000Y-88138000D02*
X52070000Y-86868000D01*
X64963000Y-86868000D02*
X67818000Y-89723000D01*
X67818000Y-89723000D02*
X69154000Y-91059000D01*
X52070000Y-86868000D02*
X64963000Y-86868000D01*
X45402500Y-93535500D02*
X45402500Y-101282500D01*
X50800000Y-88138000D02*
X45402500Y-93535500D01*
X62865000Y-96885000D02*
X63357000Y-96885000D01*
X63357000Y-96885000D02*
X65386000Y-98914000D01*
X65386000Y-98914000D02*
X67124000Y-98914000D01*
X62865000Y-101330000D02*
X63770000Y-101330000D01*
X64586000Y-100514000D02*
X67124000Y-100514000D01*
X63770000Y-101330000D02*
X64586000Y-100514000D01*
X82550000Y-114935000D02*
X82550000Y-110490000D01*
X81661000Y-115824000D02*
X82550000Y-114935000D01*
X79248000Y-115824000D02*
X81661000Y-115824000D01*
X82550000Y-110490000D02*
X81280000Y-109220000D01*
X78740000Y-109220000D02*
X79375000Y-109220000D01*
X80788000Y-107807000D02*
X80788000Y-106680000D01*
X79375000Y-109220000D02*
X80788000Y-107807000D01*
X37782500Y-101282500D02*
X45402500Y-101282500D01*
X50165000Y-109220000D02*
X60960000Y-109220000D01*
X47625000Y-106680000D02*
X50165000Y-109220000D01*
X47625000Y-103505000D02*
X47625000Y-106680000D01*
X45402500Y-101282500D02*
X47625000Y-103505000D01*
X60960000Y-109220000D02*
X78740000Y-109220000D01*
X78740000Y-109220000D02*
X81280000Y-109220000D01*
X41545000Y-99060000D02*
X41545000Y-94665000D01*
X41545000Y-94665000D02*
X41595000Y-94615000D01*
X35560000Y-103505000D02*
X37782500Y-101282500D01*
X37782500Y-101282500D02*
X40005000Y-99060000D01*
X40005000Y-99060000D02*
X41545000Y-99060000D01*
X236715000Y-102030000D02*
X236715000Y-102095000D01*
X236715000Y-102095000D02*
X238760000Y-104140000D01*
X227825000Y-102030000D02*
X227825000Y-102095000D01*
X227825000Y-102095000D02*
X229870000Y-104140000D01*
X218935000Y-102030000D02*
X218935000Y-102095000D01*
X218935000Y-102095000D02*
X220980000Y-104140000D01*
X210045000Y-102030000D02*
X210045000Y-102095000D01*
X210045000Y-102095000D02*
X212090000Y-104140000D01*
X201155000Y-102030000D02*
X201155000Y-102095000D01*
X201155000Y-102095000D02*
X203200000Y-104140000D01*
X192265000Y-102030000D02*
X192265000Y-102095000D01*
X192265000Y-102095000D02*
X194310000Y-104140000D01*
X183375000Y-102030000D02*
X183375000Y-102095000D01*
X183375000Y-102095000D02*
X185420000Y-104140000D01*
X174485000Y-102030000D02*
X174485000Y-102095000D01*
X174485000Y-102095000D02*
X176530000Y-104140000D01*
X165595000Y-102030000D02*
X165595000Y-102095000D01*
X165595000Y-102095000D02*
X167640000Y-104140000D01*
X156705000Y-102030000D02*
X156705000Y-102095000D01*
X156705000Y-102095000D02*
X158750000Y-104140000D01*
X147815000Y-102030000D02*
X147815000Y-102095000D01*
X147815000Y-102095000D02*
X149860000Y-104140000D01*
X138925000Y-102030000D02*
X138925000Y-102095000D01*
X138925000Y-102095000D02*
X140970000Y-104140000D01*
X130035000Y-102030000D02*
X130035000Y-102095000D01*
X130035000Y-102095000D02*
X132080000Y-104140000D01*
X121145000Y-102030000D02*
X121145000Y-102095000D01*
X121145000Y-102095000D02*
X123190000Y-104140000D01*
X112255000Y-102030000D02*
X112255000Y-102095000D01*
X112255000Y-102095000D02*
X114300000Y-104140000D01*
X245605000Y-102030000D02*
X245605000Y-103010000D01*
X105475000Y-104140000D02*
X105442500Y-104107500D01*
X114300000Y-104140000D02*
X105475000Y-104140000D01*
X105442500Y-104107500D02*
X103365000Y-102030000D01*
X244475000Y-104140000D02*
X238760000Y-104140000D01*
X238760000Y-104140000D02*
X229870000Y-104140000D01*
X229870000Y-104140000D02*
X220980000Y-104140000D01*
X220980000Y-104140000D02*
X212090000Y-104140000D01*
X212090000Y-104140000D02*
X203200000Y-104140000D01*
X203200000Y-104140000D02*
X194310000Y-104140000D01*
X194310000Y-104140000D02*
X185420000Y-104140000D01*
X185420000Y-104140000D02*
X176530000Y-104140000D01*
X176530000Y-104140000D02*
X167640000Y-104140000D01*
X167640000Y-104140000D02*
X158750000Y-104140000D01*
X158750000Y-104140000D02*
X149860000Y-104140000D01*
X149860000Y-104140000D02*
X140970000Y-104140000D01*
X140970000Y-104140000D02*
X132080000Y-104140000D01*
X132080000Y-104140000D02*
X123190000Y-104140000D01*
X123190000Y-104140000D02*
X114300000Y-104140000D01*
X245605000Y-103010000D02*
X244475000Y-104140000D01*
X49895000Y-95250000D02*
X54356000Y-95250000D01*
X54356000Y-95250000D02*
X54610000Y-94996000D01*
X67124000Y-101314000D02*
X65056000Y-101314000D01*
X57912000Y-98298000D02*
X54610000Y-94996000D01*
X57912000Y-99568000D02*
X57912000Y-98298000D01*
X60960000Y-102616000D02*
X57912000Y-99568000D01*
X63754000Y-102616000D02*
X60960000Y-102616000D01*
X65056000Y-101314000D02*
X63754000Y-102616000D01*
X54610000Y-104394000D02*
X52070000Y-104394000D01*
X49895000Y-102219000D02*
X49895000Y-99060000D01*
X52070000Y-104394000D02*
X49895000Y-102219000D01*
X67124000Y-102114000D02*
X65780000Y-102114000D01*
X63500000Y-104394000D02*
X54610000Y-104394000D01*
X65780000Y-102114000D02*
X63500000Y-104394000D01*
X80838000Y-96708000D02*
X82296000Y-95250000D01*
X82296000Y-95250000D02*
X83820000Y-95250000D01*
X80838000Y-96708000D02*
X80838000Y-98044000D01*
X80838000Y-98044000D02*
X80788000Y-98094000D01*
X80788000Y-98094000D02*
X80788000Y-101600000D01*
X68574000Y-95064000D02*
X68580000Y-95070000D01*
X68580000Y-95070000D02*
X68580000Y-96012000D01*
X68580000Y-96012000D02*
X70612000Y-98044000D01*
X70612000Y-98044000D02*
X70612000Y-98044000D01*
X77978000Y-98044000D02*
X80838000Y-98044000D01*
X74174000Y-103564000D02*
X74608000Y-103564000D01*
X74608000Y-103564000D02*
X78740000Y-107696000D01*
X87122000Y-104394000D02*
X87376000Y-104394000D01*
X79248000Y-104394000D02*
X87122000Y-104394000D01*
X92522000Y-100330000D02*
X91440000Y-100330000D01*
X87376000Y-104394000D02*
X91440000Y-100330000D01*
X75624000Y-102114000D02*
X76460000Y-102114000D01*
X76962000Y-102616000D02*
X76962000Y-103632000D01*
X76460000Y-102114000D02*
X76962000Y-102616000D01*
X75624000Y-102114000D02*
X75698000Y-102114000D01*
X86360000Y-103378000D02*
X86868000Y-103378000D01*
X91440000Y-97028000D02*
X92522000Y-97028000D01*
X90678000Y-97790000D02*
X91440000Y-97028000D01*
X90678000Y-99568000D02*
X90678000Y-97790000D01*
X86868000Y-103378000D02*
X90678000Y-99568000D01*
X80264000Y-103378000D02*
X78994000Y-102108000D01*
X86454496Y-103378000D02*
X86360000Y-103378000D01*
X86360000Y-103378000D02*
X80264000Y-103378000D01*
X77216000Y-100330000D02*
X78994000Y-102108000D01*
X75692000Y-118364000D02*
X76708000Y-117348000D01*
X76708000Y-117348000D02*
X76708000Y-115824000D01*
X73374000Y-103564000D02*
X73374000Y-106204000D01*
X73660000Y-118364000D02*
X75692000Y-118364000D01*
X71628000Y-116332000D02*
X73660000Y-118364000D01*
X71628000Y-110236000D02*
X71628000Y-116332000D01*
X73374000Y-106204000D02*
X71628000Y-107950000D01*
X56769000Y-85344000D02*
X64389000Y-85344000D01*
X64389000Y-85344000D02*
X65339000Y-85344000D01*
X65339000Y-85344000D02*
X71054000Y-91059000D01*
X70974000Y-95064000D02*
X70974000Y-97136000D01*
X73152000Y-99314000D02*
X73152000Y-101346000D01*
X70974000Y-97136000D02*
X73152000Y-99314000D01*
X70974000Y-95064000D02*
X70974000Y-91139000D01*
X70974000Y-91139000D02*
X71054000Y-91059000D01*
X98565000Y-98630000D02*
X97360000Y-98630000D01*
X95758000Y-97028000D02*
X94422000Y-97028000D01*
X97360000Y-98630000D02*
X95758000Y-97028000D01*
X94422000Y-100330000D02*
X98565000Y-100330000D01*
X103365000Y-100330000D02*
X107455000Y-100330000D01*
X103365000Y-98630000D02*
X107455000Y-98630000D01*
X112255000Y-100330000D02*
X116345000Y-100330000D01*
X112255000Y-98630000D02*
X116345000Y-98630000D01*
X121145000Y-100330000D02*
X125235000Y-100330000D01*
X121145000Y-98630000D02*
X125235000Y-98630000D01*
X130035000Y-100330000D02*
X134125000Y-100330000D01*
X130035000Y-98630000D02*
X134125000Y-98630000D01*
X138925000Y-100330000D02*
X143015000Y-100330000D01*
X138925000Y-98630000D02*
X143015000Y-98630000D01*
X147815000Y-100330000D02*
X151905000Y-100330000D01*
X147815000Y-98630000D02*
X151905000Y-98630000D01*
X156705000Y-100330000D02*
X160795000Y-100330000D01*
X156705000Y-98630000D02*
X160795000Y-98630000D01*
X165595000Y-100330000D02*
X169685000Y-100330000D01*
X165595000Y-98630000D02*
X169685000Y-98630000D01*
X174485000Y-100330000D02*
X178575000Y-100330000D01*
X174485000Y-98630000D02*
X178575000Y-98630000D01*
X183375000Y-100330000D02*
X187465000Y-100330000D01*
X183375000Y-98630000D02*
X187465000Y-98630000D01*
X192265000Y-100330000D02*
X196355000Y-100330000D01*
X192265000Y-98630000D02*
X196355000Y-98630000D01*
X201155000Y-100330000D02*
X205245000Y-100330000D01*
X201155000Y-98630000D02*
X205245000Y-98630000D01*
X210045000Y-100330000D02*
X214135000Y-100330000D01*
X210045000Y-98630000D02*
X214135000Y-98630000D01*
X218935000Y-100330000D02*
X223025000Y-100330000D01*
X218935000Y-98630000D02*
X223025000Y-98630000D01*
X227825000Y-100330000D02*
X231915000Y-100330000D01*
X227825000Y-98630000D02*
X231915000Y-98630000D01*
X52578000Y-87630000D02*
X64489952Y-87630000D01*
X65518976Y-88659024D02*
X65518976Y-88632976D01*
X64489952Y-87630000D02*
X65518976Y-88659024D01*
X35560000Y-92710000D02*
X34290000Y-92710000D01*
X41910000Y-107188000D02*
X41910000Y-105410000D01*
X40894000Y-108204000D02*
X41910000Y-107188000D01*
X34036000Y-108204000D02*
X40894000Y-108204000D01*
X33274000Y-107442000D02*
X34036000Y-108204000D01*
X33274000Y-93726000D02*
X33274000Y-107442000D01*
X34290000Y-92710000D02*
X33274000Y-93726000D01*
X70174000Y-95064000D02*
X70174000Y-93288000D01*
X66548000Y-89662000D02*
X65518976Y-88632976D01*
X66548000Y-91694000D02*
X66548000Y-89662000D01*
X67371998Y-92517998D02*
X66548000Y-91694000D01*
X69403998Y-92517998D02*
X67371998Y-92517998D01*
X70174000Y-93288000D02*
X69403998Y-92517998D01*
X65659000Y-89789000D02*
X64262000Y-88392000D01*
X64262000Y-88392000D02*
X51816000Y-88392000D01*
X69374000Y-95064000D02*
X69374000Y-93758000D01*
X65786000Y-89916000D02*
X65659000Y-89789000D01*
X65786000Y-91948000D02*
X65786000Y-89916000D01*
X67056000Y-93218000D02*
X65786000Y-91948000D01*
X68834000Y-93218000D02*
X67056000Y-93218000D01*
X69374000Y-93758000D02*
X68834000Y-93218000D01*
X43180000Y-85725000D02*
X41021000Y-85725000D01*
X37846000Y-95250000D02*
X35560000Y-95250000D01*
X39116000Y-93980000D02*
X37846000Y-95250000D01*
X39116000Y-87630000D02*
X39116000Y-93980000D01*
X41021000Y-85725000D02*
X39116000Y-87630000D01*
X62230000Y-90424000D02*
X60960000Y-89154000D01*
X66288000Y-96514000D02*
X65532000Y-95758000D01*
X65532000Y-95758000D02*
X65532000Y-93726000D01*
X65532000Y-93726000D02*
X62230000Y-90424000D01*
X67124000Y-96514000D02*
X66288000Y-96514000D01*
X36830000Y-97790000D02*
X35560000Y-97790000D01*
X38608000Y-96012000D02*
X36830000Y-97790000D01*
X60960000Y-89154000D02*
X54610000Y-89154000D01*
X79248000Y-90424000D02*
X77724000Y-91948000D01*
X77724000Y-96266000D02*
X76676000Y-97314000D01*
X77724000Y-91948000D02*
X77724000Y-96266000D01*
X75624000Y-97314000D02*
X76676000Y-97314000D01*
X82296000Y-87376000D02*
X82296000Y-85344000D01*
X79248000Y-90424000D02*
X82296000Y-87376000D01*
X79756000Y-85344000D02*
X79756000Y-88619952D01*
X75624000Y-92751952D02*
X75624000Y-96514000D01*
X79756000Y-88619952D02*
X75624000Y-92751952D01*
X74174000Y-95064000D02*
X74168000Y-93218000D01*
X77216000Y-90170000D02*
X77216000Y-85344000D01*
X74168000Y-93218000D02*
X77216000Y-90170000D01*
X73374000Y-95064000D02*
X73374000Y-92996000D01*
X74676000Y-91694000D02*
X74676000Y-85344000D01*
X73374000Y-92996000D02*
X74676000Y-91694000D01*
X72574000Y-95064000D02*
X72574000Y-92780000D01*
X72898000Y-86106000D02*
X72136000Y-85344000D01*
X72898000Y-92456000D02*
X72898000Y-86106000D01*
X72574000Y-92780000D02*
X72898000Y-92456000D01*
X71774000Y-95064000D02*
X71774000Y-92564000D01*
X72136000Y-87884000D02*
X69596000Y-85344000D01*
X72136000Y-92202000D02*
X72136000Y-87884000D01*
X71774000Y-92564000D02*
X72136000Y-92202000D01*
X43180000Y-90805000D02*
X43180000Y-94300000D01*
X43180000Y-94300000D02*
X43495000Y-94615000D01*
X43688000Y-118618000D02*
X43688000Y-110998000D01*
X43688000Y-110998000D02*
X46482000Y-108204000D01*
X46482000Y-108204000D02*
X47244000Y-108204000D01*
X50546000Y-108204000D02*
X64770000Y-108204000D01*
X64770000Y-108204000D02*
X66294000Y-108204000D01*
X66294000Y-108204000D02*
X68574000Y-105924000D01*
X68574000Y-105924000D02*
X68574000Y-103564000D01*
X55372000Y-110998000D02*
X53340000Y-110998000D01*
X56134000Y-110236000D02*
X55372000Y-110998000D01*
X53340000Y-110998000D02*
X53340000Y-118618000D01*
X69374000Y-103564000D02*
X69374000Y-106394000D01*
X69374000Y-106394000D02*
X67564000Y-108204000D01*
X62992000Y-110998000D02*
X62992000Y-118618000D01*
X70174000Y-103564000D02*
X70174000Y-107118000D01*
X65024000Y-110998000D02*
X62992000Y-110998000D01*
X65786000Y-110236000D02*
X65024000Y-110998000D01*
X70174000Y-107118000D02*
X69088000Y-108204000D01*
X236715000Y-100330000D02*
X240805000Y-100330000D01*
X236715000Y-98630000D02*
X240805000Y-98630000D01*
D35*
G36*
X96487747Y-95492638D02*
X96495957Y-95506177D01*
X96499046Y-95521705D01*
X96567504Y-95624160D01*
X96631392Y-95729514D01*
X96644156Y-95738879D01*
X96652954Y-95752046D01*
X96755408Y-95820503D01*
X96854751Y-95893390D01*
X96870131Y-95897158D01*
X96883295Y-95905954D01*
X97004138Y-95929991D01*
X97123821Y-95959315D01*
X97139471Y-95956911D01*
X97155000Y-95960000D01*
X246940000Y-95960000D01*
X246940000Y-97814596D01*
X246924954Y-97792078D01*
X246540512Y-97535203D01*
X246087032Y-97445000D01*
X245122968Y-97445000D01*
X244669488Y-97535203D01*
X244285046Y-97792078D01*
X244028171Y-98176520D01*
X243937968Y-98630000D01*
X244028171Y-99083480D01*
X244285046Y-99467922D01*
X244303122Y-99480000D01*
X244285046Y-99492078D01*
X244028171Y-99876520D01*
X243937968Y-100330000D01*
X244028171Y-100783480D01*
X244285046Y-101167922D01*
X244303122Y-101180000D01*
X244285046Y-101192078D01*
X244028171Y-101576520D01*
X243937968Y-102030000D01*
X244028171Y-102483480D01*
X244285046Y-102867922D01*
X244411203Y-102952217D01*
X244108420Y-103255000D01*
X239126579Y-103255000D01*
X238302320Y-102430740D01*
X238320420Y-102339744D01*
X239211197Y-102339744D01*
X239211602Y-102366146D01*
X239427276Y-102778118D01*
X239784187Y-103076196D01*
X240228000Y-103215000D01*
X240678000Y-103215000D01*
X240678000Y-102157000D01*
X240932000Y-102157000D01*
X240932000Y-103215000D01*
X241382000Y-103215000D01*
X241825813Y-103076196D01*
X242182724Y-102778118D01*
X242398398Y-102366146D01*
X242398803Y-102339744D01*
X242273361Y-102157000D01*
X240932000Y-102157000D01*
X240678000Y-102157000D01*
X239336639Y-102157000D01*
X239211197Y-102339744D01*
X238320420Y-102339744D01*
X238382032Y-102030000D01*
X238291829Y-101576520D01*
X238050270Y-101215000D01*
X239507359Y-101215000D01*
X239427276Y-101281882D01*
X239211602Y-101693854D01*
X239211197Y-101720256D01*
X239336639Y-101903000D01*
X240678000Y-101903000D01*
X240678000Y-101883000D01*
X240932000Y-101883000D01*
X240932000Y-101903000D01*
X242273361Y-101903000D01*
X242398803Y-101720256D01*
X242398398Y-101693854D01*
X242182724Y-101281882D01*
X242081243Y-101197129D01*
X242124954Y-101167922D01*
X242381829Y-100783480D01*
X242472032Y-100330000D01*
X242381829Y-99876520D01*
X242124954Y-99492078D01*
X242106878Y-99480000D01*
X242124954Y-99467922D01*
X242381829Y-99083480D01*
X242472032Y-98630000D01*
X242381829Y-98176520D01*
X242124954Y-97792078D01*
X241740512Y-97535203D01*
X241287032Y-97445000D01*
X240322968Y-97445000D01*
X239869488Y-97535203D01*
X239555503Y-97745000D01*
X237964497Y-97745000D01*
X237650512Y-97535203D01*
X237197032Y-97445000D01*
X236232968Y-97445000D01*
X235779488Y-97535203D01*
X235395046Y-97792078D01*
X235138171Y-98176520D01*
X235047968Y-98630000D01*
X235138171Y-99083480D01*
X235395046Y-99467922D01*
X235413122Y-99480000D01*
X235395046Y-99492078D01*
X235138171Y-99876520D01*
X235047968Y-100330000D01*
X235138171Y-100783480D01*
X235395046Y-101167922D01*
X235413122Y-101180000D01*
X235395046Y-101192078D01*
X235138171Y-101576520D01*
X235047968Y-102030000D01*
X235138171Y-102483480D01*
X235395046Y-102867922D01*
X235779488Y-103124797D01*
X236232968Y-103215000D01*
X236583420Y-103215000D01*
X236623420Y-103255000D01*
X230236579Y-103255000D01*
X229412320Y-102430740D01*
X229430420Y-102339744D01*
X230321197Y-102339744D01*
X230321602Y-102366146D01*
X230537276Y-102778118D01*
X230894187Y-103076196D01*
X231338000Y-103215000D01*
X231788000Y-103215000D01*
X231788000Y-102157000D01*
X232042000Y-102157000D01*
X232042000Y-103215000D01*
X232492000Y-103215000D01*
X232935813Y-103076196D01*
X233292724Y-102778118D01*
X233508398Y-102366146D01*
X233508803Y-102339744D01*
X233383361Y-102157000D01*
X232042000Y-102157000D01*
X231788000Y-102157000D01*
X230446639Y-102157000D01*
X230321197Y-102339744D01*
X229430420Y-102339744D01*
X229492032Y-102030000D01*
X229401829Y-101576520D01*
X229160270Y-101215000D01*
X230617359Y-101215000D01*
X230537276Y-101281882D01*
X230321602Y-101693854D01*
X230321197Y-101720256D01*
X230446639Y-101903000D01*
X231788000Y-101903000D01*
X231788000Y-101883000D01*
X232042000Y-101883000D01*
X232042000Y-101903000D01*
X233383361Y-101903000D01*
X233508803Y-101720256D01*
X233508398Y-101693854D01*
X233292724Y-101281882D01*
X233191243Y-101197129D01*
X233234954Y-101167922D01*
X233491829Y-100783480D01*
X233582032Y-100330000D01*
X233491829Y-99876520D01*
X233234954Y-99492078D01*
X233216878Y-99480000D01*
X233234954Y-99467922D01*
X233491829Y-99083480D01*
X233582032Y-98630000D01*
X233491829Y-98176520D01*
X233234954Y-97792078D01*
X232850512Y-97535203D01*
X232397032Y-97445000D01*
X231432968Y-97445000D01*
X230979488Y-97535203D01*
X230665503Y-97745000D01*
X229074497Y-97745000D01*
X228760512Y-97535203D01*
X228307032Y-97445000D01*
X227342968Y-97445000D01*
X226889488Y-97535203D01*
X226505046Y-97792078D01*
X226248171Y-98176520D01*
X226157968Y-98630000D01*
X226248171Y-99083480D01*
X226505046Y-99467922D01*
X226523122Y-99480000D01*
X226505046Y-99492078D01*
X226248171Y-99876520D01*
X226157968Y-100330000D01*
X226248171Y-100783480D01*
X226505046Y-101167922D01*
X226523122Y-101180000D01*
X226505046Y-101192078D01*
X226248171Y-101576520D01*
X226157968Y-102030000D01*
X226248171Y-102483480D01*
X226505046Y-102867922D01*
X226889488Y-103124797D01*
X227342968Y-103215000D01*
X227693420Y-103215000D01*
X227733420Y-103255000D01*
X221346579Y-103255000D01*
X220522320Y-102430740D01*
X220540420Y-102339744D01*
X221431197Y-102339744D01*
X221431602Y-102366146D01*
X221647276Y-102778118D01*
X222004187Y-103076196D01*
X222448000Y-103215000D01*
X222898000Y-103215000D01*
X222898000Y-102157000D01*
X223152000Y-102157000D01*
X223152000Y-103215000D01*
X223602000Y-103215000D01*
X224045813Y-103076196D01*
X224402724Y-102778118D01*
X224618398Y-102366146D01*
X224618803Y-102339744D01*
X224493361Y-102157000D01*
X223152000Y-102157000D01*
X222898000Y-102157000D01*
X221556639Y-102157000D01*
X221431197Y-102339744D01*
X220540420Y-102339744D01*
X220602032Y-102030000D01*
X220511829Y-101576520D01*
X220270270Y-101215000D01*
X221727359Y-101215000D01*
X221647276Y-101281882D01*
X221431602Y-101693854D01*
X221431197Y-101720256D01*
X221556639Y-101903000D01*
X222898000Y-101903000D01*
X222898000Y-101883000D01*
X223152000Y-101883000D01*
X223152000Y-101903000D01*
X224493361Y-101903000D01*
X224618803Y-101720256D01*
X224618398Y-101693854D01*
X224402724Y-101281882D01*
X224301243Y-101197129D01*
X224344954Y-101167922D01*
X224601829Y-100783480D01*
X224692032Y-100330000D01*
X224601829Y-99876520D01*
X224344954Y-99492078D01*
X224326878Y-99480000D01*
X224344954Y-99467922D01*
X224601829Y-99083480D01*
X224692032Y-98630000D01*
X224601829Y-98176520D01*
X224344954Y-97792078D01*
X223960512Y-97535203D01*
X223507032Y-97445000D01*
X222542968Y-97445000D01*
X222089488Y-97535203D01*
X221775503Y-97745000D01*
X220184497Y-97745000D01*
X219870512Y-97535203D01*
X219417032Y-97445000D01*
X218452968Y-97445000D01*
X217999488Y-97535203D01*
X217615046Y-97792078D01*
X217358171Y-98176520D01*
X217267968Y-98630000D01*
X217358171Y-99083480D01*
X217615046Y-99467922D01*
X217633122Y-99480000D01*
X217615046Y-99492078D01*
X217358171Y-99876520D01*
X217267968Y-100330000D01*
X217358171Y-100783480D01*
X217615046Y-101167922D01*
X217633122Y-101180000D01*
X217615046Y-101192078D01*
X217358171Y-101576520D01*
X217267968Y-102030000D01*
X217358171Y-102483480D01*
X217615046Y-102867922D01*
X217999488Y-103124797D01*
X218452968Y-103215000D01*
X218803420Y-103215000D01*
X218843420Y-103255000D01*
X212456579Y-103255000D01*
X211632320Y-102430740D01*
X211650420Y-102339744D01*
X212541197Y-102339744D01*
X212541602Y-102366146D01*
X212757276Y-102778118D01*
X213114187Y-103076196D01*
X213558000Y-103215000D01*
X214008000Y-103215000D01*
X214008000Y-102157000D01*
X214262000Y-102157000D01*
X214262000Y-103215000D01*
X214712000Y-103215000D01*
X215155813Y-103076196D01*
X215512724Y-102778118D01*
X215728398Y-102366146D01*
X215728803Y-102339744D01*
X215603361Y-102157000D01*
X214262000Y-102157000D01*
X214008000Y-102157000D01*
X212666639Y-102157000D01*
X212541197Y-102339744D01*
X211650420Y-102339744D01*
X211712032Y-102030000D01*
X211621829Y-101576520D01*
X211380270Y-101215000D01*
X212837359Y-101215000D01*
X212757276Y-101281882D01*
X212541602Y-101693854D01*
X212541197Y-101720256D01*
X212666639Y-101903000D01*
X214008000Y-101903000D01*
X214008000Y-101883000D01*
X214262000Y-101883000D01*
X214262000Y-101903000D01*
X215603361Y-101903000D01*
X215728803Y-101720256D01*
X215728398Y-101693854D01*
X215512724Y-101281882D01*
X215411243Y-101197129D01*
X215454954Y-101167922D01*
X215711829Y-100783480D01*
X215802032Y-100330000D01*
X215711829Y-99876520D01*
X215454954Y-99492078D01*
X215436878Y-99480000D01*
X215454954Y-99467922D01*
X215711829Y-99083480D01*
X215802032Y-98630000D01*
X215711829Y-98176520D01*
X215454954Y-97792078D01*
X215070512Y-97535203D01*
X214617032Y-97445000D01*
X213652968Y-97445000D01*
X213199488Y-97535203D01*
X212885503Y-97745000D01*
X211294497Y-97745000D01*
X210980512Y-97535203D01*
X210527032Y-97445000D01*
X209562968Y-97445000D01*
X209109488Y-97535203D01*
X208725046Y-97792078D01*
X208468171Y-98176520D01*
X208377968Y-98630000D01*
X208468171Y-99083480D01*
X208725046Y-99467922D01*
X208743122Y-99480000D01*
X208725046Y-99492078D01*
X208468171Y-99876520D01*
X208377968Y-100330000D01*
X208468171Y-100783480D01*
X208725046Y-101167922D01*
X208743122Y-101180000D01*
X208725046Y-101192078D01*
X208468171Y-101576520D01*
X208377968Y-102030000D01*
X208468171Y-102483480D01*
X208725046Y-102867922D01*
X209109488Y-103124797D01*
X209562968Y-103215000D01*
X209913420Y-103215000D01*
X209953420Y-103255000D01*
X203566579Y-103255000D01*
X202742320Y-102430740D01*
X202760420Y-102339744D01*
X203651197Y-102339744D01*
X203651602Y-102366146D01*
X203867276Y-102778118D01*
X204224187Y-103076196D01*
X204668000Y-103215000D01*
X205118000Y-103215000D01*
X205118000Y-102157000D01*
X205372000Y-102157000D01*
X205372000Y-103215000D01*
X205822000Y-103215000D01*
X206265813Y-103076196D01*
X206622724Y-102778118D01*
X206838398Y-102366146D01*
X206838803Y-102339744D01*
X206713361Y-102157000D01*
X205372000Y-102157000D01*
X205118000Y-102157000D01*
X203776639Y-102157000D01*
X203651197Y-102339744D01*
X202760420Y-102339744D01*
X202822032Y-102030000D01*
X202731829Y-101576520D01*
X202490270Y-101215000D01*
X203947359Y-101215000D01*
X203867276Y-101281882D01*
X203651602Y-101693854D01*
X203651197Y-101720256D01*
X203776639Y-101903000D01*
X205118000Y-101903000D01*
X205118000Y-101883000D01*
X205372000Y-101883000D01*
X205372000Y-101903000D01*
X206713361Y-101903000D01*
X206838803Y-101720256D01*
X206838398Y-101693854D01*
X206622724Y-101281882D01*
X206521243Y-101197129D01*
X206564954Y-101167922D01*
X206821829Y-100783480D01*
X206912032Y-100330000D01*
X206821829Y-99876520D01*
X206564954Y-99492078D01*
X206546878Y-99480000D01*
X206564954Y-99467922D01*
X206821829Y-99083480D01*
X206912032Y-98630000D01*
X206821829Y-98176520D01*
X206564954Y-97792078D01*
X206180512Y-97535203D01*
X205727032Y-97445000D01*
X204762968Y-97445000D01*
X204309488Y-97535203D01*
X203995503Y-97745000D01*
X202404497Y-97745000D01*
X202090512Y-97535203D01*
X201637032Y-97445000D01*
X200672968Y-97445000D01*
X200219488Y-97535203D01*
X199835046Y-97792078D01*
X199578171Y-98176520D01*
X199487968Y-98630000D01*
X199578171Y-99083480D01*
X199835046Y-99467922D01*
X199853122Y-99480000D01*
X199835046Y-99492078D01*
X199578171Y-99876520D01*
X199487968Y-100330000D01*
X199578171Y-100783480D01*
X199835046Y-101167922D01*
X199853122Y-101180000D01*
X199835046Y-101192078D01*
X199578171Y-101576520D01*
X199487968Y-102030000D01*
X199578171Y-102483480D01*
X199835046Y-102867922D01*
X200219488Y-103124797D01*
X200672968Y-103215000D01*
X201023420Y-103215000D01*
X201063420Y-103255000D01*
X194676579Y-103255000D01*
X193852320Y-102430740D01*
X193870420Y-102339744D01*
X194761197Y-102339744D01*
X194761602Y-102366146D01*
X194977276Y-102778118D01*
X195334187Y-103076196D01*
X195778000Y-103215000D01*
X196228000Y-103215000D01*
X196228000Y-102157000D01*
X196482000Y-102157000D01*
X196482000Y-103215000D01*
X196932000Y-103215000D01*
X197375813Y-103076196D01*
X197732724Y-102778118D01*
X197948398Y-102366146D01*
X197948803Y-102339744D01*
X197823361Y-102157000D01*
X196482000Y-102157000D01*
X196228000Y-102157000D01*
X194886639Y-102157000D01*
X194761197Y-102339744D01*
X193870420Y-102339744D01*
X193932032Y-102030000D01*
X193841829Y-101576520D01*
X193600270Y-101215000D01*
X195057359Y-101215000D01*
X194977276Y-101281882D01*
X194761602Y-101693854D01*
X194761197Y-101720256D01*
X194886639Y-101903000D01*
X196228000Y-101903000D01*
X196228000Y-101883000D01*
X196482000Y-101883000D01*
X196482000Y-101903000D01*
X197823361Y-101903000D01*
X197948803Y-101720256D01*
X197948398Y-101693854D01*
X197732724Y-101281882D01*
X197631243Y-101197129D01*
X197674954Y-101167922D01*
X197931829Y-100783480D01*
X198022032Y-100330000D01*
X197931829Y-99876520D01*
X197674954Y-99492078D01*
X197656878Y-99480000D01*
X197674954Y-99467922D01*
X197931829Y-99083480D01*
X198022032Y-98630000D01*
X197931829Y-98176520D01*
X197674954Y-97792078D01*
X197290512Y-97535203D01*
X196837032Y-97445000D01*
X195872968Y-97445000D01*
X195419488Y-97535203D01*
X195105503Y-97745000D01*
X193514497Y-97745000D01*
X193200512Y-97535203D01*
X192747032Y-97445000D01*
X191782968Y-97445000D01*
X191329488Y-97535203D01*
X190945046Y-97792078D01*
X190688171Y-98176520D01*
X190597968Y-98630000D01*
X190688171Y-99083480D01*
X190945046Y-99467922D01*
X190963122Y-99480000D01*
X190945046Y-99492078D01*
X190688171Y-99876520D01*
X190597968Y-100330000D01*
X190688171Y-100783480D01*
X190945046Y-101167922D01*
X190963122Y-101180000D01*
X190945046Y-101192078D01*
X190688171Y-101576520D01*
X190597968Y-102030000D01*
X190688171Y-102483480D01*
X190945046Y-102867922D01*
X191329488Y-103124797D01*
X191782968Y-103215000D01*
X192133420Y-103215000D01*
X192173420Y-103255000D01*
X185786579Y-103255000D01*
X184962320Y-102430740D01*
X184980420Y-102339744D01*
X185871197Y-102339744D01*
X185871602Y-102366146D01*
X186087276Y-102778118D01*
X186444187Y-103076196D01*
X186888000Y-103215000D01*
X187338000Y-103215000D01*
X187338000Y-102157000D01*
X187592000Y-102157000D01*
X187592000Y-103215000D01*
X188042000Y-103215000D01*
X188485813Y-103076196D01*
X188842724Y-102778118D01*
X189058398Y-102366146D01*
X189058803Y-102339744D01*
X188933361Y-102157000D01*
X187592000Y-102157000D01*
X187338000Y-102157000D01*
X185996639Y-102157000D01*
X185871197Y-102339744D01*
X184980420Y-102339744D01*
X185042032Y-102030000D01*
X184951829Y-101576520D01*
X184710270Y-101215000D01*
X186167359Y-101215000D01*
X186087276Y-101281882D01*
X185871602Y-101693854D01*
X185871197Y-101720256D01*
X185996639Y-101903000D01*
X187338000Y-101903000D01*
X187338000Y-101883000D01*
X187592000Y-101883000D01*
X187592000Y-101903000D01*
X188933361Y-101903000D01*
X189058803Y-101720256D01*
X189058398Y-101693854D01*
X188842724Y-101281882D01*
X188741243Y-101197129D01*
X188784954Y-101167922D01*
X189041829Y-100783480D01*
X189132032Y-100330000D01*
X189041829Y-99876520D01*
X188784954Y-99492078D01*
X188766878Y-99480000D01*
X188784954Y-99467922D01*
X189041829Y-99083480D01*
X189132032Y-98630000D01*
X189041829Y-98176520D01*
X188784954Y-97792078D01*
X188400512Y-97535203D01*
X187947032Y-97445000D01*
X186982968Y-97445000D01*
X186529488Y-97535203D01*
X186215503Y-97745000D01*
X184624497Y-97745000D01*
X184310512Y-97535203D01*
X183857032Y-97445000D01*
X182892968Y-97445000D01*
X182439488Y-97535203D01*
X182055046Y-97792078D01*
X181798171Y-98176520D01*
X181707968Y-98630000D01*
X181798171Y-99083480D01*
X182055046Y-99467922D01*
X182073122Y-99480000D01*
X182055046Y-99492078D01*
X181798171Y-99876520D01*
X181707968Y-100330000D01*
X181798171Y-100783480D01*
X182055046Y-101167922D01*
X182073122Y-101180000D01*
X182055046Y-101192078D01*
X181798171Y-101576520D01*
X181707968Y-102030000D01*
X181798171Y-102483480D01*
X182055046Y-102867922D01*
X182439488Y-103124797D01*
X182892968Y-103215000D01*
X183243420Y-103215000D01*
X183283420Y-103255000D01*
X176896579Y-103255000D01*
X176072320Y-102430740D01*
X176090420Y-102339744D01*
X176981197Y-102339744D01*
X176981602Y-102366146D01*
X177197276Y-102778118D01*
X177554187Y-103076196D01*
X177998000Y-103215000D01*
X178448000Y-103215000D01*
X178448000Y-102157000D01*
X178702000Y-102157000D01*
X178702000Y-103215000D01*
X179152000Y-103215000D01*
X179595813Y-103076196D01*
X179952724Y-102778118D01*
X180168398Y-102366146D01*
X180168803Y-102339744D01*
X180043361Y-102157000D01*
X178702000Y-102157000D01*
X178448000Y-102157000D01*
X177106639Y-102157000D01*
X176981197Y-102339744D01*
X176090420Y-102339744D01*
X176152032Y-102030000D01*
X176061829Y-101576520D01*
X175820270Y-101215000D01*
X177277359Y-101215000D01*
X177197276Y-101281882D01*
X176981602Y-101693854D01*
X176981197Y-101720256D01*
X177106639Y-101903000D01*
X178448000Y-101903000D01*
X178448000Y-101883000D01*
X178702000Y-101883000D01*
X178702000Y-101903000D01*
X180043361Y-101903000D01*
X180168803Y-101720256D01*
X180168398Y-101693854D01*
X179952724Y-101281882D01*
X179851243Y-101197129D01*
X179894954Y-101167922D01*
X180151829Y-100783480D01*
X180242032Y-100330000D01*
X180151829Y-99876520D01*
X179894954Y-99492078D01*
X179876878Y-99480000D01*
X179894954Y-99467922D01*
X180151829Y-99083480D01*
X180242032Y-98630000D01*
X180151829Y-98176520D01*
X179894954Y-97792078D01*
X179510512Y-97535203D01*
X179057032Y-97445000D01*
X178092968Y-97445000D01*
X177639488Y-97535203D01*
X177325503Y-97745000D01*
X175734497Y-97745000D01*
X175420512Y-97535203D01*
X174967032Y-97445000D01*
X174002968Y-97445000D01*
X173549488Y-97535203D01*
X173165046Y-97792078D01*
X172908171Y-98176520D01*
X172817968Y-98630000D01*
X172908171Y-99083480D01*
X173165046Y-99467922D01*
X173183122Y-99480000D01*
X173165046Y-99492078D01*
X172908171Y-99876520D01*
X172817968Y-100330000D01*
X172908171Y-100783480D01*
X173165046Y-101167922D01*
X173183122Y-101180000D01*
X173165046Y-101192078D01*
X172908171Y-101576520D01*
X172817968Y-102030000D01*
X172908171Y-102483480D01*
X173165046Y-102867922D01*
X173549488Y-103124797D01*
X174002968Y-103215000D01*
X174353420Y-103215000D01*
X174393420Y-103255000D01*
X168006579Y-103255000D01*
X167182320Y-102430740D01*
X167200420Y-102339744D01*
X168091197Y-102339744D01*
X168091602Y-102366146D01*
X168307276Y-102778118D01*
X168664187Y-103076196D01*
X169108000Y-103215000D01*
X169558000Y-103215000D01*
X169558000Y-102157000D01*
X169812000Y-102157000D01*
X169812000Y-103215000D01*
X170262000Y-103215000D01*
X170705813Y-103076196D01*
X171062724Y-102778118D01*
X171278398Y-102366146D01*
X171278803Y-102339744D01*
X171153361Y-102157000D01*
X169812000Y-102157000D01*
X169558000Y-102157000D01*
X168216639Y-102157000D01*
X168091197Y-102339744D01*
X167200420Y-102339744D01*
X167262032Y-102030000D01*
X167171829Y-101576520D01*
X166930270Y-101215000D01*
X168387359Y-101215000D01*
X168307276Y-101281882D01*
X168091602Y-101693854D01*
X168091197Y-101720256D01*
X168216639Y-101903000D01*
X169558000Y-101903000D01*
X169558000Y-101883000D01*
X169812000Y-101883000D01*
X169812000Y-101903000D01*
X171153361Y-101903000D01*
X171278803Y-101720256D01*
X171278398Y-101693854D01*
X171062724Y-101281882D01*
X170961243Y-101197129D01*
X171004954Y-101167922D01*
X171261829Y-100783480D01*
X171352032Y-100330000D01*
X171261829Y-99876520D01*
X171004954Y-99492078D01*
X170986878Y-99480000D01*
X171004954Y-99467922D01*
X171261829Y-99083480D01*
X171352032Y-98630000D01*
X171261829Y-98176520D01*
X171004954Y-97792078D01*
X170620512Y-97535203D01*
X170167032Y-97445000D01*
X169202968Y-97445000D01*
X168749488Y-97535203D01*
X168435503Y-97745000D01*
X166844497Y-97745000D01*
X166530512Y-97535203D01*
X166077032Y-97445000D01*
X165112968Y-97445000D01*
X164659488Y-97535203D01*
X164275046Y-97792078D01*
X164018171Y-98176520D01*
X163927968Y-98630000D01*
X164018171Y-99083480D01*
X164275046Y-99467922D01*
X164293122Y-99480000D01*
X164275046Y-99492078D01*
X164018171Y-99876520D01*
X163927968Y-100330000D01*
X164018171Y-100783480D01*
X164275046Y-101167922D01*
X164293122Y-101180000D01*
X164275046Y-101192078D01*
X164018171Y-101576520D01*
X163927968Y-102030000D01*
X164018171Y-102483480D01*
X164275046Y-102867922D01*
X164659488Y-103124797D01*
X165112968Y-103215000D01*
X165463420Y-103215000D01*
X165503420Y-103255000D01*
X159116579Y-103255000D01*
X158292320Y-102430740D01*
X158310420Y-102339744D01*
X159201197Y-102339744D01*
X159201602Y-102366146D01*
X159417276Y-102778118D01*
X159774187Y-103076196D01*
X160218000Y-103215000D01*
X160668000Y-103215000D01*
X160668000Y-102157000D01*
X160922000Y-102157000D01*
X160922000Y-103215000D01*
X161372000Y-103215000D01*
X161815813Y-103076196D01*
X162172724Y-102778118D01*
X162388398Y-102366146D01*
X162388803Y-102339744D01*
X162263361Y-102157000D01*
X160922000Y-102157000D01*
X160668000Y-102157000D01*
X159326639Y-102157000D01*
X159201197Y-102339744D01*
X158310420Y-102339744D01*
X158372032Y-102030000D01*
X158281829Y-101576520D01*
X158040270Y-101215000D01*
X159497359Y-101215000D01*
X159417276Y-101281882D01*
X159201602Y-101693854D01*
X159201197Y-101720256D01*
X159326639Y-101903000D01*
X160668000Y-101903000D01*
X160668000Y-101883000D01*
X160922000Y-101883000D01*
X160922000Y-101903000D01*
X162263361Y-101903000D01*
X162388803Y-101720256D01*
X162388398Y-101693854D01*
X162172724Y-101281882D01*
X162071243Y-101197129D01*
X162114954Y-101167922D01*
X162371829Y-100783480D01*
X162462032Y-100330000D01*
X162371829Y-99876520D01*
X162114954Y-99492078D01*
X162096878Y-99480000D01*
X162114954Y-99467922D01*
X162371829Y-99083480D01*
X162462032Y-98630000D01*
X162371829Y-98176520D01*
X162114954Y-97792078D01*
X161730512Y-97535203D01*
X161277032Y-97445000D01*
X160312968Y-97445000D01*
X159859488Y-97535203D01*
X159545503Y-97745000D01*
X157954497Y-97745000D01*
X157640512Y-97535203D01*
X157187032Y-97445000D01*
X156222968Y-97445000D01*
X155769488Y-97535203D01*
X155385046Y-97792078D01*
X155128171Y-98176520D01*
X155037968Y-98630000D01*
X155128171Y-99083480D01*
X155385046Y-99467922D01*
X155403122Y-99480000D01*
X155385046Y-99492078D01*
X155128171Y-99876520D01*
X155037968Y-100330000D01*
X155128171Y-100783480D01*
X155385046Y-101167922D01*
X155403122Y-101180000D01*
X155385046Y-101192078D01*
X155128171Y-101576520D01*
X155037968Y-102030000D01*
X155128171Y-102483480D01*
X155385046Y-102867922D01*
X155769488Y-103124797D01*
X156222968Y-103215000D01*
X156573420Y-103215000D01*
X156613420Y-103255000D01*
X150226579Y-103255000D01*
X149402320Y-102430740D01*
X149420420Y-102339744D01*
X150311197Y-102339744D01*
X150311602Y-102366146D01*
X150527276Y-102778118D01*
X150884187Y-103076196D01*
X151328000Y-103215000D01*
X151778000Y-103215000D01*
X151778000Y-102157000D01*
X152032000Y-102157000D01*
X152032000Y-103215000D01*
X152482000Y-103215000D01*
X152925813Y-103076196D01*
X153282724Y-102778118D01*
X153498398Y-102366146D01*
X153498803Y-102339744D01*
X153373361Y-102157000D01*
X152032000Y-102157000D01*
X151778000Y-102157000D01*
X150436639Y-102157000D01*
X150311197Y-102339744D01*
X149420420Y-102339744D01*
X149482032Y-102030000D01*
X149391829Y-101576520D01*
X149150270Y-101215000D01*
X150607359Y-101215000D01*
X150527276Y-101281882D01*
X150311602Y-101693854D01*
X150311197Y-101720256D01*
X150436639Y-101903000D01*
X151778000Y-101903000D01*
X151778000Y-101883000D01*
X152032000Y-101883000D01*
X152032000Y-101903000D01*
X153373361Y-101903000D01*
X153498803Y-101720256D01*
X153498398Y-101693854D01*
X153282724Y-101281882D01*
X153181243Y-101197129D01*
X153224954Y-101167922D01*
X153481829Y-100783480D01*
X153572032Y-100330000D01*
X153481829Y-99876520D01*
X153224954Y-99492078D01*
X153206878Y-99480000D01*
X153224954Y-99467922D01*
X153481829Y-99083480D01*
X153572032Y-98630000D01*
X153481829Y-98176520D01*
X153224954Y-97792078D01*
X152840512Y-97535203D01*
X152387032Y-97445000D01*
X151422968Y-97445000D01*
X150969488Y-97535203D01*
X150655503Y-97745000D01*
X149064497Y-97745000D01*
X148750512Y-97535203D01*
X148297032Y-97445000D01*
X147332968Y-97445000D01*
X146879488Y-97535203D01*
X146495046Y-97792078D01*
X146238171Y-98176520D01*
X146147968Y-98630000D01*
X146238171Y-99083480D01*
X146495046Y-99467922D01*
X146513122Y-99480000D01*
X146495046Y-99492078D01*
X146238171Y-99876520D01*
X146147968Y-100330000D01*
X146238171Y-100783480D01*
X146495046Y-101167922D01*
X146513122Y-101180000D01*
X146495046Y-101192078D01*
X146238171Y-101576520D01*
X146147968Y-102030000D01*
X146238171Y-102483480D01*
X146495046Y-102867922D01*
X146879488Y-103124797D01*
X147332968Y-103215000D01*
X147683420Y-103215000D01*
X147723420Y-103255000D01*
X141336579Y-103255000D01*
X140512320Y-102430740D01*
X140530420Y-102339744D01*
X141421197Y-102339744D01*
X141421602Y-102366146D01*
X141637276Y-102778118D01*
X141994187Y-103076196D01*
X142438000Y-103215000D01*
X142888000Y-103215000D01*
X142888000Y-102157000D01*
X143142000Y-102157000D01*
X143142000Y-103215000D01*
X143592000Y-103215000D01*
X144035813Y-103076196D01*
X144392724Y-102778118D01*
X144608398Y-102366146D01*
X144608803Y-102339744D01*
X144483361Y-102157000D01*
X143142000Y-102157000D01*
X142888000Y-102157000D01*
X141546639Y-102157000D01*
X141421197Y-102339744D01*
X140530420Y-102339744D01*
X140592032Y-102030000D01*
X140501829Y-101576520D01*
X140260270Y-101215000D01*
X141717359Y-101215000D01*
X141637276Y-101281882D01*
X141421602Y-101693854D01*
X141421197Y-101720256D01*
X141546639Y-101903000D01*
X142888000Y-101903000D01*
X142888000Y-101883000D01*
X143142000Y-101883000D01*
X143142000Y-101903000D01*
X144483361Y-101903000D01*
X144608803Y-101720256D01*
X144608398Y-101693854D01*
X144392724Y-101281882D01*
X144291243Y-101197129D01*
X144334954Y-101167922D01*
X144591829Y-100783480D01*
X144682032Y-100330000D01*
X144591829Y-99876520D01*
X144334954Y-99492078D01*
X144316878Y-99480000D01*
X144334954Y-99467922D01*
X144591829Y-99083480D01*
X144682032Y-98630000D01*
X144591829Y-98176520D01*
X144334954Y-97792078D01*
X143950512Y-97535203D01*
X143497032Y-97445000D01*
X142532968Y-97445000D01*
X142079488Y-97535203D01*
X141765503Y-97745000D01*
X140174497Y-97745000D01*
X139860512Y-97535203D01*
X139407032Y-97445000D01*
X138442968Y-97445000D01*
X137989488Y-97535203D01*
X137605046Y-97792078D01*
X137348171Y-98176520D01*
X137257968Y-98630000D01*
X137348171Y-99083480D01*
X137605046Y-99467922D01*
X137623122Y-99480000D01*
X137605046Y-99492078D01*
X137348171Y-99876520D01*
X137257968Y-100330000D01*
X137348171Y-100783480D01*
X137605046Y-101167922D01*
X137623122Y-101180000D01*
X137605046Y-101192078D01*
X137348171Y-101576520D01*
X137257968Y-102030000D01*
X137348171Y-102483480D01*
X137605046Y-102867922D01*
X137989488Y-103124797D01*
X138442968Y-103215000D01*
X138793420Y-103215000D01*
X138833420Y-103255000D01*
X132446579Y-103255000D01*
X131622320Y-102430740D01*
X131640420Y-102339744D01*
X132531197Y-102339744D01*
X132531602Y-102366146D01*
X132747276Y-102778118D01*
X133104187Y-103076196D01*
X133548000Y-103215000D01*
X133998000Y-103215000D01*
X133998000Y-102157000D01*
X134252000Y-102157000D01*
X134252000Y-103215000D01*
X134702000Y-103215000D01*
X135145813Y-103076196D01*
X135502724Y-102778118D01*
X135718398Y-102366146D01*
X135718803Y-102339744D01*
X135593361Y-102157000D01*
X134252000Y-102157000D01*
X133998000Y-102157000D01*
X132656639Y-102157000D01*
X132531197Y-102339744D01*
X131640420Y-102339744D01*
X131702032Y-102030000D01*
X131611829Y-101576520D01*
X131370270Y-101215000D01*
X132827359Y-101215000D01*
X132747276Y-101281882D01*
X132531602Y-101693854D01*
X132531197Y-101720256D01*
X132656639Y-101903000D01*
X133998000Y-101903000D01*
X133998000Y-101883000D01*
X134252000Y-101883000D01*
X134252000Y-101903000D01*
X135593361Y-101903000D01*
X135718803Y-101720256D01*
X135718398Y-101693854D01*
X135502724Y-101281882D01*
X135401243Y-101197129D01*
X135444954Y-101167922D01*
X135701829Y-100783480D01*
X135792032Y-100330000D01*
X135701829Y-99876520D01*
X135444954Y-99492078D01*
X135426878Y-99480000D01*
X135444954Y-99467922D01*
X135701829Y-99083480D01*
X135792032Y-98630000D01*
X135701829Y-98176520D01*
X135444954Y-97792078D01*
X135060512Y-97535203D01*
X134607032Y-97445000D01*
X133642968Y-97445000D01*
X133189488Y-97535203D01*
X132875503Y-97745000D01*
X131284497Y-97745000D01*
X130970512Y-97535203D01*
X130517032Y-97445000D01*
X129552968Y-97445000D01*
X129099488Y-97535203D01*
X128715046Y-97792078D01*
X128458171Y-98176520D01*
X128367968Y-98630000D01*
X128458171Y-99083480D01*
X128715046Y-99467922D01*
X128733122Y-99480000D01*
X128715046Y-99492078D01*
X128458171Y-99876520D01*
X128367968Y-100330000D01*
X128458171Y-100783480D01*
X128715046Y-101167922D01*
X128733122Y-101180000D01*
X128715046Y-101192078D01*
X128458171Y-101576520D01*
X128367968Y-102030000D01*
X128458171Y-102483480D01*
X128715046Y-102867922D01*
X129099488Y-103124797D01*
X129552968Y-103215000D01*
X129903420Y-103215000D01*
X129943420Y-103255000D01*
X123556579Y-103255000D01*
X122732320Y-102430740D01*
X122750420Y-102339744D01*
X123641197Y-102339744D01*
X123641602Y-102366146D01*
X123857276Y-102778118D01*
X124214187Y-103076196D01*
X124658000Y-103215000D01*
X125108000Y-103215000D01*
X125108000Y-102157000D01*
X125362000Y-102157000D01*
X125362000Y-103215000D01*
X125812000Y-103215000D01*
X126255813Y-103076196D01*
X126612724Y-102778118D01*
X126828398Y-102366146D01*
X126828803Y-102339744D01*
X126703361Y-102157000D01*
X125362000Y-102157000D01*
X125108000Y-102157000D01*
X123766639Y-102157000D01*
X123641197Y-102339744D01*
X122750420Y-102339744D01*
X122812032Y-102030000D01*
X122721829Y-101576520D01*
X122480270Y-101215000D01*
X123937359Y-101215000D01*
X123857276Y-101281882D01*
X123641602Y-101693854D01*
X123641197Y-101720256D01*
X123766639Y-101903000D01*
X125108000Y-101903000D01*
X125108000Y-101883000D01*
X125362000Y-101883000D01*
X125362000Y-101903000D01*
X126703361Y-101903000D01*
X126828803Y-101720256D01*
X126828398Y-101693854D01*
X126612724Y-101281882D01*
X126511243Y-101197129D01*
X126554954Y-101167922D01*
X126811829Y-100783480D01*
X126902032Y-100330000D01*
X126811829Y-99876520D01*
X126554954Y-99492078D01*
X126536878Y-99480000D01*
X126554954Y-99467922D01*
X126811829Y-99083480D01*
X126902032Y-98630000D01*
X126811829Y-98176520D01*
X126554954Y-97792078D01*
X126170512Y-97535203D01*
X125717032Y-97445000D01*
X124752968Y-97445000D01*
X124299488Y-97535203D01*
X123985503Y-97745000D01*
X122394497Y-97745000D01*
X122080512Y-97535203D01*
X121627032Y-97445000D01*
X120662968Y-97445000D01*
X120209488Y-97535203D01*
X119825046Y-97792078D01*
X119568171Y-98176520D01*
X119477968Y-98630000D01*
X119568171Y-99083480D01*
X119825046Y-99467922D01*
X119843122Y-99480000D01*
X119825046Y-99492078D01*
X119568171Y-99876520D01*
X119477968Y-100330000D01*
X119568171Y-100783480D01*
X119825046Y-101167922D01*
X119843122Y-101180000D01*
X119825046Y-101192078D01*
X119568171Y-101576520D01*
X119477968Y-102030000D01*
X119568171Y-102483480D01*
X119825046Y-102867922D01*
X120209488Y-103124797D01*
X120662968Y-103215000D01*
X121013420Y-103215000D01*
X121053420Y-103255000D01*
X114666579Y-103255000D01*
X113842320Y-102430740D01*
X113860420Y-102339744D01*
X114751197Y-102339744D01*
X114751602Y-102366146D01*
X114967276Y-102778118D01*
X115324187Y-103076196D01*
X115768000Y-103215000D01*
X116218000Y-103215000D01*
X116218000Y-102157000D01*
X116472000Y-102157000D01*
X116472000Y-103215000D01*
X116922000Y-103215000D01*
X117365813Y-103076196D01*
X117722724Y-102778118D01*
X117938398Y-102366146D01*
X117938803Y-102339744D01*
X117813361Y-102157000D01*
X116472000Y-102157000D01*
X116218000Y-102157000D01*
X114876639Y-102157000D01*
X114751197Y-102339744D01*
X113860420Y-102339744D01*
X113922032Y-102030000D01*
X113831829Y-101576520D01*
X113590270Y-101215000D01*
X115047359Y-101215000D01*
X114967276Y-101281882D01*
X114751602Y-101693854D01*
X114751197Y-101720256D01*
X114876639Y-101903000D01*
X116218000Y-101903000D01*
X116218000Y-101883000D01*
X116472000Y-101883000D01*
X116472000Y-101903000D01*
X117813361Y-101903000D01*
X117938803Y-101720256D01*
X117938398Y-101693854D01*
X117722724Y-101281882D01*
X117621243Y-101197129D01*
X117664954Y-101167922D01*
X117921829Y-100783480D01*
X118012032Y-100330000D01*
X117921829Y-99876520D01*
X117664954Y-99492078D01*
X117646878Y-99480000D01*
X117664954Y-99467922D01*
X117921829Y-99083480D01*
X118012032Y-98630000D01*
X117921829Y-98176520D01*
X117664954Y-97792078D01*
X117280512Y-97535203D01*
X116827032Y-97445000D01*
X115862968Y-97445000D01*
X115409488Y-97535203D01*
X115095503Y-97745000D01*
X113504497Y-97745000D01*
X113190512Y-97535203D01*
X112737032Y-97445000D01*
X111772968Y-97445000D01*
X111319488Y-97535203D01*
X110935046Y-97792078D01*
X110678171Y-98176520D01*
X110587968Y-98630000D01*
X110678171Y-99083480D01*
X110935046Y-99467922D01*
X110953122Y-99480000D01*
X110935046Y-99492078D01*
X110678171Y-99876520D01*
X110587968Y-100330000D01*
X110678171Y-100783480D01*
X110935046Y-101167922D01*
X110953122Y-101180000D01*
X110935046Y-101192078D01*
X110678171Y-101576520D01*
X110587968Y-102030000D01*
X110678171Y-102483480D01*
X110935046Y-102867922D01*
X111319488Y-103124797D01*
X111772968Y-103215000D01*
X112123420Y-103215000D01*
X112163420Y-103255000D01*
X105841579Y-103255000D01*
X104963104Y-102376524D01*
X104970420Y-102339744D01*
X105861197Y-102339744D01*
X105861602Y-102366146D01*
X106077276Y-102778118D01*
X106434187Y-103076196D01*
X106878000Y-103215000D01*
X107328000Y-103215000D01*
X107328000Y-102157000D01*
X107582000Y-102157000D01*
X107582000Y-103215000D01*
X108032000Y-103215000D01*
X108475813Y-103076196D01*
X108832724Y-102778118D01*
X109048398Y-102366146D01*
X109048803Y-102339744D01*
X108923361Y-102157000D01*
X107582000Y-102157000D01*
X107328000Y-102157000D01*
X105986639Y-102157000D01*
X105861197Y-102339744D01*
X104970420Y-102339744D01*
X105032032Y-102030000D01*
X104941829Y-101576520D01*
X104700270Y-101215000D01*
X106157359Y-101215000D01*
X106077276Y-101281882D01*
X105861602Y-101693854D01*
X105861197Y-101720256D01*
X105986639Y-101903000D01*
X107328000Y-101903000D01*
X107328000Y-101883000D01*
X107582000Y-101883000D01*
X107582000Y-101903000D01*
X108923361Y-101903000D01*
X109048803Y-101720256D01*
X109048398Y-101693854D01*
X108832724Y-101281882D01*
X108731243Y-101197129D01*
X108774954Y-101167922D01*
X109031829Y-100783480D01*
X109122032Y-100330000D01*
X109031829Y-99876520D01*
X108774954Y-99492078D01*
X108756878Y-99480000D01*
X108774954Y-99467922D01*
X109031829Y-99083480D01*
X109122032Y-98630000D01*
X109031829Y-98176520D01*
X108774954Y-97792078D01*
X108390512Y-97535203D01*
X107937032Y-97445000D01*
X106972968Y-97445000D01*
X106519488Y-97535203D01*
X106205503Y-97745000D01*
X104614497Y-97745000D01*
X104300512Y-97535203D01*
X103847032Y-97445000D01*
X102882968Y-97445000D01*
X102429488Y-97535203D01*
X102045046Y-97792078D01*
X101788171Y-98176520D01*
X101697968Y-98630000D01*
X101788171Y-99083480D01*
X102045046Y-99467922D01*
X102063122Y-99480000D01*
X102045046Y-99492078D01*
X101788171Y-99876520D01*
X101697968Y-100330000D01*
X101788171Y-100783480D01*
X102045046Y-101167922D01*
X102063122Y-101180000D01*
X102045046Y-101192078D01*
X101788171Y-101576520D01*
X101697968Y-102030000D01*
X101788171Y-102483480D01*
X102045046Y-102867922D01*
X102429488Y-103124797D01*
X102882968Y-103215000D01*
X103298420Y-103215000D01*
X103305920Y-103222500D01*
X94647505Y-103222500D01*
X94647500Y-103222499D01*
X94365016Y-103278690D01*
X94308825Y-103289867D01*
X94021710Y-103481710D01*
X94021708Y-103481713D01*
X93100210Y-104403210D01*
X92908367Y-104690325D01*
X92908367Y-104690326D01*
X92840999Y-105029000D01*
X92841000Y-105029005D01*
X92841000Y-106313421D01*
X91032350Y-108122071D01*
X91030090Y-108118559D01*
X90817890Y-107973569D01*
X90566000Y-107922560D01*
X90403615Y-107922560D01*
X90579729Y-107849611D01*
X90635410Y-107619016D01*
X89916000Y-106899605D01*
X89196590Y-107619016D01*
X89252271Y-107849611D01*
X89461902Y-107922560D01*
X89266000Y-107922560D01*
X89030683Y-107966838D01*
X88814559Y-108105910D01*
X88669569Y-108318110D01*
X88666149Y-108335000D01*
X81479131Y-108335000D01*
X81605633Y-108145675D01*
X81630864Y-108018833D01*
X81671896Y-107812554D01*
X81739441Y-107769090D01*
X81785969Y-107700994D01*
X81928302Y-107843327D01*
X82161691Y-107940000D01*
X82502250Y-107940000D01*
X82661000Y-107781250D01*
X82661000Y-106807000D01*
X82915000Y-106807000D01*
X82915000Y-107781250D01*
X83073750Y-107940000D01*
X83414309Y-107940000D01*
X83647698Y-107843327D01*
X83826327Y-107664699D01*
X83923000Y-107431310D01*
X83923000Y-106965750D01*
X83764250Y-106807000D01*
X82915000Y-106807000D01*
X82661000Y-106807000D01*
X82641000Y-106807000D01*
X82641000Y-106553000D01*
X82661000Y-106553000D01*
X82661000Y-105578750D01*
X82915000Y-105578750D01*
X82915000Y-106553000D01*
X83764250Y-106553000D01*
X83778172Y-106539078D01*
X88618378Y-106539078D01*
X88647917Y-107049428D01*
X88786389Y-107383729D01*
X89016984Y-107439410D01*
X89736395Y-106720000D01*
X90095605Y-106720000D01*
X90815016Y-107439410D01*
X91045611Y-107383729D01*
X91213622Y-106900922D01*
X91184083Y-106390572D01*
X91045611Y-106056271D01*
X90815016Y-106000590D01*
X90095605Y-106720000D01*
X89736395Y-106720000D01*
X89016984Y-106000590D01*
X88786389Y-106056271D01*
X88618378Y-106539078D01*
X83778172Y-106539078D01*
X83923000Y-106394250D01*
X83923000Y-105928690D01*
X83878387Y-105820984D01*
X89196590Y-105820984D01*
X89916000Y-106540395D01*
X90635410Y-105820984D01*
X90579729Y-105590389D01*
X90096922Y-105422378D01*
X89586572Y-105451917D01*
X89252271Y-105590389D01*
X89196590Y-105820984D01*
X83878387Y-105820984D01*
X83826327Y-105695301D01*
X83647698Y-105516673D01*
X83414309Y-105420000D01*
X83073750Y-105420000D01*
X82915000Y-105578750D01*
X82661000Y-105578750D01*
X82502250Y-105420000D01*
X82161691Y-105420000D01*
X81928302Y-105516673D01*
X81787064Y-105657910D01*
X81752090Y-105603559D01*
X81539890Y-105458569D01*
X81288000Y-105407560D01*
X80288000Y-105407560D01*
X80052683Y-105451838D01*
X80040961Y-105459381D01*
X79860579Y-105279000D01*
X87375995Y-105279000D01*
X87376000Y-105279001D01*
X87658484Y-105222810D01*
X87714675Y-105211633D01*
X88001790Y-105019790D01*
X88001791Y-105019789D01*
X90681835Y-102339744D01*
X96971197Y-102339744D01*
X96971602Y-102366146D01*
X97187276Y-102778118D01*
X97544187Y-103076196D01*
X97988000Y-103215000D01*
X98438000Y-103215000D01*
X98438000Y-102157000D01*
X98692000Y-102157000D01*
X98692000Y-103215000D01*
X99142000Y-103215000D01*
X99585813Y-103076196D01*
X99942724Y-102778118D01*
X100158398Y-102366146D01*
X100158803Y-102339744D01*
X100033361Y-102157000D01*
X98692000Y-102157000D01*
X98438000Y-102157000D01*
X97096639Y-102157000D01*
X96971197Y-102339744D01*
X90681835Y-102339744D01*
X91661798Y-101359781D01*
X91707910Y-101431441D01*
X91920110Y-101576431D01*
X92172000Y-101627440D01*
X92872000Y-101627440D01*
X93107317Y-101583162D01*
X93323441Y-101444090D01*
X93468431Y-101231890D01*
X93471081Y-101218803D01*
X93607910Y-101431441D01*
X93820110Y-101576431D01*
X94072000Y-101627440D01*
X94772000Y-101627440D01*
X95007317Y-101583162D01*
X95223441Y-101444090D01*
X95368431Y-101231890D01*
X95371851Y-101215000D01*
X97267359Y-101215000D01*
X97187276Y-101281882D01*
X96971602Y-101693854D01*
X96971197Y-101720256D01*
X97096639Y-101903000D01*
X98438000Y-101903000D01*
X98438000Y-101883000D01*
X98692000Y-101883000D01*
X98692000Y-101903000D01*
X100033361Y-101903000D01*
X100158803Y-101720256D01*
X100158398Y-101693854D01*
X99942724Y-101281882D01*
X99841243Y-101197129D01*
X99884954Y-101167922D01*
X100141829Y-100783480D01*
X100232032Y-100330000D01*
X100141829Y-99876520D01*
X99884954Y-99492078D01*
X99866878Y-99480000D01*
X99884954Y-99467922D01*
X100141829Y-99083480D01*
X100232032Y-98630000D01*
X100141829Y-98176520D01*
X99884954Y-97792078D01*
X99500512Y-97535203D01*
X99047032Y-97445000D01*
X98082968Y-97445000D01*
X97629488Y-97535203D01*
X97561926Y-97580346D01*
X96383790Y-96402210D01*
X96334574Y-96369325D01*
X96096675Y-96210367D01*
X96038519Y-96198799D01*
X95758000Y-96142999D01*
X95757995Y-96143000D01*
X95375222Y-96143000D01*
X95375162Y-96142683D01*
X95236090Y-95926559D01*
X95023890Y-95781569D01*
X94772000Y-95730560D01*
X94072000Y-95730560D01*
X93836683Y-95774838D01*
X93620559Y-95913910D01*
X93475569Y-96126110D01*
X93472919Y-96139197D01*
X93336090Y-95926559D01*
X93123890Y-95781569D01*
X92872000Y-95730560D01*
X92172000Y-95730560D01*
X91936683Y-95774838D01*
X91720559Y-95913910D01*
X91575569Y-96126110D01*
X91572149Y-96143000D01*
X91440005Y-96143000D01*
X91440000Y-96142999D01*
X91159481Y-96198799D01*
X91101325Y-96210367D01*
X90814210Y-96402210D01*
X90814208Y-96402213D01*
X90052210Y-97164210D01*
X89860367Y-97451325D01*
X89860367Y-97451326D01*
X89792999Y-97790000D01*
X89793000Y-97790005D01*
X89793000Y-99201421D01*
X86501420Y-102493000D01*
X83864310Y-102493000D01*
X83923000Y-102351310D01*
X83923000Y-101885750D01*
X83764250Y-101727000D01*
X82915000Y-101727000D01*
X82915000Y-101747000D01*
X82661000Y-101747000D01*
X82661000Y-101727000D01*
X82641000Y-101727000D01*
X82641000Y-101473000D01*
X82661000Y-101473000D01*
X82661000Y-100498750D01*
X82502250Y-100340000D01*
X82161691Y-100340000D01*
X81928302Y-100436673D01*
X81787064Y-100577910D01*
X81752090Y-100523559D01*
X81673000Y-100469519D01*
X81673000Y-99108975D01*
X81784431Y-98945890D01*
X81787081Y-98932803D01*
X81923910Y-99145441D01*
X82136110Y-99290431D01*
X82388000Y-99341440D01*
X83088000Y-99341440D01*
X83323317Y-99297162D01*
X83539441Y-99158090D01*
X83684431Y-98945890D01*
X83687851Y-98929000D01*
X83697000Y-98929000D01*
X83697000Y-99769178D01*
X83647162Y-99889201D01*
X83646838Y-100261167D01*
X83769811Y-100558785D01*
X83647698Y-100436673D01*
X83414309Y-100340000D01*
X83073750Y-100340000D01*
X82915000Y-100498750D01*
X82915000Y-101473000D01*
X83764250Y-101473000D01*
X83923000Y-101314250D01*
X83923000Y-100848690D01*
X83845550Y-100661709D01*
X84051673Y-100868192D01*
X84395201Y-101010838D01*
X84767167Y-101011162D01*
X85110943Y-100869117D01*
X85374192Y-100606327D01*
X85516838Y-100262799D01*
X85517162Y-99890833D01*
X85467000Y-99769431D01*
X85467000Y-98410580D01*
X86747787Y-97129792D01*
X86747790Y-97129790D01*
X86939633Y-96842675D01*
X86966422Y-96708000D01*
X87007001Y-96504000D01*
X87007000Y-96503995D01*
X87007000Y-95873844D01*
X87073441Y-95831090D01*
X87119969Y-95762994D01*
X87262302Y-95905327D01*
X87495691Y-96002000D01*
X87836250Y-96002000D01*
X87995000Y-95843250D01*
X87995000Y-94869000D01*
X88249000Y-94869000D01*
X88249000Y-95843250D01*
X88407750Y-96002000D01*
X88748309Y-96002000D01*
X88981698Y-95905327D01*
X89160327Y-95726699D01*
X89257000Y-95493310D01*
X89257000Y-95027750D01*
X89098250Y-94869000D01*
X88249000Y-94869000D01*
X87995000Y-94869000D01*
X87975000Y-94869000D01*
X87975000Y-94615000D01*
X87995000Y-94615000D01*
X87995000Y-93640750D01*
X88249000Y-93640750D01*
X88249000Y-94615000D01*
X89098250Y-94615000D01*
X89257000Y-94456250D01*
X89257000Y-93990690D01*
X89160327Y-93757301D01*
X88981698Y-93578673D01*
X88748309Y-93482000D01*
X88407750Y-93482000D01*
X88249000Y-93640750D01*
X87995000Y-93640750D01*
X87836250Y-93482000D01*
X87495691Y-93482000D01*
X87262302Y-93578673D01*
X87121064Y-93719910D01*
X87086090Y-93665559D01*
X86873890Y-93520569D01*
X86622000Y-93469560D01*
X86101139Y-93469560D01*
X84969790Y-92338210D01*
X84892660Y-92286674D01*
X84682675Y-92146367D01*
X84626484Y-92135190D01*
X84344000Y-92078999D01*
X84343995Y-92079000D01*
X79046822Y-92079000D01*
X78926799Y-92029162D01*
X78894446Y-92029134D01*
X79873787Y-91049792D01*
X79873790Y-91049790D01*
X82921787Y-88001792D01*
X82921790Y-88001790D01*
X83113633Y-87714675D01*
X83147319Y-87545325D01*
X83181001Y-87376000D01*
X83181000Y-87375995D01*
X83181000Y-87003413D01*
X83394917Y-86963162D01*
X83611041Y-86824090D01*
X83756031Y-86611890D01*
X83807040Y-86360000D01*
X83807040Y-85618172D01*
X86232538Y-85618172D01*
X86637709Y-86598761D01*
X87387293Y-87349655D01*
X88367173Y-87756536D01*
X89428172Y-87757462D01*
X90408761Y-87352291D01*
X91159655Y-86602707D01*
X91566536Y-85622827D01*
X91567462Y-84561828D01*
X91162291Y-83581239D01*
X90412707Y-82830345D01*
X89432827Y-82423464D01*
X88371828Y-82422538D01*
X87391239Y-82827709D01*
X86640345Y-83577293D01*
X86233464Y-84557173D01*
X86232538Y-85618172D01*
X83807040Y-85618172D01*
X83807040Y-84328000D01*
X83762762Y-84092683D01*
X83623690Y-83876559D01*
X83411490Y-83731569D01*
X83159600Y-83680560D01*
X81432400Y-83680560D01*
X81197083Y-83724838D01*
X80980959Y-83863910D01*
X80835969Y-84076110D01*
X80827600Y-84117439D01*
X80815670Y-84099585D01*
X80329489Y-83774729D01*
X79756000Y-83660655D01*
X79182511Y-83774729D01*
X78696330Y-84099585D01*
X78486000Y-84414366D01*
X78275670Y-84099585D01*
X77789489Y-83774729D01*
X77216000Y-83660655D01*
X76642511Y-83774729D01*
X76156330Y-84099585D01*
X75946000Y-84414366D01*
X75735670Y-84099585D01*
X75249489Y-83774729D01*
X74676000Y-83660655D01*
X74102511Y-83774729D01*
X73616330Y-84099585D01*
X73406000Y-84414366D01*
X73195670Y-84099585D01*
X72709489Y-83774729D01*
X72136000Y-83660655D01*
X71562511Y-83774729D01*
X71076330Y-84099585D01*
X70866000Y-84414366D01*
X70655670Y-84099585D01*
X70169489Y-83774729D01*
X69596000Y-83660655D01*
X69022511Y-83774729D01*
X68536330Y-84099585D01*
X68211474Y-84585766D01*
X68097400Y-85159255D01*
X68097400Y-85528745D01*
X68211474Y-86102234D01*
X68536330Y-86588415D01*
X69022511Y-86913271D01*
X69596000Y-87027345D01*
X69956131Y-86955711D01*
X71251000Y-88250579D01*
X71251000Y-89761560D01*
X71008139Y-89761560D01*
X65964790Y-84718210D01*
X65826911Y-84626083D01*
X65677675Y-84526367D01*
X65621484Y-84515190D01*
X65402328Y-84471596D01*
X65145353Y-84214173D01*
X64655413Y-84010732D01*
X64124914Y-84010269D01*
X63634620Y-84212854D01*
X63388044Y-84459000D01*
X57769754Y-84459000D01*
X57525353Y-84214173D01*
X57035413Y-84010732D01*
X56504914Y-84010269D01*
X56014620Y-84212854D01*
X55639173Y-84587647D01*
X55435732Y-85077587D01*
X55435269Y-85608086D01*
X55590180Y-85983000D01*
X52070005Y-85983000D01*
X52070000Y-85982999D01*
X51731325Y-86050367D01*
X51444210Y-86242210D01*
X51444208Y-86242213D01*
X50174210Y-87512210D01*
X50174208Y-87512213D01*
X44776710Y-92909710D01*
X44584867Y-93196825D01*
X44584867Y-93196826D01*
X44517499Y-93535500D01*
X44517500Y-93535505D01*
X44517500Y-98009474D01*
X44404698Y-97896673D01*
X44171309Y-97800000D01*
X43830750Y-97800000D01*
X43672000Y-97958750D01*
X43672000Y-98933000D01*
X43692000Y-98933000D01*
X43692000Y-99187000D01*
X43672000Y-99187000D01*
X43672000Y-100161250D01*
X43830750Y-100320000D01*
X44171309Y-100320000D01*
X44404698Y-100223327D01*
X44517500Y-100110526D01*
X44517500Y-100397500D01*
X39919079Y-100397500D01*
X40371579Y-99945000D01*
X40457721Y-99945000D01*
X40580910Y-100136441D01*
X40793110Y-100281431D01*
X41045000Y-100332440D01*
X42045000Y-100332440D01*
X42280317Y-100288162D01*
X42496441Y-100149090D01*
X42542969Y-100080994D01*
X42685302Y-100223327D01*
X42918691Y-100320000D01*
X43259250Y-100320000D01*
X43418000Y-100161250D01*
X43418000Y-99187000D01*
X43398000Y-99187000D01*
X43398000Y-98933000D01*
X43418000Y-98933000D01*
X43418000Y-97958750D01*
X43259250Y-97800000D01*
X42918691Y-97800000D01*
X42685302Y-97896673D01*
X42544064Y-98037910D01*
X42509090Y-97983559D01*
X42430000Y-97929519D01*
X42430000Y-95679975D01*
X42541431Y-95516890D01*
X42544081Y-95503803D01*
X42680910Y-95716441D01*
X42893110Y-95861431D01*
X43145000Y-95912440D01*
X43845000Y-95912440D01*
X44080317Y-95868162D01*
X44296441Y-95729090D01*
X44441431Y-95516890D01*
X44492440Y-95265000D01*
X44492440Y-93965000D01*
X44448162Y-93729683D01*
X44309090Y-93513559D01*
X44096890Y-93368569D01*
X44065000Y-93362111D01*
X44065000Y-92262470D01*
X44431716Y-92189526D01*
X44917897Y-91864670D01*
X45242753Y-91378489D01*
X45356827Y-90805000D01*
X45242753Y-90231511D01*
X44917897Y-89745330D01*
X44595880Y-89530165D01*
X44965873Y-89234868D01*
X45249527Y-88721157D01*
X45271358Y-88624026D01*
X45150217Y-88392000D01*
X43307000Y-88392000D01*
X43307000Y-88412000D01*
X43053000Y-88412000D01*
X43053000Y-88392000D01*
X41209783Y-88392000D01*
X41088642Y-88624026D01*
X41110473Y-88721157D01*
X41394127Y-89234868D01*
X41764120Y-89530165D01*
X41442103Y-89745330D01*
X41117247Y-90231511D01*
X41003173Y-90805000D01*
X41117247Y-91378489D01*
X41442103Y-91864670D01*
X41928284Y-92189526D01*
X42295000Y-92262470D01*
X42295000Y-93435605D01*
X42196890Y-93368569D01*
X41945000Y-93317560D01*
X41245000Y-93317560D01*
X41009683Y-93361838D01*
X40793559Y-93500910D01*
X40648569Y-93713110D01*
X40597560Y-93965000D01*
X40597560Y-95265000D01*
X40641838Y-95500317D01*
X40660000Y-95528542D01*
X40660000Y-97928156D01*
X40593559Y-97970910D01*
X40454110Y-98175000D01*
X40005005Y-98175000D01*
X40005000Y-98174999D01*
X39724481Y-98230799D01*
X39666325Y-98242367D01*
X39379210Y-98434210D01*
X39379208Y-98434213D01*
X37156710Y-100656710D01*
X37156708Y-100656713D01*
X35971860Y-101841560D01*
X34544000Y-101841560D01*
X34308683Y-101885838D01*
X34159000Y-101982156D01*
X34159000Y-98615324D01*
X34315585Y-98849670D01*
X34801766Y-99174526D01*
X35375255Y-99288600D01*
X35744745Y-99288600D01*
X36318234Y-99174526D01*
X36804415Y-98849670D01*
X36935093Y-98654096D01*
X37112484Y-98618810D01*
X37168675Y-98607633D01*
X37455790Y-98415790D01*
X39016834Y-96854745D01*
X39136943Y-96805117D01*
X39400192Y-96542327D01*
X39542838Y-96198799D01*
X39543162Y-95826833D01*
X39401117Y-95483057D01*
X39138327Y-95219808D01*
X39130869Y-95216711D01*
X39741787Y-94605792D01*
X39741790Y-94605790D01*
X39933633Y-94318675D01*
X39960223Y-94185000D01*
X40001001Y-93980000D01*
X40001000Y-93979995D01*
X40001000Y-87996580D01*
X41114748Y-86882831D01*
X41215910Y-87040041D01*
X41428110Y-87185031D01*
X41511037Y-87201824D01*
X41394127Y-87295132D01*
X41110473Y-87808843D01*
X41088642Y-87905974D01*
X41209783Y-88138000D01*
X43053000Y-88138000D01*
X43053000Y-88118000D01*
X43307000Y-88118000D01*
X43307000Y-88138000D01*
X45150217Y-88138000D01*
X45271358Y-87905974D01*
X45249527Y-87808843D01*
X44965873Y-87295132D01*
X44851420Y-87203785D01*
X44915317Y-87191762D01*
X45131441Y-87052690D01*
X45276431Y-86840490D01*
X45327440Y-86588600D01*
X45327440Y-84861400D01*
X45283162Y-84626083D01*
X45144090Y-84409959D01*
X44931890Y-84264969D01*
X44680000Y-84213960D01*
X41680000Y-84213960D01*
X41444683Y-84258238D01*
X41228559Y-84397310D01*
X41083569Y-84609510D01*
X41036894Y-84840000D01*
X41021005Y-84840000D01*
X41021000Y-84839999D01*
X40738516Y-84896190D01*
X40682325Y-84907367D01*
X40395210Y-85099210D01*
X40395208Y-85099213D01*
X38490210Y-87004210D01*
X38298367Y-87291325D01*
X38298367Y-87291326D01*
X38230999Y-87630000D01*
X38231000Y-87630005D01*
X38231000Y-93613421D01*
X37479420Y-94365000D01*
X36921126Y-94365000D01*
X36804415Y-94190330D01*
X36790087Y-94180757D01*
X36811317Y-94176762D01*
X37027441Y-94037690D01*
X37172431Y-93825490D01*
X37223440Y-93573600D01*
X37223440Y-91846400D01*
X37179162Y-91611083D01*
X37040090Y-91394959D01*
X36827890Y-91249969D01*
X36576000Y-91198960D01*
X34544000Y-91198960D01*
X34308683Y-91243238D01*
X34092559Y-91382310D01*
X33947569Y-91594510D01*
X33896560Y-91846400D01*
X33896560Y-91928960D01*
X33664210Y-92084210D01*
X33664208Y-92084213D01*
X32648210Y-93100210D01*
X32456367Y-93387325D01*
X32453249Y-93402999D01*
X32388999Y-93726000D01*
X32389000Y-93726005D01*
X32389000Y-107441995D01*
X32388999Y-107442000D01*
X32433298Y-107664699D01*
X32456367Y-107780675D01*
X32585254Y-107973569D01*
X32648210Y-108067790D01*
X33410208Y-108829787D01*
X33410210Y-108829790D01*
X33697325Y-109021633D01*
X33753516Y-109032810D01*
X34036000Y-109089001D01*
X34036005Y-109089000D01*
X40893995Y-109089000D01*
X40894000Y-109089001D01*
X41176484Y-109032810D01*
X41232675Y-109021633D01*
X41519790Y-108829790D01*
X41519791Y-108829789D01*
X42535787Y-107813792D01*
X42535790Y-107813790D01*
X42727633Y-107526675D01*
X42744991Y-107439410D01*
X42795001Y-107188000D01*
X42795000Y-107187995D01*
X42795000Y-107073440D01*
X42926000Y-107073440D01*
X43161317Y-107029162D01*
X43377441Y-106890090D01*
X43479198Y-106741163D01*
X43818190Y-106967670D01*
X44450000Y-107093345D01*
X45081810Y-106967670D01*
X45617433Y-106609778D01*
X45975325Y-106074155D01*
X46101000Y-105442345D01*
X46101000Y-105377655D01*
X45975325Y-104745845D01*
X45617433Y-104210222D01*
X45081810Y-103852330D01*
X44450000Y-103726655D01*
X43818190Y-103852330D01*
X43478208Y-104079499D01*
X43390090Y-103942559D01*
X43177890Y-103797569D01*
X42926000Y-103746560D01*
X40894000Y-103746560D01*
X40658683Y-103790838D01*
X40442559Y-103929910D01*
X40297569Y-104142110D01*
X40246560Y-104394000D01*
X40246560Y-106426000D01*
X40290838Y-106661317D01*
X40429910Y-106877441D01*
X40642110Y-107022431D01*
X40793361Y-107053060D01*
X40527420Y-107319000D01*
X36586970Y-107319000D01*
X36966385Y-106909818D01*
X37165975Y-106427944D01*
X37046836Y-106172000D01*
X35687000Y-106172000D01*
X35687000Y-106192000D01*
X35433000Y-106192000D01*
X35433000Y-106172000D01*
X35413000Y-106172000D01*
X35413000Y-105918000D01*
X35433000Y-105918000D01*
X35433000Y-105898000D01*
X35687000Y-105898000D01*
X35687000Y-105918000D01*
X37046836Y-105918000D01*
X37165975Y-105662056D01*
X36966385Y-105180182D01*
X36875903Y-105082602D01*
X37027441Y-104985090D01*
X37172431Y-104772890D01*
X37223440Y-104521000D01*
X37223440Y-103093140D01*
X38149079Y-102167500D01*
X45035920Y-102167500D01*
X46740000Y-103871579D01*
X46740000Y-106679995D01*
X46739999Y-106680000D01*
X46783682Y-106899605D01*
X46807367Y-107018675D01*
X46906512Y-107167057D01*
X46992761Y-107296138D01*
X46937431Y-107319000D01*
X46482005Y-107319000D01*
X46482000Y-107318999D01*
X46199516Y-107375190D01*
X46143325Y-107386367D01*
X45856210Y-107578210D01*
X45856208Y-107578213D01*
X43769849Y-109664571D01*
X43423914Y-109664269D01*
X42933620Y-109866854D01*
X42558173Y-110241647D01*
X42354732Y-110731587D01*
X42354269Y-111262086D01*
X42556854Y-111752380D01*
X42803000Y-111998956D01*
X42803000Y-117617246D01*
X42558173Y-117861647D01*
X42354732Y-118351587D01*
X42354269Y-118882086D01*
X42556854Y-119372380D01*
X42931647Y-119747827D01*
X43394451Y-119940000D01*
X31825000Y-119940000D01*
X31825000Y-117368172D01*
X32257538Y-117368172D01*
X32662709Y-118348761D01*
X33412293Y-119099655D01*
X34392173Y-119506536D01*
X35453172Y-119507462D01*
X36433761Y-119102291D01*
X37184655Y-118352707D01*
X37591536Y-117372827D01*
X37592462Y-116311828D01*
X37187291Y-115331239D01*
X36437707Y-114580345D01*
X35457827Y-114173464D01*
X34396828Y-114172538D01*
X33416239Y-114577709D01*
X32665345Y-115327293D01*
X32258464Y-116307173D01*
X32257538Y-117368172D01*
X31825000Y-117368172D01*
X31825000Y-85618172D01*
X32257538Y-85618172D01*
X32662709Y-86598761D01*
X33412293Y-87349655D01*
X34392173Y-87756536D01*
X35453172Y-87757462D01*
X36433761Y-87352291D01*
X37184655Y-86602707D01*
X37591536Y-85622827D01*
X37592462Y-84561828D01*
X37187291Y-83581239D01*
X36437707Y-82830345D01*
X35457827Y-82423464D01*
X34396828Y-82422538D01*
X33416239Y-82827709D01*
X32665345Y-83577293D01*
X32258464Y-84557173D01*
X32257538Y-85618172D01*
X31825000Y-85618172D01*
X31825000Y-81990000D01*
X91577697Y-81990000D01*
X96487747Y-95492638D01*
X96487747Y-95492638D01*
G37*
X96487747Y-95492638D02*
X96495957Y-95506177D01*
X96499046Y-95521705D01*
X96567504Y-95624160D01*
X96631392Y-95729514D01*
X96644156Y-95738879D01*
X96652954Y-95752046D01*
X96755408Y-95820503D01*
X96854751Y-95893390D01*
X96870131Y-95897158D01*
X96883295Y-95905954D01*
X97004138Y-95929991D01*
X97123821Y-95959315D01*
X97139471Y-95956911D01*
X97155000Y-95960000D01*
X246940000Y-95960000D01*
X246940000Y-97814596D01*
X246924954Y-97792078D01*
X246540512Y-97535203D01*
X246087032Y-97445000D01*
X245122968Y-97445000D01*
X244669488Y-97535203D01*
X244285046Y-97792078D01*
X244028171Y-98176520D01*
X243937968Y-98630000D01*
X244028171Y-99083480D01*
X244285046Y-99467922D01*
X244303122Y-99480000D01*
X244285046Y-99492078D01*
X244028171Y-99876520D01*
X243937968Y-100330000D01*
X244028171Y-100783480D01*
X244285046Y-101167922D01*
X244303122Y-101180000D01*
X244285046Y-101192078D01*
X244028171Y-101576520D01*
X243937968Y-102030000D01*
X244028171Y-102483480D01*
X244285046Y-102867922D01*
X244411203Y-102952217D01*
X244108420Y-103255000D01*
X239126579Y-103255000D01*
X238302320Y-102430740D01*
X238320420Y-102339744D01*
X239211197Y-102339744D01*
X239211602Y-102366146D01*
X239427276Y-102778118D01*
X239784187Y-103076196D01*
X240228000Y-103215000D01*
X240678000Y-103215000D01*
X240678000Y-102157000D01*
X240932000Y-102157000D01*
X240932000Y-103215000D01*
X241382000Y-103215000D01*
X241825813Y-103076196D01*
X242182724Y-102778118D01*
X242398398Y-102366146D01*
X242398803Y-102339744D01*
X242273361Y-102157000D01*
X240932000Y-102157000D01*
X240678000Y-102157000D01*
X239336639Y-102157000D01*
X239211197Y-102339744D01*
X238320420Y-102339744D01*
X238382032Y-102030000D01*
X238291829Y-101576520D01*
X238050270Y-101215000D01*
X239507359Y-101215000D01*
X239427276Y-101281882D01*
X239211602Y-101693854D01*
X239211197Y-101720256D01*
X239336639Y-101903000D01*
X240678000Y-101903000D01*
X240678000Y-101883000D01*
X240932000Y-101883000D01*
X240932000Y-101903000D01*
X242273361Y-101903000D01*
X242398803Y-101720256D01*
X242398398Y-101693854D01*
X242182724Y-101281882D01*
X242081243Y-101197129D01*
X242124954Y-101167922D01*
X242381829Y-100783480D01*
X242472032Y-100330000D01*
X242381829Y-99876520D01*
X242124954Y-99492078D01*
X242106878Y-99480000D01*
X242124954Y-99467922D01*
X242381829Y-99083480D01*
X242472032Y-98630000D01*
X242381829Y-98176520D01*
X242124954Y-97792078D01*
X241740512Y-97535203D01*
X241287032Y-97445000D01*
X240322968Y-97445000D01*
X239869488Y-97535203D01*
X239555503Y-97745000D01*
X237964497Y-97745000D01*
X237650512Y-97535203D01*
X237197032Y-97445000D01*
X236232968Y-97445000D01*
X235779488Y-97535203D01*
X235395046Y-97792078D01*
X235138171Y-98176520D01*
X235047968Y-98630000D01*
X235138171Y-99083480D01*
X235395046Y-99467922D01*
X235413122Y-99480000D01*
X235395046Y-99492078D01*
X235138171Y-99876520D01*
X235047968Y-100330000D01*
X235138171Y-100783480D01*
X235395046Y-101167922D01*
X235413122Y-101180000D01*
X235395046Y-101192078D01*
X235138171Y-101576520D01*
X235047968Y-102030000D01*
X235138171Y-102483480D01*
X235395046Y-102867922D01*
X235779488Y-103124797D01*
X236232968Y-103215000D01*
X236583420Y-103215000D01*
X236623420Y-103255000D01*
X230236579Y-103255000D01*
X229412320Y-102430740D01*
X229430420Y-102339744D01*
X230321197Y-102339744D01*
X230321602Y-102366146D01*
X230537276Y-102778118D01*
X230894187Y-103076196D01*
X231338000Y-103215000D01*
X231788000Y-103215000D01*
X231788000Y-102157000D01*
X232042000Y-102157000D01*
X232042000Y-103215000D01*
X232492000Y-103215000D01*
X232935813Y-103076196D01*
X233292724Y-102778118D01*
X233508398Y-102366146D01*
X233508803Y-102339744D01*
X233383361Y-102157000D01*
X232042000Y-102157000D01*
X231788000Y-102157000D01*
X230446639Y-102157000D01*
X230321197Y-102339744D01*
X229430420Y-102339744D01*
X229492032Y-102030000D01*
X229401829Y-101576520D01*
X229160270Y-101215000D01*
X230617359Y-101215000D01*
X230537276Y-101281882D01*
X230321602Y-101693854D01*
X230321197Y-101720256D01*
X230446639Y-101903000D01*
X231788000Y-101903000D01*
X231788000Y-101883000D01*
X232042000Y-101883000D01*
X232042000Y-101903000D01*
X233383361Y-101903000D01*
X233508803Y-101720256D01*
X233508398Y-101693854D01*
X233292724Y-101281882D01*
X233191243Y-101197129D01*
X233234954Y-101167922D01*
X233491829Y-100783480D01*
X233582032Y-100330000D01*
X233491829Y-99876520D01*
X233234954Y-99492078D01*
X233216878Y-99480000D01*
X233234954Y-99467922D01*
X233491829Y-99083480D01*
X233582032Y-98630000D01*
X233491829Y-98176520D01*
X233234954Y-97792078D01*
X232850512Y-97535203D01*
X232397032Y-97445000D01*
X231432968Y-97445000D01*
X230979488Y-97535203D01*
X230665503Y-97745000D01*
X229074497Y-97745000D01*
X228760512Y-97535203D01*
X228307032Y-97445000D01*
X227342968Y-97445000D01*
X226889488Y-97535203D01*
X226505046Y-97792078D01*
X226248171Y-98176520D01*
X226157968Y-98630000D01*
X226248171Y-99083480D01*
X226505046Y-99467922D01*
X226523122Y-99480000D01*
X226505046Y-99492078D01*
X226248171Y-99876520D01*
X226157968Y-100330000D01*
X226248171Y-100783480D01*
X226505046Y-101167922D01*
X226523122Y-101180000D01*
X226505046Y-101192078D01*
X226248171Y-101576520D01*
X226157968Y-102030000D01*
X226248171Y-102483480D01*
X226505046Y-102867922D01*
X226889488Y-103124797D01*
X227342968Y-103215000D01*
X227693420Y-103215000D01*
X227733420Y-103255000D01*
X221346579Y-103255000D01*
X220522320Y-102430740D01*
X220540420Y-102339744D01*
X221431197Y-102339744D01*
X221431602Y-102366146D01*
X221647276Y-102778118D01*
X222004187Y-103076196D01*
X222448000Y-103215000D01*
X222898000Y-103215000D01*
X222898000Y-102157000D01*
X223152000Y-102157000D01*
X223152000Y-103215000D01*
X223602000Y-103215000D01*
X224045813Y-103076196D01*
X224402724Y-102778118D01*
X224618398Y-102366146D01*
X224618803Y-102339744D01*
X224493361Y-102157000D01*
X223152000Y-102157000D01*
X222898000Y-102157000D01*
X221556639Y-102157000D01*
X221431197Y-102339744D01*
X220540420Y-102339744D01*
X220602032Y-102030000D01*
X220511829Y-101576520D01*
X220270270Y-101215000D01*
X221727359Y-101215000D01*
X221647276Y-101281882D01*
X221431602Y-101693854D01*
X221431197Y-101720256D01*
X221556639Y-101903000D01*
X222898000Y-101903000D01*
X222898000Y-101883000D01*
X223152000Y-101883000D01*
X223152000Y-101903000D01*
X224493361Y-101903000D01*
X224618803Y-101720256D01*
X224618398Y-101693854D01*
X224402724Y-101281882D01*
X224301243Y-101197129D01*
X224344954Y-101167922D01*
X224601829Y-100783480D01*
X224692032Y-100330000D01*
X224601829Y-99876520D01*
X224344954Y-99492078D01*
X224326878Y-99480000D01*
X224344954Y-99467922D01*
X224601829Y-99083480D01*
X224692032Y-98630000D01*
X224601829Y-98176520D01*
X224344954Y-97792078D01*
X223960512Y-97535203D01*
X223507032Y-97445000D01*
X222542968Y-97445000D01*
X222089488Y-97535203D01*
X221775503Y-97745000D01*
X220184497Y-97745000D01*
X219870512Y-97535203D01*
X219417032Y-97445000D01*
X218452968Y-97445000D01*
X217999488Y-97535203D01*
X217615046Y-97792078D01*
X217358171Y-98176520D01*
X217267968Y-98630000D01*
X217358171Y-99083480D01*
X217615046Y-99467922D01*
X217633122Y-99480000D01*
X217615046Y-99492078D01*
X217358171Y-99876520D01*
X217267968Y-100330000D01*
X217358171Y-100783480D01*
X217615046Y-101167922D01*
X217633122Y-101180000D01*
X217615046Y-101192078D01*
X217358171Y-101576520D01*
X217267968Y-102030000D01*
X217358171Y-102483480D01*
X217615046Y-102867922D01*
X217999488Y-103124797D01*
X218452968Y-103215000D01*
X218803420Y-103215000D01*
X218843420Y-103255000D01*
X212456579Y-103255000D01*
X211632320Y-102430740D01*
X211650420Y-102339744D01*
X212541197Y-102339744D01*
X212541602Y-102366146D01*
X212757276Y-102778118D01*
X213114187Y-103076196D01*
X213558000Y-103215000D01*
X214008000Y-103215000D01*
X214008000Y-102157000D01*
X214262000Y-102157000D01*
X214262000Y-103215000D01*
X214712000Y-103215000D01*
X215155813Y-103076196D01*
X215512724Y-102778118D01*
X215728398Y-102366146D01*
X215728803Y-102339744D01*
X215603361Y-102157000D01*
X214262000Y-102157000D01*
X214008000Y-102157000D01*
X212666639Y-102157000D01*
X212541197Y-102339744D01*
X211650420Y-102339744D01*
X211712032Y-102030000D01*
X211621829Y-101576520D01*
X211380270Y-101215000D01*
X212837359Y-101215000D01*
X212757276Y-101281882D01*
X212541602Y-101693854D01*
X212541197Y-101720256D01*
X212666639Y-101903000D01*
X214008000Y-101903000D01*
X214008000Y-101883000D01*
X214262000Y-101883000D01*
X214262000Y-101903000D01*
X215603361Y-101903000D01*
X215728803Y-101720256D01*
X215728398Y-101693854D01*
X215512724Y-101281882D01*
X215411243Y-101197129D01*
X215454954Y-101167922D01*
X215711829Y-100783480D01*
X215802032Y-100330000D01*
X215711829Y-99876520D01*
X215454954Y-99492078D01*
X215436878Y-99480000D01*
X215454954Y-99467922D01*
X215711829Y-99083480D01*
X215802032Y-98630000D01*
X215711829Y-98176520D01*
X215454954Y-97792078D01*
X215070512Y-97535203D01*
X214617032Y-97445000D01*
X213652968Y-97445000D01*
X213199488Y-97535203D01*
X212885503Y-97745000D01*
X211294497Y-97745000D01*
X210980512Y-97535203D01*
X210527032Y-97445000D01*
X209562968Y-97445000D01*
X209109488Y-97535203D01*
X208725046Y-97792078D01*
X208468171Y-98176520D01*
X208377968Y-98630000D01*
X208468171Y-99083480D01*
X208725046Y-99467922D01*
X208743122Y-99480000D01*
X208725046Y-99492078D01*
X208468171Y-99876520D01*
X208377968Y-100330000D01*
X208468171Y-100783480D01*
X208725046Y-101167922D01*
X208743122Y-101180000D01*
X208725046Y-101192078D01*
X208468171Y-101576520D01*
X208377968Y-102030000D01*
X208468171Y-102483480D01*
X208725046Y-102867922D01*
X209109488Y-103124797D01*
X209562968Y-103215000D01*
X209913420Y-103215000D01*
X209953420Y-103255000D01*
X203566579Y-103255000D01*
X202742320Y-102430740D01*
X202760420Y-102339744D01*
X203651197Y-102339744D01*
X203651602Y-102366146D01*
X203867276Y-102778118D01*
X204224187Y-103076196D01*
X204668000Y-103215000D01*
X205118000Y-103215000D01*
X205118000Y-102157000D01*
X205372000Y-102157000D01*
X205372000Y-103215000D01*
X205822000Y-103215000D01*
X206265813Y-103076196D01*
X206622724Y-102778118D01*
X206838398Y-102366146D01*
X206838803Y-102339744D01*
X206713361Y-102157000D01*
X205372000Y-102157000D01*
X205118000Y-102157000D01*
X203776639Y-102157000D01*
X203651197Y-102339744D01*
X202760420Y-102339744D01*
X202822032Y-102030000D01*
X202731829Y-101576520D01*
X202490270Y-101215000D01*
X203947359Y-101215000D01*
X203867276Y-101281882D01*
X203651602Y-101693854D01*
X203651197Y-101720256D01*
X203776639Y-101903000D01*
X205118000Y-101903000D01*
X205118000Y-101883000D01*
X205372000Y-101883000D01*
X205372000Y-101903000D01*
X206713361Y-101903000D01*
X206838803Y-101720256D01*
X206838398Y-101693854D01*
X206622724Y-101281882D01*
X206521243Y-101197129D01*
X206564954Y-101167922D01*
X206821829Y-100783480D01*
X206912032Y-100330000D01*
X206821829Y-99876520D01*
X206564954Y-99492078D01*
X206546878Y-99480000D01*
X206564954Y-99467922D01*
X206821829Y-99083480D01*
X206912032Y-98630000D01*
X206821829Y-98176520D01*
X206564954Y-97792078D01*
X206180512Y-97535203D01*
X205727032Y-97445000D01*
X204762968Y-97445000D01*
X204309488Y-97535203D01*
X203995503Y-97745000D01*
X202404497Y-97745000D01*
X202090512Y-97535203D01*
X201637032Y-97445000D01*
X200672968Y-97445000D01*
X200219488Y-97535203D01*
X199835046Y-97792078D01*
X199578171Y-98176520D01*
X199487968Y-98630000D01*
X199578171Y-99083480D01*
X199835046Y-99467922D01*
X199853122Y-99480000D01*
X199835046Y-99492078D01*
X199578171Y-99876520D01*
X199487968Y-100330000D01*
X199578171Y-100783480D01*
X199835046Y-101167922D01*
X199853122Y-101180000D01*
X199835046Y-101192078D01*
X199578171Y-101576520D01*
X199487968Y-102030000D01*
X199578171Y-102483480D01*
X199835046Y-102867922D01*
X200219488Y-103124797D01*
X200672968Y-103215000D01*
X201023420Y-103215000D01*
X201063420Y-103255000D01*
X194676579Y-103255000D01*
X193852320Y-102430740D01*
X193870420Y-102339744D01*
X194761197Y-102339744D01*
X194761602Y-102366146D01*
X194977276Y-102778118D01*
X195334187Y-103076196D01*
X195778000Y-103215000D01*
X196228000Y-103215000D01*
X196228000Y-102157000D01*
X196482000Y-102157000D01*
X196482000Y-103215000D01*
X196932000Y-103215000D01*
X197375813Y-103076196D01*
X197732724Y-102778118D01*
X197948398Y-102366146D01*
X197948803Y-102339744D01*
X197823361Y-102157000D01*
X196482000Y-102157000D01*
X196228000Y-102157000D01*
X194886639Y-102157000D01*
X194761197Y-102339744D01*
X193870420Y-102339744D01*
X193932032Y-102030000D01*
X193841829Y-101576520D01*
X193600270Y-101215000D01*
X195057359Y-101215000D01*
X194977276Y-101281882D01*
X194761602Y-101693854D01*
X194761197Y-101720256D01*
X194886639Y-101903000D01*
X196228000Y-101903000D01*
X196228000Y-101883000D01*
X196482000Y-101883000D01*
X196482000Y-101903000D01*
X197823361Y-101903000D01*
X197948803Y-101720256D01*
X197948398Y-101693854D01*
X197732724Y-101281882D01*
X197631243Y-101197129D01*
X197674954Y-101167922D01*
X197931829Y-100783480D01*
X198022032Y-100330000D01*
X197931829Y-99876520D01*
X197674954Y-99492078D01*
X197656878Y-99480000D01*
X197674954Y-99467922D01*
X197931829Y-99083480D01*
X198022032Y-98630000D01*
X197931829Y-98176520D01*
X197674954Y-97792078D01*
X197290512Y-97535203D01*
X196837032Y-97445000D01*
X195872968Y-97445000D01*
X195419488Y-97535203D01*
X195105503Y-97745000D01*
X193514497Y-97745000D01*
X193200512Y-97535203D01*
X192747032Y-97445000D01*
X191782968Y-97445000D01*
X191329488Y-97535203D01*
X190945046Y-97792078D01*
X190688171Y-98176520D01*
X190597968Y-98630000D01*
X190688171Y-99083480D01*
X190945046Y-99467922D01*
X190963122Y-99480000D01*
X190945046Y-99492078D01*
X190688171Y-99876520D01*
X190597968Y-100330000D01*
X190688171Y-100783480D01*
X190945046Y-101167922D01*
X190963122Y-101180000D01*
X190945046Y-101192078D01*
X190688171Y-101576520D01*
X190597968Y-102030000D01*
X190688171Y-102483480D01*
X190945046Y-102867922D01*
X191329488Y-103124797D01*
X191782968Y-103215000D01*
X192133420Y-103215000D01*
X192173420Y-103255000D01*
X185786579Y-103255000D01*
X184962320Y-102430740D01*
X184980420Y-102339744D01*
X185871197Y-102339744D01*
X185871602Y-102366146D01*
X186087276Y-102778118D01*
X186444187Y-103076196D01*
X186888000Y-103215000D01*
X187338000Y-103215000D01*
X187338000Y-102157000D01*
X187592000Y-102157000D01*
X187592000Y-103215000D01*
X188042000Y-103215000D01*
X188485813Y-103076196D01*
X188842724Y-102778118D01*
X189058398Y-102366146D01*
X189058803Y-102339744D01*
X188933361Y-102157000D01*
X187592000Y-102157000D01*
X187338000Y-102157000D01*
X185996639Y-102157000D01*
X185871197Y-102339744D01*
X184980420Y-102339744D01*
X185042032Y-102030000D01*
X184951829Y-101576520D01*
X184710270Y-101215000D01*
X186167359Y-101215000D01*
X186087276Y-101281882D01*
X185871602Y-101693854D01*
X185871197Y-101720256D01*
X185996639Y-101903000D01*
X187338000Y-101903000D01*
X187338000Y-101883000D01*
X187592000Y-101883000D01*
X187592000Y-101903000D01*
X188933361Y-101903000D01*
X189058803Y-101720256D01*
X189058398Y-101693854D01*
X188842724Y-101281882D01*
X188741243Y-101197129D01*
X188784954Y-101167922D01*
X189041829Y-100783480D01*
X189132032Y-100330000D01*
X189041829Y-99876520D01*
X188784954Y-99492078D01*
X188766878Y-99480000D01*
X188784954Y-99467922D01*
X189041829Y-99083480D01*
X189132032Y-98630000D01*
X189041829Y-98176520D01*
X188784954Y-97792078D01*
X188400512Y-97535203D01*
X187947032Y-97445000D01*
X186982968Y-97445000D01*
X186529488Y-97535203D01*
X186215503Y-97745000D01*
X184624497Y-97745000D01*
X184310512Y-97535203D01*
X183857032Y-97445000D01*
X182892968Y-97445000D01*
X182439488Y-97535203D01*
X182055046Y-97792078D01*
X181798171Y-98176520D01*
X181707968Y-98630000D01*
X181798171Y-99083480D01*
X182055046Y-99467922D01*
X182073122Y-99480000D01*
X182055046Y-99492078D01*
X181798171Y-99876520D01*
X181707968Y-100330000D01*
X181798171Y-100783480D01*
X182055046Y-101167922D01*
X182073122Y-101180000D01*
X182055046Y-101192078D01*
X181798171Y-101576520D01*
X181707968Y-102030000D01*
X181798171Y-102483480D01*
X182055046Y-102867922D01*
X182439488Y-103124797D01*
X182892968Y-103215000D01*
X183243420Y-103215000D01*
X183283420Y-103255000D01*
X176896579Y-103255000D01*
X176072320Y-102430740D01*
X176090420Y-102339744D01*
X176981197Y-102339744D01*
X176981602Y-102366146D01*
X177197276Y-102778118D01*
X177554187Y-103076196D01*
X177998000Y-103215000D01*
X178448000Y-103215000D01*
X178448000Y-102157000D01*
X178702000Y-102157000D01*
X178702000Y-103215000D01*
X179152000Y-103215000D01*
X179595813Y-103076196D01*
X179952724Y-102778118D01*
X180168398Y-102366146D01*
X180168803Y-102339744D01*
X180043361Y-102157000D01*
X178702000Y-102157000D01*
X178448000Y-102157000D01*
X177106639Y-102157000D01*
X176981197Y-102339744D01*
X176090420Y-102339744D01*
X176152032Y-102030000D01*
X176061829Y-101576520D01*
X175820270Y-101215000D01*
X177277359Y-101215000D01*
X177197276Y-101281882D01*
X176981602Y-101693854D01*
X176981197Y-101720256D01*
X177106639Y-101903000D01*
X178448000Y-101903000D01*
X178448000Y-101883000D01*
X178702000Y-101883000D01*
X178702000Y-101903000D01*
X180043361Y-101903000D01*
X180168803Y-101720256D01*
X180168398Y-101693854D01*
X179952724Y-101281882D01*
X179851243Y-101197129D01*
X179894954Y-101167922D01*
X180151829Y-100783480D01*
X180242032Y-100330000D01*
X180151829Y-99876520D01*
X179894954Y-99492078D01*
X179876878Y-99480000D01*
X179894954Y-99467922D01*
X180151829Y-99083480D01*
X180242032Y-98630000D01*
X180151829Y-98176520D01*
X179894954Y-97792078D01*
X179510512Y-97535203D01*
X179057032Y-97445000D01*
X178092968Y-97445000D01*
X177639488Y-97535203D01*
X177325503Y-97745000D01*
X175734497Y-97745000D01*
X175420512Y-97535203D01*
X174967032Y-97445000D01*
X174002968Y-97445000D01*
X173549488Y-97535203D01*
X173165046Y-97792078D01*
X172908171Y-98176520D01*
X172817968Y-98630000D01*
X172908171Y-99083480D01*
X173165046Y-99467922D01*
X173183122Y-99480000D01*
X173165046Y-99492078D01*
X172908171Y-99876520D01*
X172817968Y-100330000D01*
X172908171Y-100783480D01*
X173165046Y-101167922D01*
X173183122Y-101180000D01*
X173165046Y-101192078D01*
X172908171Y-101576520D01*
X172817968Y-102030000D01*
X172908171Y-102483480D01*
X173165046Y-102867922D01*
X173549488Y-103124797D01*
X174002968Y-103215000D01*
X174353420Y-103215000D01*
X174393420Y-103255000D01*
X168006579Y-103255000D01*
X167182320Y-102430740D01*
X167200420Y-102339744D01*
X168091197Y-102339744D01*
X168091602Y-102366146D01*
X168307276Y-102778118D01*
X168664187Y-103076196D01*
X169108000Y-103215000D01*
X169558000Y-103215000D01*
X169558000Y-102157000D01*
X169812000Y-102157000D01*
X169812000Y-103215000D01*
X170262000Y-103215000D01*
X170705813Y-103076196D01*
X171062724Y-102778118D01*
X171278398Y-102366146D01*
X171278803Y-102339744D01*
X171153361Y-102157000D01*
X169812000Y-102157000D01*
X169558000Y-102157000D01*
X168216639Y-102157000D01*
X168091197Y-102339744D01*
X167200420Y-102339744D01*
X167262032Y-102030000D01*
X167171829Y-101576520D01*
X166930270Y-101215000D01*
X168387359Y-101215000D01*
X168307276Y-101281882D01*
X168091602Y-101693854D01*
X168091197Y-101720256D01*
X168216639Y-101903000D01*
X169558000Y-101903000D01*
X169558000Y-101883000D01*
X169812000Y-101883000D01*
X169812000Y-101903000D01*
X171153361Y-101903000D01*
X171278803Y-101720256D01*
X171278398Y-101693854D01*
X171062724Y-101281882D01*
X170961243Y-101197129D01*
X171004954Y-101167922D01*
X171261829Y-100783480D01*
X171352032Y-100330000D01*
X171261829Y-99876520D01*
X171004954Y-99492078D01*
X170986878Y-99480000D01*
X171004954Y-99467922D01*
X171261829Y-99083480D01*
X171352032Y-98630000D01*
X171261829Y-98176520D01*
X171004954Y-97792078D01*
X170620512Y-97535203D01*
X170167032Y-97445000D01*
X169202968Y-97445000D01*
X168749488Y-97535203D01*
X168435503Y-97745000D01*
X166844497Y-97745000D01*
X166530512Y-97535203D01*
X166077032Y-97445000D01*
X165112968Y-97445000D01*
X164659488Y-97535203D01*
X164275046Y-97792078D01*
X164018171Y-98176520D01*
X163927968Y-98630000D01*
X164018171Y-99083480D01*
X164275046Y-99467922D01*
X164293122Y-99480000D01*
X164275046Y-99492078D01*
X164018171Y-99876520D01*
X163927968Y-100330000D01*
X164018171Y-100783480D01*
X164275046Y-101167922D01*
X164293122Y-101180000D01*
X164275046Y-101192078D01*
X164018171Y-101576520D01*
X163927968Y-102030000D01*
X164018171Y-102483480D01*
X164275046Y-102867922D01*
X164659488Y-103124797D01*
X165112968Y-103215000D01*
X165463420Y-103215000D01*
X165503420Y-103255000D01*
X159116579Y-103255000D01*
X158292320Y-102430740D01*
X158310420Y-102339744D01*
X159201197Y-102339744D01*
X159201602Y-102366146D01*
X159417276Y-102778118D01*
X159774187Y-103076196D01*
X160218000Y-103215000D01*
X160668000Y-103215000D01*
X160668000Y-102157000D01*
X160922000Y-102157000D01*
X160922000Y-103215000D01*
X161372000Y-103215000D01*
X161815813Y-103076196D01*
X162172724Y-102778118D01*
X162388398Y-102366146D01*
X162388803Y-102339744D01*
X162263361Y-102157000D01*
X160922000Y-102157000D01*
X160668000Y-102157000D01*
X159326639Y-102157000D01*
X159201197Y-102339744D01*
X158310420Y-102339744D01*
X158372032Y-102030000D01*
X158281829Y-101576520D01*
X158040270Y-101215000D01*
X159497359Y-101215000D01*
X159417276Y-101281882D01*
X159201602Y-101693854D01*
X159201197Y-101720256D01*
X159326639Y-101903000D01*
X160668000Y-101903000D01*
X160668000Y-101883000D01*
X160922000Y-101883000D01*
X160922000Y-101903000D01*
X162263361Y-101903000D01*
X162388803Y-101720256D01*
X162388398Y-101693854D01*
X162172724Y-101281882D01*
X162071243Y-101197129D01*
X162114954Y-101167922D01*
X162371829Y-100783480D01*
X162462032Y-100330000D01*
X162371829Y-99876520D01*
X162114954Y-99492078D01*
X162096878Y-99480000D01*
X162114954Y-99467922D01*
X162371829Y-99083480D01*
X162462032Y-98630000D01*
X162371829Y-98176520D01*
X162114954Y-97792078D01*
X161730512Y-97535203D01*
X161277032Y-97445000D01*
X160312968Y-97445000D01*
X159859488Y-97535203D01*
X159545503Y-97745000D01*
X157954497Y-97745000D01*
X157640512Y-97535203D01*
X157187032Y-97445000D01*
X156222968Y-97445000D01*
X155769488Y-97535203D01*
X155385046Y-97792078D01*
X155128171Y-98176520D01*
X155037968Y-98630000D01*
X155128171Y-99083480D01*
X155385046Y-99467922D01*
X155403122Y-99480000D01*
X155385046Y-99492078D01*
X155128171Y-99876520D01*
X155037968Y-100330000D01*
X155128171Y-100783480D01*
X155385046Y-101167922D01*
X155403122Y-101180000D01*
X155385046Y-101192078D01*
X155128171Y-101576520D01*
X155037968Y-102030000D01*
X155128171Y-102483480D01*
X155385046Y-102867922D01*
X155769488Y-103124797D01*
X156222968Y-103215000D01*
X156573420Y-103215000D01*
X156613420Y-103255000D01*
X150226579Y-103255000D01*
X149402320Y-102430740D01*
X149420420Y-102339744D01*
X150311197Y-102339744D01*
X150311602Y-102366146D01*
X150527276Y-102778118D01*
X150884187Y-103076196D01*
X151328000Y-103215000D01*
X151778000Y-103215000D01*
X151778000Y-102157000D01*
X152032000Y-102157000D01*
X152032000Y-103215000D01*
X152482000Y-103215000D01*
X152925813Y-103076196D01*
X153282724Y-102778118D01*
X153498398Y-102366146D01*
X153498803Y-102339744D01*
X153373361Y-102157000D01*
X152032000Y-102157000D01*
X151778000Y-102157000D01*
X150436639Y-102157000D01*
X150311197Y-102339744D01*
X149420420Y-102339744D01*
X149482032Y-102030000D01*
X149391829Y-101576520D01*
X149150270Y-101215000D01*
X150607359Y-101215000D01*
X150527276Y-101281882D01*
X150311602Y-101693854D01*
X150311197Y-101720256D01*
X150436639Y-101903000D01*
X151778000Y-101903000D01*
X151778000Y-101883000D01*
X152032000Y-101883000D01*
X152032000Y-101903000D01*
X153373361Y-101903000D01*
X153498803Y-101720256D01*
X153498398Y-101693854D01*
X153282724Y-101281882D01*
X153181243Y-101197129D01*
X153224954Y-101167922D01*
X153481829Y-100783480D01*
X153572032Y-100330000D01*
X153481829Y-99876520D01*
X153224954Y-99492078D01*
X153206878Y-99480000D01*
X153224954Y-99467922D01*
X153481829Y-99083480D01*
X153572032Y-98630000D01*
X153481829Y-98176520D01*
X153224954Y-97792078D01*
X152840512Y-97535203D01*
X152387032Y-97445000D01*
X151422968Y-97445000D01*
X150969488Y-97535203D01*
X150655503Y-97745000D01*
X149064497Y-97745000D01*
X148750512Y-97535203D01*
X148297032Y-97445000D01*
X147332968Y-97445000D01*
X146879488Y-97535203D01*
X146495046Y-97792078D01*
X146238171Y-98176520D01*
X146147968Y-98630000D01*
X146238171Y-99083480D01*
X146495046Y-99467922D01*
X146513122Y-99480000D01*
X146495046Y-99492078D01*
X146238171Y-99876520D01*
X146147968Y-100330000D01*
X146238171Y-100783480D01*
X146495046Y-101167922D01*
X146513122Y-101180000D01*
X146495046Y-101192078D01*
X146238171Y-101576520D01*
X146147968Y-102030000D01*
X146238171Y-102483480D01*
X146495046Y-102867922D01*
X146879488Y-103124797D01*
X147332968Y-103215000D01*
X147683420Y-103215000D01*
X147723420Y-103255000D01*
X141336579Y-103255000D01*
X140512320Y-102430740D01*
X140530420Y-102339744D01*
X141421197Y-102339744D01*
X141421602Y-102366146D01*
X141637276Y-102778118D01*
X141994187Y-103076196D01*
X142438000Y-103215000D01*
X142888000Y-103215000D01*
X142888000Y-102157000D01*
X143142000Y-102157000D01*
X143142000Y-103215000D01*
X143592000Y-103215000D01*
X144035813Y-103076196D01*
X144392724Y-102778118D01*
X144608398Y-102366146D01*
X144608803Y-102339744D01*
X144483361Y-102157000D01*
X143142000Y-102157000D01*
X142888000Y-102157000D01*
X141546639Y-102157000D01*
X141421197Y-102339744D01*
X140530420Y-102339744D01*
X140592032Y-102030000D01*
X140501829Y-101576520D01*
X140260270Y-101215000D01*
X141717359Y-101215000D01*
X141637276Y-101281882D01*
X141421602Y-101693854D01*
X141421197Y-101720256D01*
X141546639Y-101903000D01*
X142888000Y-101903000D01*
X142888000Y-101883000D01*
X143142000Y-101883000D01*
X143142000Y-101903000D01*
X144483361Y-101903000D01*
X144608803Y-101720256D01*
X144608398Y-101693854D01*
X144392724Y-101281882D01*
X144291243Y-101197129D01*
X144334954Y-101167922D01*
X144591829Y-100783480D01*
X144682032Y-100330000D01*
X144591829Y-99876520D01*
X144334954Y-99492078D01*
X144316878Y-99480000D01*
X144334954Y-99467922D01*
X144591829Y-99083480D01*
X144682032Y-98630000D01*
X144591829Y-98176520D01*
X144334954Y-97792078D01*
X143950512Y-97535203D01*
X143497032Y-97445000D01*
X142532968Y-97445000D01*
X142079488Y-97535203D01*
X141765503Y-97745000D01*
X140174497Y-97745000D01*
X139860512Y-97535203D01*
X139407032Y-97445000D01*
X138442968Y-97445000D01*
X137989488Y-97535203D01*
X137605046Y-97792078D01*
X137348171Y-98176520D01*
X137257968Y-98630000D01*
X137348171Y-99083480D01*
X137605046Y-99467922D01*
X137623122Y-99480000D01*
X137605046Y-99492078D01*
X137348171Y-99876520D01*
X137257968Y-100330000D01*
X137348171Y-100783480D01*
X137605046Y-101167922D01*
X137623122Y-101180000D01*
X137605046Y-101192078D01*
X137348171Y-101576520D01*
X137257968Y-102030000D01*
X137348171Y-102483480D01*
X137605046Y-102867922D01*
X137989488Y-103124797D01*
X138442968Y-103215000D01*
X138793420Y-103215000D01*
X138833420Y-103255000D01*
X132446579Y-103255000D01*
X131622320Y-102430740D01*
X131640420Y-102339744D01*
X132531197Y-102339744D01*
X132531602Y-102366146D01*
X132747276Y-102778118D01*
X133104187Y-103076196D01*
X133548000Y-103215000D01*
X133998000Y-103215000D01*
X133998000Y-102157000D01*
X134252000Y-102157000D01*
X134252000Y-103215000D01*
X134702000Y-103215000D01*
X135145813Y-103076196D01*
X135502724Y-102778118D01*
X135718398Y-102366146D01*
X135718803Y-102339744D01*
X135593361Y-102157000D01*
X134252000Y-102157000D01*
X133998000Y-102157000D01*
X132656639Y-102157000D01*
X132531197Y-102339744D01*
X131640420Y-102339744D01*
X131702032Y-102030000D01*
X131611829Y-101576520D01*
X131370270Y-101215000D01*
X132827359Y-101215000D01*
X132747276Y-101281882D01*
X132531602Y-101693854D01*
X132531197Y-101720256D01*
X132656639Y-101903000D01*
X133998000Y-101903000D01*
X133998000Y-101883000D01*
X134252000Y-101883000D01*
X134252000Y-101903000D01*
X135593361Y-101903000D01*
X135718803Y-101720256D01*
X135718398Y-101693854D01*
X135502724Y-101281882D01*
X135401243Y-101197129D01*
X135444954Y-101167922D01*
X135701829Y-100783480D01*
X135792032Y-100330000D01*
X135701829Y-99876520D01*
X135444954Y-99492078D01*
X135426878Y-99480000D01*
X135444954Y-99467922D01*
X135701829Y-99083480D01*
X135792032Y-98630000D01*
X135701829Y-98176520D01*
X135444954Y-97792078D01*
X135060512Y-97535203D01*
X134607032Y-97445000D01*
X133642968Y-97445000D01*
X133189488Y-97535203D01*
X132875503Y-97745000D01*
X131284497Y-97745000D01*
X130970512Y-97535203D01*
X130517032Y-97445000D01*
X129552968Y-97445000D01*
X129099488Y-97535203D01*
X128715046Y-97792078D01*
X128458171Y-98176520D01*
X128367968Y-98630000D01*
X128458171Y-99083480D01*
X128715046Y-99467922D01*
X128733122Y-99480000D01*
X128715046Y-99492078D01*
X128458171Y-99876520D01*
X128367968Y-100330000D01*
X128458171Y-100783480D01*
X128715046Y-101167922D01*
X128733122Y-101180000D01*
X128715046Y-101192078D01*
X128458171Y-101576520D01*
X128367968Y-102030000D01*
X128458171Y-102483480D01*
X128715046Y-102867922D01*
X129099488Y-103124797D01*
X129552968Y-103215000D01*
X129903420Y-103215000D01*
X129943420Y-103255000D01*
X123556579Y-103255000D01*
X122732320Y-102430740D01*
X122750420Y-102339744D01*
X123641197Y-102339744D01*
X123641602Y-102366146D01*
X123857276Y-102778118D01*
X124214187Y-103076196D01*
X124658000Y-103215000D01*
X125108000Y-103215000D01*
X125108000Y-102157000D01*
X125362000Y-102157000D01*
X125362000Y-103215000D01*
X125812000Y-103215000D01*
X126255813Y-103076196D01*
X126612724Y-102778118D01*
X126828398Y-102366146D01*
X126828803Y-102339744D01*
X126703361Y-102157000D01*
X125362000Y-102157000D01*
X125108000Y-102157000D01*
X123766639Y-102157000D01*
X123641197Y-102339744D01*
X122750420Y-102339744D01*
X122812032Y-102030000D01*
X122721829Y-101576520D01*
X122480270Y-101215000D01*
X123937359Y-101215000D01*
X123857276Y-101281882D01*
X123641602Y-101693854D01*
X123641197Y-101720256D01*
X123766639Y-101903000D01*
X125108000Y-101903000D01*
X125108000Y-101883000D01*
X125362000Y-101883000D01*
X125362000Y-101903000D01*
X126703361Y-101903000D01*
X126828803Y-101720256D01*
X126828398Y-101693854D01*
X126612724Y-101281882D01*
X126511243Y-101197129D01*
X126554954Y-101167922D01*
X126811829Y-100783480D01*
X126902032Y-100330000D01*
X126811829Y-99876520D01*
X126554954Y-99492078D01*
X126536878Y-99480000D01*
X126554954Y-99467922D01*
X126811829Y-99083480D01*
X126902032Y-98630000D01*
X126811829Y-98176520D01*
X126554954Y-97792078D01*
X126170512Y-97535203D01*
X125717032Y-97445000D01*
X124752968Y-97445000D01*
X124299488Y-97535203D01*
X123985503Y-97745000D01*
X122394497Y-97745000D01*
X122080512Y-97535203D01*
X121627032Y-97445000D01*
X120662968Y-97445000D01*
X120209488Y-97535203D01*
X119825046Y-97792078D01*
X119568171Y-98176520D01*
X119477968Y-98630000D01*
X119568171Y-99083480D01*
X119825046Y-99467922D01*
X119843122Y-99480000D01*
X119825046Y-99492078D01*
X119568171Y-99876520D01*
X119477968Y-100330000D01*
X119568171Y-100783480D01*
X119825046Y-101167922D01*
X119843122Y-101180000D01*
X119825046Y-101192078D01*
X119568171Y-101576520D01*
X119477968Y-102030000D01*
X119568171Y-102483480D01*
X119825046Y-102867922D01*
X120209488Y-103124797D01*
X120662968Y-103215000D01*
X121013420Y-103215000D01*
X121053420Y-103255000D01*
X114666579Y-103255000D01*
X113842320Y-102430740D01*
X113860420Y-102339744D01*
X114751197Y-102339744D01*
X114751602Y-102366146D01*
X114967276Y-102778118D01*
X115324187Y-103076196D01*
X115768000Y-103215000D01*
X116218000Y-103215000D01*
X116218000Y-102157000D01*
X116472000Y-102157000D01*
X116472000Y-103215000D01*
X116922000Y-103215000D01*
X117365813Y-103076196D01*
X117722724Y-102778118D01*
X117938398Y-102366146D01*
X117938803Y-102339744D01*
X117813361Y-102157000D01*
X116472000Y-102157000D01*
X116218000Y-102157000D01*
X114876639Y-102157000D01*
X114751197Y-102339744D01*
X113860420Y-102339744D01*
X113922032Y-102030000D01*
X113831829Y-101576520D01*
X113590270Y-101215000D01*
X115047359Y-101215000D01*
X114967276Y-101281882D01*
X114751602Y-101693854D01*
X114751197Y-101720256D01*
X114876639Y-101903000D01*
X116218000Y-101903000D01*
X116218000Y-101883000D01*
X116472000Y-101883000D01*
X116472000Y-101903000D01*
X117813361Y-101903000D01*
X117938803Y-101720256D01*
X117938398Y-101693854D01*
X117722724Y-101281882D01*
X117621243Y-101197129D01*
X117664954Y-101167922D01*
X117921829Y-100783480D01*
X118012032Y-100330000D01*
X117921829Y-99876520D01*
X117664954Y-99492078D01*
X117646878Y-99480000D01*
X117664954Y-99467922D01*
X117921829Y-99083480D01*
X118012032Y-98630000D01*
X117921829Y-98176520D01*
X117664954Y-97792078D01*
X117280512Y-97535203D01*
X116827032Y-97445000D01*
X115862968Y-97445000D01*
X115409488Y-97535203D01*
X115095503Y-97745000D01*
X113504497Y-97745000D01*
X113190512Y-97535203D01*
X112737032Y-97445000D01*
X111772968Y-97445000D01*
X111319488Y-97535203D01*
X110935046Y-97792078D01*
X110678171Y-98176520D01*
X110587968Y-98630000D01*
X110678171Y-99083480D01*
X110935046Y-99467922D01*
X110953122Y-99480000D01*
X110935046Y-99492078D01*
X110678171Y-99876520D01*
X110587968Y-100330000D01*
X110678171Y-100783480D01*
X110935046Y-101167922D01*
X110953122Y-101180000D01*
X110935046Y-101192078D01*
X110678171Y-101576520D01*
X110587968Y-102030000D01*
X110678171Y-102483480D01*
X110935046Y-102867922D01*
X111319488Y-103124797D01*
X111772968Y-103215000D01*
X112123420Y-103215000D01*
X112163420Y-103255000D01*
X105841579Y-103255000D01*
X104963104Y-102376524D01*
X104970420Y-102339744D01*
X105861197Y-102339744D01*
X105861602Y-102366146D01*
X106077276Y-102778118D01*
X106434187Y-103076196D01*
X106878000Y-103215000D01*
X107328000Y-103215000D01*
X107328000Y-102157000D01*
X107582000Y-102157000D01*
X107582000Y-103215000D01*
X108032000Y-103215000D01*
X108475813Y-103076196D01*
X108832724Y-102778118D01*
X109048398Y-102366146D01*
X109048803Y-102339744D01*
X108923361Y-102157000D01*
X107582000Y-102157000D01*
X107328000Y-102157000D01*
X105986639Y-102157000D01*
X105861197Y-102339744D01*
X104970420Y-102339744D01*
X105032032Y-102030000D01*
X104941829Y-101576520D01*
X104700270Y-101215000D01*
X106157359Y-101215000D01*
X106077276Y-101281882D01*
X105861602Y-101693854D01*
X105861197Y-101720256D01*
X105986639Y-101903000D01*
X107328000Y-101903000D01*
X107328000Y-101883000D01*
X107582000Y-101883000D01*
X107582000Y-101903000D01*
X108923361Y-101903000D01*
X109048803Y-101720256D01*
X109048398Y-101693854D01*
X108832724Y-101281882D01*
X108731243Y-101197129D01*
X108774954Y-101167922D01*
X109031829Y-100783480D01*
X109122032Y-100330000D01*
X109031829Y-99876520D01*
X108774954Y-99492078D01*
X108756878Y-99480000D01*
X108774954Y-99467922D01*
X109031829Y-99083480D01*
X109122032Y-98630000D01*
X109031829Y-98176520D01*
X108774954Y-97792078D01*
X108390512Y-97535203D01*
X107937032Y-97445000D01*
X106972968Y-97445000D01*
X106519488Y-97535203D01*
X106205503Y-97745000D01*
X104614497Y-97745000D01*
X104300512Y-97535203D01*
X103847032Y-97445000D01*
X102882968Y-97445000D01*
X102429488Y-97535203D01*
X102045046Y-97792078D01*
X101788171Y-98176520D01*
X101697968Y-98630000D01*
X101788171Y-99083480D01*
X102045046Y-99467922D01*
X102063122Y-99480000D01*
X102045046Y-99492078D01*
X101788171Y-99876520D01*
X101697968Y-100330000D01*
X101788171Y-100783480D01*
X102045046Y-101167922D01*
X102063122Y-101180000D01*
X102045046Y-101192078D01*
X101788171Y-101576520D01*
X101697968Y-102030000D01*
X101788171Y-102483480D01*
X102045046Y-102867922D01*
X102429488Y-103124797D01*
X102882968Y-103215000D01*
X103298420Y-103215000D01*
X103305920Y-103222500D01*
X94647505Y-103222500D01*
X94647500Y-103222499D01*
X94365016Y-103278690D01*
X94308825Y-103289867D01*
X94021710Y-103481710D01*
X94021708Y-103481713D01*
X93100210Y-104403210D01*
X92908367Y-104690325D01*
X92908367Y-104690326D01*
X92840999Y-105029000D01*
X92841000Y-105029005D01*
X92841000Y-106313421D01*
X91032350Y-108122071D01*
X91030090Y-108118559D01*
X90817890Y-107973569D01*
X90566000Y-107922560D01*
X90403615Y-107922560D01*
X90579729Y-107849611D01*
X90635410Y-107619016D01*
X89916000Y-106899605D01*
X89196590Y-107619016D01*
X89252271Y-107849611D01*
X89461902Y-107922560D01*
X89266000Y-107922560D01*
X89030683Y-107966838D01*
X88814559Y-108105910D01*
X88669569Y-108318110D01*
X88666149Y-108335000D01*
X81479131Y-108335000D01*
X81605633Y-108145675D01*
X81630864Y-108018833D01*
X81671896Y-107812554D01*
X81739441Y-107769090D01*
X81785969Y-107700994D01*
X81928302Y-107843327D01*
X82161691Y-107940000D01*
X82502250Y-107940000D01*
X82661000Y-107781250D01*
X82661000Y-106807000D01*
X82915000Y-106807000D01*
X82915000Y-107781250D01*
X83073750Y-107940000D01*
X83414309Y-107940000D01*
X83647698Y-107843327D01*
X83826327Y-107664699D01*
X83923000Y-107431310D01*
X83923000Y-106965750D01*
X83764250Y-106807000D01*
X82915000Y-106807000D01*
X82661000Y-106807000D01*
X82641000Y-106807000D01*
X82641000Y-106553000D01*
X82661000Y-106553000D01*
X82661000Y-105578750D01*
X82915000Y-105578750D01*
X82915000Y-106553000D01*
X83764250Y-106553000D01*
X83778172Y-106539078D01*
X88618378Y-106539078D01*
X88647917Y-107049428D01*
X88786389Y-107383729D01*
X89016984Y-107439410D01*
X89736395Y-106720000D01*
X90095605Y-106720000D01*
X90815016Y-107439410D01*
X91045611Y-107383729D01*
X91213622Y-106900922D01*
X91184083Y-106390572D01*
X91045611Y-106056271D01*
X90815016Y-106000590D01*
X90095605Y-106720000D01*
X89736395Y-106720000D01*
X89016984Y-106000590D01*
X88786389Y-106056271D01*
X88618378Y-106539078D01*
X83778172Y-106539078D01*
X83923000Y-106394250D01*
X83923000Y-105928690D01*
X83878387Y-105820984D01*
X89196590Y-105820984D01*
X89916000Y-106540395D01*
X90635410Y-105820984D01*
X90579729Y-105590389D01*
X90096922Y-105422378D01*
X89586572Y-105451917D01*
X89252271Y-105590389D01*
X89196590Y-105820984D01*
X83878387Y-105820984D01*
X83826327Y-105695301D01*
X83647698Y-105516673D01*
X83414309Y-105420000D01*
X83073750Y-105420000D01*
X82915000Y-105578750D01*
X82661000Y-105578750D01*
X82502250Y-105420000D01*
X82161691Y-105420000D01*
X81928302Y-105516673D01*
X81787064Y-105657910D01*
X81752090Y-105603559D01*
X81539890Y-105458569D01*
X81288000Y-105407560D01*
X80288000Y-105407560D01*
X80052683Y-105451838D01*
X80040961Y-105459381D01*
X79860579Y-105279000D01*
X87375995Y-105279000D01*
X87376000Y-105279001D01*
X87658484Y-105222810D01*
X87714675Y-105211633D01*
X88001790Y-105019790D01*
X88001791Y-105019789D01*
X90681835Y-102339744D01*
X96971197Y-102339744D01*
X96971602Y-102366146D01*
X97187276Y-102778118D01*
X97544187Y-103076196D01*
X97988000Y-103215000D01*
X98438000Y-103215000D01*
X98438000Y-102157000D01*
X98692000Y-102157000D01*
X98692000Y-103215000D01*
X99142000Y-103215000D01*
X99585813Y-103076196D01*
X99942724Y-102778118D01*
X100158398Y-102366146D01*
X100158803Y-102339744D01*
X100033361Y-102157000D01*
X98692000Y-102157000D01*
X98438000Y-102157000D01*
X97096639Y-102157000D01*
X96971197Y-102339744D01*
X90681835Y-102339744D01*
X91661798Y-101359781D01*
X91707910Y-101431441D01*
X91920110Y-101576431D01*
X92172000Y-101627440D01*
X92872000Y-101627440D01*
X93107317Y-101583162D01*
X93323441Y-101444090D01*
X93468431Y-101231890D01*
X93471081Y-101218803D01*
X93607910Y-101431441D01*
X93820110Y-101576431D01*
X94072000Y-101627440D01*
X94772000Y-101627440D01*
X95007317Y-101583162D01*
X95223441Y-101444090D01*
X95368431Y-101231890D01*
X95371851Y-101215000D01*
X97267359Y-101215000D01*
X97187276Y-101281882D01*
X96971602Y-101693854D01*
X96971197Y-101720256D01*
X97096639Y-101903000D01*
X98438000Y-101903000D01*
X98438000Y-101883000D01*
X98692000Y-101883000D01*
X98692000Y-101903000D01*
X100033361Y-101903000D01*
X100158803Y-101720256D01*
X100158398Y-101693854D01*
X99942724Y-101281882D01*
X99841243Y-101197129D01*
X99884954Y-101167922D01*
X100141829Y-100783480D01*
X100232032Y-100330000D01*
X100141829Y-99876520D01*
X99884954Y-99492078D01*
X99866878Y-99480000D01*
X99884954Y-99467922D01*
X100141829Y-99083480D01*
X100232032Y-98630000D01*
X100141829Y-98176520D01*
X99884954Y-97792078D01*
X99500512Y-97535203D01*
X99047032Y-97445000D01*
X98082968Y-97445000D01*
X97629488Y-97535203D01*
X97561926Y-97580346D01*
X96383790Y-96402210D01*
X96334574Y-96369325D01*
X96096675Y-96210367D01*
X96038519Y-96198799D01*
X95758000Y-96142999D01*
X95757995Y-96143000D01*
X95375222Y-96143000D01*
X95375162Y-96142683D01*
X95236090Y-95926559D01*
X95023890Y-95781569D01*
X94772000Y-95730560D01*
X94072000Y-95730560D01*
X93836683Y-95774838D01*
X93620559Y-95913910D01*
X93475569Y-96126110D01*
X93472919Y-96139197D01*
X93336090Y-95926559D01*
X93123890Y-95781569D01*
X92872000Y-95730560D01*
X92172000Y-95730560D01*
X91936683Y-95774838D01*
X91720559Y-95913910D01*
X91575569Y-96126110D01*
X91572149Y-96143000D01*
X91440005Y-96143000D01*
X91440000Y-96142999D01*
X91159481Y-96198799D01*
X91101325Y-96210367D01*
X90814210Y-96402210D01*
X90814208Y-96402213D01*
X90052210Y-97164210D01*
X89860367Y-97451325D01*
X89860367Y-97451326D01*
X89792999Y-97790000D01*
X89793000Y-97790005D01*
X89793000Y-99201421D01*
X86501420Y-102493000D01*
X83864310Y-102493000D01*
X83923000Y-102351310D01*
X83923000Y-101885750D01*
X83764250Y-101727000D01*
X82915000Y-101727000D01*
X82915000Y-101747000D01*
X82661000Y-101747000D01*
X82661000Y-101727000D01*
X82641000Y-101727000D01*
X82641000Y-101473000D01*
X82661000Y-101473000D01*
X82661000Y-100498750D01*
X82502250Y-100340000D01*
X82161691Y-100340000D01*
X81928302Y-100436673D01*
X81787064Y-100577910D01*
X81752090Y-100523559D01*
X81673000Y-100469519D01*
X81673000Y-99108975D01*
X81784431Y-98945890D01*
X81787081Y-98932803D01*
X81923910Y-99145441D01*
X82136110Y-99290431D01*
X82388000Y-99341440D01*
X83088000Y-99341440D01*
X83323317Y-99297162D01*
X83539441Y-99158090D01*
X83684431Y-98945890D01*
X83687851Y-98929000D01*
X83697000Y-98929000D01*
X83697000Y-99769178D01*
X83647162Y-99889201D01*
X83646838Y-100261167D01*
X83769811Y-100558785D01*
X83647698Y-100436673D01*
X83414309Y-100340000D01*
X83073750Y-100340000D01*
X82915000Y-100498750D01*
X82915000Y-101473000D01*
X83764250Y-101473000D01*
X83923000Y-101314250D01*
X83923000Y-100848690D01*
X83845550Y-100661709D01*
X84051673Y-100868192D01*
X84395201Y-101010838D01*
X84767167Y-101011162D01*
X85110943Y-100869117D01*
X85374192Y-100606327D01*
X85516838Y-100262799D01*
X85517162Y-99890833D01*
X85467000Y-99769431D01*
X85467000Y-98410580D01*
X86747787Y-97129792D01*
X86747790Y-97129790D01*
X86939633Y-96842675D01*
X86966422Y-96708000D01*
X87007001Y-96504000D01*
X87007000Y-96503995D01*
X87007000Y-95873844D01*
X87073441Y-95831090D01*
X87119969Y-95762994D01*
X87262302Y-95905327D01*
X87495691Y-96002000D01*
X87836250Y-96002000D01*
X87995000Y-95843250D01*
X87995000Y-94869000D01*
X88249000Y-94869000D01*
X88249000Y-95843250D01*
X88407750Y-96002000D01*
X88748309Y-96002000D01*
X88981698Y-95905327D01*
X89160327Y-95726699D01*
X89257000Y-95493310D01*
X89257000Y-95027750D01*
X89098250Y-94869000D01*
X88249000Y-94869000D01*
X87995000Y-94869000D01*
X87975000Y-94869000D01*
X87975000Y-94615000D01*
X87995000Y-94615000D01*
X87995000Y-93640750D01*
X88249000Y-93640750D01*
X88249000Y-94615000D01*
X89098250Y-94615000D01*
X89257000Y-94456250D01*
X89257000Y-93990690D01*
X89160327Y-93757301D01*
X88981698Y-93578673D01*
X88748309Y-93482000D01*
X88407750Y-93482000D01*
X88249000Y-93640750D01*
X87995000Y-93640750D01*
X87836250Y-93482000D01*
X87495691Y-93482000D01*
X87262302Y-93578673D01*
X87121064Y-93719910D01*
X87086090Y-93665559D01*
X86873890Y-93520569D01*
X86622000Y-93469560D01*
X86101139Y-93469560D01*
X84969790Y-92338210D01*
X84892660Y-92286674D01*
X84682675Y-92146367D01*
X84626484Y-92135190D01*
X84344000Y-92078999D01*
X84343995Y-92079000D01*
X79046822Y-92079000D01*
X78926799Y-92029162D01*
X78894446Y-92029134D01*
X79873787Y-91049792D01*
X79873790Y-91049790D01*
X82921787Y-88001792D01*
X82921790Y-88001790D01*
X83113633Y-87714675D01*
X83147319Y-87545325D01*
X83181001Y-87376000D01*
X83181000Y-87375995D01*
X83181000Y-87003413D01*
X83394917Y-86963162D01*
X83611041Y-86824090D01*
X83756031Y-86611890D01*
X83807040Y-86360000D01*
X83807040Y-85618172D01*
X86232538Y-85618172D01*
X86637709Y-86598761D01*
X87387293Y-87349655D01*
X88367173Y-87756536D01*
X89428172Y-87757462D01*
X90408761Y-87352291D01*
X91159655Y-86602707D01*
X91566536Y-85622827D01*
X91567462Y-84561828D01*
X91162291Y-83581239D01*
X90412707Y-82830345D01*
X89432827Y-82423464D01*
X88371828Y-82422538D01*
X87391239Y-82827709D01*
X86640345Y-83577293D01*
X86233464Y-84557173D01*
X86232538Y-85618172D01*
X83807040Y-85618172D01*
X83807040Y-84328000D01*
X83762762Y-84092683D01*
X83623690Y-83876559D01*
X83411490Y-83731569D01*
X83159600Y-83680560D01*
X81432400Y-83680560D01*
X81197083Y-83724838D01*
X80980959Y-83863910D01*
X80835969Y-84076110D01*
X80827600Y-84117439D01*
X80815670Y-84099585D01*
X80329489Y-83774729D01*
X79756000Y-83660655D01*
X79182511Y-83774729D01*
X78696330Y-84099585D01*
X78486000Y-84414366D01*
X78275670Y-84099585D01*
X77789489Y-83774729D01*
X77216000Y-83660655D01*
X76642511Y-83774729D01*
X76156330Y-84099585D01*
X75946000Y-84414366D01*
X75735670Y-84099585D01*
X75249489Y-83774729D01*
X74676000Y-83660655D01*
X74102511Y-83774729D01*
X73616330Y-84099585D01*
X73406000Y-84414366D01*
X73195670Y-84099585D01*
X72709489Y-83774729D01*
X72136000Y-83660655D01*
X71562511Y-83774729D01*
X71076330Y-84099585D01*
X70866000Y-84414366D01*
X70655670Y-84099585D01*
X70169489Y-83774729D01*
X69596000Y-83660655D01*
X69022511Y-83774729D01*
X68536330Y-84099585D01*
X68211474Y-84585766D01*
X68097400Y-85159255D01*
X68097400Y-85528745D01*
X68211474Y-86102234D01*
X68536330Y-86588415D01*
X69022511Y-86913271D01*
X69596000Y-87027345D01*
X69956131Y-86955711D01*
X71251000Y-88250579D01*
X71251000Y-89761560D01*
X71008139Y-89761560D01*
X65964790Y-84718210D01*
X65826911Y-84626083D01*
X65677675Y-84526367D01*
X65621484Y-84515190D01*
X65402328Y-84471596D01*
X65145353Y-84214173D01*
X64655413Y-84010732D01*
X64124914Y-84010269D01*
X63634620Y-84212854D01*
X63388044Y-84459000D01*
X57769754Y-84459000D01*
X57525353Y-84214173D01*
X57035413Y-84010732D01*
X56504914Y-84010269D01*
X56014620Y-84212854D01*
X55639173Y-84587647D01*
X55435732Y-85077587D01*
X55435269Y-85608086D01*
X55590180Y-85983000D01*
X52070005Y-85983000D01*
X52070000Y-85982999D01*
X51731325Y-86050367D01*
X51444210Y-86242210D01*
X51444208Y-86242213D01*
X50174210Y-87512210D01*
X50174208Y-87512213D01*
X44776710Y-92909710D01*
X44584867Y-93196825D01*
X44584867Y-93196826D01*
X44517499Y-93535500D01*
X44517500Y-93535505D01*
X44517500Y-98009474D01*
X44404698Y-97896673D01*
X44171309Y-97800000D01*
X43830750Y-97800000D01*
X43672000Y-97958750D01*
X43672000Y-98933000D01*
X43692000Y-98933000D01*
X43692000Y-99187000D01*
X43672000Y-99187000D01*
X43672000Y-100161250D01*
X43830750Y-100320000D01*
X44171309Y-100320000D01*
X44404698Y-100223327D01*
X44517500Y-100110526D01*
X44517500Y-100397500D01*
X39919079Y-100397500D01*
X40371579Y-99945000D01*
X40457721Y-99945000D01*
X40580910Y-100136441D01*
X40793110Y-100281431D01*
X41045000Y-100332440D01*
X42045000Y-100332440D01*
X42280317Y-100288162D01*
X42496441Y-100149090D01*
X42542969Y-100080994D01*
X42685302Y-100223327D01*
X42918691Y-100320000D01*
X43259250Y-100320000D01*
X43418000Y-100161250D01*
X43418000Y-99187000D01*
X43398000Y-99187000D01*
X43398000Y-98933000D01*
X43418000Y-98933000D01*
X43418000Y-97958750D01*
X43259250Y-97800000D01*
X42918691Y-97800000D01*
X42685302Y-97896673D01*
X42544064Y-98037910D01*
X42509090Y-97983559D01*
X42430000Y-97929519D01*
X42430000Y-95679975D01*
X42541431Y-95516890D01*
X42544081Y-95503803D01*
X42680910Y-95716441D01*
X42893110Y-95861431D01*
X43145000Y-95912440D01*
X43845000Y-95912440D01*
X44080317Y-95868162D01*
X44296441Y-95729090D01*
X44441431Y-95516890D01*
X44492440Y-95265000D01*
X44492440Y-93965000D01*
X44448162Y-93729683D01*
X44309090Y-93513559D01*
X44096890Y-93368569D01*
X44065000Y-93362111D01*
X44065000Y-92262470D01*
X44431716Y-92189526D01*
X44917897Y-91864670D01*
X45242753Y-91378489D01*
X45356827Y-90805000D01*
X45242753Y-90231511D01*
X44917897Y-89745330D01*
X44595880Y-89530165D01*
X44965873Y-89234868D01*
X45249527Y-88721157D01*
X45271358Y-88624026D01*
X45150217Y-88392000D01*
X43307000Y-88392000D01*
X43307000Y-88412000D01*
X43053000Y-88412000D01*
X43053000Y-88392000D01*
X41209783Y-88392000D01*
X41088642Y-88624026D01*
X41110473Y-88721157D01*
X41394127Y-89234868D01*
X41764120Y-89530165D01*
X41442103Y-89745330D01*
X41117247Y-90231511D01*
X41003173Y-90805000D01*
X41117247Y-91378489D01*
X41442103Y-91864670D01*
X41928284Y-92189526D01*
X42295000Y-92262470D01*
X42295000Y-93435605D01*
X42196890Y-93368569D01*
X41945000Y-93317560D01*
X41245000Y-93317560D01*
X41009683Y-93361838D01*
X40793559Y-93500910D01*
X40648569Y-93713110D01*
X40597560Y-93965000D01*
X40597560Y-95265000D01*
X40641838Y-95500317D01*
X40660000Y-95528542D01*
X40660000Y-97928156D01*
X40593559Y-97970910D01*
X40454110Y-98175000D01*
X40005005Y-98175000D01*
X40005000Y-98174999D01*
X39724481Y-98230799D01*
X39666325Y-98242367D01*
X39379210Y-98434210D01*
X39379208Y-98434213D01*
X37156710Y-100656710D01*
X37156708Y-100656713D01*
X35971860Y-101841560D01*
X34544000Y-101841560D01*
X34308683Y-101885838D01*
X34159000Y-101982156D01*
X34159000Y-98615324D01*
X34315585Y-98849670D01*
X34801766Y-99174526D01*
X35375255Y-99288600D01*
X35744745Y-99288600D01*
X36318234Y-99174526D01*
X36804415Y-98849670D01*
X36935093Y-98654096D01*
X37112484Y-98618810D01*
X37168675Y-98607633D01*
X37455790Y-98415790D01*
X39016834Y-96854745D01*
X39136943Y-96805117D01*
X39400192Y-96542327D01*
X39542838Y-96198799D01*
X39543162Y-95826833D01*
X39401117Y-95483057D01*
X39138327Y-95219808D01*
X39130869Y-95216711D01*
X39741787Y-94605792D01*
X39741790Y-94605790D01*
X39933633Y-94318675D01*
X39960223Y-94185000D01*
X40001001Y-93980000D01*
X40001000Y-93979995D01*
X40001000Y-87996580D01*
X41114748Y-86882831D01*
X41215910Y-87040041D01*
X41428110Y-87185031D01*
X41511037Y-87201824D01*
X41394127Y-87295132D01*
X41110473Y-87808843D01*
X41088642Y-87905974D01*
X41209783Y-88138000D01*
X43053000Y-88138000D01*
X43053000Y-88118000D01*
X43307000Y-88118000D01*
X43307000Y-88138000D01*
X45150217Y-88138000D01*
X45271358Y-87905974D01*
X45249527Y-87808843D01*
X44965873Y-87295132D01*
X44851420Y-87203785D01*
X44915317Y-87191762D01*
X45131441Y-87052690D01*
X45276431Y-86840490D01*
X45327440Y-86588600D01*
X45327440Y-84861400D01*
X45283162Y-84626083D01*
X45144090Y-84409959D01*
X44931890Y-84264969D01*
X44680000Y-84213960D01*
X41680000Y-84213960D01*
X41444683Y-84258238D01*
X41228559Y-84397310D01*
X41083569Y-84609510D01*
X41036894Y-84840000D01*
X41021005Y-84840000D01*
X41021000Y-84839999D01*
X40738516Y-84896190D01*
X40682325Y-84907367D01*
X40395210Y-85099210D01*
X40395208Y-85099213D01*
X38490210Y-87004210D01*
X38298367Y-87291325D01*
X38298367Y-87291326D01*
X38230999Y-87630000D01*
X38231000Y-87630005D01*
X38231000Y-93613421D01*
X37479420Y-94365000D01*
X36921126Y-94365000D01*
X36804415Y-94190330D01*
X36790087Y-94180757D01*
X36811317Y-94176762D01*
X37027441Y-94037690D01*
X37172431Y-93825490D01*
X37223440Y-93573600D01*
X37223440Y-91846400D01*
X37179162Y-91611083D01*
X37040090Y-91394959D01*
X36827890Y-91249969D01*
X36576000Y-91198960D01*
X34544000Y-91198960D01*
X34308683Y-91243238D01*
X34092559Y-91382310D01*
X33947569Y-91594510D01*
X33896560Y-91846400D01*
X33896560Y-91928960D01*
X33664210Y-92084210D01*
X33664208Y-92084213D01*
X32648210Y-93100210D01*
X32456367Y-93387325D01*
X32453249Y-93402999D01*
X32388999Y-93726000D01*
X32389000Y-93726005D01*
X32389000Y-107441995D01*
X32388999Y-107442000D01*
X32433298Y-107664699D01*
X32456367Y-107780675D01*
X32585254Y-107973569D01*
X32648210Y-108067790D01*
X33410208Y-108829787D01*
X33410210Y-108829790D01*
X33697325Y-109021633D01*
X33753516Y-109032810D01*
X34036000Y-109089001D01*
X34036005Y-109089000D01*
X40893995Y-109089000D01*
X40894000Y-109089001D01*
X41176484Y-109032810D01*
X41232675Y-109021633D01*
X41519790Y-108829790D01*
X41519791Y-108829789D01*
X42535787Y-107813792D01*
X42535790Y-107813790D01*
X42727633Y-107526675D01*
X42744991Y-107439410D01*
X42795001Y-107188000D01*
X42795000Y-107187995D01*
X42795000Y-107073440D01*
X42926000Y-107073440D01*
X43161317Y-107029162D01*
X43377441Y-106890090D01*
X43479198Y-106741163D01*
X43818190Y-106967670D01*
X44450000Y-107093345D01*
X45081810Y-106967670D01*
X45617433Y-106609778D01*
X45975325Y-106074155D01*
X46101000Y-105442345D01*
X46101000Y-105377655D01*
X45975325Y-104745845D01*
X45617433Y-104210222D01*
X45081810Y-103852330D01*
X44450000Y-103726655D01*
X43818190Y-103852330D01*
X43478208Y-104079499D01*
X43390090Y-103942559D01*
X43177890Y-103797569D01*
X42926000Y-103746560D01*
X40894000Y-103746560D01*
X40658683Y-103790838D01*
X40442559Y-103929910D01*
X40297569Y-104142110D01*
X40246560Y-104394000D01*
X40246560Y-106426000D01*
X40290838Y-106661317D01*
X40429910Y-106877441D01*
X40642110Y-107022431D01*
X40793361Y-107053060D01*
X40527420Y-107319000D01*
X36586970Y-107319000D01*
X36966385Y-106909818D01*
X37165975Y-106427944D01*
X37046836Y-106172000D01*
X35687000Y-106172000D01*
X35687000Y-106192000D01*
X35433000Y-106192000D01*
X35433000Y-106172000D01*
X35413000Y-106172000D01*
X35413000Y-105918000D01*
X35433000Y-105918000D01*
X35433000Y-105898000D01*
X35687000Y-105898000D01*
X35687000Y-105918000D01*
X37046836Y-105918000D01*
X37165975Y-105662056D01*
X36966385Y-105180182D01*
X36875903Y-105082602D01*
X37027441Y-104985090D01*
X37172431Y-104772890D01*
X37223440Y-104521000D01*
X37223440Y-103093140D01*
X38149079Y-102167500D01*
X45035920Y-102167500D01*
X46740000Y-103871579D01*
X46740000Y-106679995D01*
X46739999Y-106680000D01*
X46783682Y-106899605D01*
X46807367Y-107018675D01*
X46906512Y-107167057D01*
X46992761Y-107296138D01*
X46937431Y-107319000D01*
X46482005Y-107319000D01*
X46482000Y-107318999D01*
X46199516Y-107375190D01*
X46143325Y-107386367D01*
X45856210Y-107578210D01*
X45856208Y-107578213D01*
X43769849Y-109664571D01*
X43423914Y-109664269D01*
X42933620Y-109866854D01*
X42558173Y-110241647D01*
X42354732Y-110731587D01*
X42354269Y-111262086D01*
X42556854Y-111752380D01*
X42803000Y-111998956D01*
X42803000Y-117617246D01*
X42558173Y-117861647D01*
X42354732Y-118351587D01*
X42354269Y-118882086D01*
X42556854Y-119372380D01*
X42931647Y-119747827D01*
X43394451Y-119940000D01*
X31825000Y-119940000D01*
X31825000Y-117368172D01*
X32257538Y-117368172D01*
X32662709Y-118348761D01*
X33412293Y-119099655D01*
X34392173Y-119506536D01*
X35453172Y-119507462D01*
X36433761Y-119102291D01*
X37184655Y-118352707D01*
X37591536Y-117372827D01*
X37592462Y-116311828D01*
X37187291Y-115331239D01*
X36437707Y-114580345D01*
X35457827Y-114173464D01*
X34396828Y-114172538D01*
X33416239Y-114577709D01*
X32665345Y-115327293D01*
X32258464Y-116307173D01*
X32257538Y-117368172D01*
X31825000Y-117368172D01*
X31825000Y-85618172D01*
X32257538Y-85618172D01*
X32662709Y-86598761D01*
X33412293Y-87349655D01*
X34392173Y-87756536D01*
X35453172Y-87757462D01*
X36433761Y-87352291D01*
X37184655Y-86602707D01*
X37591536Y-85622827D01*
X37592462Y-84561828D01*
X37187291Y-83581239D01*
X36437707Y-82830345D01*
X35457827Y-82423464D01*
X34396828Y-82422538D01*
X33416239Y-82827709D01*
X32665345Y-83577293D01*
X32258464Y-84557173D01*
X32257538Y-85618172D01*
X31825000Y-85618172D01*
X31825000Y-81990000D01*
X91577697Y-81990000D01*
X96487747Y-95492638D01*
G36*
X96562270Y-105043673D02*
X96499046Y-105138295D01*
X96494069Y-105163314D01*
X96481435Y-105185478D01*
X91563261Y-119940000D01*
X68319891Y-119940000D01*
X68409199Y-119935148D01*
X68764929Y-119787800D01*
X68826583Y-119552188D01*
X68072000Y-118797605D01*
X67317417Y-119552188D01*
X67379071Y-119787800D01*
X67811499Y-119940000D01*
X63284477Y-119940000D01*
X63746380Y-119749146D01*
X64121827Y-119374353D01*
X64325268Y-118884413D01*
X64325668Y-118425480D01*
X66726073Y-118425480D01*
X66754852Y-118955199D01*
X66902200Y-119310929D01*
X67137812Y-119372583D01*
X67892395Y-118618000D01*
X68251605Y-118618000D01*
X69006188Y-119372583D01*
X69241800Y-119310929D01*
X69417927Y-118810520D01*
X69389148Y-118280801D01*
X69241800Y-117925071D01*
X69006188Y-117863417D01*
X68251605Y-118618000D01*
X67892395Y-118618000D01*
X67137812Y-117863417D01*
X66902200Y-117925071D01*
X66726073Y-118425480D01*
X64325668Y-118425480D01*
X64325731Y-118353914D01*
X64123146Y-117863620D01*
X63943652Y-117683812D01*
X67317417Y-117683812D01*
X68072000Y-118438395D01*
X68826583Y-117683812D01*
X68764929Y-117448200D01*
X68264520Y-117272073D01*
X67734801Y-117300852D01*
X67379071Y-117448200D01*
X67317417Y-117683812D01*
X63943652Y-117683812D01*
X63877000Y-117617044D01*
X63877000Y-111998754D01*
X63943682Y-111932188D01*
X67317417Y-111932188D01*
X67379071Y-112167800D01*
X67879480Y-112343927D01*
X68409199Y-112315148D01*
X68764929Y-112167800D01*
X68826583Y-111932188D01*
X68072000Y-111177605D01*
X67317417Y-111932188D01*
X63943682Y-111932188D01*
X63992956Y-111883000D01*
X65023995Y-111883000D01*
X65024000Y-111883001D01*
X65320767Y-111823969D01*
X65362675Y-111815633D01*
X65649790Y-111623790D01*
X66194835Y-111078745D01*
X66314943Y-111029117D01*
X66578192Y-110766327D01*
X66720838Y-110422799D01*
X66721115Y-110105000D01*
X67045718Y-110105000D01*
X67022555Y-110128163D01*
X67137810Y-110243418D01*
X66902200Y-110305071D01*
X66726073Y-110805480D01*
X66754852Y-111335199D01*
X66902200Y-111690929D01*
X67137812Y-111752583D01*
X67892395Y-110998000D01*
X67878253Y-110983858D01*
X68057858Y-110804253D01*
X68072000Y-110818395D01*
X68086143Y-110804253D01*
X68265748Y-110983858D01*
X68251605Y-110998000D01*
X69006188Y-111752583D01*
X69241800Y-111690929D01*
X69417927Y-111190520D01*
X69389148Y-110660801D01*
X69241800Y-110305071D01*
X69006190Y-110243418D01*
X69121445Y-110128163D01*
X69098282Y-110105000D01*
X70693113Y-110105000D01*
X70692838Y-110421167D01*
X70743000Y-110542569D01*
X70743000Y-116331995D01*
X70742999Y-116332000D01*
X70769057Y-116462999D01*
X70810367Y-116670675D01*
X70972302Y-116913029D01*
X71002210Y-116957790D01*
X73034208Y-118989787D01*
X73034210Y-118989790D01*
X73321325Y-119181633D01*
X73377516Y-119192810D01*
X73660000Y-119249001D01*
X73660005Y-119249000D01*
X75691995Y-119249000D01*
X75692000Y-119249001D01*
X75974484Y-119192810D01*
X76030675Y-119181633D01*
X76317790Y-118989790D01*
X77333787Y-117973792D01*
X77333790Y-117973790D01*
X77525633Y-117686675D01*
X77565118Y-117488173D01*
X77588988Y-117368172D01*
X86232538Y-117368172D01*
X86637709Y-118348761D01*
X87387293Y-119099655D01*
X88367173Y-119506536D01*
X89428172Y-119507462D01*
X90408761Y-119102291D01*
X91159655Y-118352707D01*
X91566536Y-117372827D01*
X91567462Y-116311828D01*
X91162291Y-115331239D01*
X90412707Y-114580345D01*
X89432827Y-114173464D01*
X88371828Y-114172538D01*
X87391239Y-114577709D01*
X86640345Y-115327293D01*
X86233464Y-116307173D01*
X86232538Y-117368172D01*
X77588988Y-117368172D01*
X77593001Y-117348000D01*
X77593000Y-117347995D01*
X77593000Y-117029740D01*
X77767670Y-116913029D01*
X77978000Y-116598248D01*
X78188330Y-116913029D01*
X78674511Y-117237885D01*
X79248000Y-117351959D01*
X79821489Y-117237885D01*
X80307670Y-116913029D01*
X80443998Y-116709000D01*
X81660995Y-116709000D01*
X81661000Y-116709001D01*
X81943484Y-116652810D01*
X81999675Y-116641633D01*
X82286790Y-116449790D01*
X83175787Y-115560792D01*
X83175790Y-115560790D01*
X83367633Y-115273675D01*
X83382644Y-115198210D01*
X83435001Y-114935000D01*
X83435000Y-114934995D01*
X83435000Y-110490005D01*
X83435001Y-110490000D01*
X83367633Y-110151325D01*
X83342025Y-110113000D01*
X83336680Y-110105000D01*
X88662778Y-110105000D01*
X88662838Y-110105317D01*
X88801910Y-110321441D01*
X89014110Y-110466431D01*
X89266000Y-110517440D01*
X90566000Y-110517440D01*
X90801317Y-110473162D01*
X91017441Y-110334090D01*
X91162431Y-110121890D01*
X91165851Y-110105000D01*
X91185995Y-110105000D01*
X91186000Y-110105001D01*
X91468484Y-110048810D01*
X91524675Y-110037633D01*
X91811790Y-109845790D01*
X91811791Y-109845789D01*
X94351787Y-107305792D01*
X94351790Y-107305790D01*
X94543633Y-107018675D01*
X94611000Y-106680000D01*
X94611000Y-105395580D01*
X95014079Y-104992500D01*
X96591441Y-104992500D01*
X96562270Y-105043673D01*
X96562270Y-105043673D01*
G37*
X96562270Y-105043673D02*
X96499046Y-105138295D01*
X96494069Y-105163314D01*
X96481435Y-105185478D01*
X91563261Y-119940000D01*
X68319891Y-119940000D01*
X68409199Y-119935148D01*
X68764929Y-119787800D01*
X68826583Y-119552188D01*
X68072000Y-118797605D01*
X67317417Y-119552188D01*
X67379071Y-119787800D01*
X67811499Y-119940000D01*
X63284477Y-119940000D01*
X63746380Y-119749146D01*
X64121827Y-119374353D01*
X64325268Y-118884413D01*
X64325668Y-118425480D01*
X66726073Y-118425480D01*
X66754852Y-118955199D01*
X66902200Y-119310929D01*
X67137812Y-119372583D01*
X67892395Y-118618000D01*
X68251605Y-118618000D01*
X69006188Y-119372583D01*
X69241800Y-119310929D01*
X69417927Y-118810520D01*
X69389148Y-118280801D01*
X69241800Y-117925071D01*
X69006188Y-117863417D01*
X68251605Y-118618000D01*
X67892395Y-118618000D01*
X67137812Y-117863417D01*
X66902200Y-117925071D01*
X66726073Y-118425480D01*
X64325668Y-118425480D01*
X64325731Y-118353914D01*
X64123146Y-117863620D01*
X63943652Y-117683812D01*
X67317417Y-117683812D01*
X68072000Y-118438395D01*
X68826583Y-117683812D01*
X68764929Y-117448200D01*
X68264520Y-117272073D01*
X67734801Y-117300852D01*
X67379071Y-117448200D01*
X67317417Y-117683812D01*
X63943652Y-117683812D01*
X63877000Y-117617044D01*
X63877000Y-111998754D01*
X63943682Y-111932188D01*
X67317417Y-111932188D01*
X67379071Y-112167800D01*
X67879480Y-112343927D01*
X68409199Y-112315148D01*
X68764929Y-112167800D01*
X68826583Y-111932188D01*
X68072000Y-111177605D01*
X67317417Y-111932188D01*
X63943682Y-111932188D01*
X63992956Y-111883000D01*
X65023995Y-111883000D01*
X65024000Y-111883001D01*
X65320767Y-111823969D01*
X65362675Y-111815633D01*
X65649790Y-111623790D01*
X66194835Y-111078745D01*
X66314943Y-111029117D01*
X66578192Y-110766327D01*
X66720838Y-110422799D01*
X66721115Y-110105000D01*
X67045718Y-110105000D01*
X67022555Y-110128163D01*
X67137810Y-110243418D01*
X66902200Y-110305071D01*
X66726073Y-110805480D01*
X66754852Y-111335199D01*
X66902200Y-111690929D01*
X67137812Y-111752583D01*
X67892395Y-110998000D01*
X67878253Y-110983858D01*
X68057858Y-110804253D01*
X68072000Y-110818395D01*
X68086143Y-110804253D01*
X68265748Y-110983858D01*
X68251605Y-110998000D01*
X69006188Y-111752583D01*
X69241800Y-111690929D01*
X69417927Y-111190520D01*
X69389148Y-110660801D01*
X69241800Y-110305071D01*
X69006190Y-110243418D01*
X69121445Y-110128163D01*
X69098282Y-110105000D01*
X70693113Y-110105000D01*
X70692838Y-110421167D01*
X70743000Y-110542569D01*
X70743000Y-116331995D01*
X70742999Y-116332000D01*
X70769057Y-116462999D01*
X70810367Y-116670675D01*
X70972302Y-116913029D01*
X71002210Y-116957790D01*
X73034208Y-118989787D01*
X73034210Y-118989790D01*
X73321325Y-119181633D01*
X73377516Y-119192810D01*
X73660000Y-119249001D01*
X73660005Y-119249000D01*
X75691995Y-119249000D01*
X75692000Y-119249001D01*
X75974484Y-119192810D01*
X76030675Y-119181633D01*
X76317790Y-118989790D01*
X77333787Y-117973792D01*
X77333790Y-117973790D01*
X77525633Y-117686675D01*
X77565118Y-117488173D01*
X77588988Y-117368172D01*
X86232538Y-117368172D01*
X86637709Y-118348761D01*
X87387293Y-119099655D01*
X88367173Y-119506536D01*
X89428172Y-119507462D01*
X90408761Y-119102291D01*
X91159655Y-118352707D01*
X91566536Y-117372827D01*
X91567462Y-116311828D01*
X91162291Y-115331239D01*
X90412707Y-114580345D01*
X89432827Y-114173464D01*
X88371828Y-114172538D01*
X87391239Y-114577709D01*
X86640345Y-115327293D01*
X86233464Y-116307173D01*
X86232538Y-117368172D01*
X77588988Y-117368172D01*
X77593001Y-117348000D01*
X77593000Y-117347995D01*
X77593000Y-117029740D01*
X77767670Y-116913029D01*
X77978000Y-116598248D01*
X78188330Y-116913029D01*
X78674511Y-117237885D01*
X79248000Y-117351959D01*
X79821489Y-117237885D01*
X80307670Y-116913029D01*
X80443998Y-116709000D01*
X81660995Y-116709000D01*
X81661000Y-116709001D01*
X81943484Y-116652810D01*
X81999675Y-116641633D01*
X82286790Y-116449790D01*
X83175787Y-115560792D01*
X83175790Y-115560790D01*
X83367633Y-115273675D01*
X83382644Y-115198210D01*
X83435001Y-114935000D01*
X83435000Y-114934995D01*
X83435000Y-110490005D01*
X83435001Y-110490000D01*
X83367633Y-110151325D01*
X83342025Y-110113000D01*
X83336680Y-110105000D01*
X88662778Y-110105000D01*
X88662838Y-110105317D01*
X88801910Y-110321441D01*
X89014110Y-110466431D01*
X89266000Y-110517440D01*
X90566000Y-110517440D01*
X90801317Y-110473162D01*
X91017441Y-110334090D01*
X91162431Y-110121890D01*
X91165851Y-110105000D01*
X91185995Y-110105000D01*
X91186000Y-110105001D01*
X91468484Y-110048810D01*
X91524675Y-110037633D01*
X91811790Y-109845790D01*
X91811791Y-109845789D01*
X94351787Y-107305792D01*
X94351790Y-107305790D01*
X94543633Y-107018675D01*
X94611000Y-106680000D01*
X94611000Y-105395580D01*
X95014079Y-104992500D01*
X96591441Y-104992500D01*
X96562270Y-105043673D01*
G36*
X57370555Y-110128163D02*
X57485810Y-110243418D01*
X57250200Y-110305071D01*
X57074073Y-110805480D01*
X57102852Y-111335199D01*
X57250200Y-111690929D01*
X57485812Y-111752583D01*
X58240395Y-110998000D01*
X58226253Y-110983858D01*
X58405858Y-110804253D01*
X58420000Y-110818395D01*
X58434143Y-110804253D01*
X58613748Y-110983858D01*
X58599605Y-110998000D01*
X59354188Y-111752583D01*
X59589800Y-111690929D01*
X59765927Y-111190520D01*
X59737148Y-110660801D01*
X59589800Y-110305071D01*
X59354190Y-110243418D01*
X59469445Y-110128163D01*
X59446282Y-110105000D01*
X61999058Y-110105000D01*
X61862173Y-110241647D01*
X61658732Y-110731587D01*
X61658269Y-111262086D01*
X61860854Y-111752380D01*
X62107000Y-111998956D01*
X62107000Y-117617246D01*
X61862173Y-117861647D01*
X61658732Y-118351587D01*
X61658269Y-118882086D01*
X61860854Y-119372380D01*
X62235647Y-119747827D01*
X62698451Y-119940000D01*
X58667891Y-119940000D01*
X58757199Y-119935148D01*
X59112929Y-119787800D01*
X59174583Y-119552188D01*
X58420000Y-118797605D01*
X57665417Y-119552188D01*
X57727071Y-119787800D01*
X58159499Y-119940000D01*
X53632477Y-119940000D01*
X54094380Y-119749146D01*
X54469827Y-119374353D01*
X54673268Y-118884413D01*
X54673668Y-118425480D01*
X57074073Y-118425480D01*
X57102852Y-118955199D01*
X57250200Y-119310929D01*
X57485812Y-119372583D01*
X58240395Y-118618000D01*
X58599605Y-118618000D01*
X59354188Y-119372583D01*
X59589800Y-119310929D01*
X59765927Y-118810520D01*
X59737148Y-118280801D01*
X59589800Y-117925071D01*
X59354188Y-117863417D01*
X58599605Y-118618000D01*
X58240395Y-118618000D01*
X57485812Y-117863417D01*
X57250200Y-117925071D01*
X57074073Y-118425480D01*
X54673668Y-118425480D01*
X54673731Y-118353914D01*
X54471146Y-117863620D01*
X54291652Y-117683812D01*
X57665417Y-117683812D01*
X58420000Y-118438395D01*
X59174583Y-117683812D01*
X59112929Y-117448200D01*
X58612520Y-117272073D01*
X58082801Y-117300852D01*
X57727071Y-117448200D01*
X57665417Y-117683812D01*
X54291652Y-117683812D01*
X54225000Y-117617044D01*
X54225000Y-111998754D01*
X54291682Y-111932188D01*
X57665417Y-111932188D01*
X57727071Y-112167800D01*
X58227480Y-112343927D01*
X58757199Y-112315148D01*
X59112929Y-112167800D01*
X59174583Y-111932188D01*
X58420000Y-111177605D01*
X57665417Y-111932188D01*
X54291682Y-111932188D01*
X54340956Y-111883000D01*
X55371995Y-111883000D01*
X55372000Y-111883001D01*
X55668767Y-111823969D01*
X55710675Y-111815633D01*
X55997790Y-111623790D01*
X56542835Y-111078745D01*
X56662943Y-111029117D01*
X56926192Y-110766327D01*
X57068838Y-110422799D01*
X57069115Y-110105000D01*
X57393718Y-110105000D01*
X57370555Y-110128163D01*
X57370555Y-110128163D01*
G37*
X57370555Y-110128163D02*
X57485810Y-110243418D01*
X57250200Y-110305071D01*
X57074073Y-110805480D01*
X57102852Y-111335199D01*
X57250200Y-111690929D01*
X57485812Y-111752583D01*
X58240395Y-110998000D01*
X58226253Y-110983858D01*
X58405858Y-110804253D01*
X58420000Y-110818395D01*
X58434143Y-110804253D01*
X58613748Y-110983858D01*
X58599605Y-110998000D01*
X59354188Y-111752583D01*
X59589800Y-111690929D01*
X59765927Y-111190520D01*
X59737148Y-110660801D01*
X59589800Y-110305071D01*
X59354190Y-110243418D01*
X59469445Y-110128163D01*
X59446282Y-110105000D01*
X61999058Y-110105000D01*
X61862173Y-110241647D01*
X61658732Y-110731587D01*
X61658269Y-111262086D01*
X61860854Y-111752380D01*
X62107000Y-111998956D01*
X62107000Y-117617246D01*
X61862173Y-117861647D01*
X61658732Y-118351587D01*
X61658269Y-118882086D01*
X61860854Y-119372380D01*
X62235647Y-119747827D01*
X62698451Y-119940000D01*
X58667891Y-119940000D01*
X58757199Y-119935148D01*
X59112929Y-119787800D01*
X59174583Y-119552188D01*
X58420000Y-118797605D01*
X57665417Y-119552188D01*
X57727071Y-119787800D01*
X58159499Y-119940000D01*
X53632477Y-119940000D01*
X54094380Y-119749146D01*
X54469827Y-119374353D01*
X54673268Y-118884413D01*
X54673668Y-118425480D01*
X57074073Y-118425480D01*
X57102852Y-118955199D01*
X57250200Y-119310929D01*
X57485812Y-119372583D01*
X58240395Y-118618000D01*
X58599605Y-118618000D01*
X59354188Y-119372583D01*
X59589800Y-119310929D01*
X59765927Y-118810520D01*
X59737148Y-118280801D01*
X59589800Y-117925071D01*
X59354188Y-117863417D01*
X58599605Y-118618000D01*
X58240395Y-118618000D01*
X57485812Y-117863417D01*
X57250200Y-117925071D01*
X57074073Y-118425480D01*
X54673668Y-118425480D01*
X54673731Y-118353914D01*
X54471146Y-117863620D01*
X54291652Y-117683812D01*
X57665417Y-117683812D01*
X58420000Y-118438395D01*
X59174583Y-117683812D01*
X59112929Y-117448200D01*
X58612520Y-117272073D01*
X58082801Y-117300852D01*
X57727071Y-117448200D01*
X57665417Y-117683812D01*
X54291652Y-117683812D01*
X54225000Y-117617044D01*
X54225000Y-111998754D01*
X54291682Y-111932188D01*
X57665417Y-111932188D01*
X57727071Y-112167800D01*
X58227480Y-112343927D01*
X58757199Y-112315148D01*
X59112929Y-112167800D01*
X59174583Y-111932188D01*
X58420000Y-111177605D01*
X57665417Y-111932188D01*
X54291682Y-111932188D01*
X54340956Y-111883000D01*
X55371995Y-111883000D01*
X55372000Y-111883001D01*
X55668767Y-111823969D01*
X55710675Y-111815633D01*
X55997790Y-111623790D01*
X56542835Y-111078745D01*
X56662943Y-111029117D01*
X56926192Y-110766327D01*
X57068838Y-110422799D01*
X57069115Y-110105000D01*
X57393718Y-110105000D01*
X57370555Y-110128163D01*
G36*
X49539208Y-109845787D02*
X49539210Y-109845790D01*
X49826325Y-110037633D01*
X50165000Y-110105000D01*
X52347058Y-110105000D01*
X52210173Y-110241647D01*
X52006732Y-110731587D01*
X52006269Y-111262086D01*
X52208854Y-111752380D01*
X52455000Y-111998956D01*
X52455000Y-117617246D01*
X52210173Y-117861647D01*
X52006732Y-118351587D01*
X52006269Y-118882086D01*
X52208854Y-119372380D01*
X52583647Y-119747827D01*
X53046451Y-119940000D01*
X49015891Y-119940000D01*
X49105199Y-119935148D01*
X49460929Y-119787800D01*
X49522583Y-119552188D01*
X48768000Y-118797605D01*
X48013417Y-119552188D01*
X48075071Y-119787800D01*
X48507499Y-119940000D01*
X43980477Y-119940000D01*
X44442380Y-119749146D01*
X44817827Y-119374353D01*
X45021268Y-118884413D01*
X45021668Y-118425480D01*
X47422073Y-118425480D01*
X47450852Y-118955199D01*
X47598200Y-119310929D01*
X47833812Y-119372583D01*
X48588395Y-118618000D01*
X48947605Y-118618000D01*
X49702188Y-119372583D01*
X49937800Y-119310929D01*
X50113927Y-118810520D01*
X50085148Y-118280801D01*
X49937800Y-117925071D01*
X49702188Y-117863417D01*
X48947605Y-118618000D01*
X48588395Y-118618000D01*
X47833812Y-117863417D01*
X47598200Y-117925071D01*
X47422073Y-118425480D01*
X45021668Y-118425480D01*
X45021731Y-118353914D01*
X44819146Y-117863620D01*
X44639652Y-117683812D01*
X48013417Y-117683812D01*
X48768000Y-118438395D01*
X49522583Y-117683812D01*
X49460929Y-117448200D01*
X48960520Y-117272073D01*
X48430801Y-117300852D01*
X48075071Y-117448200D01*
X48013417Y-117683812D01*
X44639652Y-117683812D01*
X44573000Y-117617044D01*
X44573000Y-111998754D01*
X44639682Y-111932188D01*
X48013417Y-111932188D01*
X48075071Y-112167800D01*
X48575480Y-112343927D01*
X49105199Y-112315148D01*
X49460929Y-112167800D01*
X49522583Y-111932188D01*
X48768000Y-111177605D01*
X48013417Y-111932188D01*
X44639682Y-111932188D01*
X44817827Y-111754353D01*
X45021268Y-111264413D01*
X45021572Y-110916008D01*
X45132099Y-110805480D01*
X47422073Y-110805480D01*
X47450852Y-111335199D01*
X47598200Y-111690929D01*
X47833812Y-111752583D01*
X48588395Y-110998000D01*
X48947605Y-110998000D01*
X49702188Y-111752583D01*
X49937800Y-111690929D01*
X50113927Y-111190520D01*
X50085148Y-110660801D01*
X49937800Y-110305071D01*
X49702188Y-110243417D01*
X48947605Y-110998000D01*
X48588395Y-110998000D01*
X47833812Y-110243417D01*
X47598200Y-110305071D01*
X47422073Y-110805480D01*
X45132099Y-110805480D01*
X45873767Y-110063812D01*
X48013417Y-110063812D01*
X48768000Y-110818395D01*
X49522583Y-110063812D01*
X49460929Y-109828200D01*
X48960520Y-109652073D01*
X48430801Y-109680852D01*
X48075071Y-109828200D01*
X48013417Y-110063812D01*
X45873767Y-110063812D01*
X46848579Y-109089000D01*
X46937178Y-109089000D01*
X47057201Y-109138838D01*
X47429167Y-109139162D01*
X47772943Y-108997117D01*
X48036192Y-108734327D01*
X48151076Y-108457656D01*
X49539208Y-109845787D01*
X49539208Y-109845787D01*
G37*
X49539208Y-109845787D02*
X49539210Y-109845790D01*
X49826325Y-110037633D01*
X50165000Y-110105000D01*
X52347058Y-110105000D01*
X52210173Y-110241647D01*
X52006732Y-110731587D01*
X52006269Y-111262086D01*
X52208854Y-111752380D01*
X52455000Y-111998956D01*
X52455000Y-117617246D01*
X52210173Y-117861647D01*
X52006732Y-118351587D01*
X52006269Y-118882086D01*
X52208854Y-119372380D01*
X52583647Y-119747827D01*
X53046451Y-119940000D01*
X49015891Y-119940000D01*
X49105199Y-119935148D01*
X49460929Y-119787800D01*
X49522583Y-119552188D01*
X48768000Y-118797605D01*
X48013417Y-119552188D01*
X48075071Y-119787800D01*
X48507499Y-119940000D01*
X43980477Y-119940000D01*
X44442380Y-119749146D01*
X44817827Y-119374353D01*
X45021268Y-118884413D01*
X45021668Y-118425480D01*
X47422073Y-118425480D01*
X47450852Y-118955199D01*
X47598200Y-119310929D01*
X47833812Y-119372583D01*
X48588395Y-118618000D01*
X48947605Y-118618000D01*
X49702188Y-119372583D01*
X49937800Y-119310929D01*
X50113927Y-118810520D01*
X50085148Y-118280801D01*
X49937800Y-117925071D01*
X49702188Y-117863417D01*
X48947605Y-118618000D01*
X48588395Y-118618000D01*
X47833812Y-117863417D01*
X47598200Y-117925071D01*
X47422073Y-118425480D01*
X45021668Y-118425480D01*
X45021731Y-118353914D01*
X44819146Y-117863620D01*
X44639652Y-117683812D01*
X48013417Y-117683812D01*
X48768000Y-118438395D01*
X49522583Y-117683812D01*
X49460929Y-117448200D01*
X48960520Y-117272073D01*
X48430801Y-117300852D01*
X48075071Y-117448200D01*
X48013417Y-117683812D01*
X44639652Y-117683812D01*
X44573000Y-117617044D01*
X44573000Y-111998754D01*
X44639682Y-111932188D01*
X48013417Y-111932188D01*
X48075071Y-112167800D01*
X48575480Y-112343927D01*
X49105199Y-112315148D01*
X49460929Y-112167800D01*
X49522583Y-111932188D01*
X48768000Y-111177605D01*
X48013417Y-111932188D01*
X44639682Y-111932188D01*
X44817827Y-111754353D01*
X45021268Y-111264413D01*
X45021572Y-110916008D01*
X45132099Y-110805480D01*
X47422073Y-110805480D01*
X47450852Y-111335199D01*
X47598200Y-111690929D01*
X47833812Y-111752583D01*
X48588395Y-110998000D01*
X48947605Y-110998000D01*
X49702188Y-111752583D01*
X49937800Y-111690929D01*
X50113927Y-111190520D01*
X50085148Y-110660801D01*
X49937800Y-110305071D01*
X49702188Y-110243417D01*
X48947605Y-110998000D01*
X48588395Y-110998000D01*
X47833812Y-110243417D01*
X47598200Y-110305071D01*
X47422073Y-110805480D01*
X45132099Y-110805480D01*
X45873767Y-110063812D01*
X48013417Y-110063812D01*
X48768000Y-110818395D01*
X49522583Y-110063812D01*
X49460929Y-109828200D01*
X48960520Y-109652073D01*
X48430801Y-109680852D01*
X48075071Y-109828200D01*
X48013417Y-110063812D01*
X45873767Y-110063812D01*
X46848579Y-109089000D01*
X46937178Y-109089000D01*
X47057201Y-109138838D01*
X47429167Y-109139162D01*
X47772943Y-108997117D01*
X48036192Y-108734327D01*
X48151076Y-108457656D01*
X49539208Y-109845787D01*
G36*
X79375000Y-110105001D02*
X79375005Y-110105000D01*
X80913420Y-110105000D01*
X81665000Y-110856579D01*
X81665000Y-114568421D01*
X81294420Y-114939000D01*
X80443998Y-114939000D01*
X80321426Y-114755558D01*
X80346917Y-114750762D01*
X80563041Y-114611690D01*
X80708031Y-114399490D01*
X80759040Y-114147600D01*
X80759040Y-112420400D01*
X80714762Y-112185083D01*
X80575690Y-111968959D01*
X80363490Y-111823969D01*
X80111600Y-111772960D01*
X78384400Y-111772960D01*
X78149083Y-111817238D01*
X77932959Y-111956310D01*
X77787969Y-112168510D01*
X77779136Y-112212131D01*
X77767670Y-112194971D01*
X77281489Y-111870115D01*
X76708000Y-111756041D01*
X76134511Y-111870115D01*
X75648330Y-112194971D01*
X75438000Y-112509752D01*
X75227670Y-112194971D01*
X74741489Y-111870115D01*
X74168000Y-111756041D01*
X73594511Y-111870115D01*
X73108330Y-112194971D01*
X72783474Y-112681152D01*
X72669400Y-113254641D01*
X72669400Y-113313359D01*
X72783474Y-113886848D01*
X73108330Y-114373029D01*
X73379161Y-114553992D01*
X72961179Y-114935510D01*
X72713032Y-115464973D01*
X72833531Y-115697000D01*
X74041000Y-115697000D01*
X74041000Y-115677000D01*
X74295000Y-115677000D01*
X74295000Y-115697000D01*
X74315000Y-115697000D01*
X74315000Y-115951000D01*
X74295000Y-115951000D01*
X74295000Y-117157817D01*
X74527026Y-117278958D01*
X74942947Y-117106688D01*
X75374821Y-116712490D01*
X75432336Y-116589772D01*
X75648330Y-116913029D01*
X75794035Y-117010386D01*
X75325420Y-117479000D01*
X74026579Y-117479000D01*
X73820513Y-117272934D01*
X74041000Y-117157817D01*
X74041000Y-115951000D01*
X72833531Y-115951000D01*
X72719039Y-116171460D01*
X72513000Y-115965420D01*
X72513000Y-110542822D01*
X72562838Y-110422799D01*
X72563115Y-110105000D01*
X79374995Y-110105000D01*
X79375000Y-110105001D01*
X79375000Y-110105001D01*
G37*
X79375000Y-110105001D02*
X79375005Y-110105000D01*
X80913420Y-110105000D01*
X81665000Y-110856579D01*
X81665000Y-114568421D01*
X81294420Y-114939000D01*
X80443998Y-114939000D01*
X80321426Y-114755558D01*
X80346917Y-114750762D01*
X80563041Y-114611690D01*
X80708031Y-114399490D01*
X80759040Y-114147600D01*
X80759040Y-112420400D01*
X80714762Y-112185083D01*
X80575690Y-111968959D01*
X80363490Y-111823969D01*
X80111600Y-111772960D01*
X78384400Y-111772960D01*
X78149083Y-111817238D01*
X77932959Y-111956310D01*
X77787969Y-112168510D01*
X77779136Y-112212131D01*
X77767670Y-112194971D01*
X77281489Y-111870115D01*
X76708000Y-111756041D01*
X76134511Y-111870115D01*
X75648330Y-112194971D01*
X75438000Y-112509752D01*
X75227670Y-112194971D01*
X74741489Y-111870115D01*
X74168000Y-111756041D01*
X73594511Y-111870115D01*
X73108330Y-112194971D01*
X72783474Y-112681152D01*
X72669400Y-113254641D01*
X72669400Y-113313359D01*
X72783474Y-113886848D01*
X73108330Y-114373029D01*
X73379161Y-114553992D01*
X72961179Y-114935510D01*
X72713032Y-115464973D01*
X72833531Y-115697000D01*
X74041000Y-115697000D01*
X74041000Y-115677000D01*
X74295000Y-115677000D01*
X74295000Y-115697000D01*
X74315000Y-115697000D01*
X74315000Y-115951000D01*
X74295000Y-115951000D01*
X74295000Y-117157817D01*
X74527026Y-117278958D01*
X74942947Y-117106688D01*
X75374821Y-116712490D01*
X75432336Y-116589772D01*
X75648330Y-116913029D01*
X75794035Y-117010386D01*
X75325420Y-117479000D01*
X74026579Y-117479000D01*
X73820513Y-117272934D01*
X74041000Y-117157817D01*
X74041000Y-115951000D01*
X72833531Y-115951000D01*
X72719039Y-116171460D01*
X72513000Y-115965420D01*
X72513000Y-110542822D01*
X72562838Y-110422799D01*
X72563115Y-110105000D01*
X79374995Y-110105000D01*
X79375000Y-110105001D01*
G36*
X51285673Y-89184192D02*
X51629201Y-89326838D01*
X52001167Y-89327162D01*
X52122569Y-89277000D01*
X53674892Y-89277000D01*
X53674838Y-89339167D01*
X53816883Y-89682943D01*
X54079673Y-89946192D01*
X54423201Y-90088838D01*
X54795167Y-90089162D01*
X54916569Y-90039000D01*
X55490819Y-90039000D01*
X55423073Y-90231480D01*
X55451852Y-90761199D01*
X55599200Y-91116929D01*
X55834812Y-91178583D01*
X56589395Y-90424000D01*
X56575253Y-90409858D01*
X56754858Y-90230253D01*
X56769000Y-90244395D01*
X56783143Y-90230253D01*
X56962748Y-90409858D01*
X56948605Y-90424000D01*
X57703188Y-91178583D01*
X57938800Y-91116929D01*
X58114927Y-90616520D01*
X58086148Y-90086801D01*
X58066348Y-90039000D01*
X60593420Y-90039000D01*
X61604208Y-91049787D01*
X61604210Y-91049790D01*
X62583506Y-92029086D01*
X62298833Y-92028838D01*
X62177431Y-92079000D01*
X60960000Y-92079000D01*
X60621325Y-92146367D01*
X60334210Y-92338210D01*
X60334208Y-92338213D01*
X58810210Y-93862210D01*
X58618367Y-94149325D01*
X58612464Y-94179000D01*
X58550999Y-94488000D01*
X58551000Y-94488005D01*
X58551000Y-95757995D01*
X58550999Y-95758000D01*
X58551000Y-95758005D01*
X58551000Y-97691980D01*
X58537790Y-97672210D01*
X58537787Y-97672208D01*
X56256930Y-95391350D01*
X56256930Y-92246450D01*
X56212652Y-92011133D01*
X56073580Y-91795009D01*
X55861380Y-91650019D01*
X55609490Y-91599010D01*
X53610510Y-91599010D01*
X53375193Y-91643288D01*
X53159069Y-91782360D01*
X53014079Y-91994560D01*
X52963070Y-92246450D01*
X52963070Y-94365000D01*
X50982279Y-94365000D01*
X50859090Y-94173559D01*
X50646890Y-94028569D01*
X50395000Y-93977560D01*
X49395000Y-93977560D01*
X49159683Y-94021838D01*
X48943559Y-94160910D01*
X48897031Y-94229006D01*
X48754698Y-94086673D01*
X48521309Y-93990000D01*
X48180750Y-93990000D01*
X48022000Y-94148750D01*
X48022000Y-95123000D01*
X48042000Y-95123000D01*
X48042000Y-95377000D01*
X48022000Y-95377000D01*
X48022000Y-96351250D01*
X48180750Y-96510000D01*
X48521309Y-96510000D01*
X48754698Y-96413327D01*
X48895936Y-96272090D01*
X48930910Y-96326441D01*
X49143110Y-96471431D01*
X49395000Y-96522440D01*
X50395000Y-96522440D01*
X50630317Y-96478162D01*
X50846441Y-96339090D01*
X50985890Y-96135000D01*
X52963070Y-96135000D01*
X52963070Y-97745550D01*
X53007348Y-97980867D01*
X53146420Y-98196991D01*
X53358620Y-98341981D01*
X53610510Y-98392990D01*
X55609490Y-98392990D01*
X55844807Y-98348712D01*
X56060931Y-98209640D01*
X56205921Y-97997440D01*
X56231845Y-97869424D01*
X57027000Y-98664579D01*
X57027000Y-99567995D01*
X57026999Y-99568000D01*
X57077922Y-99824000D01*
X57094367Y-99906675D01*
X57207506Y-100076000D01*
X57286210Y-100193790D01*
X60334208Y-103241787D01*
X60334210Y-103241790D01*
X60621325Y-103433633D01*
X60677516Y-103444810D01*
X60960000Y-103501001D01*
X60960005Y-103501000D01*
X63141420Y-103501000D01*
X63133420Y-103509000D01*
X56256930Y-103509000D01*
X56256930Y-101644450D01*
X56212652Y-101409133D01*
X56073580Y-101193009D01*
X55861380Y-101048019D01*
X55609490Y-100997010D01*
X53610510Y-100997010D01*
X53375193Y-101041288D01*
X53159069Y-101180360D01*
X53014079Y-101392560D01*
X52963070Y-101644450D01*
X52963070Y-103509000D01*
X52436579Y-103509000D01*
X50780000Y-101852420D01*
X50780000Y-100191844D01*
X50846441Y-100149090D01*
X50991431Y-99936890D01*
X51042440Y-99685000D01*
X51042440Y-98435000D01*
X50998162Y-98199683D01*
X50859090Y-97983559D01*
X50646890Y-97838569D01*
X50395000Y-97787560D01*
X49395000Y-97787560D01*
X49159683Y-97831838D01*
X48943559Y-97970910D01*
X48897031Y-98039006D01*
X48754698Y-97896673D01*
X48521309Y-97800000D01*
X48180750Y-97800000D01*
X48022000Y-97958750D01*
X48022000Y-98933000D01*
X48042000Y-98933000D01*
X48042000Y-99187000D01*
X48022000Y-99187000D01*
X48022000Y-100161250D01*
X48180750Y-100320000D01*
X48521309Y-100320000D01*
X48754698Y-100223327D01*
X48895936Y-100082090D01*
X48930910Y-100136441D01*
X49010000Y-100190481D01*
X49010000Y-102218995D01*
X49009999Y-102219000D01*
X49056481Y-102452674D01*
X49077367Y-102557675D01*
X49253602Y-102821431D01*
X49269210Y-102844790D01*
X51444208Y-105019787D01*
X51444210Y-105019790D01*
X51666682Y-105168440D01*
X51731325Y-105211633D01*
X52070000Y-105279000D01*
X52963070Y-105279000D01*
X52963070Y-107143550D01*
X52996083Y-107319000D01*
X50852822Y-107319000D01*
X50732799Y-107269162D01*
X50360833Y-107268838D01*
X50017057Y-107410883D01*
X49812081Y-107615502D01*
X48510000Y-106313420D01*
X48510000Y-103505005D01*
X48510001Y-103505000D01*
X48442633Y-103166326D01*
X48442633Y-103166325D01*
X48250790Y-102879210D01*
X48250787Y-102879208D01*
X46287500Y-100915920D01*
X46287500Y-99345750D01*
X46760000Y-99345750D01*
X46760000Y-99811310D01*
X46856673Y-100044699D01*
X47035302Y-100223327D01*
X47268691Y-100320000D01*
X47609250Y-100320000D01*
X47768000Y-100161250D01*
X47768000Y-99187000D01*
X46918750Y-99187000D01*
X46760000Y-99345750D01*
X46287500Y-99345750D01*
X46287500Y-98308690D01*
X46760000Y-98308690D01*
X46760000Y-98774250D01*
X46918750Y-98933000D01*
X47768000Y-98933000D01*
X47768000Y-97958750D01*
X47609250Y-97800000D01*
X47268691Y-97800000D01*
X47035302Y-97896673D01*
X46856673Y-98075301D01*
X46760000Y-98308690D01*
X46287500Y-98308690D01*
X46287500Y-95535750D01*
X46760000Y-95535750D01*
X46760000Y-96001310D01*
X46856673Y-96234699D01*
X47035302Y-96413327D01*
X47268691Y-96510000D01*
X47609250Y-96510000D01*
X47768000Y-96351250D01*
X47768000Y-95377000D01*
X46918750Y-95377000D01*
X46760000Y-95535750D01*
X46287500Y-95535750D01*
X46287500Y-94498690D01*
X46760000Y-94498690D01*
X46760000Y-94964250D01*
X46918750Y-95123000D01*
X47768000Y-95123000D01*
X47768000Y-94148750D01*
X47609250Y-93990000D01*
X47268691Y-93990000D01*
X47035302Y-94086673D01*
X46856673Y-94265301D01*
X46760000Y-94498690D01*
X46287500Y-94498690D01*
X46287500Y-93902080D01*
X48831391Y-91358188D01*
X56014417Y-91358188D01*
X56076071Y-91593800D01*
X56576480Y-91769927D01*
X57106199Y-91741148D01*
X57461929Y-91593800D01*
X57523583Y-91358188D01*
X56769000Y-90603605D01*
X56014417Y-91358188D01*
X48831391Y-91358188D01*
X51145652Y-89043927D01*
X51285673Y-89184192D01*
X51285673Y-89184192D01*
G37*
X51285673Y-89184192D02*
X51629201Y-89326838D01*
X52001167Y-89327162D01*
X52122569Y-89277000D01*
X53674892Y-89277000D01*
X53674838Y-89339167D01*
X53816883Y-89682943D01*
X54079673Y-89946192D01*
X54423201Y-90088838D01*
X54795167Y-90089162D01*
X54916569Y-90039000D01*
X55490819Y-90039000D01*
X55423073Y-90231480D01*
X55451852Y-90761199D01*
X55599200Y-91116929D01*
X55834812Y-91178583D01*
X56589395Y-90424000D01*
X56575253Y-90409858D01*
X56754858Y-90230253D01*
X56769000Y-90244395D01*
X56783143Y-90230253D01*
X56962748Y-90409858D01*
X56948605Y-90424000D01*
X57703188Y-91178583D01*
X57938800Y-91116929D01*
X58114927Y-90616520D01*
X58086148Y-90086801D01*
X58066348Y-90039000D01*
X60593420Y-90039000D01*
X61604208Y-91049787D01*
X61604210Y-91049790D01*
X62583506Y-92029086D01*
X62298833Y-92028838D01*
X62177431Y-92079000D01*
X60960000Y-92079000D01*
X60621325Y-92146367D01*
X60334210Y-92338210D01*
X60334208Y-92338213D01*
X58810210Y-93862210D01*
X58618367Y-94149325D01*
X58612464Y-94179000D01*
X58550999Y-94488000D01*
X58551000Y-94488005D01*
X58551000Y-95757995D01*
X58550999Y-95758000D01*
X58551000Y-95758005D01*
X58551000Y-97691980D01*
X58537790Y-97672210D01*
X58537787Y-97672208D01*
X56256930Y-95391350D01*
X56256930Y-92246450D01*
X56212652Y-92011133D01*
X56073580Y-91795009D01*
X55861380Y-91650019D01*
X55609490Y-91599010D01*
X53610510Y-91599010D01*
X53375193Y-91643288D01*
X53159069Y-91782360D01*
X53014079Y-91994560D01*
X52963070Y-92246450D01*
X52963070Y-94365000D01*
X50982279Y-94365000D01*
X50859090Y-94173559D01*
X50646890Y-94028569D01*
X50395000Y-93977560D01*
X49395000Y-93977560D01*
X49159683Y-94021838D01*
X48943559Y-94160910D01*
X48897031Y-94229006D01*
X48754698Y-94086673D01*
X48521309Y-93990000D01*
X48180750Y-93990000D01*
X48022000Y-94148750D01*
X48022000Y-95123000D01*
X48042000Y-95123000D01*
X48042000Y-95377000D01*
X48022000Y-95377000D01*
X48022000Y-96351250D01*
X48180750Y-96510000D01*
X48521309Y-96510000D01*
X48754698Y-96413327D01*
X48895936Y-96272090D01*
X48930910Y-96326441D01*
X49143110Y-96471431D01*
X49395000Y-96522440D01*
X50395000Y-96522440D01*
X50630317Y-96478162D01*
X50846441Y-96339090D01*
X50985890Y-96135000D01*
X52963070Y-96135000D01*
X52963070Y-97745550D01*
X53007348Y-97980867D01*
X53146420Y-98196991D01*
X53358620Y-98341981D01*
X53610510Y-98392990D01*
X55609490Y-98392990D01*
X55844807Y-98348712D01*
X56060931Y-98209640D01*
X56205921Y-97997440D01*
X56231845Y-97869424D01*
X57027000Y-98664579D01*
X57027000Y-99567995D01*
X57026999Y-99568000D01*
X57077922Y-99824000D01*
X57094367Y-99906675D01*
X57207506Y-100076000D01*
X57286210Y-100193790D01*
X60334208Y-103241787D01*
X60334210Y-103241790D01*
X60621325Y-103433633D01*
X60677516Y-103444810D01*
X60960000Y-103501001D01*
X60960005Y-103501000D01*
X63141420Y-103501000D01*
X63133420Y-103509000D01*
X56256930Y-103509000D01*
X56256930Y-101644450D01*
X56212652Y-101409133D01*
X56073580Y-101193009D01*
X55861380Y-101048019D01*
X55609490Y-100997010D01*
X53610510Y-100997010D01*
X53375193Y-101041288D01*
X53159069Y-101180360D01*
X53014079Y-101392560D01*
X52963070Y-101644450D01*
X52963070Y-103509000D01*
X52436579Y-103509000D01*
X50780000Y-101852420D01*
X50780000Y-100191844D01*
X50846441Y-100149090D01*
X50991431Y-99936890D01*
X51042440Y-99685000D01*
X51042440Y-98435000D01*
X50998162Y-98199683D01*
X50859090Y-97983559D01*
X50646890Y-97838569D01*
X50395000Y-97787560D01*
X49395000Y-97787560D01*
X49159683Y-97831838D01*
X48943559Y-97970910D01*
X48897031Y-98039006D01*
X48754698Y-97896673D01*
X48521309Y-97800000D01*
X48180750Y-97800000D01*
X48022000Y-97958750D01*
X48022000Y-98933000D01*
X48042000Y-98933000D01*
X48042000Y-99187000D01*
X48022000Y-99187000D01*
X48022000Y-100161250D01*
X48180750Y-100320000D01*
X48521309Y-100320000D01*
X48754698Y-100223327D01*
X48895936Y-100082090D01*
X48930910Y-100136441D01*
X49010000Y-100190481D01*
X49010000Y-102218995D01*
X49009999Y-102219000D01*
X49056481Y-102452674D01*
X49077367Y-102557675D01*
X49253602Y-102821431D01*
X49269210Y-102844790D01*
X51444208Y-105019787D01*
X51444210Y-105019790D01*
X51666682Y-105168440D01*
X51731325Y-105211633D01*
X52070000Y-105279000D01*
X52963070Y-105279000D01*
X52963070Y-107143550D01*
X52996083Y-107319000D01*
X50852822Y-107319000D01*
X50732799Y-107269162D01*
X50360833Y-107268838D01*
X50017057Y-107410883D01*
X49812081Y-107615502D01*
X48510000Y-106313420D01*
X48510000Y-103505005D01*
X48510001Y-103505000D01*
X48442633Y-103166326D01*
X48442633Y-103166325D01*
X48250790Y-102879210D01*
X48250787Y-102879208D01*
X46287500Y-100915920D01*
X46287500Y-99345750D01*
X46760000Y-99345750D01*
X46760000Y-99811310D01*
X46856673Y-100044699D01*
X47035302Y-100223327D01*
X47268691Y-100320000D01*
X47609250Y-100320000D01*
X47768000Y-100161250D01*
X47768000Y-99187000D01*
X46918750Y-99187000D01*
X46760000Y-99345750D01*
X46287500Y-99345750D01*
X46287500Y-98308690D01*
X46760000Y-98308690D01*
X46760000Y-98774250D01*
X46918750Y-98933000D01*
X47768000Y-98933000D01*
X47768000Y-97958750D01*
X47609250Y-97800000D01*
X47268691Y-97800000D01*
X47035302Y-97896673D01*
X46856673Y-98075301D01*
X46760000Y-98308690D01*
X46287500Y-98308690D01*
X46287500Y-95535750D01*
X46760000Y-95535750D01*
X46760000Y-96001310D01*
X46856673Y-96234699D01*
X47035302Y-96413327D01*
X47268691Y-96510000D01*
X47609250Y-96510000D01*
X47768000Y-96351250D01*
X47768000Y-95377000D01*
X46918750Y-95377000D01*
X46760000Y-95535750D01*
X46287500Y-95535750D01*
X46287500Y-94498690D01*
X46760000Y-94498690D01*
X46760000Y-94964250D01*
X46918750Y-95123000D01*
X47768000Y-95123000D01*
X47768000Y-94148750D01*
X47609250Y-93990000D01*
X47268691Y-93990000D01*
X47035302Y-94086673D01*
X46856673Y-94265301D01*
X46760000Y-94498690D01*
X46287500Y-94498690D01*
X46287500Y-93902080D01*
X48831391Y-91358188D01*
X56014417Y-91358188D01*
X56076071Y-91593800D01*
X56576480Y-91769927D01*
X57106199Y-91741148D01*
X57461929Y-91593800D01*
X57523583Y-91358188D01*
X56769000Y-90603605D01*
X56014417Y-91358188D01*
X48831391Y-91358188D01*
X51145652Y-89043927D01*
X51285673Y-89184192D01*
G36*
X66324000Y-103036440D02*
X67651560Y-103036440D01*
X67651560Y-104364000D01*
X67689000Y-104562976D01*
X67689000Y-105557421D01*
X65927420Y-107319000D01*
X56221400Y-107319000D01*
X56256930Y-107143550D01*
X56256930Y-105279000D01*
X63499995Y-105279000D01*
X63500000Y-105279001D01*
X63782484Y-105222810D01*
X63838675Y-105211633D01*
X64125790Y-105019790D01*
X64125791Y-105019789D01*
X66145322Y-103000257D01*
X66324000Y-103036440D01*
X66324000Y-103036440D01*
G37*
X66324000Y-103036440D02*
X67651560Y-103036440D01*
X67651560Y-104364000D01*
X67689000Y-104562976D01*
X67689000Y-105557421D01*
X65927420Y-107319000D01*
X56221400Y-107319000D01*
X56256930Y-107143550D01*
X56256930Y-105279000D01*
X63499995Y-105279000D01*
X63500000Y-105279001D01*
X63782484Y-105222810D01*
X63838675Y-105211633D01*
X64125790Y-105019790D01*
X64125791Y-105019789D01*
X66145322Y-103000257D01*
X66324000Y-103036440D01*
G36*
X77184883Y-98572943D02*
X77447673Y-98836192D01*
X77791201Y-98978838D01*
X78163167Y-98979162D01*
X78284569Y-98929000D01*
X79884778Y-98929000D01*
X79884838Y-98929317D01*
X79903000Y-98957542D01*
X79903000Y-100468156D01*
X79836559Y-100510910D01*
X79691569Y-100723110D01*
X79640560Y-100975000D01*
X79640560Y-101502980D01*
X79619790Y-101482210D01*
X79619787Y-101482208D01*
X78058744Y-99921164D01*
X78009117Y-99801057D01*
X77746327Y-99537808D01*
X77402799Y-99395162D01*
X77063136Y-99394866D01*
X77051550Y-99333295D01*
X77059000Y-99315310D01*
X77059000Y-99199750D01*
X76962599Y-99103349D01*
X76888090Y-98987559D01*
X76780603Y-98914116D01*
X76875441Y-98853090D01*
X76964495Y-98722755D01*
X77059000Y-98628250D01*
X77059000Y-98512690D01*
X77050532Y-98492247D01*
X77071440Y-98389000D01*
X77071440Y-98298389D01*
X77184883Y-98572943D01*
X77184883Y-98572943D01*
G37*
X77184883Y-98572943D02*
X77447673Y-98836192D01*
X77791201Y-98978838D01*
X78163167Y-98979162D01*
X78284569Y-98929000D01*
X79884778Y-98929000D01*
X79884838Y-98929317D01*
X79903000Y-98957542D01*
X79903000Y-100468156D01*
X79836559Y-100510910D01*
X79691569Y-100723110D01*
X79640560Y-100975000D01*
X79640560Y-101502980D01*
X79619790Y-101482210D01*
X79619787Y-101482208D01*
X78058744Y-99921164D01*
X78009117Y-99801057D01*
X77746327Y-99537808D01*
X77402799Y-99395162D01*
X77063136Y-99394866D01*
X77051550Y-99333295D01*
X77059000Y-99315310D01*
X77059000Y-99199750D01*
X76962599Y-99103349D01*
X76888090Y-98987559D01*
X76780603Y-98914116D01*
X76875441Y-98853090D01*
X76964495Y-98722755D01*
X77059000Y-98628250D01*
X77059000Y-98512690D01*
X77050532Y-98492247D01*
X77071440Y-98389000D01*
X77071440Y-98298389D01*
X77184883Y-98572943D01*
G36*
X60563000Y-97770001D02*
X60563005Y-97770000D01*
X61733156Y-97770000D01*
X61775910Y-97836441D01*
X61988110Y-97981431D01*
X62240000Y-98032440D01*
X63252860Y-98032440D01*
X63415420Y-98195000D01*
X63150750Y-98195000D01*
X62992000Y-98353750D01*
X62992000Y-99203000D01*
X63966250Y-99203000D01*
X64125000Y-99044250D01*
X64125000Y-98904579D01*
X64760208Y-99539787D01*
X64760210Y-99539790D01*
X64893723Y-99629000D01*
X64586005Y-99629000D01*
X64586000Y-99628999D01*
X64247325Y-99696367D01*
X64125000Y-99778101D01*
X64125000Y-99615750D01*
X63966250Y-99457000D01*
X62992000Y-99457000D01*
X62992000Y-99477000D01*
X62738000Y-99477000D01*
X62738000Y-99457000D01*
X61763750Y-99457000D01*
X61605000Y-99615750D01*
X61605000Y-99956309D01*
X61701673Y-100189698D01*
X61842910Y-100330936D01*
X61788559Y-100365910D01*
X61768641Y-100395061D01*
X60321000Y-98947420D01*
X60321000Y-98703691D01*
X61605000Y-98703691D01*
X61605000Y-99044250D01*
X61763750Y-99203000D01*
X62738000Y-99203000D01*
X62738000Y-98353750D01*
X62579250Y-98195000D01*
X62113690Y-98195000D01*
X61880301Y-98291673D01*
X61701673Y-98470302D01*
X61605000Y-98703691D01*
X60321000Y-98703691D01*
X60321000Y-97721863D01*
X60563000Y-97770001D01*
X60563000Y-97770001D01*
G37*
X60563000Y-97770001D02*
X60563005Y-97770000D01*
X61733156Y-97770000D01*
X61775910Y-97836441D01*
X61988110Y-97981431D01*
X62240000Y-98032440D01*
X63252860Y-98032440D01*
X63415420Y-98195000D01*
X63150750Y-98195000D01*
X62992000Y-98353750D01*
X62992000Y-99203000D01*
X63966250Y-99203000D01*
X64125000Y-99044250D01*
X64125000Y-98904579D01*
X64760208Y-99539787D01*
X64760210Y-99539790D01*
X64893723Y-99629000D01*
X64586005Y-99629000D01*
X64586000Y-99628999D01*
X64247325Y-99696367D01*
X64125000Y-99778101D01*
X64125000Y-99615750D01*
X63966250Y-99457000D01*
X62992000Y-99457000D01*
X62992000Y-99477000D01*
X62738000Y-99477000D01*
X62738000Y-99457000D01*
X61763750Y-99457000D01*
X61605000Y-99615750D01*
X61605000Y-99956309D01*
X61701673Y-100189698D01*
X61842910Y-100330936D01*
X61788559Y-100365910D01*
X61768641Y-100395061D01*
X60321000Y-98947420D01*
X60321000Y-98703691D01*
X61605000Y-98703691D01*
X61605000Y-99044250D01*
X61763750Y-99203000D01*
X62738000Y-99203000D01*
X62738000Y-98353750D01*
X62579250Y-98195000D01*
X62113690Y-98195000D01*
X61880301Y-98291673D01*
X61701673Y-98470302D01*
X61605000Y-98703691D01*
X60321000Y-98703691D01*
X60321000Y-97721863D01*
X60563000Y-97770001D01*
G36*
X64647000Y-94092579D02*
X64647000Y-95757995D01*
X64646999Y-95758000D01*
X64695535Y-96002000D01*
X64714367Y-96096675D01*
X64856685Y-96309670D01*
X64906210Y-96383790D01*
X65662208Y-97139787D01*
X65662210Y-97139790D01*
X65676560Y-97149378D01*
X65676560Y-97589000D01*
X65696450Y-97694705D01*
X65689000Y-97712690D01*
X65689000Y-97828250D01*
X65785401Y-97924651D01*
X65825520Y-97986998D01*
X65710577Y-97986998D01*
X64137440Y-96413860D01*
X64137440Y-96385000D01*
X64093162Y-96149683D01*
X63954090Y-95933559D01*
X63885994Y-95887031D01*
X64028327Y-95744698D01*
X64125000Y-95511309D01*
X64125000Y-95170750D01*
X63966250Y-95012000D01*
X62992000Y-95012000D01*
X62992000Y-95032000D01*
X62738000Y-95032000D01*
X62738000Y-95012000D01*
X61763750Y-95012000D01*
X61605000Y-95170750D01*
X61605000Y-95511309D01*
X61701673Y-95744698D01*
X61842910Y-95885936D01*
X61788559Y-95920910D01*
X61734519Y-96000000D01*
X60929579Y-96000000D01*
X60321000Y-95391420D01*
X60321000Y-94854580D01*
X61326579Y-93849000D01*
X61877974Y-93849000D01*
X61701673Y-94025302D01*
X61605000Y-94258691D01*
X61605000Y-94599250D01*
X61763750Y-94758000D01*
X62738000Y-94758000D01*
X62738000Y-94738000D01*
X62992000Y-94738000D01*
X62992000Y-94758000D01*
X63966250Y-94758000D01*
X64125000Y-94599250D01*
X64125000Y-94258691D01*
X64028327Y-94025302D01*
X63849699Y-93846673D01*
X63616310Y-93750000D01*
X63150750Y-93750000D01*
X62992002Y-93908748D01*
X62992002Y-93765770D01*
X63012943Y-93757117D01*
X63276192Y-93494327D01*
X63418838Y-93150799D01*
X63419087Y-92864667D01*
X64647000Y-94092579D01*
X64647000Y-94092579D01*
G37*
X64647000Y-94092579D02*
X64647000Y-95757995D01*
X64646999Y-95758000D01*
X64695535Y-96002000D01*
X64714367Y-96096675D01*
X64856685Y-96309670D01*
X64906210Y-96383790D01*
X65662208Y-97139787D01*
X65662210Y-97139790D01*
X65676560Y-97149378D01*
X65676560Y-97589000D01*
X65696450Y-97694705D01*
X65689000Y-97712690D01*
X65689000Y-97828250D01*
X65785401Y-97924651D01*
X65825520Y-97986998D01*
X65710577Y-97986998D01*
X64137440Y-96413860D01*
X64137440Y-96385000D01*
X64093162Y-96149683D01*
X63954090Y-95933559D01*
X63885994Y-95887031D01*
X64028327Y-95744698D01*
X64125000Y-95511309D01*
X64125000Y-95170750D01*
X63966250Y-95012000D01*
X62992000Y-95012000D01*
X62992000Y-95032000D01*
X62738000Y-95032000D01*
X62738000Y-95012000D01*
X61763750Y-95012000D01*
X61605000Y-95170750D01*
X61605000Y-95511309D01*
X61701673Y-95744698D01*
X61842910Y-95885936D01*
X61788559Y-95920910D01*
X61734519Y-96000000D01*
X60929579Y-96000000D01*
X60321000Y-95391420D01*
X60321000Y-94854580D01*
X61326579Y-93849000D01*
X61877974Y-93849000D01*
X61701673Y-94025302D01*
X61605000Y-94258691D01*
X61605000Y-94599250D01*
X61763750Y-94758000D01*
X62738000Y-94758000D01*
X62738000Y-94738000D01*
X62992000Y-94738000D01*
X62992000Y-94758000D01*
X63966250Y-94758000D01*
X64125000Y-94599250D01*
X64125000Y-94258691D01*
X64028327Y-94025302D01*
X63849699Y-93846673D01*
X63616310Y-93750000D01*
X63150750Y-93750000D01*
X62992002Y-93908748D01*
X62992002Y-93765770D01*
X63012943Y-93757117D01*
X63276192Y-93494327D01*
X63418838Y-93150799D01*
X63419087Y-92864667D01*
X64647000Y-94092579D01*
G36*
X84974560Y-94846139D02*
X84974560Y-95367000D01*
X85018838Y-95602317D01*
X85157910Y-95818441D01*
X85237000Y-95872481D01*
X85237000Y-96137421D01*
X84215420Y-97159000D01*
X83691222Y-97159000D01*
X83691162Y-97158683D01*
X83552090Y-96942559D01*
X83339890Y-96797569D01*
X83088000Y-96746560D01*
X82388000Y-96746560D01*
X82152683Y-96790838D01*
X81936559Y-96929910D01*
X81791569Y-97142110D01*
X81788919Y-97155197D01*
X81731545Y-97066035D01*
X82662579Y-96135000D01*
X83513178Y-96135000D01*
X83633201Y-96184838D01*
X84005167Y-96185162D01*
X84348943Y-96043117D01*
X84612192Y-95780327D01*
X84754838Y-95436799D01*
X84755162Y-95064833D01*
X84613117Y-94721057D01*
X84350327Y-94457808D01*
X84006799Y-94315162D01*
X83634833Y-94314838D01*
X83513431Y-94365000D01*
X82296000Y-94365000D01*
X81957325Y-94432367D01*
X81670210Y-94624210D01*
X81670208Y-94624213D01*
X80212210Y-96082210D01*
X80020367Y-96369325D01*
X80011614Y-96413327D01*
X79952999Y-96708000D01*
X79953000Y-96708005D01*
X79953000Y-97052203D01*
X79891569Y-97142110D01*
X79888149Y-97159000D01*
X78284822Y-97159000D01*
X78164799Y-97109162D01*
X78132445Y-97109134D01*
X78349787Y-96891792D01*
X78349790Y-96891790D01*
X78541633Y-96604675D01*
X78557991Y-96522440D01*
X78609001Y-96266000D01*
X78609000Y-96265995D01*
X78609000Y-93898887D01*
X78925167Y-93899162D01*
X79046569Y-93849000D01*
X83977420Y-93849000D01*
X84974560Y-94846139D01*
X84974560Y-94846139D01*
G37*
X84974560Y-94846139D02*
X84974560Y-95367000D01*
X85018838Y-95602317D01*
X85157910Y-95818441D01*
X85237000Y-95872481D01*
X85237000Y-96137421D01*
X84215420Y-97159000D01*
X83691222Y-97159000D01*
X83691162Y-97158683D01*
X83552090Y-96942559D01*
X83339890Y-96797569D01*
X83088000Y-96746560D01*
X82388000Y-96746560D01*
X82152683Y-96790838D01*
X81936559Y-96929910D01*
X81791569Y-97142110D01*
X81788919Y-97155197D01*
X81731545Y-97066035D01*
X82662579Y-96135000D01*
X83513178Y-96135000D01*
X83633201Y-96184838D01*
X84005167Y-96185162D01*
X84348943Y-96043117D01*
X84612192Y-95780327D01*
X84754838Y-95436799D01*
X84755162Y-95064833D01*
X84613117Y-94721057D01*
X84350327Y-94457808D01*
X84006799Y-94315162D01*
X83634833Y-94314838D01*
X83513431Y-94365000D01*
X82296000Y-94365000D01*
X81957325Y-94432367D01*
X81670210Y-94624210D01*
X81670208Y-94624213D01*
X80212210Y-96082210D01*
X80020367Y-96369325D01*
X80011614Y-96413327D01*
X79952999Y-96708000D01*
X79953000Y-96708005D01*
X79953000Y-97052203D01*
X79891569Y-97142110D01*
X79888149Y-97159000D01*
X78284822Y-97159000D01*
X78164799Y-97109162D01*
X78132445Y-97109134D01*
X78349787Y-96891792D01*
X78349790Y-96891790D01*
X78541633Y-96604675D01*
X78557991Y-96522440D01*
X78609001Y-96266000D01*
X78609000Y-96265995D01*
X78609000Y-93898887D01*
X78925167Y-93899162D01*
X79046569Y-93849000D01*
X83977420Y-93849000D01*
X84974560Y-94846139D01*
G36*
X63634417Y-89489812D02*
X64389000Y-90244395D01*
X64403143Y-90230253D01*
X64582748Y-90409858D01*
X64568605Y-90424000D01*
X64582748Y-90438143D01*
X64403143Y-90617748D01*
X64389000Y-90603605D01*
X64374858Y-90617748D01*
X64195253Y-90438143D01*
X64209395Y-90424000D01*
X63454812Y-89669417D01*
X63219200Y-89731071D01*
X63107112Y-90049532D01*
X62855790Y-89798210D01*
X62855787Y-89798208D01*
X62334579Y-89277000D01*
X63690105Y-89277000D01*
X63634417Y-89489812D01*
X63634417Y-89489812D01*
G37*
X63634417Y-89489812D02*
X64389000Y-90244395D01*
X64403143Y-90230253D01*
X64582748Y-90409858D01*
X64568605Y-90424000D01*
X64582748Y-90438143D01*
X64403143Y-90617748D01*
X64389000Y-90603605D01*
X64374858Y-90617748D01*
X64195253Y-90438143D01*
X64209395Y-90424000D01*
X63454812Y-89669417D01*
X63219200Y-89731071D01*
X63107112Y-90049532D01*
X62855790Y-89798210D01*
X62855787Y-89798208D01*
X62334579Y-89277000D01*
X63690105Y-89277000D01*
X63634417Y-89489812D01*
M02*
