G04 #@! TF.FileFunction,Legend,Top*
%FSLAX46Y46*%
G04 Gerber Fmt 4.6, Leading zero omitted, Abs format (unit mm)*
G04 Created by KiCad (PCBNEW 0.201509111501+6183~30~ubuntu14.04.1-product) date Sun 13 Sep 2015 08:24:29 PM CDT*
%MOMM*%
G01*
G04 APERTURE LIST*
%ADD10C,0.100000*%
%ADD11C,0.300000*%
%ADD12C,0.150000*%
%ADD13C,0.304800*%
%ADD14C,0.222250*%
%ADD15C,4.464000*%
%ADD16C,1.700000*%
%ADD17R,1.700000X1.700000*%
%ADD18R,1.650000X1.400000*%
%ADD19R,1.400000X1.650000*%
%ADD20R,2.127200X2.127200*%
%ADD21O,2.127200X2.127200*%
%ADD22O,2.400000X1.500000*%
%ADD23R,2.432000X2.432000*%
%ADD24O,2.432000X2.432000*%
%ADD25R,2.432000X2.127200*%
%ADD26O,2.432000X2.127200*%
%ADD27R,2.127200X2.432000*%
%ADD28O,2.127200X2.432000*%
%ADD29R,1.100000X1.700000*%
%ADD30C,1.797000*%
%ADD31R,2.398980X5.899100*%
%ADD32R,2.000000X0.950000*%
%ADD33R,0.950000X2.000000*%
%ADD34R,3.400000X2.127200*%
%ADD35O,3.400000X2.127200*%
G04 APERTURE END LIST*
D10*
D11*
X37298572Y-97706571D02*
X37298572Y-96206571D01*
X38012858Y-97706571D02*
X38012858Y-96206571D01*
X38870001Y-97706571D01*
X38870001Y-96206571D01*
X39370001Y-96206571D02*
X40227144Y-96206571D01*
X39798573Y-97706571D02*
X39798573Y-96206571D01*
X41512858Y-97706571D02*
X40655715Y-97706571D01*
X41084287Y-97706571D02*
X41084287Y-96206571D01*
X40941430Y-96420857D01*
X40798572Y-96563714D01*
X40655715Y-96635143D01*
X38612001Y-93388571D02*
X38112001Y-92674286D01*
X37754858Y-93388571D02*
X37754858Y-91888571D01*
X38326286Y-91888571D01*
X38469144Y-91960000D01*
X38540572Y-92031429D01*
X38612001Y-92174286D01*
X38612001Y-92388571D01*
X38540572Y-92531429D01*
X38469144Y-92602857D01*
X38326286Y-92674286D01*
X37754858Y-92674286D01*
X39112001Y-91888571D02*
X40112001Y-93388571D01*
X40112001Y-91888571D02*
X39112001Y-93388571D01*
X35274287Y-100016571D02*
X34560001Y-100016571D01*
X34488572Y-100730857D01*
X34560001Y-100659429D01*
X34702858Y-100588000D01*
X35060001Y-100588000D01*
X35202858Y-100659429D01*
X35274287Y-100730857D01*
X35345715Y-100873714D01*
X35345715Y-101230857D01*
X35274287Y-101373714D01*
X35202858Y-101445143D01*
X35060001Y-101516571D01*
X34702858Y-101516571D01*
X34560001Y-101445143D01*
X34488572Y-101373714D01*
X35774286Y-100016571D02*
X36274286Y-101516571D01*
X36774286Y-100016571D01*
X34417143Y-108470000D02*
X34274286Y-108398571D01*
X34060000Y-108398571D01*
X33845715Y-108470000D01*
X33702857Y-108612857D01*
X33631429Y-108755714D01*
X33560000Y-109041429D01*
X33560000Y-109255714D01*
X33631429Y-109541429D01*
X33702857Y-109684286D01*
X33845715Y-109827143D01*
X34060000Y-109898571D01*
X34202857Y-109898571D01*
X34417143Y-109827143D01*
X34488572Y-109755714D01*
X34488572Y-109255714D01*
X34202857Y-109255714D01*
X35131429Y-109898571D02*
X35131429Y-108398571D01*
X35988572Y-109898571D01*
X35988572Y-108398571D01*
X36702858Y-109898571D02*
X36702858Y-108398571D01*
X37060001Y-108398571D01*
X37274286Y-108470000D01*
X37417144Y-108612857D01*
X37488572Y-108755714D01*
X37560001Y-109041429D01*
X37560001Y-109255714D01*
X37488572Y-109541429D01*
X37417144Y-109684286D01*
X37274286Y-109827143D01*
X37060001Y-109898571D01*
X36702858Y-109898571D01*
X43561143Y-107636571D02*
X44418286Y-107636571D01*
X43989715Y-109136571D02*
X43989715Y-107636571D01*
X44775429Y-107636571D02*
X45775429Y-109136571D01*
X45775429Y-107636571D02*
X44775429Y-109136571D01*
X40644001Y-109136571D02*
X40144001Y-108422286D01*
X39786858Y-109136571D02*
X39786858Y-107636571D01*
X40358286Y-107636571D01*
X40501144Y-107708000D01*
X40572572Y-107779429D01*
X40644001Y-107922286D01*
X40644001Y-108136571D01*
X40572572Y-108279429D01*
X40501144Y-108350857D01*
X40358286Y-108422286D01*
X39786858Y-108422286D01*
X41144001Y-107636571D02*
X42144001Y-109136571D01*
X42144001Y-107636571D02*
X41144001Y-109136571D01*
D12*
X97155000Y-105410000D02*
X92075000Y-120650000D01*
X97155000Y-95250000D02*
X92075000Y-81280000D01*
X247650000Y-105410000D02*
X97155000Y-105410000D01*
X247650000Y-95250000D02*
X247650000Y-105410000D01*
X97155000Y-95250000D02*
X247650000Y-95250000D01*
X31115000Y-120650000D02*
X31115000Y-81290000D01*
X92075000Y-120650000D02*
X31115000Y-120650000D01*
X31115000Y-81280000D02*
X92075000Y-81280000D01*
X91186000Y-85090000D02*
G75*
G03X91186000Y-85090000I-2286000J0D01*
G01*
X91186000Y-116840000D02*
G75*
G03X91186000Y-116840000I-2286000J0D01*
G01*
X37211000Y-116840000D02*
G75*
G03X37211000Y-116840000I-2286000J0D01*
G01*
X86767000Y-107895000D02*
X93065000Y-107895000D01*
X86773000Y-107755000D02*
X93059000Y-107755000D01*
X86786000Y-107615000D02*
X89470000Y-107615000D01*
X90362000Y-107615000D02*
X93046000Y-107615000D01*
X86805000Y-107475000D02*
X89260000Y-107475000D01*
X90572000Y-107475000D02*
X93027000Y-107475000D01*
X86831000Y-107335000D02*
X89127000Y-107335000D01*
X90705000Y-107335000D02*
X93001000Y-107335000D01*
X86863000Y-107195000D02*
X89036000Y-107195000D01*
X90796000Y-107195000D02*
X92969000Y-107195000D01*
X86902000Y-107055000D02*
X88974000Y-107055000D01*
X90858000Y-107055000D02*
X92930000Y-107055000D01*
X86948000Y-106915000D02*
X88935000Y-106915000D01*
X90897000Y-106915000D02*
X92884000Y-106915000D01*
X87001000Y-106775000D02*
X88918000Y-106775000D01*
X90914000Y-106775000D02*
X92831000Y-106775000D01*
X87063000Y-106635000D02*
X88920000Y-106635000D01*
X90912000Y-106635000D02*
X92769000Y-106635000D01*
X87133000Y-106495000D02*
X88942000Y-106495000D01*
X90890000Y-106495000D02*
X92699000Y-106495000D01*
X87212000Y-106355000D02*
X88985000Y-106355000D01*
X90847000Y-106355000D02*
X92620000Y-106355000D01*
X87300000Y-106215000D02*
X89053000Y-106215000D01*
X90779000Y-106215000D02*
X92532000Y-106215000D01*
X87400000Y-106075000D02*
X89152000Y-106075000D01*
X90680000Y-106075000D02*
X92432000Y-106075000D01*
X87512000Y-105935000D02*
X89297000Y-105935000D01*
X90535000Y-105935000D02*
X92320000Y-105935000D01*
X87637000Y-105795000D02*
X89536000Y-105795000D01*
X90296000Y-105795000D02*
X92195000Y-105795000D01*
X87780000Y-105655000D02*
X92052000Y-105655000D01*
X87942000Y-105515000D02*
X91890000Y-105515000D01*
X88130000Y-105375000D02*
X91702000Y-105375000D01*
X88353000Y-105235000D02*
X91479000Y-105235000D01*
X88629000Y-105095000D02*
X91203000Y-105095000D01*
X89004000Y-104955000D02*
X90828000Y-104955000D01*
X90916000Y-106720000D02*
G75*
G03X90916000Y-106720000I-1000000J0D01*
G01*
X93103500Y-107970000D02*
G75*
G03X93103500Y-107970000I-3187500J0D01*
G01*
X62015000Y-95385000D02*
X62015000Y-96385000D01*
X63715000Y-96385000D02*
X63715000Y-95385000D01*
X62015000Y-99830000D02*
X62015000Y-100830000D01*
X63715000Y-100830000D02*
X63715000Y-99830000D01*
X82288000Y-105830000D02*
X81288000Y-105830000D01*
X81288000Y-107530000D02*
X82288000Y-107530000D01*
X49395000Y-94400000D02*
X48395000Y-94400000D01*
X48395000Y-96100000D02*
X49395000Y-96100000D01*
X49395000Y-98210000D02*
X48395000Y-98210000D01*
X48395000Y-99910000D02*
X49395000Y-99910000D01*
X87622000Y-93892000D02*
X86622000Y-93892000D01*
X86622000Y-95592000D02*
X87622000Y-95592000D01*
X43045000Y-98210000D02*
X42045000Y-98210000D01*
X42045000Y-99910000D02*
X43045000Y-99910000D01*
X77978000Y-112014000D02*
X72898000Y-112014000D01*
X80798000Y-111734000D02*
X80798000Y-113284000D01*
X80518000Y-114554000D02*
X77978000Y-114554000D01*
X77978000Y-114554000D02*
X77978000Y-112014000D01*
X72898000Y-112014000D02*
X72898000Y-117094000D01*
X72898000Y-117094000D02*
X77978000Y-117094000D01*
X80798000Y-111734000D02*
X79248000Y-111734000D01*
X80518000Y-117094000D02*
X80518000Y-114554000D01*
X77978000Y-117094000D02*
X80518000Y-117094000D01*
D13*
X99465000Y-97830000D02*
X98465000Y-98830000D01*
X103465000Y-97830000D02*
X99465000Y-97830000D01*
X98465000Y-102830000D02*
X98465000Y-98830000D01*
X103465000Y-102830000D02*
X98465000Y-102830000D01*
X103465000Y-102830000D02*
X103465000Y-97830000D01*
X108355000Y-97830000D02*
X107355000Y-98830000D01*
X112355000Y-97830000D02*
X108355000Y-97830000D01*
X107355000Y-102830000D02*
X107355000Y-98830000D01*
X112355000Y-102830000D02*
X107355000Y-102830000D01*
X112355000Y-102830000D02*
X112355000Y-97830000D01*
X117245000Y-97830000D02*
X116245000Y-98830000D01*
X121245000Y-97830000D02*
X117245000Y-97830000D01*
X116245000Y-102830000D02*
X116245000Y-98830000D01*
X121245000Y-102830000D02*
X116245000Y-102830000D01*
X121245000Y-102830000D02*
X121245000Y-97830000D01*
X126135000Y-97830000D02*
X125135000Y-98830000D01*
X130135000Y-97830000D02*
X126135000Y-97830000D01*
X125135000Y-102830000D02*
X125135000Y-98830000D01*
X130135000Y-102830000D02*
X125135000Y-102830000D01*
X130135000Y-102830000D02*
X130135000Y-97830000D01*
X135025000Y-97830000D02*
X134025000Y-98830000D01*
X139025000Y-97830000D02*
X135025000Y-97830000D01*
X134025000Y-102830000D02*
X134025000Y-98830000D01*
X139025000Y-102830000D02*
X134025000Y-102830000D01*
X139025000Y-102830000D02*
X139025000Y-97830000D01*
X143915000Y-97830000D02*
X142915000Y-98830000D01*
X147915000Y-97830000D02*
X143915000Y-97830000D01*
X142915000Y-102830000D02*
X142915000Y-98830000D01*
X147915000Y-102830000D02*
X142915000Y-102830000D01*
X147915000Y-102830000D02*
X147915000Y-97830000D01*
X152805000Y-97830000D02*
X151805000Y-98830000D01*
X156805000Y-97830000D02*
X152805000Y-97830000D01*
X151805000Y-102830000D02*
X151805000Y-98830000D01*
X156805000Y-102830000D02*
X151805000Y-102830000D01*
X156805000Y-102830000D02*
X156805000Y-97830000D01*
X161695000Y-97830000D02*
X160695000Y-98830000D01*
X165695000Y-97830000D02*
X161695000Y-97830000D01*
X160695000Y-102830000D02*
X160695000Y-98830000D01*
X165695000Y-102830000D02*
X160695000Y-102830000D01*
X165695000Y-102830000D02*
X165695000Y-97830000D01*
X170585000Y-97830000D02*
X169585000Y-98830000D01*
X174585000Y-97830000D02*
X170585000Y-97830000D01*
X169585000Y-102830000D02*
X169585000Y-98830000D01*
X174585000Y-102830000D02*
X169585000Y-102830000D01*
X174585000Y-102830000D02*
X174585000Y-97830000D01*
X179475000Y-97830000D02*
X178475000Y-98830000D01*
X183475000Y-97830000D02*
X179475000Y-97830000D01*
X178475000Y-102830000D02*
X178475000Y-98830000D01*
X183475000Y-102830000D02*
X178475000Y-102830000D01*
X183475000Y-102830000D02*
X183475000Y-97830000D01*
X188365000Y-97830000D02*
X187365000Y-98830000D01*
X192365000Y-97830000D02*
X188365000Y-97830000D01*
X187365000Y-102830000D02*
X187365000Y-98830000D01*
X192365000Y-102830000D02*
X187365000Y-102830000D01*
X192365000Y-102830000D02*
X192365000Y-97830000D01*
X197255000Y-97830000D02*
X196255000Y-98830000D01*
X201255000Y-97830000D02*
X197255000Y-97830000D01*
X196255000Y-102830000D02*
X196255000Y-98830000D01*
X201255000Y-102830000D02*
X196255000Y-102830000D01*
X201255000Y-102830000D02*
X201255000Y-97830000D01*
X206145000Y-97830000D02*
X205145000Y-98830000D01*
X210145000Y-97830000D02*
X206145000Y-97830000D01*
X205145000Y-102830000D02*
X205145000Y-98830000D01*
X210145000Y-102830000D02*
X205145000Y-102830000D01*
X210145000Y-102830000D02*
X210145000Y-97830000D01*
X215035000Y-97830000D02*
X214035000Y-98830000D01*
X219035000Y-97830000D02*
X215035000Y-97830000D01*
X214035000Y-102830000D02*
X214035000Y-98830000D01*
X219035000Y-102830000D02*
X214035000Y-102830000D01*
X219035000Y-102830000D02*
X219035000Y-97830000D01*
X223925000Y-97830000D02*
X222925000Y-98830000D01*
X227925000Y-97830000D02*
X223925000Y-97830000D01*
X222925000Y-102830000D02*
X222925000Y-98830000D01*
X227925000Y-102830000D02*
X222925000Y-102830000D01*
X227925000Y-102830000D02*
X227925000Y-97830000D01*
X232815000Y-97830000D02*
X231815000Y-98830000D01*
X236815000Y-97830000D02*
X232815000Y-97830000D01*
X231815000Y-102830000D02*
X231815000Y-98830000D01*
X236815000Y-102830000D02*
X231815000Y-102830000D01*
X236815000Y-102830000D02*
X236815000Y-97830000D01*
X241705000Y-97830000D02*
X240705000Y-98830000D01*
X245705000Y-97830000D02*
X241705000Y-97830000D01*
X240705000Y-102830000D02*
X240705000Y-98830000D01*
X245705000Y-102830000D02*
X240705000Y-102830000D01*
X245705000Y-102830000D02*
X245705000Y-97830000D01*
D12*
X36830000Y-104775000D02*
X36830000Y-107315000D01*
X37110000Y-101955000D02*
X37110000Y-103505000D01*
X36830000Y-104775000D02*
X34290000Y-104775000D01*
X34010000Y-103505000D02*
X34010000Y-101955000D01*
X34010000Y-101955000D02*
X37110000Y-101955000D01*
X34290000Y-104775000D02*
X34290000Y-107315000D01*
X34290000Y-107315000D02*
X36830000Y-107315000D01*
X43180000Y-104140000D02*
X45720000Y-104140000D01*
X40360000Y-103860000D02*
X41910000Y-103860000D01*
X43180000Y-104140000D02*
X43180000Y-106680000D01*
X41910000Y-106960000D02*
X40360000Y-106960000D01*
X40360000Y-106960000D02*
X40360000Y-103860000D01*
X43180000Y-106680000D02*
X45720000Y-106680000D01*
X45720000Y-106680000D02*
X45720000Y-104140000D01*
X34290000Y-93980000D02*
X34290000Y-99060000D01*
X34290000Y-99060000D02*
X36830000Y-99060000D01*
X36830000Y-99060000D02*
X36830000Y-93980000D01*
X37110000Y-91160000D02*
X37110000Y-92710000D01*
X36830000Y-93980000D02*
X34290000Y-93980000D01*
X34010000Y-92710000D02*
X34010000Y-91160000D01*
X34010000Y-91160000D02*
X37110000Y-91160000D01*
X81026000Y-86614000D02*
X68326000Y-86614000D01*
X68326000Y-86614000D02*
X68326000Y-84074000D01*
X68326000Y-84074000D02*
X81026000Y-84074000D01*
X83846000Y-86894000D02*
X82296000Y-86894000D01*
X81026000Y-86614000D02*
X81026000Y-84074000D01*
X82296000Y-83794000D02*
X83846000Y-83794000D01*
X83846000Y-83794000D02*
X83846000Y-86894000D01*
X92872000Y-96153000D02*
X94072000Y-96153000D01*
X94072000Y-97903000D02*
X92872000Y-97903000D01*
X92872000Y-99455000D02*
X94072000Y-99455000D01*
X94072000Y-101205000D02*
X92872000Y-101205000D01*
X70704000Y-91934000D02*
X69504000Y-91934000D01*
X69504000Y-90184000D02*
X70704000Y-90184000D01*
X81188000Y-97169000D02*
X82388000Y-97169000D01*
X82388000Y-98919000D02*
X81188000Y-98919000D01*
X43145000Y-95490000D02*
X41945000Y-95490000D01*
X41945000Y-93740000D02*
X43145000Y-93740000D01*
X48768000Y-114808000D02*
G75*
G03X48768000Y-114808000I-2540000J0D01*
G01*
X42418000Y-118618000D02*
X42418000Y-110998000D01*
X42418000Y-110998000D02*
X50038000Y-110998000D01*
X50038000Y-110998000D02*
X50038000Y-118618000D01*
X42418000Y-118618000D02*
X50038000Y-118618000D01*
X58420000Y-114808000D02*
G75*
G03X58420000Y-114808000I-2540000J0D01*
G01*
X52070000Y-118618000D02*
X52070000Y-110998000D01*
X52070000Y-110998000D02*
X59690000Y-110998000D01*
X59690000Y-110998000D02*
X59690000Y-118618000D01*
X52070000Y-118618000D02*
X59690000Y-118618000D01*
X68072000Y-114808000D02*
G75*
G03X68072000Y-114808000I-2540000J0D01*
G01*
X61722000Y-118618000D02*
X61722000Y-110998000D01*
X61722000Y-110998000D02*
X69342000Y-110998000D01*
X69342000Y-110998000D02*
X69342000Y-118618000D01*
X61722000Y-118618000D02*
X69342000Y-118618000D01*
X63119000Y-87884000D02*
G75*
G03X63119000Y-87884000I-2540000J0D01*
G01*
X64389000Y-91694000D02*
X56769000Y-91694000D01*
X56769000Y-91694000D02*
X56769000Y-84074000D01*
X56769000Y-84074000D02*
X64389000Y-84074000D01*
X64389000Y-91694000D02*
X64389000Y-84074000D01*
X56261000Y-94742000D02*
X55880000Y-94742000D01*
X52959000Y-94742000D02*
X53340000Y-94742000D01*
X52959000Y-104648000D02*
X53340000Y-104648000D01*
X56261000Y-104648000D02*
X55880000Y-104648000D01*
X57150000Y-105410000D02*
X55880000Y-105410000D01*
X52070000Y-105410000D02*
X53340000Y-105410000D01*
X52070000Y-93980000D02*
X53340000Y-93980000D01*
X57150000Y-93980000D02*
X55880000Y-93980000D01*
X52959000Y-94742000D02*
X52324000Y-95377000D01*
X52324000Y-95377000D02*
X52324000Y-104013000D01*
X52324000Y-104013000D02*
X52959000Y-104648000D01*
X56261000Y-104648000D02*
X56896000Y-104013000D01*
X56896000Y-104013000D02*
X56896000Y-95377000D01*
X56896000Y-95377000D02*
X56261000Y-94742000D01*
X52070000Y-105410000D02*
X52070000Y-93980000D01*
X57150000Y-93980000D02*
X57150000Y-105410000D01*
X67749000Y-95689000D02*
X67749000Y-96014000D01*
X74999000Y-95689000D02*
X74999000Y-96014000D01*
X74999000Y-102939000D02*
X74999000Y-102614000D01*
X67749000Y-102939000D02*
X67749000Y-102614000D01*
X67749000Y-95689000D02*
X68074000Y-95689000D01*
X67749000Y-102939000D02*
X68074000Y-102939000D01*
X74999000Y-102939000D02*
X74674000Y-102939000D01*
X74999000Y-95689000D02*
X74674000Y-95689000D01*
X67749000Y-96014000D02*
X66324000Y-96014000D01*
X82288000Y-100750000D02*
X81288000Y-100750000D01*
X81288000Y-102450000D02*
X82288000Y-102450000D01*
X53180000Y-88265000D02*
G75*
G03X53180000Y-88265000I-2450000J0D01*
G01*
X46480000Y-91265000D02*
X53430000Y-91265000D01*
X46480000Y-85265000D02*
X53430000Y-85265000D01*
X46480000Y-85265000D02*
X46480000Y-91265000D01*
X48130000Y-85265000D02*
X48130000Y-91265000D01*
X53430000Y-85265000D02*
X53430000Y-91265000D01*
X41376000Y-86995000D02*
X41376000Y-92075000D01*
X41376000Y-92075000D02*
X44984000Y-92075000D01*
X44984000Y-92075000D02*
X44984000Y-86995000D01*
X44984000Y-84175000D02*
X44984000Y-85725000D01*
X41376000Y-86995000D02*
X44984000Y-86995000D01*
X41376000Y-85725000D02*
X41376000Y-84175000D01*
X41376000Y-84175000D02*
X44984000Y-84175000D01*
X37211000Y-85090000D02*
G75*
G03X37211000Y-85090000I-2286000J0D01*
G01*
X89749334Y-112625143D02*
X89701715Y-112672762D01*
X89558858Y-112720381D01*
X89463620Y-112720381D01*
X89320762Y-112672762D01*
X89225524Y-112577524D01*
X89177905Y-112482286D01*
X89130286Y-112291810D01*
X89130286Y-112148952D01*
X89177905Y-111958476D01*
X89225524Y-111863238D01*
X89320762Y-111768000D01*
X89463620Y-111720381D01*
X89558858Y-111720381D01*
X89701715Y-111768000D01*
X89749334Y-111815619D01*
X90701715Y-112720381D02*
X90130286Y-112720381D01*
X90416000Y-112720381D02*
X90416000Y-111720381D01*
X90320762Y-111863238D01*
X90225524Y-111958476D01*
X90130286Y-112006095D01*
X61122143Y-96051666D02*
X61169762Y-96099285D01*
X61217381Y-96242142D01*
X61217381Y-96337380D01*
X61169762Y-96480238D01*
X61074524Y-96575476D01*
X60979286Y-96623095D01*
X60788810Y-96670714D01*
X60645952Y-96670714D01*
X60455476Y-96623095D01*
X60360238Y-96575476D01*
X60265000Y-96480238D01*
X60217381Y-96337380D01*
X60217381Y-96242142D01*
X60265000Y-96099285D01*
X60312619Y-96051666D01*
X60312619Y-95670714D02*
X60265000Y-95623095D01*
X60217381Y-95527857D01*
X60217381Y-95289761D01*
X60265000Y-95194523D01*
X60312619Y-95146904D01*
X60407857Y-95099285D01*
X60503095Y-95099285D01*
X60645952Y-95146904D01*
X61217381Y-95718333D01*
X61217381Y-95099285D01*
X61122143Y-100496666D02*
X61169762Y-100544285D01*
X61217381Y-100687142D01*
X61217381Y-100782380D01*
X61169762Y-100925238D01*
X61074524Y-101020476D01*
X60979286Y-101068095D01*
X60788810Y-101115714D01*
X60645952Y-101115714D01*
X60455476Y-101068095D01*
X60360238Y-101020476D01*
X60265000Y-100925238D01*
X60217381Y-100782380D01*
X60217381Y-100687142D01*
X60265000Y-100544285D01*
X60312619Y-100496666D01*
X60217381Y-100163333D02*
X60217381Y-99544285D01*
X60598333Y-99877619D01*
X60598333Y-99734761D01*
X60645952Y-99639523D01*
X60693571Y-99591904D01*
X60788810Y-99544285D01*
X61026905Y-99544285D01*
X61122143Y-99591904D01*
X61169762Y-99639523D01*
X61217381Y-99734761D01*
X61217381Y-100020476D01*
X61169762Y-100115714D01*
X61122143Y-100163333D01*
X81621334Y-105513143D02*
X81573715Y-105560762D01*
X81430858Y-105608381D01*
X81335620Y-105608381D01*
X81192762Y-105560762D01*
X81097524Y-105465524D01*
X81049905Y-105370286D01*
X81002286Y-105179810D01*
X81002286Y-105036952D01*
X81049905Y-104846476D01*
X81097524Y-104751238D01*
X81192762Y-104656000D01*
X81335620Y-104608381D01*
X81430858Y-104608381D01*
X81573715Y-104656000D01*
X81621334Y-104703619D01*
X82478477Y-104941714D02*
X82478477Y-105608381D01*
X82240381Y-104560762D02*
X82002286Y-105275048D01*
X82621334Y-105275048D01*
X48728334Y-93507143D02*
X48680715Y-93554762D01*
X48537858Y-93602381D01*
X48442620Y-93602381D01*
X48299762Y-93554762D01*
X48204524Y-93459524D01*
X48156905Y-93364286D01*
X48109286Y-93173810D01*
X48109286Y-93030952D01*
X48156905Y-92840476D01*
X48204524Y-92745238D01*
X48299762Y-92650000D01*
X48442620Y-92602381D01*
X48537858Y-92602381D01*
X48680715Y-92650000D01*
X48728334Y-92697619D01*
X49633096Y-92602381D02*
X49156905Y-92602381D01*
X49109286Y-93078571D01*
X49156905Y-93030952D01*
X49252143Y-92983333D01*
X49490239Y-92983333D01*
X49585477Y-93030952D01*
X49633096Y-93078571D01*
X49680715Y-93173810D01*
X49680715Y-93411905D01*
X49633096Y-93507143D01*
X49585477Y-93554762D01*
X49490239Y-93602381D01*
X49252143Y-93602381D01*
X49156905Y-93554762D01*
X49109286Y-93507143D01*
X48855334Y-101449143D02*
X48807715Y-101496762D01*
X48664858Y-101544381D01*
X48569620Y-101544381D01*
X48426762Y-101496762D01*
X48331524Y-101401524D01*
X48283905Y-101306286D01*
X48236286Y-101115810D01*
X48236286Y-100972952D01*
X48283905Y-100782476D01*
X48331524Y-100687238D01*
X48426762Y-100592000D01*
X48569620Y-100544381D01*
X48664858Y-100544381D01*
X48807715Y-100592000D01*
X48855334Y-100639619D01*
X49712477Y-100544381D02*
X49522000Y-100544381D01*
X49426762Y-100592000D01*
X49379143Y-100639619D01*
X49283905Y-100782476D01*
X49236286Y-100972952D01*
X49236286Y-101353905D01*
X49283905Y-101449143D01*
X49331524Y-101496762D01*
X49426762Y-101544381D01*
X49617239Y-101544381D01*
X49712477Y-101496762D01*
X49760096Y-101449143D01*
X49807715Y-101353905D01*
X49807715Y-101115810D01*
X49760096Y-101020571D01*
X49712477Y-100972952D01*
X49617239Y-100925333D01*
X49426762Y-100925333D01*
X49331524Y-100972952D01*
X49283905Y-101020571D01*
X49236286Y-101115810D01*
X86955334Y-92999143D02*
X86907715Y-93046762D01*
X86764858Y-93094381D01*
X86669620Y-93094381D01*
X86526762Y-93046762D01*
X86431524Y-92951524D01*
X86383905Y-92856286D01*
X86336286Y-92665810D01*
X86336286Y-92522952D01*
X86383905Y-92332476D01*
X86431524Y-92237238D01*
X86526762Y-92142000D01*
X86669620Y-92094381D01*
X86764858Y-92094381D01*
X86907715Y-92142000D01*
X86955334Y-92189619D01*
X87288667Y-92094381D02*
X87955334Y-92094381D01*
X87526762Y-93094381D01*
X43267334Y-101195143D02*
X43219715Y-101242762D01*
X43076858Y-101290381D01*
X42981620Y-101290381D01*
X42838762Y-101242762D01*
X42743524Y-101147524D01*
X42695905Y-101052286D01*
X42648286Y-100861810D01*
X42648286Y-100718952D01*
X42695905Y-100528476D01*
X42743524Y-100433238D01*
X42838762Y-100338000D01*
X42981620Y-100290381D01*
X43076858Y-100290381D01*
X43219715Y-100338000D01*
X43267334Y-100385619D01*
X43743524Y-101290381D02*
X43934000Y-101290381D01*
X44029239Y-101242762D01*
X44076858Y-101195143D01*
X44172096Y-101052286D01*
X44219715Y-100861810D01*
X44219715Y-100480857D01*
X44172096Y-100385619D01*
X44124477Y-100338000D01*
X44029239Y-100290381D01*
X43838762Y-100290381D01*
X43743524Y-100338000D01*
X43695905Y-100385619D01*
X43648286Y-100480857D01*
X43648286Y-100718952D01*
X43695905Y-100814190D01*
X43743524Y-100861810D01*
X43838762Y-100909429D01*
X44029239Y-100909429D01*
X44124477Y-100861810D01*
X44172096Y-100814190D01*
X44219715Y-100718952D01*
X73445810Y-111196381D02*
X73445810Y-110196381D01*
X73874381Y-111148762D02*
X74017238Y-111196381D01*
X74255334Y-111196381D01*
X74350572Y-111148762D01*
X74398191Y-111101143D01*
X74445810Y-111005905D01*
X74445810Y-110910667D01*
X74398191Y-110815429D01*
X74350572Y-110767810D01*
X74255334Y-110720190D01*
X74064857Y-110672571D01*
X73969619Y-110624952D01*
X73922000Y-110577333D01*
X73874381Y-110482095D01*
X73874381Y-110386857D01*
X73922000Y-110291619D01*
X73969619Y-110244000D01*
X74064857Y-110196381D01*
X74302953Y-110196381D01*
X74445810Y-110244000D01*
X74874381Y-111196381D02*
X74874381Y-110196381D01*
X75255334Y-110196381D01*
X75350572Y-110244000D01*
X75398191Y-110291619D01*
X75445810Y-110386857D01*
X75445810Y-110529714D01*
X75398191Y-110624952D01*
X75350572Y-110672571D01*
X75255334Y-110720190D01*
X74874381Y-110720190D01*
D14*
X99970167Y-97176167D02*
X99546834Y-97176167D01*
X99546834Y-96287167D01*
X100266501Y-96710500D02*
X100562834Y-96710500D01*
X100689834Y-97176167D02*
X100266501Y-97176167D01*
X100266501Y-96287167D01*
X100689834Y-96287167D01*
X101070834Y-97176167D02*
X101070834Y-96287167D01*
X101282500Y-96287167D01*
X101409500Y-96329500D01*
X101494167Y-96414167D01*
X101536500Y-96498833D01*
X101578834Y-96668167D01*
X101578834Y-96795167D01*
X101536500Y-96964500D01*
X101494167Y-97049167D01*
X101409500Y-97133833D01*
X101282500Y-97176167D01*
X101070834Y-97176167D01*
X102425500Y-97176167D02*
X101917500Y-97176167D01*
X102171500Y-97176167D02*
X102171500Y-96287167D01*
X102086834Y-96414167D01*
X102002167Y-96498833D01*
X101917500Y-96541167D01*
D13*
D12*
X101113167Y-101887143D02*
X101113167Y-101601429D01*
X101367167Y-101944286D02*
X100478167Y-101744286D01*
X101367167Y-101544286D01*
X101367167Y-101344286D02*
X100478167Y-101344286D01*
X100478167Y-101115714D01*
X100520500Y-101058572D01*
X100562833Y-101030000D01*
X100647500Y-101001429D01*
X100774500Y-101001429D01*
X100859167Y-101030000D01*
X100901500Y-101058572D01*
X100943833Y-101115714D01*
X100943833Y-101344286D01*
X101113167Y-100772857D02*
X101113167Y-100487143D01*
X101367167Y-100830000D02*
X100478167Y-100630000D01*
X101367167Y-100430000D01*
X101367167Y-99915714D02*
X101367167Y-100258571D01*
X101367167Y-100087143D02*
X100478167Y-100087143D01*
X100605167Y-100144286D01*
X100689833Y-100201428D01*
X100732167Y-100258571D01*
X100478167Y-99544285D02*
X100478167Y-99487142D01*
X100520500Y-99429999D01*
X100562833Y-99401428D01*
X100647500Y-99372857D01*
X100816833Y-99344285D01*
X101028500Y-99344285D01*
X101197833Y-99372857D01*
X101282500Y-99401428D01*
X101324833Y-99429999D01*
X101367167Y-99487142D01*
X101367167Y-99544285D01*
X101324833Y-99601428D01*
X101282500Y-99629999D01*
X101197833Y-99658571D01*
X101028500Y-99687142D01*
X100816833Y-99687142D01*
X100647500Y-99658571D01*
X100562833Y-99629999D01*
X100520500Y-99601428D01*
X100478167Y-99544285D01*
X100562833Y-99115713D02*
X100520500Y-99087142D01*
X100478167Y-99029999D01*
X100478167Y-98887142D01*
X100520500Y-98829999D01*
X100562833Y-98801428D01*
X100647500Y-98772856D01*
X100732167Y-98772856D01*
X100859167Y-98801428D01*
X101367167Y-99144285D01*
X101367167Y-98772856D01*
D14*
X108860167Y-97176167D02*
X108436834Y-97176167D01*
X108436834Y-96287167D01*
X109156501Y-96710500D02*
X109452834Y-96710500D01*
X109579834Y-97176167D02*
X109156501Y-97176167D01*
X109156501Y-96287167D01*
X109579834Y-96287167D01*
X109960834Y-97176167D02*
X109960834Y-96287167D01*
X110172500Y-96287167D01*
X110299500Y-96329500D01*
X110384167Y-96414167D01*
X110426500Y-96498833D01*
X110468834Y-96668167D01*
X110468834Y-96795167D01*
X110426500Y-96964500D01*
X110384167Y-97049167D01*
X110299500Y-97133833D01*
X110172500Y-97176167D01*
X109960834Y-97176167D01*
X110807500Y-96371833D02*
X110849834Y-96329500D01*
X110934500Y-96287167D01*
X111146167Y-96287167D01*
X111230834Y-96329500D01*
X111273167Y-96371833D01*
X111315500Y-96456500D01*
X111315500Y-96541167D01*
X111273167Y-96668167D01*
X110765167Y-97176167D01*
X111315500Y-97176167D01*
D13*
D12*
X110003167Y-101887143D02*
X110003167Y-101601429D01*
X110257167Y-101944286D02*
X109368167Y-101744286D01*
X110257167Y-101544286D01*
X110257167Y-101344286D02*
X109368167Y-101344286D01*
X109368167Y-101115714D01*
X109410500Y-101058572D01*
X109452833Y-101030000D01*
X109537500Y-101001429D01*
X109664500Y-101001429D01*
X109749167Y-101030000D01*
X109791500Y-101058572D01*
X109833833Y-101115714D01*
X109833833Y-101344286D01*
X110003167Y-100772857D02*
X110003167Y-100487143D01*
X110257167Y-100830000D02*
X109368167Y-100630000D01*
X110257167Y-100430000D01*
X110257167Y-99915714D02*
X110257167Y-100258571D01*
X110257167Y-100087143D02*
X109368167Y-100087143D01*
X109495167Y-100144286D01*
X109579833Y-100201428D01*
X109622167Y-100258571D01*
X109368167Y-99544285D02*
X109368167Y-99487142D01*
X109410500Y-99429999D01*
X109452833Y-99401428D01*
X109537500Y-99372857D01*
X109706833Y-99344285D01*
X109918500Y-99344285D01*
X110087833Y-99372857D01*
X110172500Y-99401428D01*
X110214833Y-99429999D01*
X110257167Y-99487142D01*
X110257167Y-99544285D01*
X110214833Y-99601428D01*
X110172500Y-99629999D01*
X110087833Y-99658571D01*
X109918500Y-99687142D01*
X109706833Y-99687142D01*
X109537500Y-99658571D01*
X109452833Y-99629999D01*
X109410500Y-99601428D01*
X109368167Y-99544285D01*
X109452833Y-99115713D02*
X109410500Y-99087142D01*
X109368167Y-99029999D01*
X109368167Y-98887142D01*
X109410500Y-98829999D01*
X109452833Y-98801428D01*
X109537500Y-98772856D01*
X109622167Y-98772856D01*
X109749167Y-98801428D01*
X110257167Y-99144285D01*
X110257167Y-98772856D01*
D14*
X117750167Y-97176167D02*
X117326834Y-97176167D01*
X117326834Y-96287167D01*
X118046501Y-96710500D02*
X118342834Y-96710500D01*
X118469834Y-97176167D02*
X118046501Y-97176167D01*
X118046501Y-96287167D01*
X118469834Y-96287167D01*
X118850834Y-97176167D02*
X118850834Y-96287167D01*
X119062500Y-96287167D01*
X119189500Y-96329500D01*
X119274167Y-96414167D01*
X119316500Y-96498833D01*
X119358834Y-96668167D01*
X119358834Y-96795167D01*
X119316500Y-96964500D01*
X119274167Y-97049167D01*
X119189500Y-97133833D01*
X119062500Y-97176167D01*
X118850834Y-97176167D01*
X119655167Y-96287167D02*
X120205500Y-96287167D01*
X119909167Y-96625833D01*
X120036167Y-96625833D01*
X120120834Y-96668167D01*
X120163167Y-96710500D01*
X120205500Y-96795167D01*
X120205500Y-97006833D01*
X120163167Y-97091500D01*
X120120834Y-97133833D01*
X120036167Y-97176167D01*
X119782167Y-97176167D01*
X119697500Y-97133833D01*
X119655167Y-97091500D01*
D13*
D12*
X118893167Y-101887143D02*
X118893167Y-101601429D01*
X119147167Y-101944286D02*
X118258167Y-101744286D01*
X119147167Y-101544286D01*
X119147167Y-101344286D02*
X118258167Y-101344286D01*
X118258167Y-101115714D01*
X118300500Y-101058572D01*
X118342833Y-101030000D01*
X118427500Y-101001429D01*
X118554500Y-101001429D01*
X118639167Y-101030000D01*
X118681500Y-101058572D01*
X118723833Y-101115714D01*
X118723833Y-101344286D01*
X118893167Y-100772857D02*
X118893167Y-100487143D01*
X119147167Y-100830000D02*
X118258167Y-100630000D01*
X119147167Y-100430000D01*
X119147167Y-99915714D02*
X119147167Y-100258571D01*
X119147167Y-100087143D02*
X118258167Y-100087143D01*
X118385167Y-100144286D01*
X118469833Y-100201428D01*
X118512167Y-100258571D01*
X118258167Y-99544285D02*
X118258167Y-99487142D01*
X118300500Y-99429999D01*
X118342833Y-99401428D01*
X118427500Y-99372857D01*
X118596833Y-99344285D01*
X118808500Y-99344285D01*
X118977833Y-99372857D01*
X119062500Y-99401428D01*
X119104833Y-99429999D01*
X119147167Y-99487142D01*
X119147167Y-99544285D01*
X119104833Y-99601428D01*
X119062500Y-99629999D01*
X118977833Y-99658571D01*
X118808500Y-99687142D01*
X118596833Y-99687142D01*
X118427500Y-99658571D01*
X118342833Y-99629999D01*
X118300500Y-99601428D01*
X118258167Y-99544285D01*
X118342833Y-99115713D02*
X118300500Y-99087142D01*
X118258167Y-99029999D01*
X118258167Y-98887142D01*
X118300500Y-98829999D01*
X118342833Y-98801428D01*
X118427500Y-98772856D01*
X118512167Y-98772856D01*
X118639167Y-98801428D01*
X119147167Y-99144285D01*
X119147167Y-98772856D01*
D14*
X126640167Y-97176167D02*
X126216834Y-97176167D01*
X126216834Y-96287167D01*
X126936501Y-96710500D02*
X127232834Y-96710500D01*
X127359834Y-97176167D02*
X126936501Y-97176167D01*
X126936501Y-96287167D01*
X127359834Y-96287167D01*
X127740834Y-97176167D02*
X127740834Y-96287167D01*
X127952500Y-96287167D01*
X128079500Y-96329500D01*
X128164167Y-96414167D01*
X128206500Y-96498833D01*
X128248834Y-96668167D01*
X128248834Y-96795167D01*
X128206500Y-96964500D01*
X128164167Y-97049167D01*
X128079500Y-97133833D01*
X127952500Y-97176167D01*
X127740834Y-97176167D01*
X129010834Y-96583500D02*
X129010834Y-97176167D01*
X128799167Y-96244833D02*
X128587500Y-96879833D01*
X129137834Y-96879833D01*
D13*
D12*
X127783167Y-101887143D02*
X127783167Y-101601429D01*
X128037167Y-101944286D02*
X127148167Y-101744286D01*
X128037167Y-101544286D01*
X128037167Y-101344286D02*
X127148167Y-101344286D01*
X127148167Y-101115714D01*
X127190500Y-101058572D01*
X127232833Y-101030000D01*
X127317500Y-101001429D01*
X127444500Y-101001429D01*
X127529167Y-101030000D01*
X127571500Y-101058572D01*
X127613833Y-101115714D01*
X127613833Y-101344286D01*
X127783167Y-100772857D02*
X127783167Y-100487143D01*
X128037167Y-100830000D02*
X127148167Y-100630000D01*
X128037167Y-100430000D01*
X128037167Y-99915714D02*
X128037167Y-100258571D01*
X128037167Y-100087143D02*
X127148167Y-100087143D01*
X127275167Y-100144286D01*
X127359833Y-100201428D01*
X127402167Y-100258571D01*
X127148167Y-99544285D02*
X127148167Y-99487142D01*
X127190500Y-99429999D01*
X127232833Y-99401428D01*
X127317500Y-99372857D01*
X127486833Y-99344285D01*
X127698500Y-99344285D01*
X127867833Y-99372857D01*
X127952500Y-99401428D01*
X127994833Y-99429999D01*
X128037167Y-99487142D01*
X128037167Y-99544285D01*
X127994833Y-99601428D01*
X127952500Y-99629999D01*
X127867833Y-99658571D01*
X127698500Y-99687142D01*
X127486833Y-99687142D01*
X127317500Y-99658571D01*
X127232833Y-99629999D01*
X127190500Y-99601428D01*
X127148167Y-99544285D01*
X127232833Y-99115713D02*
X127190500Y-99087142D01*
X127148167Y-99029999D01*
X127148167Y-98887142D01*
X127190500Y-98829999D01*
X127232833Y-98801428D01*
X127317500Y-98772856D01*
X127402167Y-98772856D01*
X127529167Y-98801428D01*
X128037167Y-99144285D01*
X128037167Y-98772856D01*
D14*
X135530167Y-97176167D02*
X135106834Y-97176167D01*
X135106834Y-96287167D01*
X135826501Y-96710500D02*
X136122834Y-96710500D01*
X136249834Y-97176167D02*
X135826501Y-97176167D01*
X135826501Y-96287167D01*
X136249834Y-96287167D01*
X136630834Y-97176167D02*
X136630834Y-96287167D01*
X136842500Y-96287167D01*
X136969500Y-96329500D01*
X137054167Y-96414167D01*
X137096500Y-96498833D01*
X137138834Y-96668167D01*
X137138834Y-96795167D01*
X137096500Y-96964500D01*
X137054167Y-97049167D01*
X136969500Y-97133833D01*
X136842500Y-97176167D01*
X136630834Y-97176167D01*
X137943167Y-96287167D02*
X137519834Y-96287167D01*
X137477500Y-96710500D01*
X137519834Y-96668167D01*
X137604500Y-96625833D01*
X137816167Y-96625833D01*
X137900834Y-96668167D01*
X137943167Y-96710500D01*
X137985500Y-96795167D01*
X137985500Y-97006833D01*
X137943167Y-97091500D01*
X137900834Y-97133833D01*
X137816167Y-97176167D01*
X137604500Y-97176167D01*
X137519834Y-97133833D01*
X137477500Y-97091500D01*
D13*
D12*
X136673167Y-101887143D02*
X136673167Y-101601429D01*
X136927167Y-101944286D02*
X136038167Y-101744286D01*
X136927167Y-101544286D01*
X136927167Y-101344286D02*
X136038167Y-101344286D01*
X136038167Y-101115714D01*
X136080500Y-101058572D01*
X136122833Y-101030000D01*
X136207500Y-101001429D01*
X136334500Y-101001429D01*
X136419167Y-101030000D01*
X136461500Y-101058572D01*
X136503833Y-101115714D01*
X136503833Y-101344286D01*
X136673167Y-100772857D02*
X136673167Y-100487143D01*
X136927167Y-100830000D02*
X136038167Y-100630000D01*
X136927167Y-100430000D01*
X136927167Y-99915714D02*
X136927167Y-100258571D01*
X136927167Y-100087143D02*
X136038167Y-100087143D01*
X136165167Y-100144286D01*
X136249833Y-100201428D01*
X136292167Y-100258571D01*
X136038167Y-99544285D02*
X136038167Y-99487142D01*
X136080500Y-99429999D01*
X136122833Y-99401428D01*
X136207500Y-99372857D01*
X136376833Y-99344285D01*
X136588500Y-99344285D01*
X136757833Y-99372857D01*
X136842500Y-99401428D01*
X136884833Y-99429999D01*
X136927167Y-99487142D01*
X136927167Y-99544285D01*
X136884833Y-99601428D01*
X136842500Y-99629999D01*
X136757833Y-99658571D01*
X136588500Y-99687142D01*
X136376833Y-99687142D01*
X136207500Y-99658571D01*
X136122833Y-99629999D01*
X136080500Y-99601428D01*
X136038167Y-99544285D01*
X136122833Y-99115713D02*
X136080500Y-99087142D01*
X136038167Y-99029999D01*
X136038167Y-98887142D01*
X136080500Y-98829999D01*
X136122833Y-98801428D01*
X136207500Y-98772856D01*
X136292167Y-98772856D01*
X136419167Y-98801428D01*
X136927167Y-99144285D01*
X136927167Y-98772856D01*
D14*
X144420167Y-97176167D02*
X143996834Y-97176167D01*
X143996834Y-96287167D01*
X144716501Y-96710500D02*
X145012834Y-96710500D01*
X145139834Y-97176167D02*
X144716501Y-97176167D01*
X144716501Y-96287167D01*
X145139834Y-96287167D01*
X145520834Y-97176167D02*
X145520834Y-96287167D01*
X145732500Y-96287167D01*
X145859500Y-96329500D01*
X145944167Y-96414167D01*
X145986500Y-96498833D01*
X146028834Y-96668167D01*
X146028834Y-96795167D01*
X145986500Y-96964500D01*
X145944167Y-97049167D01*
X145859500Y-97133833D01*
X145732500Y-97176167D01*
X145520834Y-97176167D01*
X146790834Y-96287167D02*
X146621500Y-96287167D01*
X146536834Y-96329500D01*
X146494500Y-96371833D01*
X146409834Y-96498833D01*
X146367500Y-96668167D01*
X146367500Y-97006833D01*
X146409834Y-97091500D01*
X146452167Y-97133833D01*
X146536834Y-97176167D01*
X146706167Y-97176167D01*
X146790834Y-97133833D01*
X146833167Y-97091500D01*
X146875500Y-97006833D01*
X146875500Y-96795167D01*
X146833167Y-96710500D01*
X146790834Y-96668167D01*
X146706167Y-96625833D01*
X146536834Y-96625833D01*
X146452167Y-96668167D01*
X146409834Y-96710500D01*
X146367500Y-96795167D01*
D13*
D12*
X145563167Y-101887143D02*
X145563167Y-101601429D01*
X145817167Y-101944286D02*
X144928167Y-101744286D01*
X145817167Y-101544286D01*
X145817167Y-101344286D02*
X144928167Y-101344286D01*
X144928167Y-101115714D01*
X144970500Y-101058572D01*
X145012833Y-101030000D01*
X145097500Y-101001429D01*
X145224500Y-101001429D01*
X145309167Y-101030000D01*
X145351500Y-101058572D01*
X145393833Y-101115714D01*
X145393833Y-101344286D01*
X145563167Y-100772857D02*
X145563167Y-100487143D01*
X145817167Y-100830000D02*
X144928167Y-100630000D01*
X145817167Y-100430000D01*
X145817167Y-99915714D02*
X145817167Y-100258571D01*
X145817167Y-100087143D02*
X144928167Y-100087143D01*
X145055167Y-100144286D01*
X145139833Y-100201428D01*
X145182167Y-100258571D01*
X144928167Y-99544285D02*
X144928167Y-99487142D01*
X144970500Y-99429999D01*
X145012833Y-99401428D01*
X145097500Y-99372857D01*
X145266833Y-99344285D01*
X145478500Y-99344285D01*
X145647833Y-99372857D01*
X145732500Y-99401428D01*
X145774833Y-99429999D01*
X145817167Y-99487142D01*
X145817167Y-99544285D01*
X145774833Y-99601428D01*
X145732500Y-99629999D01*
X145647833Y-99658571D01*
X145478500Y-99687142D01*
X145266833Y-99687142D01*
X145097500Y-99658571D01*
X145012833Y-99629999D01*
X144970500Y-99601428D01*
X144928167Y-99544285D01*
X145012833Y-99115713D02*
X144970500Y-99087142D01*
X144928167Y-99029999D01*
X144928167Y-98887142D01*
X144970500Y-98829999D01*
X145012833Y-98801428D01*
X145097500Y-98772856D01*
X145182167Y-98772856D01*
X145309167Y-98801428D01*
X145817167Y-99144285D01*
X145817167Y-98772856D01*
D14*
X153310167Y-97176167D02*
X152886834Y-97176167D01*
X152886834Y-96287167D01*
X153606501Y-96710500D02*
X153902834Y-96710500D01*
X154029834Y-97176167D02*
X153606501Y-97176167D01*
X153606501Y-96287167D01*
X154029834Y-96287167D01*
X154410834Y-97176167D02*
X154410834Y-96287167D01*
X154622500Y-96287167D01*
X154749500Y-96329500D01*
X154834167Y-96414167D01*
X154876500Y-96498833D01*
X154918834Y-96668167D01*
X154918834Y-96795167D01*
X154876500Y-96964500D01*
X154834167Y-97049167D01*
X154749500Y-97133833D01*
X154622500Y-97176167D01*
X154410834Y-97176167D01*
X155215167Y-96287167D02*
X155807834Y-96287167D01*
X155426834Y-97176167D01*
D13*
D12*
X154453167Y-101887143D02*
X154453167Y-101601429D01*
X154707167Y-101944286D02*
X153818167Y-101744286D01*
X154707167Y-101544286D01*
X154707167Y-101344286D02*
X153818167Y-101344286D01*
X153818167Y-101115714D01*
X153860500Y-101058572D01*
X153902833Y-101030000D01*
X153987500Y-101001429D01*
X154114500Y-101001429D01*
X154199167Y-101030000D01*
X154241500Y-101058572D01*
X154283833Y-101115714D01*
X154283833Y-101344286D01*
X154453167Y-100772857D02*
X154453167Y-100487143D01*
X154707167Y-100830000D02*
X153818167Y-100630000D01*
X154707167Y-100430000D01*
X154707167Y-99915714D02*
X154707167Y-100258571D01*
X154707167Y-100087143D02*
X153818167Y-100087143D01*
X153945167Y-100144286D01*
X154029833Y-100201428D01*
X154072167Y-100258571D01*
X153818167Y-99544285D02*
X153818167Y-99487142D01*
X153860500Y-99429999D01*
X153902833Y-99401428D01*
X153987500Y-99372857D01*
X154156833Y-99344285D01*
X154368500Y-99344285D01*
X154537833Y-99372857D01*
X154622500Y-99401428D01*
X154664833Y-99429999D01*
X154707167Y-99487142D01*
X154707167Y-99544285D01*
X154664833Y-99601428D01*
X154622500Y-99629999D01*
X154537833Y-99658571D01*
X154368500Y-99687142D01*
X154156833Y-99687142D01*
X153987500Y-99658571D01*
X153902833Y-99629999D01*
X153860500Y-99601428D01*
X153818167Y-99544285D01*
X153902833Y-99115713D02*
X153860500Y-99087142D01*
X153818167Y-99029999D01*
X153818167Y-98887142D01*
X153860500Y-98829999D01*
X153902833Y-98801428D01*
X153987500Y-98772856D01*
X154072167Y-98772856D01*
X154199167Y-98801428D01*
X154707167Y-99144285D01*
X154707167Y-98772856D01*
D14*
X162200167Y-97176167D02*
X161776834Y-97176167D01*
X161776834Y-96287167D01*
X162496501Y-96710500D02*
X162792834Y-96710500D01*
X162919834Y-97176167D02*
X162496501Y-97176167D01*
X162496501Y-96287167D01*
X162919834Y-96287167D01*
X163300834Y-97176167D02*
X163300834Y-96287167D01*
X163512500Y-96287167D01*
X163639500Y-96329500D01*
X163724167Y-96414167D01*
X163766500Y-96498833D01*
X163808834Y-96668167D01*
X163808834Y-96795167D01*
X163766500Y-96964500D01*
X163724167Y-97049167D01*
X163639500Y-97133833D01*
X163512500Y-97176167D01*
X163300834Y-97176167D01*
X164316834Y-96668167D02*
X164232167Y-96625833D01*
X164189834Y-96583500D01*
X164147500Y-96498833D01*
X164147500Y-96456500D01*
X164189834Y-96371833D01*
X164232167Y-96329500D01*
X164316834Y-96287167D01*
X164486167Y-96287167D01*
X164570834Y-96329500D01*
X164613167Y-96371833D01*
X164655500Y-96456500D01*
X164655500Y-96498833D01*
X164613167Y-96583500D01*
X164570834Y-96625833D01*
X164486167Y-96668167D01*
X164316834Y-96668167D01*
X164232167Y-96710500D01*
X164189834Y-96752833D01*
X164147500Y-96837500D01*
X164147500Y-97006833D01*
X164189834Y-97091500D01*
X164232167Y-97133833D01*
X164316834Y-97176167D01*
X164486167Y-97176167D01*
X164570834Y-97133833D01*
X164613167Y-97091500D01*
X164655500Y-97006833D01*
X164655500Y-96837500D01*
X164613167Y-96752833D01*
X164570834Y-96710500D01*
X164486167Y-96668167D01*
D13*
D12*
X163343167Y-101887143D02*
X163343167Y-101601429D01*
X163597167Y-101944286D02*
X162708167Y-101744286D01*
X163597167Y-101544286D01*
X163597167Y-101344286D02*
X162708167Y-101344286D01*
X162708167Y-101115714D01*
X162750500Y-101058572D01*
X162792833Y-101030000D01*
X162877500Y-101001429D01*
X163004500Y-101001429D01*
X163089167Y-101030000D01*
X163131500Y-101058572D01*
X163173833Y-101115714D01*
X163173833Y-101344286D01*
X163343167Y-100772857D02*
X163343167Y-100487143D01*
X163597167Y-100830000D02*
X162708167Y-100630000D01*
X163597167Y-100430000D01*
X163597167Y-99915714D02*
X163597167Y-100258571D01*
X163597167Y-100087143D02*
X162708167Y-100087143D01*
X162835167Y-100144286D01*
X162919833Y-100201428D01*
X162962167Y-100258571D01*
X162708167Y-99544285D02*
X162708167Y-99487142D01*
X162750500Y-99429999D01*
X162792833Y-99401428D01*
X162877500Y-99372857D01*
X163046833Y-99344285D01*
X163258500Y-99344285D01*
X163427833Y-99372857D01*
X163512500Y-99401428D01*
X163554833Y-99429999D01*
X163597167Y-99487142D01*
X163597167Y-99544285D01*
X163554833Y-99601428D01*
X163512500Y-99629999D01*
X163427833Y-99658571D01*
X163258500Y-99687142D01*
X163046833Y-99687142D01*
X162877500Y-99658571D01*
X162792833Y-99629999D01*
X162750500Y-99601428D01*
X162708167Y-99544285D01*
X162792833Y-99115713D02*
X162750500Y-99087142D01*
X162708167Y-99029999D01*
X162708167Y-98887142D01*
X162750500Y-98829999D01*
X162792833Y-98801428D01*
X162877500Y-98772856D01*
X162962167Y-98772856D01*
X163089167Y-98801428D01*
X163597167Y-99144285D01*
X163597167Y-98772856D01*
D14*
X171090167Y-97176167D02*
X170666834Y-97176167D01*
X170666834Y-96287167D01*
X171386501Y-96710500D02*
X171682834Y-96710500D01*
X171809834Y-97176167D02*
X171386501Y-97176167D01*
X171386501Y-96287167D01*
X171809834Y-96287167D01*
X172190834Y-97176167D02*
X172190834Y-96287167D01*
X172402500Y-96287167D01*
X172529500Y-96329500D01*
X172614167Y-96414167D01*
X172656500Y-96498833D01*
X172698834Y-96668167D01*
X172698834Y-96795167D01*
X172656500Y-96964500D01*
X172614167Y-97049167D01*
X172529500Y-97133833D01*
X172402500Y-97176167D01*
X172190834Y-97176167D01*
X173122167Y-97176167D02*
X173291500Y-97176167D01*
X173376167Y-97133833D01*
X173418500Y-97091500D01*
X173503167Y-96964500D01*
X173545500Y-96795167D01*
X173545500Y-96456500D01*
X173503167Y-96371833D01*
X173460834Y-96329500D01*
X173376167Y-96287167D01*
X173206834Y-96287167D01*
X173122167Y-96329500D01*
X173079834Y-96371833D01*
X173037500Y-96456500D01*
X173037500Y-96668167D01*
X173079834Y-96752833D01*
X173122167Y-96795167D01*
X173206834Y-96837500D01*
X173376167Y-96837500D01*
X173460834Y-96795167D01*
X173503167Y-96752833D01*
X173545500Y-96668167D01*
D13*
D12*
X172233167Y-101887143D02*
X172233167Y-101601429D01*
X172487167Y-101944286D02*
X171598167Y-101744286D01*
X172487167Y-101544286D01*
X172487167Y-101344286D02*
X171598167Y-101344286D01*
X171598167Y-101115714D01*
X171640500Y-101058572D01*
X171682833Y-101030000D01*
X171767500Y-101001429D01*
X171894500Y-101001429D01*
X171979167Y-101030000D01*
X172021500Y-101058572D01*
X172063833Y-101115714D01*
X172063833Y-101344286D01*
X172233167Y-100772857D02*
X172233167Y-100487143D01*
X172487167Y-100830000D02*
X171598167Y-100630000D01*
X172487167Y-100430000D01*
X172487167Y-99915714D02*
X172487167Y-100258571D01*
X172487167Y-100087143D02*
X171598167Y-100087143D01*
X171725167Y-100144286D01*
X171809833Y-100201428D01*
X171852167Y-100258571D01*
X171598167Y-99544285D02*
X171598167Y-99487142D01*
X171640500Y-99429999D01*
X171682833Y-99401428D01*
X171767500Y-99372857D01*
X171936833Y-99344285D01*
X172148500Y-99344285D01*
X172317833Y-99372857D01*
X172402500Y-99401428D01*
X172444833Y-99429999D01*
X172487167Y-99487142D01*
X172487167Y-99544285D01*
X172444833Y-99601428D01*
X172402500Y-99629999D01*
X172317833Y-99658571D01*
X172148500Y-99687142D01*
X171936833Y-99687142D01*
X171767500Y-99658571D01*
X171682833Y-99629999D01*
X171640500Y-99601428D01*
X171598167Y-99544285D01*
X171682833Y-99115713D02*
X171640500Y-99087142D01*
X171598167Y-99029999D01*
X171598167Y-98887142D01*
X171640500Y-98829999D01*
X171682833Y-98801428D01*
X171767500Y-98772856D01*
X171852167Y-98772856D01*
X171979167Y-98801428D01*
X172487167Y-99144285D01*
X172487167Y-98772856D01*
D14*
X179556833Y-97176167D02*
X179133500Y-97176167D01*
X179133500Y-96287167D01*
X179853167Y-96710500D02*
X180149500Y-96710500D01*
X180276500Y-97176167D02*
X179853167Y-97176167D01*
X179853167Y-96287167D01*
X180276500Y-96287167D01*
X180657500Y-97176167D02*
X180657500Y-96287167D01*
X180869166Y-96287167D01*
X180996166Y-96329500D01*
X181080833Y-96414167D01*
X181123166Y-96498833D01*
X181165500Y-96668167D01*
X181165500Y-96795167D01*
X181123166Y-96964500D01*
X181080833Y-97049167D01*
X180996166Y-97133833D01*
X180869166Y-97176167D01*
X180657500Y-97176167D01*
X182012166Y-97176167D02*
X181504166Y-97176167D01*
X181758166Y-97176167D02*
X181758166Y-96287167D01*
X181673500Y-96414167D01*
X181588833Y-96498833D01*
X181504166Y-96541167D01*
X182562500Y-96287167D02*
X182647167Y-96287167D01*
X182731833Y-96329500D01*
X182774167Y-96371833D01*
X182816500Y-96456500D01*
X182858833Y-96625833D01*
X182858833Y-96837500D01*
X182816500Y-97006833D01*
X182774167Y-97091500D01*
X182731833Y-97133833D01*
X182647167Y-97176167D01*
X182562500Y-97176167D01*
X182477833Y-97133833D01*
X182435500Y-97091500D01*
X182393167Y-97006833D01*
X182350833Y-96837500D01*
X182350833Y-96625833D01*
X182393167Y-96456500D01*
X182435500Y-96371833D01*
X182477833Y-96329500D01*
X182562500Y-96287167D01*
D13*
D12*
X181123167Y-101887143D02*
X181123167Y-101601429D01*
X181377167Y-101944286D02*
X180488167Y-101744286D01*
X181377167Y-101544286D01*
X181377167Y-101344286D02*
X180488167Y-101344286D01*
X180488167Y-101115714D01*
X180530500Y-101058572D01*
X180572833Y-101030000D01*
X180657500Y-101001429D01*
X180784500Y-101001429D01*
X180869167Y-101030000D01*
X180911500Y-101058572D01*
X180953833Y-101115714D01*
X180953833Y-101344286D01*
X181123167Y-100772857D02*
X181123167Y-100487143D01*
X181377167Y-100830000D02*
X180488167Y-100630000D01*
X181377167Y-100430000D01*
X181377167Y-99915714D02*
X181377167Y-100258571D01*
X181377167Y-100087143D02*
X180488167Y-100087143D01*
X180615167Y-100144286D01*
X180699833Y-100201428D01*
X180742167Y-100258571D01*
X180488167Y-99544285D02*
X180488167Y-99487142D01*
X180530500Y-99429999D01*
X180572833Y-99401428D01*
X180657500Y-99372857D01*
X180826833Y-99344285D01*
X181038500Y-99344285D01*
X181207833Y-99372857D01*
X181292500Y-99401428D01*
X181334833Y-99429999D01*
X181377167Y-99487142D01*
X181377167Y-99544285D01*
X181334833Y-99601428D01*
X181292500Y-99629999D01*
X181207833Y-99658571D01*
X181038500Y-99687142D01*
X180826833Y-99687142D01*
X180657500Y-99658571D01*
X180572833Y-99629999D01*
X180530500Y-99601428D01*
X180488167Y-99544285D01*
X180572833Y-99115713D02*
X180530500Y-99087142D01*
X180488167Y-99029999D01*
X180488167Y-98887142D01*
X180530500Y-98829999D01*
X180572833Y-98801428D01*
X180657500Y-98772856D01*
X180742167Y-98772856D01*
X180869167Y-98801428D01*
X181377167Y-99144285D01*
X181377167Y-98772856D01*
D14*
X188446833Y-97176167D02*
X188023500Y-97176167D01*
X188023500Y-96287167D01*
X188743167Y-96710500D02*
X189039500Y-96710500D01*
X189166500Y-97176167D02*
X188743167Y-97176167D01*
X188743167Y-96287167D01*
X189166500Y-96287167D01*
X189547500Y-97176167D02*
X189547500Y-96287167D01*
X189759166Y-96287167D01*
X189886166Y-96329500D01*
X189970833Y-96414167D01*
X190013166Y-96498833D01*
X190055500Y-96668167D01*
X190055500Y-96795167D01*
X190013166Y-96964500D01*
X189970833Y-97049167D01*
X189886166Y-97133833D01*
X189759166Y-97176167D01*
X189547500Y-97176167D01*
X190902166Y-97176167D02*
X190394166Y-97176167D01*
X190648166Y-97176167D02*
X190648166Y-96287167D01*
X190563500Y-96414167D01*
X190478833Y-96498833D01*
X190394166Y-96541167D01*
X191748833Y-97176167D02*
X191240833Y-97176167D01*
X191494833Y-97176167D02*
X191494833Y-96287167D01*
X191410167Y-96414167D01*
X191325500Y-96498833D01*
X191240833Y-96541167D01*
D13*
D12*
X190013167Y-101887143D02*
X190013167Y-101601429D01*
X190267167Y-101944286D02*
X189378167Y-101744286D01*
X190267167Y-101544286D01*
X190267167Y-101344286D02*
X189378167Y-101344286D01*
X189378167Y-101115714D01*
X189420500Y-101058572D01*
X189462833Y-101030000D01*
X189547500Y-101001429D01*
X189674500Y-101001429D01*
X189759167Y-101030000D01*
X189801500Y-101058572D01*
X189843833Y-101115714D01*
X189843833Y-101344286D01*
X190013167Y-100772857D02*
X190013167Y-100487143D01*
X190267167Y-100830000D02*
X189378167Y-100630000D01*
X190267167Y-100430000D01*
X190267167Y-99915714D02*
X190267167Y-100258571D01*
X190267167Y-100087143D02*
X189378167Y-100087143D01*
X189505167Y-100144286D01*
X189589833Y-100201428D01*
X189632167Y-100258571D01*
X189378167Y-99544285D02*
X189378167Y-99487142D01*
X189420500Y-99429999D01*
X189462833Y-99401428D01*
X189547500Y-99372857D01*
X189716833Y-99344285D01*
X189928500Y-99344285D01*
X190097833Y-99372857D01*
X190182500Y-99401428D01*
X190224833Y-99429999D01*
X190267167Y-99487142D01*
X190267167Y-99544285D01*
X190224833Y-99601428D01*
X190182500Y-99629999D01*
X190097833Y-99658571D01*
X189928500Y-99687142D01*
X189716833Y-99687142D01*
X189547500Y-99658571D01*
X189462833Y-99629999D01*
X189420500Y-99601428D01*
X189378167Y-99544285D01*
X189462833Y-99115713D02*
X189420500Y-99087142D01*
X189378167Y-99029999D01*
X189378167Y-98887142D01*
X189420500Y-98829999D01*
X189462833Y-98801428D01*
X189547500Y-98772856D01*
X189632167Y-98772856D01*
X189759167Y-98801428D01*
X190267167Y-99144285D01*
X190267167Y-98772856D01*
D14*
X197336833Y-97176167D02*
X196913500Y-97176167D01*
X196913500Y-96287167D01*
X197633167Y-96710500D02*
X197929500Y-96710500D01*
X198056500Y-97176167D02*
X197633167Y-97176167D01*
X197633167Y-96287167D01*
X198056500Y-96287167D01*
X198437500Y-97176167D02*
X198437500Y-96287167D01*
X198649166Y-96287167D01*
X198776166Y-96329500D01*
X198860833Y-96414167D01*
X198903166Y-96498833D01*
X198945500Y-96668167D01*
X198945500Y-96795167D01*
X198903166Y-96964500D01*
X198860833Y-97049167D01*
X198776166Y-97133833D01*
X198649166Y-97176167D01*
X198437500Y-97176167D01*
X199792166Y-97176167D02*
X199284166Y-97176167D01*
X199538166Y-97176167D02*
X199538166Y-96287167D01*
X199453500Y-96414167D01*
X199368833Y-96498833D01*
X199284166Y-96541167D01*
X200130833Y-96371833D02*
X200173167Y-96329500D01*
X200257833Y-96287167D01*
X200469500Y-96287167D01*
X200554167Y-96329500D01*
X200596500Y-96371833D01*
X200638833Y-96456500D01*
X200638833Y-96541167D01*
X200596500Y-96668167D01*
X200088500Y-97176167D01*
X200638833Y-97176167D01*
D13*
D12*
X198903167Y-101887143D02*
X198903167Y-101601429D01*
X199157167Y-101944286D02*
X198268167Y-101744286D01*
X199157167Y-101544286D01*
X199157167Y-101344286D02*
X198268167Y-101344286D01*
X198268167Y-101115714D01*
X198310500Y-101058572D01*
X198352833Y-101030000D01*
X198437500Y-101001429D01*
X198564500Y-101001429D01*
X198649167Y-101030000D01*
X198691500Y-101058572D01*
X198733833Y-101115714D01*
X198733833Y-101344286D01*
X198903167Y-100772857D02*
X198903167Y-100487143D01*
X199157167Y-100830000D02*
X198268167Y-100630000D01*
X199157167Y-100430000D01*
X199157167Y-99915714D02*
X199157167Y-100258571D01*
X199157167Y-100087143D02*
X198268167Y-100087143D01*
X198395167Y-100144286D01*
X198479833Y-100201428D01*
X198522167Y-100258571D01*
X198268167Y-99544285D02*
X198268167Y-99487142D01*
X198310500Y-99429999D01*
X198352833Y-99401428D01*
X198437500Y-99372857D01*
X198606833Y-99344285D01*
X198818500Y-99344285D01*
X198987833Y-99372857D01*
X199072500Y-99401428D01*
X199114833Y-99429999D01*
X199157167Y-99487142D01*
X199157167Y-99544285D01*
X199114833Y-99601428D01*
X199072500Y-99629999D01*
X198987833Y-99658571D01*
X198818500Y-99687142D01*
X198606833Y-99687142D01*
X198437500Y-99658571D01*
X198352833Y-99629999D01*
X198310500Y-99601428D01*
X198268167Y-99544285D01*
X198352833Y-99115713D02*
X198310500Y-99087142D01*
X198268167Y-99029999D01*
X198268167Y-98887142D01*
X198310500Y-98829999D01*
X198352833Y-98801428D01*
X198437500Y-98772856D01*
X198522167Y-98772856D01*
X198649167Y-98801428D01*
X199157167Y-99144285D01*
X199157167Y-98772856D01*
D14*
X206226833Y-97176167D02*
X205803500Y-97176167D01*
X205803500Y-96287167D01*
X206523167Y-96710500D02*
X206819500Y-96710500D01*
X206946500Y-97176167D02*
X206523167Y-97176167D01*
X206523167Y-96287167D01*
X206946500Y-96287167D01*
X207327500Y-97176167D02*
X207327500Y-96287167D01*
X207539166Y-96287167D01*
X207666166Y-96329500D01*
X207750833Y-96414167D01*
X207793166Y-96498833D01*
X207835500Y-96668167D01*
X207835500Y-96795167D01*
X207793166Y-96964500D01*
X207750833Y-97049167D01*
X207666166Y-97133833D01*
X207539166Y-97176167D01*
X207327500Y-97176167D01*
X208682166Y-97176167D02*
X208174166Y-97176167D01*
X208428166Y-97176167D02*
X208428166Y-96287167D01*
X208343500Y-96414167D01*
X208258833Y-96498833D01*
X208174166Y-96541167D01*
X208978500Y-96287167D02*
X209528833Y-96287167D01*
X209232500Y-96625833D01*
X209359500Y-96625833D01*
X209444167Y-96668167D01*
X209486500Y-96710500D01*
X209528833Y-96795167D01*
X209528833Y-97006833D01*
X209486500Y-97091500D01*
X209444167Y-97133833D01*
X209359500Y-97176167D01*
X209105500Y-97176167D01*
X209020833Y-97133833D01*
X208978500Y-97091500D01*
D13*
D12*
X207793167Y-101887143D02*
X207793167Y-101601429D01*
X208047167Y-101944286D02*
X207158167Y-101744286D01*
X208047167Y-101544286D01*
X208047167Y-101344286D02*
X207158167Y-101344286D01*
X207158167Y-101115714D01*
X207200500Y-101058572D01*
X207242833Y-101030000D01*
X207327500Y-101001429D01*
X207454500Y-101001429D01*
X207539167Y-101030000D01*
X207581500Y-101058572D01*
X207623833Y-101115714D01*
X207623833Y-101344286D01*
X207793167Y-100772857D02*
X207793167Y-100487143D01*
X208047167Y-100830000D02*
X207158167Y-100630000D01*
X208047167Y-100430000D01*
X208047167Y-99915714D02*
X208047167Y-100258571D01*
X208047167Y-100087143D02*
X207158167Y-100087143D01*
X207285167Y-100144286D01*
X207369833Y-100201428D01*
X207412167Y-100258571D01*
X207158167Y-99544285D02*
X207158167Y-99487142D01*
X207200500Y-99429999D01*
X207242833Y-99401428D01*
X207327500Y-99372857D01*
X207496833Y-99344285D01*
X207708500Y-99344285D01*
X207877833Y-99372857D01*
X207962500Y-99401428D01*
X208004833Y-99429999D01*
X208047167Y-99487142D01*
X208047167Y-99544285D01*
X208004833Y-99601428D01*
X207962500Y-99629999D01*
X207877833Y-99658571D01*
X207708500Y-99687142D01*
X207496833Y-99687142D01*
X207327500Y-99658571D01*
X207242833Y-99629999D01*
X207200500Y-99601428D01*
X207158167Y-99544285D01*
X207242833Y-99115713D02*
X207200500Y-99087142D01*
X207158167Y-99029999D01*
X207158167Y-98887142D01*
X207200500Y-98829999D01*
X207242833Y-98801428D01*
X207327500Y-98772856D01*
X207412167Y-98772856D01*
X207539167Y-98801428D01*
X208047167Y-99144285D01*
X208047167Y-98772856D01*
D14*
X215116833Y-97176167D02*
X214693500Y-97176167D01*
X214693500Y-96287167D01*
X215413167Y-96710500D02*
X215709500Y-96710500D01*
X215836500Y-97176167D02*
X215413167Y-97176167D01*
X215413167Y-96287167D01*
X215836500Y-96287167D01*
X216217500Y-97176167D02*
X216217500Y-96287167D01*
X216429166Y-96287167D01*
X216556166Y-96329500D01*
X216640833Y-96414167D01*
X216683166Y-96498833D01*
X216725500Y-96668167D01*
X216725500Y-96795167D01*
X216683166Y-96964500D01*
X216640833Y-97049167D01*
X216556166Y-97133833D01*
X216429166Y-97176167D01*
X216217500Y-97176167D01*
X217572166Y-97176167D02*
X217064166Y-97176167D01*
X217318166Y-97176167D02*
X217318166Y-96287167D01*
X217233500Y-96414167D01*
X217148833Y-96498833D01*
X217064166Y-96541167D01*
X218334167Y-96583500D02*
X218334167Y-97176167D01*
X218122500Y-96244833D02*
X217910833Y-96879833D01*
X218461167Y-96879833D01*
D13*
D12*
X216683167Y-101887143D02*
X216683167Y-101601429D01*
X216937167Y-101944286D02*
X216048167Y-101744286D01*
X216937167Y-101544286D01*
X216937167Y-101344286D02*
X216048167Y-101344286D01*
X216048167Y-101115714D01*
X216090500Y-101058572D01*
X216132833Y-101030000D01*
X216217500Y-101001429D01*
X216344500Y-101001429D01*
X216429167Y-101030000D01*
X216471500Y-101058572D01*
X216513833Y-101115714D01*
X216513833Y-101344286D01*
X216683167Y-100772857D02*
X216683167Y-100487143D01*
X216937167Y-100830000D02*
X216048167Y-100630000D01*
X216937167Y-100430000D01*
X216937167Y-99915714D02*
X216937167Y-100258571D01*
X216937167Y-100087143D02*
X216048167Y-100087143D01*
X216175167Y-100144286D01*
X216259833Y-100201428D01*
X216302167Y-100258571D01*
X216048167Y-99544285D02*
X216048167Y-99487142D01*
X216090500Y-99429999D01*
X216132833Y-99401428D01*
X216217500Y-99372857D01*
X216386833Y-99344285D01*
X216598500Y-99344285D01*
X216767833Y-99372857D01*
X216852500Y-99401428D01*
X216894833Y-99429999D01*
X216937167Y-99487142D01*
X216937167Y-99544285D01*
X216894833Y-99601428D01*
X216852500Y-99629999D01*
X216767833Y-99658571D01*
X216598500Y-99687142D01*
X216386833Y-99687142D01*
X216217500Y-99658571D01*
X216132833Y-99629999D01*
X216090500Y-99601428D01*
X216048167Y-99544285D01*
X216132833Y-99115713D02*
X216090500Y-99087142D01*
X216048167Y-99029999D01*
X216048167Y-98887142D01*
X216090500Y-98829999D01*
X216132833Y-98801428D01*
X216217500Y-98772856D01*
X216302167Y-98772856D01*
X216429167Y-98801428D01*
X216937167Y-99144285D01*
X216937167Y-98772856D01*
D14*
X224006833Y-97176167D02*
X223583500Y-97176167D01*
X223583500Y-96287167D01*
X224303167Y-96710500D02*
X224599500Y-96710500D01*
X224726500Y-97176167D02*
X224303167Y-97176167D01*
X224303167Y-96287167D01*
X224726500Y-96287167D01*
X225107500Y-97176167D02*
X225107500Y-96287167D01*
X225319166Y-96287167D01*
X225446166Y-96329500D01*
X225530833Y-96414167D01*
X225573166Y-96498833D01*
X225615500Y-96668167D01*
X225615500Y-96795167D01*
X225573166Y-96964500D01*
X225530833Y-97049167D01*
X225446166Y-97133833D01*
X225319166Y-97176167D01*
X225107500Y-97176167D01*
X226462166Y-97176167D02*
X225954166Y-97176167D01*
X226208166Y-97176167D02*
X226208166Y-96287167D01*
X226123500Y-96414167D01*
X226038833Y-96498833D01*
X225954166Y-96541167D01*
X227266500Y-96287167D02*
X226843167Y-96287167D01*
X226800833Y-96710500D01*
X226843167Y-96668167D01*
X226927833Y-96625833D01*
X227139500Y-96625833D01*
X227224167Y-96668167D01*
X227266500Y-96710500D01*
X227308833Y-96795167D01*
X227308833Y-97006833D01*
X227266500Y-97091500D01*
X227224167Y-97133833D01*
X227139500Y-97176167D01*
X226927833Y-97176167D01*
X226843167Y-97133833D01*
X226800833Y-97091500D01*
D13*
D12*
X225573167Y-101887143D02*
X225573167Y-101601429D01*
X225827167Y-101944286D02*
X224938167Y-101744286D01*
X225827167Y-101544286D01*
X225827167Y-101344286D02*
X224938167Y-101344286D01*
X224938167Y-101115714D01*
X224980500Y-101058572D01*
X225022833Y-101030000D01*
X225107500Y-101001429D01*
X225234500Y-101001429D01*
X225319167Y-101030000D01*
X225361500Y-101058572D01*
X225403833Y-101115714D01*
X225403833Y-101344286D01*
X225573167Y-100772857D02*
X225573167Y-100487143D01*
X225827167Y-100830000D02*
X224938167Y-100630000D01*
X225827167Y-100430000D01*
X225827167Y-99915714D02*
X225827167Y-100258571D01*
X225827167Y-100087143D02*
X224938167Y-100087143D01*
X225065167Y-100144286D01*
X225149833Y-100201428D01*
X225192167Y-100258571D01*
X224938167Y-99544285D02*
X224938167Y-99487142D01*
X224980500Y-99429999D01*
X225022833Y-99401428D01*
X225107500Y-99372857D01*
X225276833Y-99344285D01*
X225488500Y-99344285D01*
X225657833Y-99372857D01*
X225742500Y-99401428D01*
X225784833Y-99429999D01*
X225827167Y-99487142D01*
X225827167Y-99544285D01*
X225784833Y-99601428D01*
X225742500Y-99629999D01*
X225657833Y-99658571D01*
X225488500Y-99687142D01*
X225276833Y-99687142D01*
X225107500Y-99658571D01*
X225022833Y-99629999D01*
X224980500Y-99601428D01*
X224938167Y-99544285D01*
X225022833Y-99115713D02*
X224980500Y-99087142D01*
X224938167Y-99029999D01*
X224938167Y-98887142D01*
X224980500Y-98829999D01*
X225022833Y-98801428D01*
X225107500Y-98772856D01*
X225192167Y-98772856D01*
X225319167Y-98801428D01*
X225827167Y-99144285D01*
X225827167Y-98772856D01*
D14*
X232896833Y-97176167D02*
X232473500Y-97176167D01*
X232473500Y-96287167D01*
X233193167Y-96710500D02*
X233489500Y-96710500D01*
X233616500Y-97176167D02*
X233193167Y-97176167D01*
X233193167Y-96287167D01*
X233616500Y-96287167D01*
X233997500Y-97176167D02*
X233997500Y-96287167D01*
X234209166Y-96287167D01*
X234336166Y-96329500D01*
X234420833Y-96414167D01*
X234463166Y-96498833D01*
X234505500Y-96668167D01*
X234505500Y-96795167D01*
X234463166Y-96964500D01*
X234420833Y-97049167D01*
X234336166Y-97133833D01*
X234209166Y-97176167D01*
X233997500Y-97176167D01*
X235352166Y-97176167D02*
X234844166Y-97176167D01*
X235098166Y-97176167D02*
X235098166Y-96287167D01*
X235013500Y-96414167D01*
X234928833Y-96498833D01*
X234844166Y-96541167D01*
X236114167Y-96287167D02*
X235944833Y-96287167D01*
X235860167Y-96329500D01*
X235817833Y-96371833D01*
X235733167Y-96498833D01*
X235690833Y-96668167D01*
X235690833Y-97006833D01*
X235733167Y-97091500D01*
X235775500Y-97133833D01*
X235860167Y-97176167D01*
X236029500Y-97176167D01*
X236114167Y-97133833D01*
X236156500Y-97091500D01*
X236198833Y-97006833D01*
X236198833Y-96795167D01*
X236156500Y-96710500D01*
X236114167Y-96668167D01*
X236029500Y-96625833D01*
X235860167Y-96625833D01*
X235775500Y-96668167D01*
X235733167Y-96710500D01*
X235690833Y-96795167D01*
D13*
D12*
X234463167Y-101887143D02*
X234463167Y-101601429D01*
X234717167Y-101944286D02*
X233828167Y-101744286D01*
X234717167Y-101544286D01*
X234717167Y-101344286D02*
X233828167Y-101344286D01*
X233828167Y-101115714D01*
X233870500Y-101058572D01*
X233912833Y-101030000D01*
X233997500Y-101001429D01*
X234124500Y-101001429D01*
X234209167Y-101030000D01*
X234251500Y-101058572D01*
X234293833Y-101115714D01*
X234293833Y-101344286D01*
X234463167Y-100772857D02*
X234463167Y-100487143D01*
X234717167Y-100830000D02*
X233828167Y-100630000D01*
X234717167Y-100430000D01*
X234717167Y-99915714D02*
X234717167Y-100258571D01*
X234717167Y-100087143D02*
X233828167Y-100087143D01*
X233955167Y-100144286D01*
X234039833Y-100201428D01*
X234082167Y-100258571D01*
X233828167Y-99544285D02*
X233828167Y-99487142D01*
X233870500Y-99429999D01*
X233912833Y-99401428D01*
X233997500Y-99372857D01*
X234166833Y-99344285D01*
X234378500Y-99344285D01*
X234547833Y-99372857D01*
X234632500Y-99401428D01*
X234674833Y-99429999D01*
X234717167Y-99487142D01*
X234717167Y-99544285D01*
X234674833Y-99601428D01*
X234632500Y-99629999D01*
X234547833Y-99658571D01*
X234378500Y-99687142D01*
X234166833Y-99687142D01*
X233997500Y-99658571D01*
X233912833Y-99629999D01*
X233870500Y-99601428D01*
X233828167Y-99544285D01*
X233912833Y-99115713D02*
X233870500Y-99087142D01*
X233828167Y-99029999D01*
X233828167Y-98887142D01*
X233870500Y-98829999D01*
X233912833Y-98801428D01*
X233997500Y-98772856D01*
X234082167Y-98772856D01*
X234209167Y-98801428D01*
X234717167Y-99144285D01*
X234717167Y-98772856D01*
D14*
X241786833Y-97176167D02*
X241363500Y-97176167D01*
X241363500Y-96287167D01*
X242083167Y-96710500D02*
X242379500Y-96710500D01*
X242506500Y-97176167D02*
X242083167Y-97176167D01*
X242083167Y-96287167D01*
X242506500Y-96287167D01*
X242887500Y-97176167D02*
X242887500Y-96287167D01*
X243099166Y-96287167D01*
X243226166Y-96329500D01*
X243310833Y-96414167D01*
X243353166Y-96498833D01*
X243395500Y-96668167D01*
X243395500Y-96795167D01*
X243353166Y-96964500D01*
X243310833Y-97049167D01*
X243226166Y-97133833D01*
X243099166Y-97176167D01*
X242887500Y-97176167D01*
X244242166Y-97176167D02*
X243734166Y-97176167D01*
X243988166Y-97176167D02*
X243988166Y-96287167D01*
X243903500Y-96414167D01*
X243818833Y-96498833D01*
X243734166Y-96541167D01*
X244538500Y-96287167D02*
X245131167Y-96287167D01*
X244750167Y-97176167D01*
D13*
D12*
X243353167Y-101887143D02*
X243353167Y-101601429D01*
X243607167Y-101944286D02*
X242718167Y-101744286D01*
X243607167Y-101544286D01*
X243607167Y-101344286D02*
X242718167Y-101344286D01*
X242718167Y-101115714D01*
X242760500Y-101058572D01*
X242802833Y-101030000D01*
X242887500Y-101001429D01*
X243014500Y-101001429D01*
X243099167Y-101030000D01*
X243141500Y-101058572D01*
X243183833Y-101115714D01*
X243183833Y-101344286D01*
X243353167Y-100772857D02*
X243353167Y-100487143D01*
X243607167Y-100830000D02*
X242718167Y-100630000D01*
X243607167Y-100430000D01*
X243607167Y-99915714D02*
X243607167Y-100258571D01*
X243607167Y-100087143D02*
X242718167Y-100087143D01*
X242845167Y-100144286D01*
X242929833Y-100201428D01*
X242972167Y-100258571D01*
X242718167Y-99544285D02*
X242718167Y-99487142D01*
X242760500Y-99429999D01*
X242802833Y-99401428D01*
X242887500Y-99372857D01*
X243056833Y-99344285D01*
X243268500Y-99344285D01*
X243437833Y-99372857D01*
X243522500Y-99401428D01*
X243564833Y-99429999D01*
X243607167Y-99487142D01*
X243607167Y-99544285D01*
X243564833Y-99601428D01*
X243522500Y-99629999D01*
X243437833Y-99658571D01*
X243268500Y-99687142D01*
X243056833Y-99687142D01*
X242887500Y-99658571D01*
X242802833Y-99629999D01*
X242760500Y-99601428D01*
X242718167Y-99544285D01*
X242802833Y-99115713D02*
X242760500Y-99087142D01*
X242718167Y-99029999D01*
X242718167Y-98887142D01*
X242760500Y-98829999D01*
X242802833Y-98801428D01*
X242887500Y-98772856D01*
X242972167Y-98772856D01*
X243099167Y-98801428D01*
X243607167Y-99144285D01*
X243607167Y-98772856D01*
X32027905Y-103830381D02*
X32027905Y-102830381D01*
X32408858Y-102830381D01*
X32504096Y-102878000D01*
X32551715Y-102925619D01*
X32599334Y-103020857D01*
X32599334Y-103163714D01*
X32551715Y-103258952D01*
X32504096Y-103306571D01*
X32408858Y-103354190D01*
X32027905Y-103354190D01*
X33551715Y-103830381D02*
X32980286Y-103830381D01*
X33266000Y-103830381D02*
X33266000Y-102830381D01*
X33170762Y-102973238D01*
X33075524Y-103068476D01*
X32980286Y-103116095D01*
X40409905Y-103322381D02*
X40409905Y-102322381D01*
X40790858Y-102322381D01*
X40886096Y-102370000D01*
X40933715Y-102417619D01*
X40981334Y-102512857D01*
X40981334Y-102655714D01*
X40933715Y-102750952D01*
X40886096Y-102798571D01*
X40790858Y-102846190D01*
X40409905Y-102846190D01*
X41362286Y-102417619D02*
X41409905Y-102370000D01*
X41505143Y-102322381D01*
X41743239Y-102322381D01*
X41838477Y-102370000D01*
X41886096Y-102417619D01*
X41933715Y-102512857D01*
X41933715Y-102608095D01*
X41886096Y-102750952D01*
X41314667Y-103322381D01*
X41933715Y-103322381D01*
X93305334Y-95702381D02*
X92972000Y-95226190D01*
X92733905Y-95702381D02*
X92733905Y-94702381D01*
X93114858Y-94702381D01*
X93210096Y-94750000D01*
X93257715Y-94797619D01*
X93305334Y-94892857D01*
X93305334Y-95035714D01*
X93257715Y-95130952D01*
X93210096Y-95178571D01*
X93114858Y-95226190D01*
X92733905Y-95226190D01*
X94257715Y-95702381D02*
X93686286Y-95702381D01*
X93972000Y-95702381D02*
X93972000Y-94702381D01*
X93876762Y-94845238D01*
X93781524Y-94940476D01*
X93686286Y-94988095D01*
X93305334Y-102882381D02*
X92972000Y-102406190D01*
X92733905Y-102882381D02*
X92733905Y-101882381D01*
X93114858Y-101882381D01*
X93210096Y-101930000D01*
X93257715Y-101977619D01*
X93305334Y-102072857D01*
X93305334Y-102215714D01*
X93257715Y-102310952D01*
X93210096Y-102358571D01*
X93114858Y-102406190D01*
X92733905Y-102406190D01*
X93686286Y-101977619D02*
X93733905Y-101930000D01*
X93829143Y-101882381D01*
X94067239Y-101882381D01*
X94162477Y-101930000D01*
X94210096Y-101977619D01*
X94257715Y-102072857D01*
X94257715Y-102168095D01*
X94210096Y-102310952D01*
X93638667Y-102882381D01*
X94257715Y-102882381D01*
X72477334Y-91130381D02*
X72144000Y-90654190D01*
X71905905Y-91130381D02*
X71905905Y-90130381D01*
X72286858Y-90130381D01*
X72382096Y-90178000D01*
X72429715Y-90225619D01*
X72477334Y-90320857D01*
X72477334Y-90463714D01*
X72429715Y-90558952D01*
X72382096Y-90606571D01*
X72286858Y-90654190D01*
X71905905Y-90654190D01*
X72810667Y-90130381D02*
X73429715Y-90130381D01*
X73096381Y-90511333D01*
X73239239Y-90511333D01*
X73334477Y-90558952D01*
X73382096Y-90606571D01*
X73429715Y-90701810D01*
X73429715Y-90939905D01*
X73382096Y-91035143D01*
X73334477Y-91082762D01*
X73239239Y-91130381D01*
X72953524Y-91130381D01*
X72858286Y-91082762D01*
X72810667Y-91035143D01*
X81621334Y-96718381D02*
X81288000Y-96242190D01*
X81049905Y-96718381D02*
X81049905Y-95718381D01*
X81430858Y-95718381D01*
X81526096Y-95766000D01*
X81573715Y-95813619D01*
X81621334Y-95908857D01*
X81621334Y-96051714D01*
X81573715Y-96146952D01*
X81526096Y-96194571D01*
X81430858Y-96242190D01*
X81049905Y-96242190D01*
X82478477Y-96051714D02*
X82478477Y-96718381D01*
X82240381Y-95670762D02*
X82002286Y-96385048D01*
X82621334Y-96385048D01*
X45045334Y-94686381D02*
X44712000Y-94210190D01*
X44473905Y-94686381D02*
X44473905Y-93686381D01*
X44854858Y-93686381D01*
X44950096Y-93734000D01*
X44997715Y-93781619D01*
X45045334Y-93876857D01*
X45045334Y-94019714D01*
X44997715Y-94114952D01*
X44950096Y-94162571D01*
X44854858Y-94210190D01*
X44473905Y-94210190D01*
X45950096Y-93686381D02*
X45473905Y-93686381D01*
X45426286Y-94162571D01*
X45473905Y-94114952D01*
X45569143Y-94067333D01*
X45807239Y-94067333D01*
X45902477Y-94114952D01*
X45950096Y-94162571D01*
X45997715Y-94257810D01*
X45997715Y-94495905D01*
X45950096Y-94591143D01*
X45902477Y-94638762D01*
X45807239Y-94686381D01*
X45569143Y-94686381D01*
X45473905Y-94638762D01*
X45426286Y-94591143D01*
X42060762Y-116141333D02*
X42108381Y-115998476D01*
X42108381Y-115760380D01*
X42060762Y-115665142D01*
X42013143Y-115617523D01*
X41917905Y-115569904D01*
X41822667Y-115569904D01*
X41727429Y-115617523D01*
X41679810Y-115665142D01*
X41632190Y-115760380D01*
X41584571Y-115950857D01*
X41536952Y-116046095D01*
X41489333Y-116093714D01*
X41394095Y-116141333D01*
X41298857Y-116141333D01*
X41203619Y-116093714D01*
X41156000Y-116046095D01*
X41108381Y-115950857D01*
X41108381Y-115712761D01*
X41156000Y-115569904D01*
X41108381Y-115236571D02*
X42108381Y-114998476D01*
X41394095Y-114807999D01*
X42108381Y-114617523D01*
X41108381Y-114379428D01*
X42108381Y-113474666D02*
X42108381Y-114046095D01*
X42108381Y-113760381D02*
X41108381Y-113760381D01*
X41251238Y-113855619D01*
X41346476Y-113950857D01*
X41394095Y-114046095D01*
X51712762Y-116141333D02*
X51760381Y-115998476D01*
X51760381Y-115760380D01*
X51712762Y-115665142D01*
X51665143Y-115617523D01*
X51569905Y-115569904D01*
X51474667Y-115569904D01*
X51379429Y-115617523D01*
X51331810Y-115665142D01*
X51284190Y-115760380D01*
X51236571Y-115950857D01*
X51188952Y-116046095D01*
X51141333Y-116093714D01*
X51046095Y-116141333D01*
X50950857Y-116141333D01*
X50855619Y-116093714D01*
X50808000Y-116046095D01*
X50760381Y-115950857D01*
X50760381Y-115712761D01*
X50808000Y-115569904D01*
X50760381Y-115236571D02*
X51760381Y-114998476D01*
X51046095Y-114807999D01*
X51760381Y-114617523D01*
X50760381Y-114379428D01*
X50855619Y-114046095D02*
X50808000Y-113998476D01*
X50760381Y-113903238D01*
X50760381Y-113665142D01*
X50808000Y-113569904D01*
X50855619Y-113522285D01*
X50950857Y-113474666D01*
X51046095Y-113474666D01*
X51188952Y-113522285D01*
X51760381Y-114093714D01*
X51760381Y-113474666D01*
X61364762Y-116141333D02*
X61412381Y-115998476D01*
X61412381Y-115760380D01*
X61364762Y-115665142D01*
X61317143Y-115617523D01*
X61221905Y-115569904D01*
X61126667Y-115569904D01*
X61031429Y-115617523D01*
X60983810Y-115665142D01*
X60936190Y-115760380D01*
X60888571Y-115950857D01*
X60840952Y-116046095D01*
X60793333Y-116093714D01*
X60698095Y-116141333D01*
X60602857Y-116141333D01*
X60507619Y-116093714D01*
X60460000Y-116046095D01*
X60412381Y-115950857D01*
X60412381Y-115712761D01*
X60460000Y-115569904D01*
X60412381Y-115236571D02*
X61412381Y-114998476D01*
X60698095Y-114807999D01*
X61412381Y-114617523D01*
X60412381Y-114379428D01*
X60412381Y-114093714D02*
X60412381Y-113474666D01*
X60793333Y-113808000D01*
X60793333Y-113665142D01*
X60840952Y-113569904D01*
X60888571Y-113522285D01*
X60983810Y-113474666D01*
X61221905Y-113474666D01*
X61317143Y-113522285D01*
X61364762Y-113569904D01*
X61412381Y-113665142D01*
X61412381Y-113950857D01*
X61364762Y-114046095D01*
X61317143Y-114093714D01*
X58999619Y-83764381D02*
X58666285Y-83288190D01*
X58428190Y-83764381D02*
X58428190Y-82764381D01*
X58809143Y-82764381D01*
X58904381Y-82812000D01*
X58952000Y-82859619D01*
X58999619Y-82954857D01*
X58999619Y-83097714D01*
X58952000Y-83192952D01*
X58904381Y-83240571D01*
X58809143Y-83288190D01*
X58428190Y-83288190D01*
X59428190Y-83240571D02*
X59761524Y-83240571D01*
X59904381Y-83764381D02*
X59428190Y-83764381D01*
X59428190Y-82764381D01*
X59904381Y-82764381D01*
X60285333Y-83716762D02*
X60428190Y-83764381D01*
X60666286Y-83764381D01*
X60761524Y-83716762D01*
X60809143Y-83669143D01*
X60856762Y-83573905D01*
X60856762Y-83478667D01*
X60809143Y-83383429D01*
X60761524Y-83335810D01*
X60666286Y-83288190D01*
X60475809Y-83240571D01*
X60380571Y-83192952D01*
X60332952Y-83145333D01*
X60285333Y-83050095D01*
X60285333Y-82954857D01*
X60332952Y-82859619D01*
X60380571Y-82812000D01*
X60475809Y-82764381D01*
X60713905Y-82764381D01*
X60856762Y-82812000D01*
X61285333Y-83240571D02*
X61618667Y-83240571D01*
X61761524Y-83764381D02*
X61285333Y-83764381D01*
X61285333Y-82764381D01*
X61761524Y-82764381D01*
X62047238Y-82764381D02*
X62618667Y-82764381D01*
X62332952Y-83764381D02*
X62332952Y-82764381D01*
X55662381Y-100404524D02*
X56662381Y-99737857D01*
X55662381Y-99737857D02*
X56662381Y-100404524D01*
X56662381Y-98833095D02*
X56662381Y-99404524D01*
X56662381Y-99118810D02*
X55662381Y-99118810D01*
X55805238Y-99214048D01*
X55900476Y-99309286D01*
X55948095Y-99404524D01*
X66587810Y-106116381D02*
X66587810Y-105116381D01*
X67635429Y-106021143D02*
X67587810Y-106068762D01*
X67444953Y-106116381D01*
X67349715Y-106116381D01*
X67206857Y-106068762D01*
X67111619Y-105973524D01*
X67064000Y-105878286D01*
X67016381Y-105687810D01*
X67016381Y-105544952D01*
X67064000Y-105354476D01*
X67111619Y-105259238D01*
X67206857Y-105164000D01*
X67349715Y-105116381D01*
X67444953Y-105116381D01*
X67587810Y-105164000D01*
X67635429Y-105211619D01*
X68587810Y-106116381D02*
X68016381Y-106116381D01*
X68302095Y-106116381D02*
X68302095Y-105116381D01*
X68206857Y-105259238D01*
X68111619Y-105354476D01*
X68016381Y-105402095D01*
X81621334Y-100433143D02*
X81573715Y-100480762D01*
X81430858Y-100528381D01*
X81335620Y-100528381D01*
X81192762Y-100480762D01*
X81097524Y-100385524D01*
X81049905Y-100290286D01*
X81002286Y-100099810D01*
X81002286Y-99956952D01*
X81049905Y-99766476D01*
X81097524Y-99671238D01*
X81192762Y-99576000D01*
X81335620Y-99528381D01*
X81430858Y-99528381D01*
X81573715Y-99576000D01*
X81621334Y-99623619D01*
X82192762Y-99956952D02*
X82097524Y-99909333D01*
X82049905Y-99861714D01*
X82002286Y-99766476D01*
X82002286Y-99718857D01*
X82049905Y-99623619D01*
X82097524Y-99576000D01*
X82192762Y-99528381D01*
X82383239Y-99528381D01*
X82478477Y-99576000D01*
X82526096Y-99623619D01*
X82573715Y-99718857D01*
X82573715Y-99766476D01*
X82526096Y-99861714D01*
X82478477Y-99909333D01*
X82383239Y-99956952D01*
X82192762Y-99956952D01*
X82097524Y-100004571D01*
X82049905Y-100052190D01*
X82002286Y-100147429D01*
X82002286Y-100337905D01*
X82049905Y-100433143D01*
X82097524Y-100480762D01*
X82192762Y-100528381D01*
X82383239Y-100528381D01*
X82478477Y-100480762D01*
X82526096Y-100433143D01*
X82573715Y-100337905D01*
X82573715Y-100147429D01*
X82526096Y-100052190D01*
X82478477Y-100004571D01*
X82383239Y-99956952D01*
X42418095Y-82637381D02*
X42418095Y-83446905D01*
X42465714Y-83542143D01*
X42513333Y-83589762D01*
X42608571Y-83637381D01*
X42799048Y-83637381D01*
X42894286Y-83589762D01*
X42941905Y-83542143D01*
X42989524Y-83446905D01*
X42989524Y-82637381D01*
X43418095Y-82732619D02*
X43465714Y-82685000D01*
X43560952Y-82637381D01*
X43799048Y-82637381D01*
X43894286Y-82685000D01*
X43941905Y-82732619D01*
X43989524Y-82827857D01*
X43989524Y-82923095D01*
X43941905Y-83065952D01*
X43370476Y-83637381D01*
X43989524Y-83637381D01*
%LPC*%
D15*
X88900000Y-85090000D03*
X88900000Y-116840000D03*
X34925000Y-116840000D03*
D16*
X89916000Y-106720000D03*
D17*
X89916000Y-109220000D03*
D18*
X62865000Y-96885000D03*
X62865000Y-94885000D03*
X62865000Y-101330000D03*
X62865000Y-99330000D03*
D19*
X80788000Y-106680000D03*
X82788000Y-106680000D03*
X47895000Y-95250000D03*
X49895000Y-95250000D03*
X47895000Y-99060000D03*
X49895000Y-99060000D03*
X86122000Y-94742000D03*
X88122000Y-94742000D03*
X41545000Y-99060000D03*
X43545000Y-99060000D03*
D20*
X79248000Y-113284000D03*
D21*
X79248000Y-115824000D03*
X76708000Y-113284000D03*
X76708000Y-115824000D03*
X74168000Y-113284000D03*
X74168000Y-115824000D03*
D22*
X98565000Y-98630000D03*
X98565000Y-100330000D03*
X98565000Y-102030000D03*
X103365000Y-102030000D03*
X103365000Y-100330000D03*
X103365000Y-98630000D03*
X107455000Y-98630000D03*
X107455000Y-100330000D03*
X107455000Y-102030000D03*
X112255000Y-102030000D03*
X112255000Y-100330000D03*
X112255000Y-98630000D03*
X116345000Y-98630000D03*
X116345000Y-100330000D03*
X116345000Y-102030000D03*
X121145000Y-102030000D03*
X121145000Y-100330000D03*
X121145000Y-98630000D03*
X125235000Y-98630000D03*
X125235000Y-100330000D03*
X125235000Y-102030000D03*
X130035000Y-102030000D03*
X130035000Y-100330000D03*
X130035000Y-98630000D03*
X134125000Y-98630000D03*
X134125000Y-100330000D03*
X134125000Y-102030000D03*
X138925000Y-102030000D03*
X138925000Y-100330000D03*
X138925000Y-98630000D03*
X143015000Y-98630000D03*
X143015000Y-100330000D03*
X143015000Y-102030000D03*
X147815000Y-102030000D03*
X147815000Y-100330000D03*
X147815000Y-98630000D03*
X151905000Y-98630000D03*
X151905000Y-100330000D03*
X151905000Y-102030000D03*
X156705000Y-102030000D03*
X156705000Y-100330000D03*
X156705000Y-98630000D03*
X160795000Y-98630000D03*
X160795000Y-100330000D03*
X160795000Y-102030000D03*
X165595000Y-102030000D03*
X165595000Y-100330000D03*
X165595000Y-98630000D03*
X169685000Y-98630000D03*
X169685000Y-100330000D03*
X169685000Y-102030000D03*
X174485000Y-102030000D03*
X174485000Y-100330000D03*
X174485000Y-98630000D03*
X178575000Y-98630000D03*
X178575000Y-100330000D03*
X178575000Y-102030000D03*
X183375000Y-102030000D03*
X183375000Y-100330000D03*
X183375000Y-98630000D03*
X187465000Y-98630000D03*
X187465000Y-100330000D03*
X187465000Y-102030000D03*
X192265000Y-102030000D03*
X192265000Y-100330000D03*
X192265000Y-98630000D03*
X196355000Y-98630000D03*
X196355000Y-100330000D03*
X196355000Y-102030000D03*
X201155000Y-102030000D03*
X201155000Y-100330000D03*
X201155000Y-98630000D03*
X205245000Y-98630000D03*
X205245000Y-100330000D03*
X205245000Y-102030000D03*
X210045000Y-102030000D03*
X210045000Y-100330000D03*
X210045000Y-98630000D03*
X214135000Y-98630000D03*
X214135000Y-100330000D03*
X214135000Y-102030000D03*
X218935000Y-102030000D03*
X218935000Y-100330000D03*
X218935000Y-98630000D03*
X223025000Y-98630000D03*
X223025000Y-100330000D03*
X223025000Y-102030000D03*
X227825000Y-102030000D03*
X227825000Y-100330000D03*
X227825000Y-98630000D03*
X231915000Y-98630000D03*
X231915000Y-100330000D03*
X231915000Y-102030000D03*
X236715000Y-102030000D03*
X236715000Y-100330000D03*
X236715000Y-98630000D03*
X240805000Y-98630000D03*
X240805000Y-100330000D03*
X240805000Y-102030000D03*
X245605000Y-102030000D03*
X245605000Y-100330000D03*
X245605000Y-98630000D03*
D23*
X35560000Y-103505000D03*
D24*
X35560000Y-106045000D03*
D23*
X41910000Y-105410000D03*
D24*
X44450000Y-105410000D03*
D25*
X35560000Y-92710000D03*
D26*
X35560000Y-95250000D03*
X35560000Y-97790000D03*
D27*
X82296000Y-85344000D03*
D28*
X79756000Y-85344000D03*
X77216000Y-85344000D03*
X74676000Y-85344000D03*
X72136000Y-85344000D03*
X69596000Y-85344000D03*
D29*
X94422000Y-97028000D03*
X92522000Y-97028000D03*
X94422000Y-100330000D03*
X92522000Y-100330000D03*
X69154000Y-91059000D03*
X71054000Y-91059000D03*
X82738000Y-98044000D03*
X80838000Y-98044000D03*
X41595000Y-94615000D03*
X43495000Y-94615000D03*
D30*
X43688000Y-110998000D03*
X48768000Y-110998000D03*
X43688000Y-118618000D03*
X48768000Y-118618000D03*
X53340000Y-110998000D03*
X58420000Y-110998000D03*
X53340000Y-118618000D03*
X58420000Y-118618000D03*
X62992000Y-110998000D03*
X68072000Y-110998000D03*
X62992000Y-118618000D03*
X68072000Y-118618000D03*
X56769000Y-90424000D03*
X56769000Y-85344000D03*
X64389000Y-90424000D03*
X64389000Y-85344000D03*
D31*
X54610000Y-94996000D03*
X54610000Y-104394000D03*
D32*
X67124000Y-96514000D03*
X67124000Y-97314000D03*
X67124000Y-98114000D03*
X67124000Y-98914000D03*
X67124000Y-99714000D03*
X67124000Y-100514000D03*
X67124000Y-101314000D03*
X67124000Y-102114000D03*
D33*
X68574000Y-103564000D03*
X69374000Y-103564000D03*
X70174000Y-103564000D03*
X70974000Y-103564000D03*
X71774000Y-103564000D03*
X72574000Y-103564000D03*
X73374000Y-103564000D03*
X74174000Y-103564000D03*
D32*
X75624000Y-102114000D03*
X75624000Y-101314000D03*
X75624000Y-100514000D03*
X75624000Y-99714000D03*
X75624000Y-98914000D03*
X75624000Y-98114000D03*
X75624000Y-97314000D03*
X75624000Y-96514000D03*
D33*
X74174000Y-95064000D03*
X73374000Y-95064000D03*
X72574000Y-95064000D03*
X71774000Y-95064000D03*
X70974000Y-95064000D03*
X70174000Y-95064000D03*
X69374000Y-95064000D03*
X68574000Y-95064000D03*
D19*
X80788000Y-101600000D03*
X82788000Y-101600000D03*
D34*
X43180000Y-85725000D03*
D35*
X43180000Y-88265000D03*
X43180000Y-90805000D03*
D15*
X34925000Y-85090000D03*
M02*
