G04 #@! TF.FileFunction,Soldermask,Top*
%FSLAX46Y46*%
G04 Gerber Fmt 4.6, Leading zero omitted, Abs format (unit mm)*
G04 Created by KiCad (PCBNEW 0.201509111501+6183~30~ubuntu14.04.1-product) date Sun 13 Sep 2015 08:24:29 PM CDT*
%MOMM*%
G01*
G04 APERTURE LIST*
%ADD10C,0.100000*%
%ADD11C,0.150000*%
%ADD12C,4.464000*%
%ADD13C,1.700000*%
%ADD14R,1.700000X1.700000*%
%ADD15R,1.650000X1.400000*%
%ADD16R,1.400000X1.650000*%
%ADD17R,2.127200X2.127200*%
%ADD18O,2.127200X2.127200*%
%ADD19O,2.400000X1.500000*%
%ADD20R,2.432000X2.432000*%
%ADD21O,2.432000X2.432000*%
%ADD22R,2.432000X2.127200*%
%ADD23O,2.432000X2.127200*%
%ADD24R,2.127200X2.432000*%
%ADD25O,2.127200X2.432000*%
%ADD26R,1.100000X1.700000*%
%ADD27C,1.797000*%
%ADD28R,2.398980X5.899100*%
%ADD29R,2.000000X0.950000*%
%ADD30R,0.950000X2.000000*%
%ADD31R,3.400000X2.127200*%
%ADD32O,3.400000X2.127200*%
G04 APERTURE END LIST*
D10*
D11*
X97155000Y-105410000D02*
X92075000Y-120650000D01*
X97155000Y-95250000D02*
X92075000Y-81280000D01*
X247650000Y-105410000D02*
X97155000Y-105410000D01*
X247650000Y-95250000D02*
X247650000Y-105410000D01*
X97155000Y-95250000D02*
X247650000Y-95250000D01*
X31115000Y-120650000D02*
X31115000Y-81290000D01*
X92075000Y-120650000D02*
X31115000Y-120650000D01*
X31115000Y-81280000D02*
X92075000Y-81280000D01*
D12*
X88900000Y-85090000D03*
X88900000Y-116840000D03*
X34925000Y-116840000D03*
D13*
X89916000Y-106720000D03*
D14*
X89916000Y-109220000D03*
D15*
X62865000Y-96885000D03*
X62865000Y-94885000D03*
X62865000Y-101330000D03*
X62865000Y-99330000D03*
D16*
X80788000Y-106680000D03*
X82788000Y-106680000D03*
X47895000Y-95250000D03*
X49895000Y-95250000D03*
X47895000Y-99060000D03*
X49895000Y-99060000D03*
X86122000Y-94742000D03*
X88122000Y-94742000D03*
X41545000Y-99060000D03*
X43545000Y-99060000D03*
D17*
X79248000Y-113284000D03*
D18*
X79248000Y-115824000D03*
X76708000Y-113284000D03*
X76708000Y-115824000D03*
X74168000Y-113284000D03*
X74168000Y-115824000D03*
D19*
X98565000Y-98630000D03*
X98565000Y-100330000D03*
X98565000Y-102030000D03*
X103365000Y-102030000D03*
X103365000Y-100330000D03*
X103365000Y-98630000D03*
X107455000Y-98630000D03*
X107455000Y-100330000D03*
X107455000Y-102030000D03*
X112255000Y-102030000D03*
X112255000Y-100330000D03*
X112255000Y-98630000D03*
X116345000Y-98630000D03*
X116345000Y-100330000D03*
X116345000Y-102030000D03*
X121145000Y-102030000D03*
X121145000Y-100330000D03*
X121145000Y-98630000D03*
X125235000Y-98630000D03*
X125235000Y-100330000D03*
X125235000Y-102030000D03*
X130035000Y-102030000D03*
X130035000Y-100330000D03*
X130035000Y-98630000D03*
X134125000Y-98630000D03*
X134125000Y-100330000D03*
X134125000Y-102030000D03*
X138925000Y-102030000D03*
X138925000Y-100330000D03*
X138925000Y-98630000D03*
X143015000Y-98630000D03*
X143015000Y-100330000D03*
X143015000Y-102030000D03*
X147815000Y-102030000D03*
X147815000Y-100330000D03*
X147815000Y-98630000D03*
X151905000Y-98630000D03*
X151905000Y-100330000D03*
X151905000Y-102030000D03*
X156705000Y-102030000D03*
X156705000Y-100330000D03*
X156705000Y-98630000D03*
X160795000Y-98630000D03*
X160795000Y-100330000D03*
X160795000Y-102030000D03*
X165595000Y-102030000D03*
X165595000Y-100330000D03*
X165595000Y-98630000D03*
X169685000Y-98630000D03*
X169685000Y-100330000D03*
X169685000Y-102030000D03*
X174485000Y-102030000D03*
X174485000Y-100330000D03*
X174485000Y-98630000D03*
X178575000Y-98630000D03*
X178575000Y-100330000D03*
X178575000Y-102030000D03*
X183375000Y-102030000D03*
X183375000Y-100330000D03*
X183375000Y-98630000D03*
X187465000Y-98630000D03*
X187465000Y-100330000D03*
X187465000Y-102030000D03*
X192265000Y-102030000D03*
X192265000Y-100330000D03*
X192265000Y-98630000D03*
X196355000Y-98630000D03*
X196355000Y-100330000D03*
X196355000Y-102030000D03*
X201155000Y-102030000D03*
X201155000Y-100330000D03*
X201155000Y-98630000D03*
X205245000Y-98630000D03*
X205245000Y-100330000D03*
X205245000Y-102030000D03*
X210045000Y-102030000D03*
X210045000Y-100330000D03*
X210045000Y-98630000D03*
X214135000Y-98630000D03*
X214135000Y-100330000D03*
X214135000Y-102030000D03*
X218935000Y-102030000D03*
X218935000Y-100330000D03*
X218935000Y-98630000D03*
X223025000Y-98630000D03*
X223025000Y-100330000D03*
X223025000Y-102030000D03*
X227825000Y-102030000D03*
X227825000Y-100330000D03*
X227825000Y-98630000D03*
X231915000Y-98630000D03*
X231915000Y-100330000D03*
X231915000Y-102030000D03*
X236715000Y-102030000D03*
X236715000Y-100330000D03*
X236715000Y-98630000D03*
X240805000Y-98630000D03*
X240805000Y-100330000D03*
X240805000Y-102030000D03*
X245605000Y-102030000D03*
X245605000Y-100330000D03*
X245605000Y-98630000D03*
D20*
X35560000Y-103505000D03*
D21*
X35560000Y-106045000D03*
D20*
X41910000Y-105410000D03*
D21*
X44450000Y-105410000D03*
D22*
X35560000Y-92710000D03*
D23*
X35560000Y-95250000D03*
X35560000Y-97790000D03*
D24*
X82296000Y-85344000D03*
D25*
X79756000Y-85344000D03*
X77216000Y-85344000D03*
X74676000Y-85344000D03*
X72136000Y-85344000D03*
X69596000Y-85344000D03*
D26*
X94422000Y-97028000D03*
X92522000Y-97028000D03*
X94422000Y-100330000D03*
X92522000Y-100330000D03*
X69154000Y-91059000D03*
X71054000Y-91059000D03*
X82738000Y-98044000D03*
X80838000Y-98044000D03*
X41595000Y-94615000D03*
X43495000Y-94615000D03*
D27*
X43688000Y-110998000D03*
X48768000Y-110998000D03*
X43688000Y-118618000D03*
X48768000Y-118618000D03*
X53340000Y-110998000D03*
X58420000Y-110998000D03*
X53340000Y-118618000D03*
X58420000Y-118618000D03*
X62992000Y-110998000D03*
X68072000Y-110998000D03*
X62992000Y-118618000D03*
X68072000Y-118618000D03*
X56769000Y-90424000D03*
X56769000Y-85344000D03*
X64389000Y-90424000D03*
X64389000Y-85344000D03*
D28*
X54610000Y-94996000D03*
X54610000Y-104394000D03*
D29*
X67124000Y-96514000D03*
X67124000Y-97314000D03*
X67124000Y-98114000D03*
X67124000Y-98914000D03*
X67124000Y-99714000D03*
X67124000Y-100514000D03*
X67124000Y-101314000D03*
X67124000Y-102114000D03*
D30*
X68574000Y-103564000D03*
X69374000Y-103564000D03*
X70174000Y-103564000D03*
X70974000Y-103564000D03*
X71774000Y-103564000D03*
X72574000Y-103564000D03*
X73374000Y-103564000D03*
X74174000Y-103564000D03*
D29*
X75624000Y-102114000D03*
X75624000Y-101314000D03*
X75624000Y-100514000D03*
X75624000Y-99714000D03*
X75624000Y-98914000D03*
X75624000Y-98114000D03*
X75624000Y-97314000D03*
X75624000Y-96514000D03*
D30*
X74174000Y-95064000D03*
X73374000Y-95064000D03*
X72574000Y-95064000D03*
X71774000Y-95064000D03*
X70974000Y-95064000D03*
X70174000Y-95064000D03*
X69374000Y-95064000D03*
X68574000Y-95064000D03*
D16*
X80788000Y-101600000D03*
X82788000Y-101600000D03*
D31*
X43180000Y-85725000D03*
D32*
X43180000Y-88265000D03*
X43180000Y-90805000D03*
D12*
X34925000Y-85090000D03*
M02*
